<svg xmlns:mydata="http://www.w3.org/2000/svg" mydata:contrastcolor="ffffff" mydata:template="Contrast" mydata:presentation="2.5" mydata:layouttype="undefined" mydata:specialfontid="undefined" mydata:id1="898" mydata:id2="932" mydata:companyname="Hellorge" style="background-color: #fff" mydata:companytagline="" version="1.1" xmlns="http://www.w3.org/2000/svg" xmlns:xlink="http://www.w3.org/1999/xlink" viewBox="0 0 550 470"><g fill="#222223" fill-rule="nonzero" stroke="none" stroke-width="1" stroke-linecap="butt" stroke-linejoin="miter" stroke-miterlimit="10" stroke-dasharray="" stroke-dashoffset="0" font-family="none" font-weight="none" font-size="none" text-anchor="none" style="mix-blend-mode: normal"><g data-paper-data="{&quot;isGlobalGroup&quot;:true,&quot;bounds&quot;:{&quot;x&quot;:65,&quot;y&quot;:194.32189652843442,&quot;width&quot;:420,&quot;height&quot;:81.35620694313116}}"><g data-paper-data="{&quot;isPrimaryText&quot;:true}"><path d="M118.04606,204.76091v0c2.19371,-3.06362 3.29056,-6.54329 3.29056,-10.43901h3.63096v79.54073v1.81548h-1.81548h-9.92841c-3.21491,0 -5.97596,-1.15359 -8.28313,-3.46076c-2.26935,-2.30717 -3.40403,-5.06822 -3.40403,-8.28313v-33.35945c0.45387,0.68081 0.98339,1.30488 1.58855,1.87221c0.60516,0.64298 1.26705,1.21032 1.98568,1.70201v29.78522c0,2.23153 0.79427,4.14156 2.38282,5.73011c1.58855,1.58855 3.49858,2.38282 5.73011,2.38282h8.11293v-41.30217c-2.26935,2.19371 -4.97366,3.29056 -8.11293,3.29056v0c-3.21491,0 -5.97596,-1.13468 -8.28313,-3.40403c-1.81548,-1.8533 -2.93124,-4.12265 -3.34729,-6.80805c-0.71863,-1.1725 -1.64528,-2.09915 -2.77995,-2.77995c-1.28597,-0.71863 -2.64758,-1.07794 -4.08483,-1.07794c-1.32379,0 -2.57193,0.30258 -3.74443,0.90774c-1.02121,0.49169 -1.89113,1.19141 -2.60975,2.09915c-0.22694,3.0258 -1.36161,5.57882 -3.40403,7.65906c-2.30717,2.26935 -5.06822,3.40403 -8.28313,3.40403c-3.13927,0 -5.84358,-1.09685 -8.11293,-3.29056v41.30217h8.11293c2.26935,0 4.17939,-0.79427 5.73011,-2.38282c1.58855,-1.58855 2.38282,-3.49858 2.38282,-5.73011v-29.78522c0.71863,-0.49169 1.39943,-1.05903 2.04242,-1.70201c0.56734,-0.56734 1.09685,-1.19141 1.58855,-1.87221v33.35945c0,3.21491 -1.15359,5.97596 -3.46076,8.28313c-2.30717,2.30717 -5.06822,3.46076 -8.28313,3.46076h-11.68715v-53.32973v-28.02648h3.57423c0,3.89572 1.11576,7.37539 3.34729,10.43901c2.11806,2.95016 4.89801,5.08713 8.33986,6.41091c1.81548,0.60516 3.38511,1.56963 4.7089,2.89342c1.28597,1.28597 2.23153,2.79887 2.83669,4.5387c0.49169,-0.3404 1.0023,-0.64298 1.53181,-0.90774c1.70201,-0.86992 3.49858,-1.30488 5.38971,-1.30488c2.08024,0 4.0281,0.52952 5.84358,1.58855c0.52952,0.26476 1.02121,0.58625 1.47508,0.96447c0.56734,-1.89113 1.53181,-3.51749 2.89342,-4.8791c1.36161,-1.32379 2.95016,-2.28826 4.76564,-2.89342c3.44185,-1.32379 6.2218,-3.46076 8.33986,-6.41091zM68.57423,206.23599v0v7.71579c1.28597,-1.24814 2.79887,-2.17479 4.5387,-2.77995c-1.55072,-1.24814 -2.93124,-2.6854 -4.14156,-4.31177c-0.03782,-0.11347 -0.09456,-0.22694 -0.1702,-0.3404c-0.07565,-0.07565 -0.15129,-0.1702 -0.22694,-0.28367zM82.41726,228.07848v0c1.58855,-1.58855 2.38282,-3.49858 2.38282,-5.73011c0,-2.23153 -0.79427,-4.14156 -2.38282,-5.73011c-1.55072,-1.58855 -3.46076,-2.38282 -5.73011,-2.38282c-2.23153,0 -4.14156,0.79427 -5.73011,2.38282c-1.58855,1.58855 -2.38282,3.49858 -2.38282,5.73011c0,2.23153 0.79427,4.14156 2.38282,5.73011c1.58855,1.58855 3.49858,2.38282 5.73011,2.38282c2.26935,0 4.17939,-0.79427 5.73011,-2.38282zM118.9538,228.07848v0c1.58855,-1.58855 2.38282,-3.49858 2.38282,-5.73011c0,-2.23153 -0.79427,-4.14156 -2.38282,-5.73011c-1.58855,-1.58855 -3.49858,-2.38282 -5.73011,-2.38282v0c-2.23153,0 -4.14156,0.79427 -5.73011,2.38282c-1.58855,1.58855 -2.38282,3.49858 -2.38282,5.73011c0,2.23153 0.79427,4.14156 2.38282,5.73011c1.58855,1.58855 3.49858,2.38282 5.73011,2.38282v0c2.23153,0 4.14156,-0.79427 5.73011,-2.38282zM121.33662,213.95178v0v-7.71579c-0.03782,0.11347 -0.09456,0.20802 -0.1702,0.28367c-0.07565,0.11347 -0.15129,0.22694 -0.22694,0.3404c-1.1725,1.62637 -2.55302,3.06362 -4.14156,4.31177c1.73984,0.60516 3.25274,1.53181 4.5387,2.77995z" data-paper-data="{&quot;glyphName&quot;:&quot;H&quot;,&quot;glyphIndex&quot;:0,&quot;firstGlyphOfWord&quot;:true,&quot;word&quot;:1}"></path><path d="M155.20667,255.70782v0c-0.98339,-1.39943 -2.17479,-2.59084 -3.57423,-3.57423v-21.78576h3.57423zM131.77563,263.93422v0v-69.49885h41.41564v3.57423h-17.9846v25.92733h12.08429v2.83669h-23.54451c-2.6854,-0.8321 -5.01148,-2.23153 -6.97825,-4.1983c-0.49169,-0.49169 -0.96447,-1.02121 -1.41834,-1.58855v34.55086c2.26935,-2.19371 4.97366,-3.29056 8.11293,-3.29056c3.25274,0 6.01378,1.13468 8.28313,3.40403c1.32379,1.36161 2.28826,2.95016 2.89342,4.76564c1.32379,3.44185 3.47967,6.2218 6.46765,8.33986c3.0258,2.19371 6.50547,3.29056 10.43901,3.29056v3.63096h-28.08321c-3.10145,0 -5.84358,-1.15359 -8.22639,-3.46076c-2.30717,-2.30717 -3.46076,-5.06822 -3.46076,-8.28313zM154.63934,267.50844v0c-0.56734,1.73984 -1.47508,3.25274 -2.72322,4.5387h7.65906c-0.03782,-0.03782 -0.07565,-0.05673 -0.11347,-0.05673c-0.15129,-0.11347 -0.30258,-0.22694 -0.45387,-0.3404c-1.66419,-1.1725 -3.12036,-2.55302 -4.3685,-4.14156zM135.34986,198.00959v0v12.59489c0,3.66878 1.30488,6.80805 3.91463,9.4178c2.64758,2.60975 5.78684,3.91463 9.4178,3.91463h2.95016v-25.92733zM135.34986,263.93422v0v0c0,2.23153 0.79427,4.14156 2.38282,5.73011c1.58855,1.58855 3.49858,2.38282 5.73011,2.38282c2.23153,0 4.14156,-0.79427 5.73011,-2.38282c1.62637,-1.58855 2.43955,-3.49858 2.43955,-5.73011c0,-2.23153 -0.81318,-4.14156 -2.43955,-5.73011c-1.58855,-1.58855 -3.49858,-2.38282 -5.73011,-2.38282c-2.23153,0 -4.14156,0.79427 -5.73011,2.38282c-1.58855,1.58855 -2.38282,3.47967 -2.38282,5.67338z" data-paper-data="{&quot;glyphName&quot;:&quot;E&quot;,&quot;glyphIndex&quot;:1,&quot;word&quot;:1}"></path><path d="M209.27394,268.75659v0c3.06362,2.19371 6.54329,3.29056 10.43901,3.29056h10.89288v3.57423c-16.86884,0 -33.73767,0 -50.60651,0v-11.68715c0,-3.21491 1.14413,-5.9665 3.43239,-8.25476c2.28826,-2.28826 5.03985,-3.43239 8.25476,-3.43239c3.13927,0 5.84358,1.09685 8.11293,3.29056v-49.52857c0,-2.23153 -0.79427,-4.14156 -2.38282,-5.73011c-1.58855,-1.58855 -3.49858,-2.38282 -5.73011,-2.38282h-8.11293v54.23747c-1.39943,0.98339 -2.59084,2.17479 -3.57423,3.57423v-61.38592h11.68715c3.21491,0 5.97596,1.13468 8.28313,3.40403c2.30717,2.30717 3.46076,5.06822 3.46076,8.28313v55.71255c1.36161,2.83669 3.30947,5.18168 5.84358,7.03499zM197.41659,269.66433v0c1.58855,-1.58855 2.38282,-3.49858 2.38282,-5.73011c0,-2.23153 -0.79427,-4.14156 -2.38282,-5.73011c-1.58855,-1.58855 -3.49858,-2.38282 -5.73011,-2.38282c-2.23153,0 -4.14156,0.79427 -5.73011,2.38282c-1.58855,1.58855 -2.38282,3.49858 -2.38282,5.73011c0,2.23153 0.79427,4.14156 2.38282,5.73011c1.58855,1.58855 3.49858,2.38282 5.73011,2.38282c2.23153,0 4.14156,-0.79427 5.73011,-2.38282zM200.08307,272.04714v0h7.71579c-0.18911,-0.11347 -0.37823,-0.24585 -0.56734,-0.39714c-1.66419,-1.1725 -3.12036,-2.55302 -4.3685,-4.14156c-0.60516,1.73984 -1.53181,3.25274 -2.77995,4.5387z" data-paper-data="{&quot;glyphName&quot;:&quot;L&quot;,&quot;glyphIndex&quot;:2,&quot;word&quot;:1}"></path><path d="M266.6885,268.75659v0c3.06362,2.19371 6.54329,3.29056 10.43901,3.29056h10.89288v3.57423c-16.86884,0 -33.73767,0 -50.60651,0v-11.68715c0,-3.21491 1.14413,-5.9665 3.43239,-8.25476c2.28826,-2.28826 5.03985,-3.43239 8.25476,-3.43239c3.13927,0 5.84358,1.09685 8.11293,3.29056v-49.52857c0,-2.23153 -0.79427,-4.14156 -2.38282,-5.73011c-1.58855,-1.58855 -3.49858,-2.38282 -5.73011,-2.38282h-8.11293v54.23747c-1.39943,0.98339 -2.59084,2.17479 -3.57423,3.57423v-61.38592h11.68715c3.21491,0 5.97596,1.13468 8.28313,3.40403c2.30717,2.30717 3.46076,5.06822 3.46076,8.28313v55.71255c1.36161,2.83669 3.30947,5.18168 5.84358,7.03499zM254.83115,269.66433v0c1.58855,-1.58855 2.38282,-3.49858 2.38282,-5.73011c0,-2.23153 -0.79427,-4.14156 -2.38282,-5.73011c-1.58855,-1.58855 -3.49858,-2.38282 -5.73011,-2.38282c-2.23153,0 -4.14156,0.79427 -5.73011,2.38282c-1.58855,1.58855 -2.38282,3.49858 -2.38282,5.73011c0,2.23153 0.79427,4.14156 2.38282,5.73011c1.58855,1.58855 3.49858,2.38282 5.73011,2.38282c2.23153,0 4.14156,-0.79427 5.73011,-2.38282zM257.49764,272.04714v0h7.71579c-0.18911,-0.11347 -0.37823,-0.24585 -0.56734,-0.39714c-1.66419,-1.1725 -3.12036,-2.55302 -4.3685,-4.14156c-0.60516,1.73984 -1.53181,3.25274 -2.77995,4.5387z" data-paper-data="{&quot;glyphName&quot;:&quot;L&quot;,&quot;glyphIndex&quot;:3,&quot;word&quot;:1}"></path><path d="M331.70539,194.3219v0c2.83669,0 5.27624,1.0023 7.31865,3.00689c2.00459,2.00459 3.00689,4.44414 3.00689,7.31865v60.13778c0,2.98798 -1.05903,5.541 -3.17709,7.65906c-2.11806,2.15588 -4.67108,3.23382 -7.65906,3.23382h-28.08321c-3.10145,0 -5.84358,-1.15359 -8.22639,-3.46076c-2.30717,-2.30717 -3.46076,-5.06822 -3.46076,-8.28313v-57.92517c0,-3.21491 1.15359,-5.97596 3.46076,-8.28313c2.26935,-2.26935 5.01148,-3.40403 8.22639,-3.40403c9.53127,0 19.06254,0 28.59381,0zM308.89842,269.66433v0c1.55072,-1.58855 2.32608,-3.49858 2.32608,-5.73011c0,-2.23153 -0.77536,-4.14156 -2.32608,-5.73011c-1.58855,-1.58855 -3.51749,-2.38282 -5.78684,-2.38282c-2.19371,0 -4.08483,0.79427 -5.67338,2.38282c-1.55072,1.5129 -2.36391,3.42294 -2.43955,5.73011c0.03782,2.23153 0.85101,4.14156 2.43955,5.73011c1.58855,1.58855 3.47967,2.38282 5.67338,2.38282c2.26935,0 4.1983,-0.79427 5.78684,-2.38282zM311.56491,272.04714v0h7.65906c-1.89113,-1.24814 -3.5364,-2.76104 -4.93584,-4.5387c-0.56734,1.73984 -1.47508,3.25274 -2.72322,4.5387zM338.45671,264.78522v0v-60.13778c0,-1.8533 -0.66189,-3.44185 -1.98568,-4.76564c-1.32379,-1.32379 -2.91233,-1.98568 -4.76564,-1.98568h-16.84993v57.8117c-0.98339,-1.39943 -2.19371,-2.59084 -3.63096,-3.57423v-54.23747h-8.11293c-2.19371,0 -4.08483,0.79427 -5.67338,2.38282c-1.62637,1.58855 -2.43955,3.49858 -2.43955,5.73011v49.52857c2.26935,-2.19371 4.97366,-3.29056 8.11293,-3.29056c3.25274,0 6.01378,1.13468 8.28313,3.40403c1.32379,1.36161 2.28826,2.95016 2.89342,4.76564c1.36161,3.44185 3.51749,6.2218 6.46765,8.33986c3.06362,2.19371 6.54329,3.29056 10.43901,3.29056c1.96677,0 3.66878,-0.69972 5.10604,-2.09915c1.43726,-1.43726 2.15588,-3.15818 2.15588,-5.16277z" data-paper-data="{&quot;glyphName&quot;:&quot;O&quot;,&quot;glyphIndex&quot;:4,&quot;word&quot;:1}"></path><path d="M384.29758,229.78049v0c-3.06362,3.0258 -6.78914,4.95475 -11.17655,5.78684l18.72214,40.11077h-3.97136l-15.60178,-33.52965v21.78576c0,3.21491 -1.15359,5.97596 -3.46076,8.28313c-2.26935,2.30717 -5.03039,3.46076 -8.28313,3.46076h-11.68715v-42.26665c0.98339,1.21032 2.13697,2.26935 3.46076,3.17709l0.11347,0.11347v35.34513h8.11293c2.23153,0 4.14156,-0.79427 5.73011,-2.38282c1.58855,-1.58855 2.38282,-3.49858 2.38282,-5.73011v-31.37377c-2.23153,2.19371 -4.93584,3.29056 -8.11293,3.29056c-3.21491,0 -5.9665,-1.14413 -8.25476,-3.43239c-2.28826,-2.28826 -3.43239,-5.03985 -3.43239,-8.25476c0,-4.99257 0,-9.96623 0,-14.92098c0,-4.99257 0,-9.96623 0,-14.92098h20.76455c5.7112,0 10.60921,2.0235 14.69404,6.07051c4.04701,4.08483 6.07051,8.98284 6.07051,14.69404c0,5.52209 -2.0235,10.4201 -6.07051,14.69404zM352.41321,208.05147v0c0,2.57193 0,5.12495 0,7.65906c1.32379,-1.24814 2.83669,-2.15588 4.5387,-2.72322c-1.73984,-1.39943 -3.25274,-3.04471 -4.5387,-4.93584zM366.25625,229.89396v0c1.58855,-1.58855 2.38282,-3.49858 2.38282,-5.73011c0,-2.19371 -0.79427,-4.10374 -2.38282,-5.73011c-1.58855,-1.58855 -3.49858,-2.38282 -5.73011,-2.38282c-2.15588,0 -4.06592,0.79427 -5.73011,2.38282c-1.55072,1.58855 -2.345,3.49858 -2.38282,5.73011c0,2.23153 0.79427,4.14156 2.38282,5.73011c1.58855,1.58855 3.49858,2.38282 5.73011,2.38282c2.15588,0 4.06592,-0.79427 5.73011,-2.38282zM368.80927,215.88072v0c2.26935,2.30717 3.42294,5.06822 3.46076,8.28313v7.88599c3.74443,-0.64298 6.90261,-2.25044 9.47454,-4.82237c3.3662,-3.3662 5.0493,-7.41321 5.0493,-12.14102c0,-4.57652 -1.6831,-8.62353 -5.0493,-12.14102c-3.3662,-3.3662 -7.41321,-5.0493 -12.14102,-5.0493h-17.07686c0.3404,3.25274 1.41834,6.14616 3.23382,8.68026c2.11806,2.95016 4.89801,5.08713 8.33986,6.41091c1.81548,0.60516 3.38511,1.56963 4.7089,2.89342z" data-paper-data="{&quot;glyphName&quot;:&quot;R&quot;,&quot;glyphIndex&quot;:5,&quot;word&quot;:1}"></path><path d="M413.85587,253.43847v0c-1.32379,-3.40403 -3.46076,-6.16507 -6.41091,-8.28313c-2.57193,-1.8533 -5.541,-2.95016 -8.9072,-3.29056c1.5129,7.60232 4.91693,14.05106 10.21208,19.34621c6.54329,6.50547 14.67513,10.09861 24.39552,10.77941v-9.53127c1.39943,-0.86992 2.60975,-1.94786 3.63096,-3.23382v16.45279h-1.81548c-5.59773,0 -10.86451,-1.05903 -15.80035,-3.17709c-4.93584,-2.11806 -9.25706,-5.0493 -12.96366,-8.79373c-5.29515,-5.40862 -8.8221,-11.54532 -10.58085,-18.4101c-1.75875,-6.86478 -1.75875,-13.73902 0,-20.62272c1.75875,-6.8837 5.28569,-13.02985 10.58085,-18.43847c3.70661,-3.70661 8.02783,-6.61894 12.96366,-8.737c4.93584,-2.11806 10.20262,-3.17709 15.80035,-3.17709c0,2.87451 0,5.76793 0,8.68026h-3.57423v-4.93584c-4.95475,0.49169 -9.51236,1.8533 -13.67284,4.08483v4.82237c0,4.57652 -1.28597,8.68026 -3.8579,12.31123c-1.55072,2.11806 -3.12036,3.70661 -4.7089,4.76564c-1.58855,1.05903 -3.12036,1.92895 -4.59543,2.60975c-2.15588,0.8321 -3.8579,2.0235 -5.10604,3.57423c-0.86992,1.24814 -1.36161,2.53411 -1.47508,3.8579c-0.11347,1.32379 -0.09456,2.70431 0.05673,4.14156h27.00527c3.25274,0 6.01378,1.15359 8.28313,3.46076c2.30717,2.30717 3.46076,5.06822 3.46076,8.28313c0,3.21491 -1.15359,5.95704 -3.46076,8.22639c-2.26935,2.30717 -5.03039,3.46076 -8.28313,3.46076c-3.21491,0 -5.95704,-1.15359 -8.22639,-3.46076c-1.36161,-1.32379 -2.345,-2.91233 -2.95016,-4.76564zM419.30231,244.19087v0c-1.58855,1.62637 -2.38282,3.55532 -2.38282,5.78684c0,2.19371 0.79427,4.10374 2.38282,5.73011c1.62637,1.58855 3.5364,2.38282 5.73011,2.38282c2.26935,0 4.17939,-0.79427 5.73011,-2.38282c1.58855,-1.62637 2.38282,-3.5364 2.38282,-5.73011c0,-2.23153 -0.79427,-4.16048 -2.38282,-5.78684c-1.55072,-1.55072 -3.46076,-2.32608 -5.73011,-2.32608c-2.19371,0 -4.10374,0.77536 -5.73011,2.32608zM416.63582,241.86478v0h-7.65906v0c0.18911,0.11347 0.37823,0.24585 0.56734,0.39714c1.66419,1.1725 3.12036,2.53411 4.3685,4.08483c0.56734,-1.70201 1.47508,-3.196 2.72322,-4.48197zM408.74983,208.789v0c-4.65217,4.65217 -7.86708,10.23099 -9.64474,16.73646c1.02121,-0.71863 2.11806,-1.26705 3.29056,-1.64528c3.51749,-1.36161 6.35418,-3.57423 8.51006,-6.63785c2.15588,-3.0258 3.23382,-6.44874 3.23382,-10.26881v-2.66649c-1.92895,1.32379 -3.72552,2.81778 -5.38971,4.48197z" data-paper-data="{&quot;glyphName&quot;:&quot;G&quot;,&quot;glyphIndex&quot;:6,&quot;word&quot;:1}"></path><path d="M467.0154,255.70782v0c-0.98339,-1.39943 -2.17479,-2.59084 -3.57423,-3.57423v-21.78576h3.57423zM443.58436,263.93422v0v-69.49885h41.41564v3.57423h-17.9846v25.92733h12.08429v2.83669h-23.54451c-2.6854,-0.8321 -5.01148,-2.23153 -6.97825,-4.1983c-0.49169,-0.49169 -0.96447,-1.02121 -1.41834,-1.58855v34.55086c2.26935,-2.19371 4.97366,-3.29056 8.11293,-3.29056c3.25274,0 6.01378,1.13468 8.28313,3.40403c1.32379,1.36161 2.28826,2.95016 2.89342,4.76564c1.32379,3.44185 3.47967,6.2218 6.46765,8.33986c3.0258,2.19371 6.50547,3.29056 10.43901,3.29056v3.63096h-28.08321c-3.10145,0 -5.84358,-1.15359 -8.22639,-3.46076c-2.30717,-2.30717 -3.46076,-5.06822 -3.46076,-8.28313zM466.44806,267.50844v0c-0.56734,1.73984 -1.47508,3.25274 -2.72322,4.5387h7.65906c-0.03782,-0.03782 -0.07565,-0.05673 -0.11347,-0.05673c-0.15129,-0.11347 -0.30258,-0.22694 -0.45387,-0.3404c-1.66419,-1.1725 -3.12036,-2.55302 -4.3685,-4.14156zM447.15858,198.00959v0v12.59489c0,3.66878 1.30488,6.80805 3.91463,9.4178c2.64758,2.60975 5.78684,3.91463 9.4178,3.91463h2.95016v-25.92733zM447.15858,263.93422v0v0c0,2.23153 0.79427,4.14156 2.38282,5.73011c1.58855,1.58855 3.49858,2.38282 5.73011,2.38282c2.23153,0 4.14156,-0.79427 5.73011,-2.38282c1.62637,-1.58855 2.43955,-3.49858 2.43955,-5.73011c0,-2.23153 -0.81318,-4.14156 -2.43955,-5.73011c-1.58855,-1.58855 -3.49858,-2.38282 -5.73011,-2.38282c-2.23153,0 -4.14156,0.79427 -5.73011,2.38282c-1.58855,1.58855 -2.38282,3.47967 -2.38282,5.67338z" data-paper-data="{&quot;glyphName&quot;:&quot;E&quot;,&quot;glyphIndex&quot;:7,&quot;lastGlyphOfWord&quot;:true,&quot;word&quot;:1}"></path></g></g></g></svg>
