<svg
   style="background-color: #fff"
   viewBox="0 0 550 470">
  <g
     fill="#101820"
     fill-rule="nonzero"
     stroke="none"
     stroke-width="1"
     stroke-linecap="butt"
     stroke-linejoin="miter"
     stroke-miterlimit="10"
     stroke-dasharray=""
     stroke-dashoffset="0"
     font-family="none"
     font-weight="none"
     font-size="none"
     text-anchor="none"
     style="mix-blend-mode:normal;fill:#101820;fill-opacity:1"
     id="g52">
    <g
       data-paper-data="{&quot;isGlobalGroup&quot;:true,&quot;bounds&quot;:{&quot;x&quot;:65,&quot;y&quot;:188.8900840915357,&quot;width&quot;:420,&quot;height&quot;:92.2198318169286}}"
       id="g50"
       style="fill:#101820;fill-opacity:1">
      <g
         data-paper-data="{&quot;isSecondaryText&quot;:true}"
         id="g28"
         style="fill:#101820;fill-opacity:1">
        <path
           d="m 212.61584,263.79491 c -0.65726,3.77428 -1.60339,7.52856 -1.69347,11.37409 0.12488,1.41524 1.6854,0.49448 1.32017,-0.59495 0.40276,-4.91554 1.58725,-9.71317 2.54478,-14.53876 0.60011,-2.96318 1.30307,-5.93217 1.49156,-8.9541 0.12875,-1.69745 -1.90777,-2.48988 -3.06663,-1.3174 -1.94199,1.28488 -3.16655,3.34863 -4.50438,5.19832 -1.2983,1.82127 -2.09624,3.9277 -3.24701,5.83081 -2.6005,0.38263 -5.24069,0.63539 -7.77744,1.34299 -1.05386,-0.01 -2.4489,2.33073 -0.69966,1.93899 1.27654,-1.26726 3.22982,-1.1624 4.87903,-1.47406 1.11523,-0.12974 3.65199,-0.83581 2.40896,1.07245 -1.9961,5.28687 -3.97467,10.5854 -5.69659,15.9691 -0.74543,1.12542 0.93971,2.15923 1.08651,0.60886 2.00846,-6.05787 4.00676,-12.14109 6.67024,-17.94952 2.12078,-0.3096 4.46802,-0.31672 6.34616,0.85549 -0.0124,0.21325 -0.0245,0.42708 -0.0622,0.63769 z M 214.809,252.0514 c -0.34511,3.04918 -0.95812,6.0635 -1.62348,9.05456 -0.63685,0.66444 -2.14844,-0.33518 -3.15889,-0.24198 -0.84478,-0.27444 -2.45187,0.17606 -2.77901,-0.4988 1.24414,-2.86715 2.98987,-5.53705 5.02867,-7.90888 0.69678,-0.57696 1.72257,-2.05196 2.46675,-1.71848 0.15406,0.4221 0.13552,0.87721 0.066,1.31358 z"
           data-paper-data="{&quot;glyphName&quot;:&quot;A&quot;,&quot;glyphIndex&quot;:0,&quot;firstGlyphOfWord&quot;:true,&quot;word&quot;:1}"
           id="path2"
           style="fill:#101820;fill-opacity:1" />
        <path
           d="M224.48379,260.6996c-0.76216,0.31109 -1.24435,0.48218 -1.81986,-0.43552c-0.09333,-0.1711 -0.09333,-0.48218 -0.21776,-0.69994c-0.23331,-0.38886 -0.73105,-0.41997 -1.07325,-0.12443c-0.7155,0.62217 -1.36878,1.30656 -1.9754,2.02206c0.3422,-0.83993 0.69994,-1.67987 1.13547,-2.47314c0.41997,-0.77772 -0.74661,-1.46211 -1.18213,-0.69994c-1.27545,2.3487 -2.08428,4.8685 -2.78422,7.43497c-0.20221,0.73105 0.8866,1.24435 1.24435,0.52885c0.93326,-1.86652 2.1465,-3.49972 3.59305,-4.94627c0.13999,0.32664 0.41997,0.62217 0.73105,0.80882c0.87104,0.5444 1.83541,0.26442 2.72201,-0.09333c0.79327,-0.32664 0.45108,-1.64876 -0.3733,-1.32212z"
           data-paper-data="{&quot;glyphName&quot;:&quot;r&quot;,&quot;glyphIndex&quot;:1,&quot;word&quot;:1}"
           id="path4"
           style="fill:#101820;fill-opacity:1" />
        <path
           d="m 232.52537,262.31725 c -1.42227,1.10565 -3.09488,1.81288 -4.74407,2.50425 -0.41971,-1.01357 -0.61815,-2.18405 -0.29299,-3.25226 0.14597,-0.53724 0.8676,-1.24273 1.40999,-0.88252 0.115,0.51431 -0.21161,1.00521 -0.41383,1.46081 -0.15186,0.45392 -0.67523,0.81939 -0.55637,1.3346 0.16255,0.5268 0.98279,0.67292 1.26865,0.17279 0.58743,-0.94429 1.15973,-1.99885 1.12638,-3.14262 -0.008,-0.73307 -0.64625,-1.29789 -1.34143,-1.39733 -1.06102,-0.18292 -1.99007,0.62983 -2.48549,1.49121 -0.46875,0.81676 -0.61534,1.79074 -0.58762,2.72107 0.032,0.71612 0.34091,1.37199 0.67503,1.99199 -1.22604,0.48438 -2.57811,1.13756 -3.10119,2.43732 -0.36378,0.8153 -0.29898,1.95356 0.51256,2.47817 1.13878,0.70479 2.68547,0.28734 3.55307,-0.66276 0.85435,-0.86871 1.21662,-2.21848 0.77142,-3.37379 -0.0357,-0.38827 0.79794,-0.33746 1.09617,-0.59681 1.47947,-0.64208 2.94017,-1.38994 4.18356,-2.42627 0.40219,-0.4932 -0.27032,-1.17623 -0.80784,-0.99503 -0.0971,0.0263 -0.18755,0.0746 -0.266,0.13718 z m -5.42845,4.57297 c 0.0997,0.85195 -0.24206,1.76724 -0.99547,2.22427 -0.51394,0.35945 -1.39508,0.20006 -1.55902,-0.46271 -0.10586,-0.6518 0.45373,-1.18848 0.96726,-1.49403 0.48494,-0.27885 1.01838,-0.46189 1.54058,-0.65638 0.0312,0.12707 0.0463,0.25815 0.0466,0.38885 z"
           data-paper-data="{&quot;glyphName&quot;:&quot;s&quot;,&quot;glyphIndex&quot;:2,&quot;word&quot;:1}"
           id="path6"
           style="fill:#101820;fill-opacity:1" />
        <path
           d="m 238.87154,262.44168 c -0.73443,0.85755 -1.62479,1.57395 -2.56027,2.20084 -0.65849,0.43062 -1.49248,0.75125 -2.27913,0.519 -0.44067,-0.12629 -0.67717,-0.60323 -0.62606,-1.03966 -0.0357,-0.4165 0.39978,0.12712 0.6458,0.0714 0.94195,0.1627 1.8341,-0.41188 2.43477,-1.09132 0.49355,-0.58017 0.92961,-1.37024 0.71071,-2.15227 -0.24661,-0.85649 -1.25046,-1.30642 -2.081,-1.07508 -0.97348,0.2614 -1.67308,1.0657 -2.21246,1.8732 -0.56341,0.89357 -1.00875,1.96132 -0.83536,3.03667 0.17105,1.08149 1.261,1.8511 2.32862,1.80408 1.25201,-0.0408 2.38992,-0.67995 3.39396,-1.37875 0.80603,-0.58591 1.56986,-1.24865 2.18311,-2.03791 0.3382,-0.47838 -0.24344,-1.12117 -0.76338,-0.96272 -0.13557,0.0359 -0.25362,0.12282 -0.33931,0.23247 z m -4.80629,0.27998 c -0.31195,-0.30019 0.2275,-0.66791 0.41253,-0.90493 0.29947,-0.2717 0.61492,-0.60806 1.03788,-0.65291 0.42476,0.0716 0.19113,0.59524 0.0623,0.83827 -0.20449,0.39484 -0.50838,0.80709 -0.95648,0.92951 -0.20852,0.034 -0.39827,-0.0903 -0.55625,-0.20994 z"
           data-paper-data="{&quot;glyphName&quot;:&quot;e&quot;,&quot;glyphIndex&quot;:3,&quot;word&quot;:1}"
           id="path8"
           style="fill:#101820;fill-opacity:1" />
        <path
           d="m 248.60854,262.72166 c -1.17608,0.88203 -2.43993,1.66661 -3.78545,2.2558 -0.45248,-0.33808 -0.27208,-1.10109 -0.21783,-1.60637 0.22104,-1.19358 0.80017,-2.29801 0.92352,-3.51139 0.0452,-0.58914 -0.79022,-0.93097 -1.17731,-0.48148 -1.08223,0.80076 -2.16364,1.61517 -3.12983,2.55481 -0.4392,0.48816 -0.8596,0.9931 -1.30797,1.47306 0.56434,-1.3732 1.28526,-2.67448 1.89562,-4.02622 0.23675,-0.57465 -0.53025,-1.25639 -1.04305,-0.85537 -0.36827,0.49974 -0.54682,1.1251 -0.85758,1.66543 -0.78476,1.5928 -1.62846,3.1907 -1.99911,4.94169 -0.0955,0.57427 0.54301,0.99075 1.04796,0.72258 0.97494,-0.3108 1.44508,-1.303 2.1651,-1.95039 0.8429,-0.84304 1.7506,-1.61829 2.67965,-2.36424 -0.29811,1.26905 -0.69326,2.56678 -0.5448,3.88371 0.0537,0.56081 0.44267,1.15836 1.05837,1.16523 0.99848,0.009 1.88346,-0.55008 2.71179,-1.04677 0.83141,-0.53306 1.62728,-1.12373 2.39622,-1.74141 0.43646,-0.42813 0.0126,-1.36255 -0.61601,-1.18024 -0.0716,0.0222 -0.13856,0.058 -0.19929,0.10157 z"
           data-paper-data="{&quot;glyphName&quot;:&quot;n&quot;,&quot;glyphIndex&quot;:4,&quot;word&quot;:1}"
           id="path10"
           style="fill:#101820;fill-opacity:1" />
        <path
           d="m 258.5322,262.08393 c -0.78501,1.22757 -1.91663,2.2071 -3.17441,2.92653 -0.52659,0.42105 -0.86568,-0.18276 -0.65561,-0.66849 0.30198,-1.4306 0.93535,-2.76042 1.47587,-4.11039 0.0861,-0.62228 -0.65568,-0.89795 -1.1248,-1.07527 -0.82122,-0.32823 -1.74953,-0.25713 -2.54767,0.0995 -1.4194,0.64156 -2.63608,1.70548 -3.54297,2.96483 -0.55748,0.80489 -1.0765,1.85505 -0.68929,2.83926 0.25563,0.70417 1.03477,1.07032 1.75176,0.98546 1.19904,-0.0987 2.26796,-0.75286 3.14479,-1.54089 0.21858,-0.18599 -0.0596,0.46588 0.012,0.64445 -0.0358,0.6086 0.31371,1.2711 0.94847,1.39906 0.93541,0.20672 1.81741,-0.34543 2.5812,-0.8152 1.23252,-0.78465 2.31546,-1.83387 3.07429,-3.08514 0.27588,-0.72161 -0.87532,-1.20668 -1.25361,-0.56375 z m -8.18157,2.55091 c -0.57833,0.0834 -0.90235,-0.54229 -0.58329,-1.00626 0.60639,-1.20179 1.61601,-2.17476 2.7577,-2.87173 0.57398,-0.32826 1.30298,-0.65066 1.94748,-0.32168 -0.40089,1.35549 -1.49773,2.31755 -2.44592,3.30009 -0.4651,0.42487 -1.00928,0.89993 -1.67597,0.89958 z"
           data-paper-data="{&quot;glyphName&quot;:&quot;a&quot;,&quot;glyphIndex&quot;:5,&quot;word&quot;:1}"
           id="path12"
           style="fill:#101820;fill-opacity:1" />
        <path
           d="m 260.64639,264.85931 c -0.46501,0.21969 -1.33399,0.18522 -1.22176,-0.53166 0.10554,-0.91563 0.55616,-1.74277 0.8596,-2.60242 1.00665,-2.46728 2.44384,-4.72208 3.8243,-6.99049 0.32104,-0.58426 -0.5125,-1.19874 -1.01721,-0.83019 -0.4657,0.48975 -0.72724,1.14883 -1.10825,1.70712 -1.3728,2.28731 -2.66893,4.64154 -3.58114,7.15471 -0.34855,1.04831 -0.56525,2.30305 0.0628,3.29145 0.42672,0.63377 1.30086,0.61758 1.95045,0.39899 1.65928,-0.55748 3.05107,-1.67753 4.39223,-2.76739 0.61703,-0.53035 1.2436,-1.05685 1.80544,-1.64519 0.40464,-0.55129 -0.39201,-1.32322 -0.94271,-0.94271 -1.49873,1.62077 -3.26794,3.1383 -5.02375,3.75778 z"
           data-paper-data="{&quot;glyphName&quot;:&quot;l&quot;,&quot;glyphIndex&quot;:6,&quot;lastGlyphOfWord&quot;:true,&quot;word&quot;:1}"
           id="path14"
           style="fill:#101820;fill-opacity:1"
           sodipodi:nodetypes="ccccccccccccc" />
        <path
           d="m 291.58514,256.54659 c 1.15117,0.088 1.25915,-1.53314 0.0486,-1.33716 -1.58505,0.54304 -1.30513,-2.19481 -2.7903,-1.79284 -1.38728,0.60085 0.088,1.82237 0.3062,2.6822 -0.0382,2.92196 -1.19197,5.67917 -2.39995,8.29503 -1.53017,3.12049 -3.52734,6.04026 -5.99172,8.4967 -0.95187,0.89334 -2.0724,1.86547 -3.44148,1.91771 -1.2469,-0.13269 -1.91556,-1.48185 -1.83786,-2.62948 -0.0564,-4.05772 1.70545,-7.8945 3.80205,-11.27736 1.56796,-2.50566 3.33646,-4.89339 5.2819,-7.11796 1.20831,-1.19436 2.44743,-2.53546 4.14674,-2.98405 1.19734,-0.35819 1.35129,2.35947 2.4024,0.94731 0.40497,-1.2763 -1.06024,-2.26389 -2.19707,-2.25532 -1.93953,0.008 -3.44678,1.4913 -4.75836,2.7439 -2.38879,2.58466 -4.48676,5.44027 -6.34303,8.42819 -1.35267,2.36062 -2.54029,4.84505 -3.29577,7.46385 -0.38072,1.77741 -0.70653,3.66446 -0.27637,5.4613 0.39189,1.71576 2.23613,2.94817 3.96731,2.47872 1.80876,-0.33916 3.05339,-1.81199 4.33427,-3.00591 2.95245,-3.26599 5.26364,-7.11244 6.81818,-11.23018 0.6025,-1.56685 0.91332,-3.22578 1.14132,-4.87822 0.0334,-0.56831 0.72401,-0.22202 1.08293,-0.40643 z"
           data-paper-data="{&quot;glyphName&quot;:&quot;O&quot;,&quot;glyphIndex&quot;:7,&quot;firstGlyphOfWord&quot;:true,&quot;word&quot;:2}"
           id="path16"
           style="fill:#101820;fill-opacity:1" />
        <path
           d="m 299.76671,266.59469 c 2.64775,-1.11186 5.31685,-2.17774 7.94458,-3.33433 1.11561,-0.51875 0.0741,-1.9296 -0.85181,-1.25419 -2.77563,1.30992 -5.65898,2.37225 -8.49635,3.53894 -0.54778,0.36472 -1.84771,0.6914 -1.18269,-0.34341 1.24617,-3.03415 2.40824,-6.10744 3.87727,-9.04396 0.69983,-0.90729 -0.67807,-1.94607 -1.19574,-0.81535 -1.20342,1.99598 -1.88926,4.24077 -2.80611,6.37154 -0.82349,2.12295 -1.74773,4.21058 -2.47117,6.37012 -0.43118,1.5956 -0.67236,3.3369 -0.19746,4.94876 0.30124,0.99982 1.34603,1.90273 2.43121,1.51139 1.25955,-0.49374 1.78475,-1.91375 1.89657,-3.16721 0.19652,-1.39952 -0.23232,-2.76894 -0.61258,-4.09788 0.55423,-0.22935 1.1064,-0.46426 1.66428,-0.68442 z m -2.78422,5.70843 c -0.37194,1.20331 -1.59924,0.29755 -1.33413,-0.62804 -0.12962,-1.39631 0.19703,-2.794 0.71196,-4.08494 0.92853,1.37309 1.16998,3.1466 0.62217,4.71298 z"
           data-paper-data="{&quot;glyphName&quot;:&quot;f&quot;,&quot;glyphIndex&quot;:8,&quot;lastGlyphOfWord&quot;:true,&quot;word&quot;:2}"
           id="path18"
           style="fill:#101820;fill-opacity:1" />
        <path
           d="m 321.18501,262.42613 c 1.01144,-3.02885 2.06861,-6.04203 3.24396,-9.01116 0.32504,-0.8465 1.02683,-2.94916 -0.60482,-2.65386 -0.86318,0.63316 -0.37789,2.09899 -1.02319,3.00101 -1.16982,3.28382 -2.25758,6.5987 -3.48247,9.86168 -1.21314,0.49164 -2.73359,0.62137 -3.54444,1.76541 -0.57845,1.27522 0.1204,2.65464 0.1954,3.96499 0.36242,2.55627 0.0245,5.13146 -0.39616,7.65607 -0.46311,0.80127 0.54334,2.36386 1.08543,1.09459 0.67362,-2.14441 1.05792,-4.37157 1.7205,-6.52206 0.65539,-2.26117 1.32107,-4.52948 2.09493,-6.74844 1.49317,-0.35536 3.04785,-0.49776 4.56379,-0.78024 0.68455,-0.13366 1.6891,-0.39066 1.15443,0.61599 -0.5832,2.06551 -1.39858,4.06929 -1.8763,6.16167 -0.43272,0.6668 0.13082,2.44789 0.94415,1.44023 0.45452,-1.29257 0.54282,-2.68823 1.09939,-3.95356 0.52306,-1.43098 0.97836,-2.89489 1.58569,-4.29023 0.61239,-0.69833 1.75745,-0.0808 2.55989,0.0146 1.48788,-0.0496 0.31686,-1.77056 -0.69095,-1.60649 -0.55776,-0.21157 -1.66668,0.19333 -1.07765,-0.70757 0.91034,-2.90433 2.18991,-5.68602 3.08324,-8.59525 0.68354,-1.25818 -1.27145,-1.5928 -1.33335,-0.27333 -1.16223,3.20202 -2.29794,6.41362 -3.46862,9.61258 -2.01972,0.29671 -4.04448,0.55739 -6.06619,0.83993 0.0889,-0.29261 0.13733,-0.59626 0.23334,-0.88656 z m -3.32862,6.59503 c -0.20847,0.59873 -0.45007,2.11113 -0.64193,2.08361 -0.21332,-1.49793 -0.41404,-3.01857 -0.37423,-4.52968 0.1416,-0.80642 1.69409,-1.43824 2.04068,-1.15271 -0.38952,1.18552 -0.7053,2.39298 -1.02452,3.59878 z"
           data-paper-data="{&quot;glyphName&quot;:&quot;H&quot;,&quot;glyphIndex&quot;:9,&quot;firstGlyphOfWord&quot;:true,&quot;word&quot;:3}"
           id="path20"
           style="fill:#101820;fill-opacity:1" />
        <path
           d="m 339.24358,262.44168 c -0.73443,0.85755 -1.62479,1.57395 -2.56027,2.20084 -0.65849,0.43062 -1.49248,0.75125 -2.27913,0.519 -0.44067,-0.12629 -0.67717,-0.60323 -0.62606,-1.03966 -0.0357,-0.4165 0.39978,0.12712 0.6458,0.0714 0.94195,0.1627 1.8341,-0.41188 2.43477,-1.09132 0.49355,-0.58017 0.92961,-1.37024 0.71071,-2.15227 -0.24661,-0.85649 -1.25046,-1.30642 -2.081,-1.07508 -0.97348,0.2614 -1.67308,1.0657 -2.21246,1.8732 -0.56341,0.89357 -1.00875,1.96132 -0.83536,3.03667 0.17105,1.08149 1.261,1.8511 2.32862,1.80408 1.25201,-0.0408 2.38992,-0.67995 3.39396,-1.37875 0.80603,-0.58591 1.56986,-1.24865 2.18311,-2.03791 0.3382,-0.47838 -0.24344,-1.12117 -0.76338,-0.96272 -0.13557,0.0359 -0.25362,0.12282 -0.33931,0.23247 z m -4.80628,0.27998 c -0.31195,-0.30019 0.2275,-0.66791 0.41253,-0.90493 0.29947,-0.2717 0.61492,-0.60806 1.03788,-0.65291 0.42476,0.0716 0.19113,0.59524 0.0623,0.83827 -0.20449,0.39484 -0.50838,0.80709 -0.95648,0.92951 -0.20852,0.034 -0.39827,-0.0903 -0.55625,-0.20994 z"
           data-paper-data="{&quot;glyphName&quot;:&quot;e&quot;,&quot;glyphIndex&quot;:10,&quot;word&quot;:3}"
           id="path22"
           style="fill:#101820;fill-opacity:1" />
        <path
           d="m 346.24303,261.19734 c -1.4672,1.40924 -2.91558,3.00277 -4.90081,3.66197 -0.46501,0.21969 -1.33399,0.18522 -1.22176,-0.53166 0.10554,-0.91563 0.55616,-1.74277 0.8596,-2.60242 1.00665,-2.46728 2.44384,-4.72208 3.8243,-6.99049 0.32104,-0.58426 -0.5125,-1.19874 -1.01721,-0.83019 -0.4657,0.48975 -0.72724,1.14883 -1.10825,1.70712 -1.3728,2.28731 -2.66893,4.64154 -3.58114,7.15471 -0.34855,1.04831 -0.56525,2.30305 0.0628,3.29145 0.42672,0.63377 1.30086,0.61758 1.95045,0.39899 1.65928,-0.55748 3.05107,-1.67753 4.39223,-2.76739 0.61703,-0.53035 1.2436,-1.05685 1.80544,-1.64519 0.40464,-0.55129 -0.39201,-1.32322 -0.94271,-0.94271 l -0.0622,0.0435 -0.0607,0.0523 z"
           data-paper-data="{&quot;glyphName&quot;:&quot;l&quot;,&quot;glyphIndex&quot;:11,&quot;word&quot;:3}"
           id="path24"
           style="fill:#101820;fill-opacity:1" />
        <path
           d="m 352.74473,261.19734 c -1.4672,1.40924 -2.91558,3.00277 -4.90081,3.66197 -0.46501,0.21969 -1.33399,0.18522 -1.22176,-0.53166 0.10554,-0.91563 0.55616,-1.74277 0.8596,-2.60242 1.00665,-2.46728 2.44384,-4.72208 3.8243,-6.99049 0.32104,-0.58426 -0.5125,-1.19874 -1.01721,-0.83019 -0.4657,0.48975 -0.72724,1.14883 -1.10825,1.70712 -1.3728,2.28731 -2.66893,4.64154 -3.58113,7.15471 -0.34856,1.04831 -0.56526,2.30305 0.0628,3.29145 0.42672,0.63377 1.30086,0.61758 1.95045,0.39899 1.65928,-0.55748 3.05107,-1.67753 4.39223,-2.76739 0.61703,-0.53035 1.2436,-1.05685 1.80544,-1.64519 0.40464,-0.55129 -0.39201,-1.32322 -0.94271,-0.94271 l -0.0622,0.0435 -0.0607,0.0523 z"
           data-paper-data="{&quot;glyphName&quot;:&quot;l&quot;,&quot;glyphIndex&quot;:12,&quot;lastGlyphOfWord&quot;:true,&quot;word&quot;:3}"
           id="path26"
           style="fill:#101820;fill-opacity:1" />
      </g>
      <g
         data-paper-data="{&quot;isPrimaryText&quot;:true}"
         id="g48"
         style="fill:#101820;fill-opacity:1">
        <path
           d="M65,236.78859l12.82991,-47.89834h11.97458l-12.82991,47.89834zM112.89834,236.78859h-11.97458l4.82405,-17.96188h-17.96188l3.18182,-11.97458h17.96188l4.82405,-17.96188h11.97458z"
           data-paper-data="{&quot;glyphName&quot;:&quot;H&quot;,&quot;glyphIndex&quot;:0,&quot;firstGlyphOfWord&quot;:true,&quot;word&quot;:1}"
           id="path30"
           style="fill:#101820;fill-opacity:1" />
        <path
           d="M137.90811,200.86484l-6.39785,23.94917h29.93646l-3.21603,11.97458h-41.91105l12.82991,-47.89834h41.91105l-3.21603,11.97458zM166.23656,206.85213l-3.18182,11.97458h-23.94917l3.18182,-11.97458z"
           data-paper-data="{&quot;glyphName&quot;:&quot;E&quot;,&quot;glyphIndex&quot;:1,&quot;word&quot;:1}"
           id="path32"
           style="fill:#101820;fill-opacity:1" />
        <path
           d="M161.652,236.78859l12.82991,-47.89834h11.97458l-9.61388,35.92375h29.93646l-3.21603,11.97458z"
           data-paper-data="{&quot;glyphName&quot;:&quot;L&quot;,&quot;glyphIndex&quot;:2,&quot;word&quot;:1}"
           id="path34"
           style="fill:#101820;fill-opacity:1" />
        <path
           d="M206.98436,236.78859l12.82991,-47.89834h11.97458l-9.61388,35.92375h29.93646l-3.21603,11.97458z"
           data-paper-data="{&quot;glyphName&quot;:&quot;L&quot;,&quot;glyphIndex&quot;:3,&quot;word&quot;:1}"
           id="path36"
           style="fill:#101820;fill-opacity:1" />
        <path
           d="M354.99022,212.83942c1.66504,0 3.23314,-0.58162 4.7043,-1.74487c1.47116,-1.16325 2.42343,-2.57739 2.85679,-4.24242c0.15966,-0.57022 0.23949,-1.11763 0.23949,-1.64223c0,-0.98078 -0.2737,-1.84751 -0.82111,-2.6002c-0.86673,-1.16325 -2.13262,-1.74487 -3.79765,-1.74487h-23.94917l-9.61388,35.92375h-11.97458l12.82991,-47.89834h35.92375c4.9723,0 8.74715,1.74487 11.32454,5.2346c1.66504,2.30368 2.49756,4.92669 2.49756,7.86901c0,1.52819 -0.22809,3.14761 -0.68426,4.85826c-1.32291,4.9723 -4.19681,9.20332 -8.6217,12.69306c-1.61942,1.27729 -3.27305,2.32649 -4.9609,3.14761l8.58749,14.0958h-14.98534l-7.25318,-11.97458h-13.47996l3.21603,-11.97458z"
           data-paper-data="{&quot;glyphName&quot;:&quot;R&quot;,&quot;glyphIndex&quot;:5,&quot;word&quot;:1}"
           id="path38"
           style="fill:#101820;fill-opacity:1" />
        <path
           d="M396.90127,236.78859c-6.61453,0 -11.63245,-2.3379 -15.05376,-7.01369c-2.25806,-3.07918 -3.3871,-6.58032 -3.3871,-10.50342c0,-2.02998 0.30792,-4.174 0.92375,-6.43206c1.75627,-6.61453 5.59954,-12.25969 11.52981,-16.93548c5.93027,-4.67579 12.20267,-7.01369 18.8172,-7.01369h23.94917l-3.21603,11.97458h-23.94917c-3.30727,0 -6.44347,1.16895 -9.4086,3.50684c-2.96514,2.3379 -4.88107,5.16048 -5.7478,8.46774c-0.29651,1.14044 -0.44477,2.21245 -0.44477,3.21603c0,1.96155 0.55881,3.70642 1.67644,5.2346c1.71065,2.3493 4.21962,3.52395 7.52688,3.52395h17.96188l1.60802,-5.98729h-17.96188l3.18182,-11.97458h29.93646l-8.00587,29.93646z"
           data-paper-data="{&quot;glyphName&quot;:&quot;G&quot;,&quot;glyphIndex&quot;:6,&quot;word&quot;:1}"
           id="path40"
           style="fill:#101820;fill-opacity:1" />
        <path
           d="M451.84751,200.86484l-6.39785,23.94917h29.93646l-3.21603,11.97458h-41.91105l12.82991,-47.89834h41.91105l-3.21603,11.97458zM480.17595,206.85213l-3.18182,11.97458h-23.94917l3.18182,-11.97458z"
           data-paper-data="{&quot;glyphName&quot;:&quot;E&quot;,&quot;glyphIndex&quot;:7,&quot;lastGlyphOfWord&quot;:true,&quot;word&quot;:1}"
           id="path42"
           style="fill:#101820;fill-opacity:1" />
        <g
           data-paper-data="{&quot;fillRule&quot;:&quot;nonzero&quot;,&quot;isIcon&quot;:&quot;true&quot;,&quot;iconType&quot;:&quot;icon&quot;,&quot;rawIconId&quot;:&quot;149209&quot;,&quot;selectedEffects&quot;:{&quot;container&quot;:&quot;circle_simple_filledplus&quot;,&quot;transformation&quot;:&quot;&quot;,&quot;pattern&quot;:&quot;&quot;},&quot;isDetailed&quot;:&quot;false&quot;,&quot;blockLetter&quot;:&quot;O&quot;,&quot;blockLetterId&quot;:&quot;0&quot;,&quot;relativeBoundsIconToContainer&quot;:{&quot;top&quot;:&quot;-0.01780655140945671&quot;,&quot;left&quot;:&quot;-0.000006688951847272016&quot;},&quot;widthRatioIconToContainer&quot;:&quot;0.3696127730961305&quot;,&quot;heightRatioIconToContainer&quot;:&quot;0.7556336985554343&quot;,&quot;bounds&quot;:{&quot;x&quot;:257.825,&quot;y&quot;:188.8900840915357,&quot;width&quot;:58.710000000000036,&quot;height&quot;:47.899},&quot;iconStyle&quot;:&quot;icon-in-text&quot;,&quot;suitableAsStandaloneIcon&quot;:true}"
           id="g46"
           style="fill:#101820;fill-opacity:1">
          <path
             d="m 276.266,236.78908 c -7.69043,0.43158 -15.5967,-4.57403 -17.65195,-12.16004 -2.26901,-7.98868 0.80269,-16.60499 5.79223,-22.92113 6.0117,-7.5299 15.24663,-12.90634 25.04961,-12.82871 4.14338,0.004 8.31077,-0.10372 12.43712,0.27645 6.82355,0.89873 12.70096,6.28182 14.14334,13.0181 1.90193,8.50981 -1.93918,17.31886 -7.58901,23.58307 -6.05012,6.57727 -14.68146,11.22549 -23.77539,11.04447 -2.802,0.0498 -5.60397,-0.073 -8.40595,-0.0122 z m 10.91399,-5.486 c 9.92526,0.29471 18.91624,-8.82861 18.499,-18.7516 -0.0584,-9.02566 -7.53449,-17.41153 -16.60983,-18.11198 -8.50404,-0.90516 -17.30348,4.7244 -19.59481,13.05505 -2.43274,7.99455 1.1519,17.48468 8.63156,21.4271 2.75426,1.55105 5.9096,2.40129 9.07408,2.38143 z m 20.77798,-18.26167 c 0.34912,-10.32783 -8.23164,-20.01332 -18.53944,-20.88385 -8.77394,-1.00866 -17.89136,4.15127 -21.29744,12.35118 -3.45947,7.77243 -1.58096,17.56261 4.68926,23.36568 6.27184,6.13006 16.52607,7.55138 24.20769,3.29243 6.54234,-3.49107 10.97677,-10.68195 10.93993,-18.12544 z M 306.984,212.8373 c 0.24914,9.98243 -8.26023,19.22198 -18.24118,19.76936 -8.56543,0.74004 -17.27569,-4.68296 -20.13861,-12.84104 -2.90565,-7.63068 -0.54323,-16.91927 5.81631,-22.09494 6.40822,-5.52048 16.4038,-6.19173 23.4659,-1.51321 5.57009,3.56257 9.18259,10.04678 9.09758,16.67983 z"
             data-paper-data="{&quot;isPathIcon&quot;:true}"
             id="path44"
             style="fill:#101820;fill-opacity:1" />
        </g>
      </g>
    </g>
  </g>
  <path
     d="m 290.20603,199.54024 c -0.74241,-1.31 -1.70674,-2.05197 -2.72128,-2.05197 -1.02598,0 -1.99076,0.74197 -2.72039,2.05197 -0.73008,1.28578 -1.19948,3.07839 -1.22457,5.08104 1.24923,-0.30912 2.57244,-0.46984 3.94497,-0.46984 1.37341,0 2.69618,0.16072 3.93308,0.46984 -0.0119,-2.00265 -0.48217,-3.79526 -1.21181,-5.08104 z m 1.21181,5.81024 c -1.2369,-0.32145 -2.56011,-0.50683 -3.93308,-0.50683 -1.38486,0 -2.70807,0.18582 -3.94497,0.50727 v 9.91417 c 1.24923,-0.30912 2.57244,-0.48261 3.94497,-0.48261 1.37341,0 2.69618,0.17349 3.93308,0.48261 z m 0,10.6438 c -1.2369,-0.32145 -2.56011,-0.50683 -3.93308,-0.50683 -1.38486,0 -2.70807,0.17349 -3.94497,0.50683 v 1.66887 c 0,2.05197 0.48217,3.90666 1.22457,5.21666 0.72965,1.31088 1.69441,2.04008 2.7204,2.04008 1.01454,0 1.97887,-0.7292 2.72128,-2.04008 0.74197,-1.31 1.2118,-3.1647 1.2118,-5.21666 z m -7.2717,7.21975 c -0.51961,-0.92735 -0.91546,-2.07707 -1.12595,-3.36241 l -2.2259,1.33466 c -0.19771,0.12417 -0.34611,0.37076 -0.34611,0.59357 v 5.34084 c 0,0.22237 0.14839,0.28402 0.34611,0.17305 l 4.43991,-2.65787 c -0.40819,-0.39586 -0.7794,-0.8657 -1.08806,-1.42184 z m 10.36374,-1.4465 c 0,-0.22281 -0.13606,-0.45751 -0.33377,-0.58124 l -2.22634,-1.33466 c -0.21048,1.28534 -0.6059,2.43506 -1.12506,3.36197 -0.32144,0.55614 -0.68032,1.03875 -1.10084,1.42184 l 4.45224,2.66976 c 0.19771,0.11185 0.33377,0.0251 0.33377,-0.19771 z"
     id="path1417"
     sodipodi:nodetypes="cccsccscccsccscccscscsssccccsscccscccccss"
     style="fill:#101820;fill-opacity:1" />
</svg>
