<svg xmlns:mydata="http://www.w3.org/2000/svg" mydata:contrastcolor="e6edf5" mydata:template="InvertedHex1" mydata:presentation="2.5" mydata:layouttype="undefined" mydata:specialfontid="undefined" mydata:id1="169" mydata:id2="168" mydata:companyname="Hellorge.inc" style="background-color: #000" mydata:companytagline="Arsenal of hell" version="1.1" xmlns="http://www.w3.org/2000/svg" xmlns:xlink="http://www.w3.org/1999/xlink" viewBox="0 0 550 470"><g fill="none" fill-rule="none" stroke="none" stroke-width="1" stroke-linecap="butt" stroke-linejoin="miter" stroke-miterlimit="10" stroke-dasharray="" stroke-dashoffset="0" font-family="none" font-weight="none" font-size="none" text-anchor="none" style="mix-blend-mode: normal"><g data-paper-data="{&quot;isGlobalGroup&quot;:true,&quot;bounds&quot;:{&quot;x&quot;:106.70901129461492,&quot;y&quot;:114.99999999999999,&quot;width&quot;:336.5819774107702,&quot;height&quot;:240}}"><g data-paper-data="{&quot;isSecondaryText&quot;:true}" fill="#ffffff" fill-rule="nonzero"><path d="M165.20743,350.93994h-2.46982l1.23491,-2.96495zM168.16073,354.78447l-3.97851,-9.12203h-0.4194l-3.94356,9.12203h1.18248l1.32811,-2.70865h3.29698l1.32811,2.70865z" data-paper-data="{&quot;glyphName&quot;:&quot;A&quot;,&quot;glyphIndex&quot;:0,&quot;firstGlyphOfWord&quot;:true,&quot;word&quot;:1}"></path><path d="M182.32329,347.14201c0.24465,0.20388 0.3728,0.57085 0.37863,1.11258c0,0.50678 -0.13398,0.82716 -0.36698,1.00773c-0.22718,0.18058 -0.72813,0.29125 -1.55529,0.29125h-0.67571v-2.72612h0.67571c0.78638,0 1.29316,0.11068 1.54364,0.31455zM184.45525,354.78447l-2.33584,-4.10083c0.45435,-0.0466 0.86211,-0.29708 1.22326,-0.73396c0.40193,-0.48348 0.61163,-1.05433 0.60581,-1.71256c0,-0.90288 -0.2796,-1.59606 -0.85628,-2.06789c-0.20388,-0.1631 -0.46018,-0.28543 -0.76891,-0.35533c-0.33785,-0.07573 -0.77473,-0.11068 -1.30481,-0.11068h-2.16109v9.08125h1.24656v-4.09501h0.69901l2.19022,4.09501z" data-paper-data="{&quot;glyphName&quot;:&quot;R&quot;,&quot;glyphIndex&quot;:1,&quot;word&quot;:1}"></path><path d="M198.64007,354.23109c0.52425,-0.51843 0.79803,-1.20579 0.79803,-2.04459c0,-1.16501 -0.61163,-1.99799 -1.78246,-2.52807l-1.24074,-0.56503c-0.76308,-0.34368 -1.10676,-0.78638 -1.11258,-1.32229c0,-0.3495 0.1165,-0.61746 0.34368,-0.83298c0.22135,-0.22135 0.50095,-0.33203 0.87376,-0.33203c0.54755,0 1.00773,0.29708 1.43296,1.05433l1.04851,-0.67571c-0.50095,-1.02521 -1.29899,-1.48539 -2.40575,-1.49121c-0.73396,0 -1.34559,0.19805 -1.83489,0.64076c-0.48348,0.43688 -0.72813,1.00191 -0.72813,1.64849c0,1.11841 0.60581,1.92809 1.78829,2.44652l1.06598,0.466c0.87376,0.37863 1.28151,0.93201 1.28151,1.66014c0,0.46018 -0.15728,0.82133 -0.46018,1.10676c-0.28543,0.27378 -0.66988,0.4194 -1.18248,0.4194c-0.81551,0 -1.36306,-0.4893 -1.63684,-1.68344l-1.14753,0.5825c0.35533,1.44461 1.36889,2.20769 2.78437,2.20769c0.89123,0 1.59606,-0.24465 2.11449,-0.75726z" data-paper-data="{&quot;glyphName&quot;:&quot;S&quot;,&quot;glyphIndex&quot;:2,&quot;word&quot;:1}"></path><path d="M214.09953,354.78447v-1.20579h-3.5358v-2.84262h3.47755v-1.20579h-3.47755v-2.5572h3.5358v-1.19414h-4.79402v9.00553z" data-paper-data="{&quot;glyphName&quot;:&quot;E&quot;,&quot;glyphIndex&quot;:3,&quot;word&quot;:1}"></path><path d="M233.56871,354.77865v-9.07543h-1.22326v6.54153l-5.9998,-6.57648h-0.44853v9.1162h1.24074v-6.45998l5.95903,6.45415z" data-paper-data="{&quot;glyphName&quot;:&quot;N&quot;,&quot;glyphIndex&quot;:4,&quot;word&quot;:1}"></path><path d="M250.42203,350.93994h-2.46982l1.23491,-2.96495zM253.37533,354.78447l-3.97851,-9.12203h-0.4194l-3.94356,9.12203h1.18248l1.32811,-2.70865h3.29698l1.32811,2.70865z" data-paper-data="{&quot;glyphName&quot;:&quot;A&quot;,&quot;glyphIndex&quot;:5,&quot;word&quot;:1}"></path><path d="M268.20051,354.78447v-1.22909h-3.2562v-7.85217h-1.25821v9.08125z" data-paper-data="{&quot;glyphName&quot;:&quot;L&quot;,&quot;glyphIndex&quot;:6,&quot;lastGlyphOfWord&quot;:true,&quot;word&quot;:1}"></path><path d="M293.97097,346.71096c1.99799,0 3.34358,1.57276 3.34358,3.55328c0,1.98052 -1.35141,3.54163 -3.34358,3.54163c-1.95722,0 -3.40183,-1.58441 -3.40183,-3.54163c0,-1.95722 1.44461,-3.55328 3.40183,-3.55328zM293.97097,355c2.7203,0 4.67169,-2.00964 4.67169,-4.73576c0,-2.7203 -1.94557,-4.75907 -4.67169,-4.75907c-2.6737,0 -4.72411,2.05624 -4.72411,4.75907c0,2.69117 2.06207,4.73576 4.72411,4.73576z" data-paper-data="{&quot;glyphName&quot;:&quot;O&quot;,&quot;glyphIndex&quot;:7,&quot;firstGlyphOfWord&quot;:true,&quot;word&quot;:2}"></path><path d="M316.06573,346.98473v-1.19414h-4.79984v8.99388h1.26404v-4.02511h3.47755v-1.20579h-3.47755v-2.56885z" data-paper-data="{&quot;glyphName&quot;:&quot;F&quot;,&quot;glyphIndex&quot;:8,&quot;lastGlyphOfWord&quot;:true,&quot;word&quot;:2}"></path><path d="M344.46784,354.78447v-9.00553h-1.29316v3.67561h-4.43286v-3.67561h-1.28151v9.00553h1.28151v-4.10666h4.43286v4.10666z" data-paper-data="{&quot;glyphName&quot;:&quot;H&quot;,&quot;glyphIndex&quot;:9,&quot;firstGlyphOfWord&quot;:true,&quot;word&quot;:3}"></path><path d="M360.8329,354.78447v-1.20579h-3.5358v-2.84262h3.47755v-1.20579h-3.47755v-2.5572h3.5358v-1.19414h-4.79402v9.00553z" data-paper-data="{&quot;glyphName&quot;:&quot;E&quot;,&quot;glyphIndex&quot;:10,&quot;word&quot;:3}"></path><path d="M376.02042,354.78447v-1.22909h-3.2562v-7.85217h-1.25821v9.08125z" data-paper-data="{&quot;glyphName&quot;:&quot;L&quot;,&quot;glyphIndex&quot;:11,&quot;word&quot;:3}"></path><path d="M390.18074,354.78447v-1.22909h-3.2562v-7.85217h-1.25821v9.08125z" data-paper-data="{&quot;glyphName&quot;:&quot;L&quot;,&quot;glyphIndex&quot;:12,&quot;lastGlyphOfWord&quot;:true,&quot;word&quot;:3}"></path></g><g data-paper-data="{&quot;isPrimaryText&quot;:true}" fill="#ffffff" fill-rule="nonzero"><path d="M134.31338,335.27628v-34.34603h-8.15377v13.0278h-11.29684v-13.0278h-8.15377v34.34603h8.15377v-14.75877h11.29684v14.75877z" data-paper-data="{&quot;glyphName&quot;:&quot;H&quot;,&quot;glyphIndex&quot;:0,&quot;firstGlyphOfWord&quot;:true,&quot;word&quot;:1}"></path><path d="M161.78109,335.27628v-6.92387h-12.98225v-7.37939h12.80005v-6.92387h-12.80005v-6.19504h12.98225v-6.92387h-21.18157v34.34603z" data-paper-data="{&quot;glyphName&quot;:&quot;E&quot;,&quot;glyphIndex&quot;:1,&quot;word&quot;:1}"></path><path d="M186.74346,335.27628v-6.92387h-12.29898v-27.42216h-8.19932v34.34603z" data-paper-data="{&quot;glyphName&quot;:&quot;L&quot;,&quot;glyphIndex&quot;:2,&quot;word&quot;:1}"></path><path d="M210.65813,335.27628v-6.92387h-12.29898v-27.42216h-8.19932v34.34603z" data-paper-data="{&quot;glyphName&quot;:&quot;L&quot;,&quot;glyphIndex&quot;:3,&quot;word&quot;:1}"></path><path d="M230.3365,307.71746c5.92173,0 9.52032,4.96514 9.52032,10.06694c0,4.96514 -2.5509,10.70466 -9.52032,10.70466c-6.96942,0 -9.52032,-5.73952 -9.52032,-10.70466c0,-5.1018 3.59859,-10.06694 9.52032,-10.06694zM230.3365,336.14176c11.06908,0 17.90184,-8.01711 17.90184,-18.08405c0,-10.15804 -7.10608,-18.0385 -17.90184,-18.0385c-10.79577,0 -17.90184,7.88046 -17.90184,18.0385c0,10.06694 6.83276,18.08405 17.90184,18.08405z" data-paper-data="{&quot;glyphName&quot;:&quot;O&quot;,&quot;glyphIndex&quot;:4,&quot;word&quot;:1}"></path><path d="M262.08608,307.53526c3.50749,0 5.64842,0.72883 5.64842,4.23631c0,3.46193 -2.14093,4.55518 -5.69397,4.60073h-1.36655v-8.83704zM279.21354,335.27628l-8.74594,-13.84774c4.23631,-1.86762 5.46621,-5.83063 5.46621,-9.83918c0,-7.56159 -5.23845,-10.61356 -12.39008,-10.61356h-11.06908v34.30048h8.19932v-12.89115h1.91317l6.74166,12.89115z" data-paper-data="{&quot;glyphName&quot;:&quot;R&quot;,&quot;glyphIndex&quot;:5,&quot;word&quot;:1}"></path><path d="M313.51402,316.3723h-16.67195v6.60501h8.10821c-0.68328,3.41638 -4.41852,6.19504 -8.24487,6.19504c-6.37725,0 -9.88473,-5.64842 -9.88473,-10.93242c0,-5.284 3.68969,-11.20573 10.06694,-11.20573c3.37083,0 6.24059,2.00428 8.01711,5.51176l7.56159,-3.68969c-3.41638,-5.96728 -9.0648,-8.83704 -15.3965,-8.83704c-11.34239,0 -18.49402,8.47263 -18.49402,18.22071c0,9.42921 7.47049,17.90184 18.0385,17.90184c5.1018,0 9.01925,-2.14093 11.79791,-5.1929v4.32742h5.1018v-18.85843v0z" data-paper-data="{&quot;glyphName&quot;:&quot;G&quot;,&quot;glyphIndex&quot;:6,&quot;word&quot;:1}"></path><path d="M339.79738,335.27628v-6.92387h-12.98225v-7.37939h12.80005v-6.92387h-12.80005v-6.19504h12.98225v-6.92387h-21.18157v34.34603z" data-paper-data="{&quot;glyphName&quot;:&quot;E&quot;,&quot;glyphIndex&quot;:7,&quot;word&quot;:1}"></path><path d="M349.3177,336.14176c2.68755,0 4.96514,-1.77652 4.96514,-4.05411c0,-2.27759 -2.27759,-4.00856 -4.96514,-4.00856c-2.68755,0 -4.96514,1.73097 -4.96514,4.00856c0,2.27759 2.27759,4.05411 4.96514,4.05411z" data-paper-data="{&quot;glyphName&quot;:&quot;.&quot;,&quot;glyphIndex&quot;:8,&quot;word&quot;:1}"></path><path d="M366.90068,335.27628v-34.34603h-8.51818v34.34603z" data-paper-data="{&quot;glyphName&quot;:&quot;I&quot;,&quot;glyphIndex&quot;:9,&quot;word&quot;:1}"></path><path d="M404.79975,335.91401v-34.98375h-8.15377v20.5894l-17.49188,-20.86271h-5.87618v34.61934h8.15377v-20.17943l17.44633,20.81716z" data-paper-data="{&quot;glyphName&quot;:&quot;N&quot;,&quot;glyphIndex&quot;:10,&quot;word&quot;:1}"></path><path d="M426.7557,336.18732c7.56159,0 13.21001,-3.73524 16.53529,-10.47691l-8.83704,-1.13879c-1.82207,2.5509 -4.09966,3.963 -7.69825,3.963c-6.92387,0 -9.52032,-5.73952 -9.52032,-10.70466c0,-5.1018 3.59859,-10.06694 9.52032,-10.06694c3.14307,0 5.55732,1.321 7.51604,3.73524l8.79149,-1.50321c-3.50749,-6.4228 -9.11035,-9.93028 -16.30753,-9.93028c-10.79577,0 -17.90184,7.88046 -17.90184,18.0385c0,10.06694 6.87832,18.08405 17.90184,18.08405z" data-paper-data="{&quot;glyphName&quot;:&quot;C&quot;,&quot;glyphIndex&quot;:11,&quot;lastGlyphOfWord&quot;:true,&quot;word&quot;:1}"></path></g><g data-paper-data="{&quot;isIcon&quot;:&quot;true&quot;,&quot;iconType&quot;:&quot;icon&quot;,&quot;rawIconId&quot;:&quot;30912&quot;,&quot;selectedEffects&quot;:{&quot;container&quot;:&quot;&quot;,&quot;transformation&quot;:&quot;&quot;,&quot;pattern&quot;:&quot;&quot;},&quot;combineTerms&quot;:&quot;Knight &quot;,&quot;isDetailed&quot;:false,&quot;fillRule&quot;:&quot;evenodd&quot;,&quot;bounds&quot;:{&quot;x&quot;:214.5035927565863,&quot;y&quot;:114.99999999999999,&quot;width&quot;:120.99281448682737,&quot;height&quot;:156.16869684497578},&quot;iconStyle&quot;:&quot;standalone&quot;,&quot;suitableAsStandaloneIcon&quot;:true}" fill="#ffffff" fill-rule="evenodd"><path d="M291.2082,217.4792c0,0 0.62332,1.74817 0.71825,1.81215l13.96468,20.25766c6.47874,3.3663 4.61499,31.61969 4.61499,31.61969c-24.19155,-37.45655 -49.49762,-36.23056 -49.49762,-36.23056c-13.71494,-2.49532 -46.5049,13.58904 -46.5049,13.58904c0,0 11.96884,-23.68794 13.58904,-26.55889c1.6202,-2.86889 3.61604,-2.61709 3.61604,-2.61709l5.98338,-10.72221c0.74921,-4.73676 5.23623,-4.61293 5.23623,-4.61293c4.9865,-6.73467 1.63258,-13.27532 1.63258,-13.27532l0.37564,0.92877c-10.34864,-10.72221 -9.36207,-28.54441 -9.36207,-28.54441c-0.37564,-44.6329 44.25932,-48.12509 44.25932,-48.12509l1.49636,6.10929c14.33619,-0.24974 24.06152,11.09786 24.06152,11.09786c2.61709,-1.49842 6.10516,-0.62538 6.10516,-0.62538c7.23414,4.23729 8.85434,21.44237 9.60149,26.18119c0.75128,4.73883 7.85746,11.96884 7.85746,11.96884l6.54066,-1.7461c-2.30749,17.95222 -28.7343,44.13548 -28.7343,44.13548l-2.36941,9.60149l-0.66459,-1.46747c0,0 -2.13206,-3.53967 -5.97926,-4.51385l-0.29514,-0.1032l-0.38802,-1.52113l-27.17808,-35.53295v2.49325l18.45171,30.67028zM318.56172,169.75244l-2.37354,-6.50763l-19.27315,-5.21354l2.14857,7.50658zM300.28132,178.95765l-4.36525,-1.24662l-9.72739,12.09474l2.87095,3.28168zM306.01497,205.76422c2.37148,0.12383 20.0719,-26.68273 20.0719,-26.68273l-5.48598,0.99689c1.12072,1.3684 -17.95222,23.19053 -17.95222,23.19053c0,0 0.99689,2.36735 3.3663,2.49532zM303.0243,179.08355l-11.46936,15.45898l2.9886,2.74092l14.21854,-17.57659l-4.86473,-0.62332zM296.91502,198.90365l3.3663,2.49738l16.20819,-21.32266h-4.61499z" data-paper-data="{&quot;isPathIcon&quot;:true}"></path></g></g></g></svg>
