<svg viewBox="0 0 550 470" style="background-color: #000">
  <g>
    <path
       d="M316.26297,234.4731c-0.504,-1.521 3.647,-1.546 5.827,-0.98c0.755,0.195 0.919,0.428 0.966,1.225c0.249,4.176 -5.844,18.88402 -22.73602,14.69501c-21.00502,-5.209 -16.09201,-51.19504 -13.65801,-73.97206c0.834,-7.80601 1.376,-12.88601 0.485,-12.66301c-8.50901,2.126 -23.66502,7.27601 -31.97103,9.91901c-5.939,1.89 -7.06801,1.852 -7.26001,2.257c-0.044,0.093 -0.038,0.21 -0.03,0.379v0.002c0.63,12.91401 1.439,22.59102 2.095,30.45202c1.296,15.51901 2.002,23.96202 -0.421,36.27303c-1.038,5.275 -1.847,6.49901 -3.725,7.04201c-2.027,0.586 -4.072,0.647 -6.11601,0.102c-1.356,-0.361 -1.779,-0.938 -1.866,-2.339c-0.578,-9.28201 -3.464,-40.24203 -4.409,-54.54804c-0.823,-12.45901 -0.468,-14.33101 -0.945,-14.57501c-0.083,-0.043 -0.191,-0.036 -0.335,-0.027c-0.032,0.002 -0.066,0.004 -0.103,0.006c-18.89602,0.866 -14.04901,-12.64401 -5.869,-16.23301c3.351,-1.47 4.922,-1.47 5.653,-1.47c0.497,-0.001 0.605,-0.001 0.62,-0.463l0.036,-1.133c0.846,-26.35602 1.45,-45.17804 12.18901,-41.84903c2.883,0.894 2.861,18.95402 2.84,35.80403v0.001c-0.009,6.80001 -0.017,13.40101 0.166,18.59802c0.013,0.367 0.018,0.548 0.107,0.611c0.087,0.061 0.254,0.007 0.586,-0.099h0.003c11.64201,-3.718 28.18902,-10.27601 39.23403,-12.59301c0.081,-0.017 0.146,-0.009 0.2,-0.028c0.358,-0.126 0.302,-1.436 1.941,-18.94602c0.168,-1.788 0.316,-3.467 0.455,-5.041c1.381,-15.64001 1.846,-20.90002 11.02101,-19.72102c4.157,0.534 5.384,1.019 2.262,41.23603v0.003c-0.042,0.543 -0.063,0.816 0.061,0.975c0.127,0.163 0.406,0.207 0.971,0.301c12.26601,2.036 13.92201,12.38901 6.59301,16.88901c-3.786,2.326 -6.44901,2.638 -7.98201,2.817c-0.996,0.117 -1.515,0.178 -1.555,0.699c-0.052,0.661 -0.102,1.309 -0.151,1.943c-1.629,21.02002 -2.131,27.49602 -0.698,49.25204c0.301,4.578 0.924,12.00101 3.934,15.99201c1.085,1.439 2.638,2.475 4.23,1.66c7.20401,-3.689 8.08901,-10.23401 7.35501,-12.45301zM220.01589,152.93004c-0.688,0.396 -1.272,0.276 -0.944,-0.745c0.844,-2.629 0.333,-5.001 -0.237,-7.64601c-0.369,-1.715 -0.763,-3.544 -0.829,-5.634c-0.157,-4.951 2.398,-10.99201 7.28701,-11.14601c8.54701,-0.005 7.40701,13.53901 -3.712,23.75302c-0.789,0.724 -1.223,1.221 -1.565,1.418zM336.21999,145.72903c-1.592,0.549 -3.219,0.998 -4.838,1.468c-2.818,0.818 1.691,-5.901 5.577,-5.908c3.12,0.082 2.093,3.463 -0.739,4.44zM216.89489,166.48205c0.145,-2.989 0.418,-8.62501 4.279,-12.82701c6.50001,-7.07401 18.12701,-0.095 3.519,8.01501c-3.041,1.688 -5.099,2.783 -6.39001,6.054c-0.308,0.781 -0.544,0.908 -1.182,0.801c-0.263,-0.044 -0.402,-0.144 -0.349,-0.443c0.062,-0.358 0.089,-0.908 0.123,-1.6zM303.82896,171.95205c1.676,-3.657 2.27,-6.95401 -0.842,-9.56801c-0.346,3.875 -0.682,7.63001 -1.03,11.50801c0.834,-0.569 1.493,-1.115 1.872,-1.94zM232.4279,162.57404c-2.488,0.419 -10.22801,12.61401 -0.457,12.65001c0.038,0 0.075,0.001 0.109,0.002c0.13,0.003 0.229,0.005 0.303,-0.036c0.233,-0.132 0.22,-0.701 0.162,-3.06c-0.045,-1.857 -0.117,-4.822 -0.117,-9.55601zM225.8109,180.03306c0.076,0.399 -0.124,0.575 -0.524,0.68c-8.75001,2.294 -25.79702,4.826 -28.17002,-4.068c-1.454,-5.445 5.162,-6.16301 10.41201,-3.582c1.829,0.899 3.371,1.807 4.799,2.648c3.641,2.145 6.53701,3.85 11.54701,3.847c0.312,-0.001 0.588,-0.042 0.829,-0.077c0.601,-0.089 0.975,-0.144 1.107,0.552zM341.02499,185.38306c2.267,-0.618 4.366,-1.189 6.38001,-1.145c5.839,-0.255 7.61201,6.59801 3.265,7.27601c-2.586,0.404 -6.16001,-0.8 -9.44601,-1.907c-2.067,-0.696 -4.02,-1.354 -5.541,-1.549c-0.789,-0.101 -1.412,-1.276 -0.409,-1.404c2.05,-0.263 3.954,-0.781 5.751,-1.271zM223.7659,214.43109l0.239,-0.323c3.84,-5.2 5.162,-7.94601 5.846,-9.36701c0.571,-1.187 0.698,-1.451 1.475,-1.45c0.477,0.001 0.802,0.188 0.966,0.671c1.249,3.681 1.897,6.80801 1.817,11.08601c-0.377,18.90802 -16.98201,21.51202 -17.17501,12.99101c-0.097,-4.232 3.429,-9.00301 6.83201,-13.60801zM335.38099,233.1491c-1.599,1.457 -3.831,0.826 -4.492,-3.759c-0.611,-4.233 0.246,-12.24701 1.686,-9.92701c0.198,0.319 0.423,0.669 0.665,1.045c2.249,3.492 5.921,9.19401 2.141,12.64101zM233.5019,227.3201c1.44,-1.528 1.678,5.025 1.678,7.10101c0.057,14.69001 -9.97501,12.30601 -10.53101,7.73001c-0.396,-3.258 2.196,-6.23501 4.604,-9.00201c1.466,-1.685 2.865,-3.292 3.479,-4.836c0.167,-0.42 0.486,-0.692 0.77,-0.993zM234.24391,244.11811c0.247,-0.429 0.446,-0.774 0.54,-0.985c0.205,-0.462 1.005,-0.499 1.192,0.029c1.331,3.772 0.686,8.05401 -2.53,7.39801c-2.612,-0.533 -0.369,-4.42 0.798,-6.44201z"
       fill="#ff6900"
        />
    <path
       d="M234.65891,124.27601c-0.572,1.904 -1.399,3.714 -2.108,5.567c-0.218,0.573 -1.19,0.945 -1.356,0.177c-0.336,-1.554 -0.865,-3.072 -0.872,-5.181c-0.131,-4.273 5.932,-5.867 4.336,-0.563zM323.43798,148.01203c-0.356,-1.267 -0.772,-2.744 -1.098,-4.402c-2.994,-15.21601 15.11201,-15.52201 10.01601,-2.873c-2.458,6.1 -5.758,9.37301 -6.87301,11.56301c-0.375,0.738 -1.616,0.659 -1.386,0.061c0.327,-0.848 -0.091,-2.334 -0.659,-4.349zM216.18689,161.64004c-0.154,0.583 -0.895,0.964 -1.177,0.35c-1.951,-4.249 -3.817,-6.50501 -5.398,-9.33801c-3.307,-5.919 -0.321,-9.90801 3.166,-10.50501c7.53101,-1.291 5.343,12.13501 3.409,19.49302zM220.18089,177.18106c-0.24,0.388 -0.557,0.508 -0.995,0.328c-5.579,-2.286 -10.79501,-5.137 -14.96801,-9.60801c-2.581,-2.765 -2.587,-4.247 -2.814,-6.033c0.47,-4.828 4.856,-9.31401 8.43601,-6.097c2.81,2.524 5.055,9.29001 6.17301,12.89401c1.293,4.169 2.789,5.84 3.65,6.80201c0.643,0.719 0.931,1.042 0.518,1.714zM216.30089,193.78707c-2.899,1.649 -7.71601,3.876 -11.05301,3.764c-6.51001,0.137 -10.58701,-6.47501 -5.634,-9.99701c5.441,-3.871 22.45402,-3.805 29.81702,-7.07201l0.021,-0.009c0.287,-0.128 0.564,-0.251 0.876,-0.061c0.537,0.328 0.57,0.709 0.015,1.264c-2.349,2.351 -6.69601,7.93101 -14.04201,12.11101zM304.06296,190.77507c0.069,-0.556 0.881,-1.138 1.193,-0.249c2.947,8.41101 9.06101,15.11301 10.70201,25.23002c0.846,5.218 0.522,11.12501 -3.868,14.15101c-9.00701,6.20901 -9.34301,-23.50002 -8.04101,-34.06903c0.13,-1.05 0.073,-2.071 0.021,-2.995c-0.043,-0.769 -0.082,-1.471 -0.007,-2.068zM328.28298,208.98008c-0.545,-0.617 -0.514,-1.88 0.46,-1.529c3.762,1.354 10.39301,3.563 13.48501,8.08701c1.607,2.353 1.776,4.828 0.458,7.36801c-0.576,1.111 -1.547,1.613 -2.99,1.638c-4.129,-0.01 -8.21401,-11.94901 -11.41301,-15.56401zM216.79189,222.09709c-1.17,1.303 -1.437,3.258 -2.337,4.966c-2.932,5.565 -9.24101,-0.196 -0.685,-4.417c0.076,-0.038 0.174,-0.088 0.29,-0.148c0.874,-0.45 2.714,-1.397 2.963,-0.802c0.062,0.147 -0.038,0.231 -0.138,0.315c-0.033,0.028 -0.066,0.055 -0.093,0.086zM212.79089,231.6251c0.012,-1.241 1.043,-2.737 2.2,-3.191c0.464,-0.183 1.106,0.193 1.084,0.692c-0.039,0.854 0.26,1.583 0.541,2.267c0.245,0.598 0.477,1.162 0.459,1.748c-0.083,2.643 -4.313,1.387 -4.284,-1.516z"
       fill="#f57eb6"
        />
    <path
       d="M319.50698,140.90703c-0.383,-0.447 -1.055,-1.229 -2.788,-2.072c-3.477,-1.689 -6.15901,-2.425 -8.89601,-6.34001c-4.219,-6.032 2.631,-13.50601 7.46101,-9.85201c4.624,3.498 6.66601,17.25701 5.102,18.46202c-0.426,0.329 -0.539,0.198 -0.879,-0.198zM313.24897,138.63002c0.27,0.114 0.394,0.166 0.642,0.459c1.556,1.84 -8.74901,2.603 -8.07001,-2.422c0.289,-2.13 2.607,-1.25 4.338,0.034c1.956,1.451 2.686,1.759 3.09,1.929zM225.2039,149.03503c1.898,-1.872 2.897,-4.53 4.927,-4.725c2.423,0.036 2.188,2.752 0.172,3.993c-1.329,0.817 -2.857,1.131 -4.292,1.679c-0.262,0.1 -1.035,-0.054 -1.167,-0.447c-0.063,-0.189 0.082,-0.292 0.221,-0.391c0.051,-0.036 0.1,-0.071 0.139,-0.109zM340.84399,166.30705c-1.183,0.08 -3.414,0.233 -2.495,-0.823c1.992,-2.288 4.904,-5.276 7.73301,-5.242c4.305,-0.121 6.36001,5.888 -4.708,6.035c-0.12,0.002 -0.306,0.014 -0.53,0.03zM305.87196,182.81806c6.68101,5.616 25.24702,3.45 37.74003,9.69701c10.72401,5.363 5.902,16.59701 -2.768,16.42501c-11.60901,-0.402 -32.51303,-13.57401 -36.29903,-24.35602c-1.013,-2.884 0.947,-3.21 0.964,-2.224c0.004,0.249 0.211,0.33 0.363,0.458zM214.58989,195.67007c0.535,-0.198 1.56,0.127 1.111,0.739c-2.393,3.261 -4.917,12.97001 -11.82301,13.11601c-3.771,-0.076 -6.62301,-3.136 -4.335,-6.08c1.585,-2.04 5.19,-3.56 8.01901,-4.658c3.746,-1.454 5.514,-2.556 7.02801,-3.117zM223.8679,210.25308c0.698,-0.006 1.015,0.5 0.644,1.049c-14.47701,21.40802 -26.18002,3.505 -18.06001,-0.437c3.493,-1.696 6.54001,-1.141 9.54901,-0.594c1.042,0.19 2.079,0.379 3.129,0.473c1.505,0.135 2.305,-0.059 3.057,-0.241c0.513,-0.125 1.003,-0.244 1.681,-0.25zM318.17497,224.29909c0.971,1.488 1.828,3.022 1.878,4.867c0.037,1.883 -1.601,4.143 -3.345,2.54c-1.584,-1.455 -0.761,-4.188 -0.091,-6.41401l0.011,-0.036c0.119,-0.398 1.101,-1.641 1.547,-0.957zM305.39596,229.7711c0.33,0.567 0.859,1.476 1.937,2.607c0.352,0.369 0.747,0.761 1.16,1.171c3.08,3.057 7.21401,7.15801 2.62,10.87401c-5.725,4.63 -8.70601,-12.30001 -6.77801,-14.84201c0.538,-0.709 0.628,-0.555 1.061,0.19z"
       fill="#00ab8e"/>
    <path
       d="M322.94398,134.65402c1.684,-4.289 2.085,-10.58201 -1.234,-8.03801c-2.074,1.588 -1.1,5.393 -0.476,7.82801c0.101,0.395 0.193,0.753 0.261,1.061c0.185,0.833 1.175,-0.154 1.449,-0.851zM319.45698,167.39605c3.195,-7.13601 4.637,-19.20002 -0.849,-24.72702c-6.37901,-6.42601 -19.87602,6.007 -8.14401,15.27601c0.611,0.483 1.255,0.952 1.899,1.421c3.092,2.251 6.17701,4.498 5.633,8.29101c-0.095,0.664 1.183,0.36 1.461,-0.261zM324.27898,160.36704c-2.678,10.69901 -8.41901,13.73001 -10.35601,14.75201c-0.422,0.223 -0.663,0.35 -0.654,0.441c0.184,1.795 8.13701,-1.781 9.77001,-2.553c29.75302,-14.06701 19.53102,-25.73302 11.68201,-25.73202c-6.13901,-0.171 -8.96001,7.17001 -10.44201,13.09201zM339.97099,167.59705c-5.172,0.196 -10.71201,3.583 -16.00901,6.82101c-5.739,3.509 -11.19401,6.84401 -15.58601,5.758c-0.68,-0.168 -0.528,0.87 0.338,1.406c7.53701,4.656 24.62002,5.148 34.44403,0.891c2.533,-1.098 6.32401,-3.478 6.50201,-6.20101c0.287,-4.406 -3.387,-8.91401 -9.68901,-8.67501zM229.1549,184.66306c-1.168,1.713 -12.81501,11.22301 -14.82101,18.44202c-2.404,8.65001 16.35001,12.28901 17.40401,-13.55501c0.008,-1.498 -0.128,-2.973 -0.486,-4.426c-0.303,-1.227 -1.6,-1.191 -2.097,-0.461zM330.42298,219.14609c0,-11.11401 -13.97001,-18.62102 -18.51502,-22.68702c-0.63,-0.564 -1.238,-0.419 -1.255,0.596c-0.015,0.808 0.501,1.649 0.955,2.391c0.091,0.148 0.179,0.293 0.261,0.433c6.67201,11.44301 4.734,20.60702 8.62001,26.09902c3.395,4.796 10.10401,0.619 9.93401,-6.83201zM341.22899,210.02008c-0.362,0 -0.655,-0.005 -0.894,-0.008c-0.944,-0.013 -1.031,-0.015 -1.12,0.305c-0.104,0.371 -0.028,0.635 0.319,0.846c2.456,1.495 3.867,3.334 5.671,3.907c3.026,0.961 4.359,-5.215 -3.976,-5.05zM327.97598,227.7661c-9.23701,16.38001 0.52,17.23301 2.222,10.40701c0.653,-2.622 0.214,-5.777 -0.135,-8.28401c-0.17,-1.219 -0.318,-2.285 -0.309,-3.062c0.01,-0.874 -1.267,0.033 -1.778,0.939zM227.1689,232.9021c-0.547,-0.163 -1.004,0.02 -1.631,0.271c-0.476,0.191 -1.05,0.421 -1.837,0.569c-7.02501,1.321 -6.87201,5.143 -3.599,4.978c2.639,0.199 5.055,-2.821 6.42701,-4.536c0.324,-0.405 0.589,-0.737 0.786,-0.937c0.184,-0.187 0.049,-0.286 -0.146,-0.345z"
       fill="#00aec7"/>
  </g>
     <g fill="#ffffff">
       <path
          d="m 107.88085,295.27595 c 0,-2.29204 -1.8581,-4.15022 -4.15022,-4.15022 -2.29219,0 -4.15037,1.85817 -4.15037,4.15022 v 13.04549 h -7.47385 v -13.04549 c 0,-2.29204 -1.85817,-4.15022 -4.15029,-4.15022 -2.29212,0 -4.15029,1.85817 -4.15029,4.15022 0.03984,11.42037 -0.05795,22.85782 0.0053,34.26871 0.05657,2.27124 1.92758,4.07983 4.20473,4.04703 2.23631,-0.0322 4.02083,-1.83092 4.07618,-4.04703 l 0.01435,-12.92263 h 7.47385 l 0.0054,12.92248 c 0.05642,2.27124 1.92757,4.07998 4.20473,4.04718 2.23623,-0.0322 4.02076,-1.83092 4.07611,-4.04718 z"/>
       <path
          d="m 154.65032,316.23995 c 2.28141,0 4.13078,-1.84944 4.13078,-4.13078 0,-2.28141 -1.84937,-4.13085 -4.13078,-4.13085 h -11.54943 v -8.63126 h 11.54943 c 2.28141,0 4.13078,-1.84944 4.13078,-4.13078 0,-2.28134 -1.84937,-4.13085 -4.13078,-4.13085 h -15.78256 c -2.19933,0.0548 -3.96593,1.85291 -4.0187,4.05255 l 0.0232,34.44684 c 0.1003,2.36205 1.73499,3.7597 4.09765,3.80181 l 15.6802,-0.0202 c 2.28141,0 4.13078,-1.84944 4.13078,-4.13078 0,-2.28141 -1.84937,-4.13085 -4.13078,-4.13085 h -11.54943 v -8.86475 z"/>
       <path
          d="m 194.08339,325.3788 -0.057,-30.73011 c -0.27806,-2.03699 -2.00639,-3.61217 -4.11969,-3.61217 -2.11338,0 -3.84171,1.57518 -4.11977,3.61217 l -0.052,35.05102 c 0.0113,2.33582 1.70594,4.05468 4.2314,4.07278 l 15.79425,-0.0403 c 2.3067,0 4.17664,-1.86994 4.17664,-4.17672 0,-2.3067 -1.86994,-4.17664 -4.17664,-4.17664 z"/>
       <path
          d="m 245.18814,325.3788 -0.057,-30.73011 c -0.27806,-2.03699 -2.00639,-3.61217 -4.11969,-3.61217 -2.11338,0 -3.89866,1.57518 -4.17672,3.61217 l 0.005,35.05102 c 0.004,2.49821 1.89958,4.08574 4.2314,4.07278 l 15.79425,-0.0403 c 2.3067,0 4.17664,-1.86994 4.17664,-4.17672 0,-2.3067 -1.86994,-4.17664 -4.17664,-4.17664 z"/>
       <path
          d="m 303.84684,321.573 c -8.3e-4,2.05499 -1.65946,3.71916 -3.71043,3.73533 -2.04861,0.01 -3.72782,-1.62955 -3.75735,-3.68248 l 0.0572,-18.70962 c -5.3e-4,-2.01869 1.34999,-3.59347 3.70046,-3.66757 2.62339,0.0955 3.73132,2.01464 3.77966,3.66558 z m 8.43453,-18.66116 c -0.002,-6.68546 -5.42304,-12.10365 -12.16743,-12.03643 -6.74438,0.0672 -12.04487,5.43217 -12.04289,12.043 l -0.0565,18.82783 c 0.0946,6.57506 5.41765,11.83645 12.14619,11.82823 6.72854,-0.008 12.04877,-5.37706 12.05143,-11.99829 z"/>
       <path
          d="m 347.76085,308.06491 5e-5,-8.43727 4.26473,0.0362 c 2.69455,0.19939 3.64277,2.21611 3.74991,4.18249 -0.10714,1.96645 -1.05536,3.98317 -3.74991,4.18256 z m 4.032,-17.00978 -8.09163,-8e-4 c -2.45364,0.0618 -4.53461,1.94185 -4.50904,4.30993 l -0.005,33.99953 c 0.0347,2.35733 1.97245,4.24095 4.32987,4.20694 2.33646,-0.0336 4.20162,-1.93965 4.20162,-4.26844 l 0.006,-6.40285 8.86568,9.17622 c 0.78285,0.90828 1.92765,1.49561 3.2209,1.49561 2.35765,0 4.2689,-1.91125 4.2689,-4.26897 0,-1.23213 -0.52977,-2.33365 -1.36478,-3.11278 l -9.5951,-9.60715 c 6.20794,-0.57282 11.11214,-5.74696 11.10891,-12.96051 -0.003,-7.21355 -5.61366,-12.66484 -12.43633,-12.56673 z"/>
       <path
          d="m 407.01262,316.9863 -0.0128,8.28826 -3.75105,-0.002 c -2.03304,0.01 -3.69957,-1.61725 -3.72895,-3.65462 l 0.0568,-18.56785 c -4.6e-4,-2.0499 1.66075,-3.7121 3.7105,-3.71263 1.989,-5.3e-4 3.59942,1.56744 3.64926,4.09012 0.0498,2.52268 1.93475,4.35427 4.22709,4.32125 2.27185,-0.0328 4.08545,-1.88604 4.08568,-4.1506 h 0.0304 l 0.0222,-0.55255 c -0.002,-6.63474 -5.38196,-12.01192 -12.01678,-12.01018 -6.63474,0.002 -12.012,5.38196 -12.0101,12.01671 l -0.0561,18.68491 c 0.0941,6.53406 5.39024,11.7631 11.88823,11.82847 l 8.09103,0.0245 c 2.3304,-0.14203 4.02601,-2.11543 4.06791,-3.81458 v -8e-5 h 0.0356 V 317.3124 c 0,-2.29242 -1.8584,-4.1509 -4.09569,-4.15011 -2.23728,7.9e-4 -4.02616,1.68475 -4.19323,3.82401 z"/>
      <path
         d="m 462.06339,316.23995 c 2.28141,-2e-5 4.13078,-1.84944 4.13078,-4.13078 0,-2.28141 -1.84937,-4.13085 -4.13078,-4.13085 h -11.54943 v -8.63126 h 11.54943 c 2.28141,0 4.13078,-1.84944 4.13078,-4.13078 0,-2.28134 -1.84937,-4.13085 -4.13078,-4.13085 h -15.78256 c -2.19933,0.0548 -3.96593,1.85291 -4.0187,4.05255 l 0.0232,34.44684 c 0.1003,2.36205 1.73499,3.7597 4.09765,3.80181 l 15.6802,-0.0202 c 2.28141,0 4.13078,-1.84944 4.13078,-4.13078 0,-2.28141 -1.84937,-4.13085 -4.13078,-4.13085 h -11.54943 v -8.86475 z"/>
     </g>
      <g fill="#f57eb6">
        <path
           d="M87.6616,346.77138v-0.00278h-3.05593c-0.44174,0 -0.79984,0.3581 -0.79984,0.79984c0,0.44174 0.3581,0.79984 0.79984,0.79984h0.70831h0.00992v0.72953h-0.00001v3.54h0.00001v1.65516h0.00946c0.04714,0.4023 0.38808,0.71291 0.80188,0.70695c0.40601,-0.00583 0.73336,-0.31426 0.77924,-0.70695h0.00909v-5.92469h0.73802v-0.00105c0.43769,-0.01088 0.78624,-0.37146 0.77994,-0.8103c-0.00621,-0.43097 -0.35285,-0.77489 -0.77994,-0.78554z"
            />
        <path
           d="M98.82643,350.89493c0,-0.00004 -0.00001,-0.0001 -0.00001,-0.00015v-3.31009c0,-0.44123 -0.35769,-0.79893 -0.79893,-0.79893c-0.44126,0 -0.79896,0.35771 -0.79896,0.79893v2.5113h-1.43874v-2.5113c0,-0.44123 -0.35771,-0.79893 -0.79895,-0.79893c-0.44124,0 -0.79895,0.35771 -0.79895,0.79893v6.59685h0.00102c0.01089,0.43722 0.37107,0.78538 0.80943,0.77907c0.4305,-0.0062 0.77402,-0.35246 0.78468,-0.77907h0.00276v-2.48765h1.43874v2.48762h0.00104c0.01086,0.43722 0.37106,0.78541 0.80943,0.7791c0.43048,-0.0062 0.77401,-0.35246 0.78467,-0.7791h0.00276v-3.28644c0,-0.00004 0.00001,-0.0001 0.00001,-0.00015z"
            />
        <path
           d="M108.38875,351.62034c0.43918,0 0.79519,-0.35602 0.79519,-0.79519c0,-0.43918 -0.35601,-0.7952 -0.79519,-0.7952h-2.22331v-1.66155h2.22331c0.43918,0 0.79519,-0.35602 0.79519,-0.79519c0,-0.43917 -0.35601,-0.7952 -0.79519,-0.7952h-3.0382v0.00586c-0.42338,0.01054 -0.76346,0.35082 -0.77361,0.77426h-0.00189v6.56585h0.00019c0,0.00067 -0.00019,0.00127 -0.00019,0.00194c0,0.00155 0.00044,0.00297 0.00045,0.0045c-0.00018,0.0014 -0.00039,0.00281 -0.00037,0.00427c0.00026,0.01872 0.00477,0.03621 0.0063,0.05458c0.00281,0.03514 0.00478,0.07045 0.01202,0.10416c0.00129,0.00586 0.00387,0.01115 0.00528,0.01697c0.08351,0.3498 0.39615,0.61072 0.77152,0.61072c0.01321,0 0.02554,-0.00326 0.0386,-0.00389h2.97989c0.43918,0 0.79519,-0.35602 0.79519,-0.79519c0,-0.43918 -0.35601,-0.7952 -0.79519,-0.7952h-2.22331v-1.7065h2.22331z"
            />
        <path
           d="M126.36741,351.02803c-0.4201,0 -0.76446,0.32417 -0.79662,0.73598c-0.00587,-0.03813 -0.01149,-0.07636 -0.01149,-0.11611v0.00028c0,0.03971 0.00561,0.07793 0.01147,0.11604c-0.00161,0.02074 -0.00244,0.04171 -0.00244,0.06287v1.53253h-0.72209c0.31532,-0.0025 0.31532,-0.00279 0,-0.00029c-0.39137,0.00186 -0.71218,-0.31133 -0.71784,-0.70353l0.00553,-1.79947c-0.00003,-0.00158 0.00041,-0.00303 0.00039,-0.00458c-0.00003,-0.00113 -0.00037,-0.00215 -0.00038,-0.00324l0.00541,-1.76707c-0.00009,-0.39461 0.3197,-0.71459 0.71428,-0.71469c0.38289,-0.0001 0.6929,0.30174 0.71126,0.68014l-0.00014,0.02311l0,0.00072l-0.00041,0.07019c-0.00114,0.01935 -0.00525,0.03787 -0.00496,0.05755c0.00634,0.44128 0.36919,0.79387 0.81048,0.78752c0.43734,-0.00631 0.78646,-0.36307 0.78651,-0.799h0.00585l0.00427,-0.10637c-0.00037,-1.27721 -1.03605,-2.31234 -2.31327,-2.312c-1.27721,0.00037 -2.31235,1.03605 -2.31199,2.31326l-0.00536,1.79176c0,0.00039 -0.00012,0.00076 -0.00012,0.00116c0,0.00028 0.00012,0.00053 0.00012,0.0008l-0.00542,1.80323c0.01811,1.25783 1.03764,2.26444 2.28853,2.27702c0.00754,0.00019 0.01301,0.00222 0.02076,0.00222h0.00001c0.00219,0 0.00434,-0.00016 0.0065,-0.00031v0.00288h1.53027c0.05359,-0.00077 0.10564,-0.00719 0.15602,-0.01799c0.02131,-0.00455 0.04097,-0.0128 0.06162,-0.019c0.02766,-0.00836 0.05575,-0.01557 0.08202,-0.02676c0.02751,-0.01162 0.05266,-0.02692 0.07849,-0.04141c0.01659,-0.00941 0.03397,-0.01742 0.04979,-0.02796c0.03072,-0.02024 0.05856,-0.04376 0.08611,-0.06791c0.0082,-0.00726 0.01707,-0.01361 0.02497,-0.02121c0.03089,-0.02938 0.05838,-0.0616 0.08427,-0.09551c0.00273,-0.00362 0.0058,-0.0069 0.00848,-0.01058c0.02786,-0.0378 0.05177,-0.07804 0.07273,-0.12047c0.00012,-0.00025 0.00025,-0.00047 0.00037,-0.0007c0.04308,-0.08744 0.06966,-0.18315 0.07823,-0.28481v-0.00001h0.00686v-2.39918c0,-0.4413 -0.35775,-0.79906 -0.79905,-0.79906zM125.56486,349.05087l-0.00011,0.01977l0,-0.00064zM125.56486,349.05087l0.00002,-0.00395v-0.00001z"
            />
        <path
           d="M136.77555,353.3796h-2.24801v-5.91566h-0.01096c-0.05353,-0.39213 -0.38624,-0.69536 -0.79306,-0.69536c-0.40683,0 -0.73954,0.30323 -0.79307,0.69536h-0.01096v6.74745h0.00105c0.00545,0.22003 0.0985,0.41753 0.24586,0.55929c0.00187,0.0018 0.0042,0.00308 0.00608,0.00487c0.03517,0.0332 0.07279,0.06382 0.1135,0.09027c0.01089,0.0071 0.02342,0.01161 0.03467,0.01818c0.03308,0.01929 0.06617,0.03866 0.10203,0.05315c0.02384,0.00965 0.04976,0.01465 0.07466,0.02201c0.02539,0.0075 0.04979,0.01734 0.07614,0.02231c0.05228,0.00988 0.10632,0.01473 0.16162,0.01394c0.02353,-0.00034 0.04562,-0.00545 0.0686,-0.00776h2.97185c0.44405,0 0.80402,-0.35997 0.80402,-0.80403c0,-0.44405 -0.35997,-0.80402 -0.80402,-0.80402z"
            />
        <path
           d="M146.40138,350.82085l-0.01333,1.82612c-0.00016,0.39559 -0.31945,0.71595 -0.71427,0.71906c-0.39436,0.00187 -0.71762,-0.31369 -0.7233,-0.70889l-0.01367,-1.61118c-0.00007,-0.00539 -0.00162,-0.01036 -0.00181,-0.01574c0.00826,-0.04634 0.01431,-0.0935 0.01428,-0.14221l0.01222,-1.83254c-0.0001,-0.38861 0.30827,-0.70321 0.6934,-0.71747c-0.00104,-0.00171 -0.00174,-0.00361 -0.00279,-0.00531c0.00971,0.0002 0.01883,0.00262 0.02862,0.00247c0.00016,0 0.00034,-0.00006 0.00051,-0.00006v0.00022c0.39762,-0.0001 0.72003,0.32213 0.72015,0.71974l-0.00909,1.61119c0,0.04189 0.00618,0.08212 0.01237,0.12229c-0.00045,0.01096 -0.00327,0.02124 -0.00327,0.0323zM148.00264,350.66582l0.00909,-1.61119c-0.00035,-1.28698 -1.04395,-2.32999 -2.33093,-2.32964v0.002c-0.00791,-0.00012 -0.0153,-0.00212 -0.02326,-0.002c-0.00664,0.0001 -0.01275,0.00196 -0.01934,0.00222c-1.26707,0.02331 -2.28743,1.05609 -2.28705,2.32869l-0.01223,1.83255c0,0.00614 0.00167,0.01182 0.00181,0.01793c-0.01003,0.05265 -0.01489,0.10708 -0.01412,0.16277l0.01367,1.61116c0.01821,1.26572 1.04292,2.27856 2.30104,2.29389c0.00833,0.00118 0.01624,0.00276 0.0259,0.00276c0.00289,0 0.00567,-0.00042 0.00855,-0.00042c0.0017,-0.00001 0.00326,0.00045 0.00496,0.00042c0.00228,-0.00003 0.00444,-0.00042 0.00662,-0.00076c0.00555,-0.00004 0.01093,0.00069 0.01652,0.0006l-0.00003,-0.00178c1.2699,-0.01931 2.29407,-1.05283 2.29458,-2.32744l0.01332,-1.82614c0.00003,-0.04216 -0.00614,-0.08267 -0.01235,-0.12309c0.00044,-0.01104 0.00326,-0.0214 0.00326,-0.03255z"
            />
        <path
           d="M156.25259,350.03967l-0.81402,0.007l-0.01392,-0.00012v-1.6241l0.01392,-0.00009l0.81402,0.007c0.51871,0.03838 0.70125,0.42661 0.72187,0.80514c-0.02062,0.37855 -0.20316,0.76677 -0.72187,0.80516zM158.62009,349.35296c0.00058,-0.03967 -0.00286,-0.07895 -0.00422,-0.11846c0.00136,-0.03949 0.00481,-0.07877 0.00422,-0.11847c-0.01889,-1.31336 -1.09891,-2.36275 -2.4123,-2.34387l-0.76923,0.00661l-0.78844,-0.00675c-0.04005,-0.00058 -0.07744,0.00811 -0.11546,0.01449c-0.10708,0.00896 -0.20763,0.03742 -0.29886,0.0834c-0.00023,0.00013 -0.00047,0.00026 -0.00072,0.00039c-0.04392,0.0222 -0.08554,0.04753 -0.12446,0.07696c-0.00583,0.00434 -0.01089,0.00947 -0.0166,0.01396c-0.03242,0.02587 -0.06357,0.05285 -0.09171,0.08327c-0.01234,0.01316 -0.02255,0.02795 -0.034,0.04188c-0.01948,0.02403 -0.03933,0.0475 -0.05604,0.07367c-0.01668,0.02577 -0.02976,0.05364 -0.04349,0.08128c-0.00846,0.01725 -0.01849,0.03344 -0.02575,0.05135c-0.01637,0.03986 -0.02818,0.08172 -0.03812,0.12445c-0.00186,0.00802 -0.00506,0.01546 -0.00667,0.02356c-0.01047,0.05209 -0.01606,0.10583 -0.01608,0.16103h-0.00107v6.53319h0.00111c0,0.00403 -0.00108,0.00779 -0.00102,0.01184c0.00655,0.4538 0.3797,0.8164 0.83351,0.80985c0.44978,-0.00648 0.80883,-0.37339 0.80883,-0.82169h0.00113v-1.23257l1.70423,1.76882l0.00244,-0.00237c0.1507,0.17485 0.37108,0.28791 0.62003,0.28791c0.45386,0 0.82178,-0.36792 0.82178,-0.82179c0,-0.23719 -0.10198,-0.44924 -0.26272,-0.59922l0.00153,-0.00148l-1.84863,-1.84787c1.19505,-0.11027 2.13913,-1.10631 2.15677,-2.33339z"
            />
        <path
           d="M168.22334,353.35754h-0.72791v-2.45735h-0.00323c0.00035,-0.01111 0.00248,-0.02175 0.00284,-0.03284h0.00039v-2.48241h0.72791c0.44161,0 0.79959,-0.35798 0.79959,-0.79959c0,-0.44159 -0.35798,-0.79957 -0.79959,-0.79957v-0.00001h-3.05496v0.00104c-0.43759,0.01089 -0.78602,0.37137 -0.7797,0.81007c0.00618,0.43085 0.35274,0.77465 0.7797,0.78531v0.00276h0.72789v2.48241h0.00175c-0.00007,0.00656 -0.00175,0.0127 -0.00167,0.01931c0.00007,0.00465 0.00142,0.00892 0.00156,0.01354h-0.00165v2.45735h-0.72789v0.00104c-0.43759,0.01089 -0.78602,0.37136 -0.7797,0.81007c0.00618,0.43083 0.35274,0.77464 0.7797,0.78529v0.00276h3.05496c0.44161,0 0.79959,-0.35798 0.79959,-0.79957c0,-0.44161 -0.35798,-0.79959 -0.79959,-0.79959z"
            />
        <path
           d="M177.84882,350.82085l-0.01333,1.82612c-0.00016,0.39559 -0.31945,0.71595 -0.71427,0.71906c-0.39436,0.00187 -0.71762,-0.31369 -0.7233,-0.70889l-0.01367,-1.61118c-0.00007,-0.00539 -0.00162,-0.01036 -0.00181,-0.01574c0.00826,-0.04634 0.01431,-0.0935 0.01428,-0.14221l0.01222,-1.83254c-0.0001,-0.38861 0.30827,-0.70321 0.6934,-0.71747c-0.00104,-0.00171 -0.00174,-0.00361 -0.00279,-0.00531c0.00971,0.0002 0.01883,0.00262 0.02862,0.00247c0.00016,0 0.00034,-0.00006 0.00051,-0.00006v0.00022c0.39762,-0.0001 0.72003,0.32213 0.72015,0.71974l-0.00909,1.61119c0,0.04189 0.00618,0.08212 0.01237,0.12229c-0.00045,0.01096 -0.00327,0.02124 -0.00327,0.0323zM179.45007,350.66582l0.00909,-1.61119c-0.00035,-1.28698 -1.04395,-2.32999 -2.33093,-2.32964v0.002c-0.00791,-0.00012 -0.0153,-0.00212 -0.02326,-0.002c-0.00664,0.0001 -0.01275,0.00196 -0.01934,0.00222c-1.26707,0.02331 -2.28743,1.05609 -2.28705,2.32869l-0.01223,1.83255c0,0.00614 0.00167,0.01182 0.00181,0.01793c-0.01003,0.05265 -0.01489,0.10708 -0.01412,0.16277l0.01367,1.61116c0.01821,1.26572 1.04292,2.27856 2.30104,2.29389c0.00833,0.00118 0.01624,0.00276 0.0259,0.00276c0.00289,0 0.00567,-0.00042 0.00855,-0.00042c0.0017,-0.00001 0.00326,0.00045 0.00496,0.00042c0.00228,-0.00003 0.00444,-0.00042 0.00662,-0.00076c0.00555,-0.00004 0.01093,0.00069 0.01652,0.0006l-0.00003,-0.00178c1.2699,-0.01931 2.29407,-1.05283 2.29458,-2.32744l0.01332,-1.82614c0.00003,-0.04216 -0.00614,-0.08267 -0.01235,-0.12309c0.00044,-0.01104 0.00326,-0.0214 0.00326,-0.03255z"
            />
        <path
           d="M189.84234,347.66385c-0.00006,-0.00392 -0.00121,-0.00753 -0.00132,-0.01144c0.00254,-0.02798 0.00766,-0.05525 0.00725,-0.08397c-0.00636,-0.44169 -0.36957,-0.7946 -0.81127,-0.78823c-0.44169,0.00634 -0.7946,0.36956 -0.78823,0.81125c0.00004,0.0039 0.0012,0.0075 0.00132,0.0114c-0.00257,0.02801 -0.00767,0.05528 -0.00725,0.08402l0.01356,4.94436c0.00569,0.39493 -0.30986,0.71971 -0.7048,0.72539c-0.39493,0.00569 -0.71971,-0.30986 -0.72539,-0.7048l-0.01356,-5.09492c-0.00637,-0.44169 -0.36959,-0.79459 -0.81128,-0.78823c-0.44169,0.00636 -0.79459,0.36957 -0.78825,0.81127l0.00004,0.01115c0,0.00013 -0.00004,0.00023 -0.00004,0.00023c0,0.00022 0.00004,0.00029 0.00004,0.00029l0.01354,5.08322c0.01815,1.26075 1.04144,2.26952 2.29584,2.27941c0.00801,0.00012 0.01552,0.00215 0.02359,0.00203c0.00268,-0.00004 0.00512,-0.00082 0.00779,-0.00089c0.00697,-0.00004 0.01373,0.00085 0.02071,0.00075h0.00001c1.27832,-0.0184 2.29966,-1.06961 2.28126,-2.34793l-0.01356,-4.94436z"
            />
        <path
           d="M199.1117,350.66151l-0.75856,-0.45038c-0.01625,-0.01136 -0.03021,-0.02483 -0.04753,-0.03512l-0.8091,-0.4804c-0.33888,-0.20122 -0.45048,-0.63902 -0.24929,-0.9779c0.20122,-0.33888 0.63904,-0.45048 0.97792,-0.24928l0.8091,0.48041c0.21319,0.12657 0.4614,0.14246 0.6778,0.06468c0.02404,-0.00865 0.04769,-0.01845 0.07088,-0.02938c0.09267,-0.04372 0.17761,-0.10556 0.24894,-0.18406c0.00319,-0.00352 0.00598,-0.00753 0.00912,-0.01112c0.02602,-0.02969 0.04986,-0.06189 0.07175,-0.09605c0.00496,-0.00773 0.01045,-0.01491 0.01519,-0.02286c0.22501,-0.37899 0.1002,-0.86865 -0.27879,-1.09367l-0.80912,-0.48041c-1.09685,-0.65126 -2.51398,-0.29001 -3.16525,0.80684c-0.65124,1.09687 -0.29001,2.51399 0.80685,3.16525l0.72881,0.43273c0.02456,0.01874 0.05006,0.03662 0.07728,0.05277l0.8091,0.48041c0.33888,0.2012 0.45048,0.63902 0.24928,0.97789c-0.2012,0.33888 -0.63902,0.45049 -0.9779,0.24928l-0.8091,-0.48041c-0.16581,-0.09844 -0.35281,-0.12993 -0.52956,-0.10246c-0.02524,0.00392 -0.0503,0.00905 -0.07503,0.01536c-0.07421,0.01891 -0.14573,0.04845 -0.21206,0.08798c-0.06633,0.03951 -0.12749,0.08903 -0.18097,0.14789c-0.03567,0.03925 -0.06794,0.08264 -0.09606,0.13002v0.00001c-0.22503,0.37899 -0.10021,0.86864 0.27879,1.09365l0.8091,0.48041c1.09687,0.65126 2.51399,0.29003 3.16525,-0.80682l0.00001,-0.00001c0.65124,-1.09685 0.29001,-2.51399 -0.80685,-3.16525z"
            />
        <path
           d="M217.58756,351.74499c-0.43254,0.00623 -0.77774,0.35383 -0.78901,0.78237h-0.00158l-0.00554,0.1066c-0.00016,0.39474 -0.31881,0.71442 -0.71276,0.71756c-0.39352,0.00186 -0.71608,-0.31302 -0.72175,-0.7074l0.00555,-1.81365l0.00001,-0.00031l-0.00001,-0.00023c-0.00025,-0.01795 -0.00459,-0.03469 -0.00604,-0.05233v-0.00013l0.01146,-1.72734c-0.00009,-0.39678 0.32146,-0.71849 0.71822,-0.71863c0.09922,-0.00001 0.1937,0.02005 0.27968,0.05639c0.24767,0.10466 0.42182,0.34503 0.4355,0.62748l0.00018,-0.03482l-0.00053,-0.01093v-0.00029c0.00018,-0.00016 0.00058,-0.00041 0.00058,-0.00041v0.00029c-0.00041,0.00007 0.00158,0.0452 0.00263,0.06797l0.00058,0.01232v0.00023v0.00029c0,-0.00991 -0.00251,-0.01916 -0.00292,-0.02899c-0.00006,-0.00181 -0.00047,-0.00352 -0.00053,-0.00534l-0.00053,0.09413c-0.00117,0.0195 -0.00532,0.03814 -0.00503,0.05796c0.0064,0.4437 0.37127,0.7982 0.81495,0.79181c0.43976,-0.00633 0.7908,-0.36504 0.7908,-0.80337h0.00111c0.00409,-0.04821 0.00953,-0.09603 0.00877,-0.14447c-0.00061,-0.03719 -0.00208,-0.07433 -0.00444,-0.11144c-0.00465,-0.07316 -0.01272,-0.1461 -0.02421,-0.21849c-0.01137,-0.07127 -0.02602,-0.14203 -0.04397,-0.21193c-0.01777,-0.06907 -0.03868,-0.1373 -0.06274,-0.20442c-0.02383,-0.06651 -0.05069,-0.13192 -0.08051,-0.19592c-0.02961,-0.06361 -0.06212,-0.12585 -0.09738,-0.18653c-0.03511,-0.06035 -0.07291,-0.11913 -0.11328,-0.1761c-0.04025,-0.0568 -0.08302,-0.1118 -0.12822,-0.16478c-0.04511,-0.0529 -0.09255,-0.10381 -0.14219,-0.15248c-0.04964,-0.04867 -0.1015,-0.09517 -0.15526,-0.13924c-0.05388,-0.04413 -0.10971,-0.08587 -0.16731,-0.12505c-0.05782,-0.03928 -0.1174,-0.07596 -0.1785,-0.10988c-0.06139,-0.0341 -0.12436,-0.0654 -0.18862,-0.09377c-0.06472,-0.02859 -0.13079,-0.05418 -0.19785,-0.07672c-0.06776,-0.02274 -0.13655,-0.04233 -0.20613,-0.0587c-0.07048,-0.01658 -0.1417,-0.02983 -0.21344,-0.03974c-0.07288,-0.01006 -0.14626,-0.01665 -0.21978,-0.01982c-0.03391,-0.00145 -0.06791,-0.00216 -0.10185,-0.00216c-1.28424,0.00037 -2.33593,1.04173 -2.33555,2.32597v1.78956c0.00053,0.00034 0.00075,0.00076 0.00115,0.00114c0,0.00412 -0.0011,0.00797 -0.00104,0.0121c0.00004,0.00254 0.00076,0.00485 0.00085,0.0074c-0.00041,0.00031 -0.00051,0.00076 -0.00095,0.00102v1.80547c0.0182,1.26474 1.04333,2.27689 2.3011,2.28954c0.00757,0.0002 0.01308,0.00224 0.02087,0.00224c0.00579,0 0.01134,-0.00082 0.01715,-0.00085c0.00653,-0.00004 0.01288,0.00079 0.01941,-0.00099c1.26718,-0.01924 2.28917,-1.05068 2.28967,-2.32257l0.00553,-0.10724h-0.00248c-0.01152,-0.43915 -0.37339,-0.78871 -0.81384,-0.78237z"
            />
        <path
           d="M226.66245,350.03967l-0.81402,0.007l-0.01392,-0.00012v-1.6241l0.01392,-0.00009l0.81402,0.007c0.51871,0.03838 0.70125,0.42661 0.72187,0.80514c-0.02062,0.37855 -0.20316,0.76677 -0.72187,0.80516zM229.02996,349.35296c0.00058,-0.03967 -0.00286,-0.07895 -0.00422,-0.11846c0.00136,-0.03949 0.00481,-0.07877 0.00422,-0.11847c-0.01889,-1.31336 -1.09891,-2.36275 -2.4123,-2.34387l-0.76923,0.00661l-0.78844,-0.00675c-0.04005,-0.00058 -0.07744,0.00811 -0.11546,0.01449c-0.10708,0.00896 -0.20763,0.03742 -0.29886,0.0834c-0.00023,0.00013 -0.00047,0.00026 -0.00072,0.00039c-0.04392,0.0222 -0.08554,0.04753 -0.12446,0.07696c-0.00583,0.00434 -0.01089,0.00947 -0.0166,0.01396c-0.03242,0.02587 -0.06357,0.05285 -0.09171,0.08327c-0.01234,0.01316 -0.02255,0.02795 -0.034,0.04188c-0.01948,0.02403 -0.03933,0.0475 -0.05604,0.07367c-0.01668,0.02577 -0.02976,0.05364 -0.04349,0.08128c-0.00846,0.01725 -0.01849,0.03344 -0.02575,0.05135c-0.01637,0.03986 -0.02818,0.08172 -0.03812,0.12445c-0.00186,0.00802 -0.00506,0.01546 -0.00667,0.02356c-0.01047,0.05209 -0.01606,0.10583 -0.01608,0.16103h-0.00107v6.53319h0.00111c0,0.00403 -0.00108,0.00779 -0.00102,0.01184c0.00655,0.4538 0.3797,0.8164 0.83351,0.80985c0.44978,-0.00648 0.80883,-0.37339 0.80883,-0.82169h0.00113v-1.23257l1.70423,1.76882l0.00244,-0.00237c0.1507,0.17485 0.37108,0.28791 0.62003,0.28791c0.45386,0 0.82178,-0.36792 0.82178,-0.82179c0,-0.23719 -0.10198,-0.44924 -0.26272,-0.59922l0.00153,-0.00148l-1.84863,-1.84787c1.19505,-0.11027 2.13913,-1.10631 2.15677,-2.33339z"
            />
        <path
           d="M236.4069,350.06285l-0.0026,-0.9792c-0.00564,-0.39273 0.30774,-0.71564 0.70024,-0.72213c0.39226,-0.00447 0.71456,0.30909 0.72022,0.70163l0.00266,0.99971h-1.42052zM239.43098,354.10198c0,-0.00016 -0.00003,-0.00032 -0.00003,-0.00032l-0.01349,-5.06146c-0.01773,-1.23188 -0.99943,-2.22117 -2.21642,-2.2672c-0.02787,-0.00284 -0.05614,-0.00417 -0.08475,-0.00412c-0.00161,0.00001 -0.0031,-0.00044 -0.00472,-0.00041c-0.00053,0 -0.00104,0.00009 -0.00156,0.0001c-0.0007,0.00001 -0.00139,-0.00012 -0.00209,-0.0001c-0.00395,0.00006 -0.00776,0.00064 -0.01171,0.00076c-0.00439,0.00003 -0.00868,-0.00032 -0.01304,-0.00047v-0.00013c-0.00044,0 -0.00086,0.00009 -0.0013,0.00009c-0.00079,-0.00001 -0.00155,-0.0001 -0.00234,-0.00009v0.00023c-1.27116,0.02029 -2.28625,1.06604 -2.26795,2.3377l0.00456,1.70919c-0.00102,0.01849 -0.005,0.03618 -0.00472,0.05499c0.00022,0.01508 0.00395,0.02913 0.00498,0.044l0.0087,3.26507c0.00633,0.43982 0.36801,0.79123 0.80782,0.78488c0.00042,0 0.00082,-0.00007 0.00123,-0.00007c0.00075,0 0.00148,0.00009 0.00222,0.00007c0.43982,-0.00633 0.79123,-0.368 0.78488,-0.80782c-0.00026,-0.01872 -0.00205,-0.03707 -0.0036,-0.05546l-0.0065,-2.4457h1.4205l0.00661,2.48067c0.00634,0.43981 0.36801,0.79121 0.80782,0.78488h0.00001c0.43982,-0.00633 0.79121,-0.36801 0.78488,-0.80782l-0.00003,-0.01067c0,-0.00026 0.00003,-0.00053 0.00003,-0.00079z"
            />
        <path
           d="M249.00396,350.08735h-2.23165v-0.0215v-1.68374h2.23165c0.44082,0 0.79817,-0.35735 0.79817,-0.79819c0,-0.4408 -0.35735,-0.79816 -0.79817,-0.79816h-3.0496v0.00588c-0.43145,0.01076 -0.77839,0.36213 -0.77839,0.79618v6.59049h0.00102c0.01088,0.43681 0.3707,0.78464 0.80864,0.77832c0.43009,-0.00618 0.77328,-0.35212 0.78392,-0.77832h0.00276v-2.49461h2.23165c0.44082,0 0.79817,-0.35735 0.79817,-0.79819c0,-0.4408 -0.35735,-0.79817 -0.79817,-0.79817z"

            />
        <path
           d="M259.40209,346.77138v-0.00278h-3.05593c-0.44174,0 -0.79984,0.3581 -0.79984,0.79984c0,0.44174 0.3581,0.79984 0.79984,0.79984h0.70831h0.00992v0.72953h-0.00001v3.54h0.00001v1.65516h0.00946c0.04714,0.4023 0.38808,0.71291 0.80188,0.70695c0.40601,-0.00583 0.73336,-0.31426 0.77924,-0.70695h0.00909v-5.92469h0.73802v-0.00105c0.43769,-0.01088 0.78624,-0.37146 0.77994,-0.8103c-0.00621,-0.43097 -0.35285,-0.77489 -0.77994,-0.78554z"

            />
        <path
           d="M269.41962,350.66151l-0.75856,-0.45038c-0.01625,-0.01136 -0.03021,-0.02483 -0.04753,-0.03512l-0.8091,-0.4804c-0.33888,-0.20122 -0.45048,-0.63902 -0.24929,-0.9779c0.20122,-0.33888 0.63904,-0.45048 0.97792,-0.24928l0.8091,0.48041c0.21319,0.12657 0.4614,0.14246 0.6778,0.06468c0.02404,-0.00865 0.04769,-0.01845 0.07088,-0.02938c0.09267,-0.04372 0.17761,-0.10556 0.24894,-0.18406c0.00319,-0.00352 0.00598,-0.00753 0.00912,-0.01112c0.02602,-0.02969 0.04986,-0.06189 0.07175,-0.09605c0.00496,-0.00773 0.01045,-0.01491 0.01519,-0.02286c0.22501,-0.37899 0.1002,-0.86865 -0.27879,-1.09367l-0.80912,-0.48041c-1.09685,-0.65126 -2.51398,-0.29001 -3.16525,0.80684c-0.65124,1.09687 -0.29001,2.51399 0.80685,3.16525l0.72881,0.43273c0.02456,0.01874 0.05006,0.03662 0.07728,0.05277l0.8091,0.48041c0.33888,0.2012 0.45048,0.63902 0.24928,0.97789c-0.2012,0.33888 -0.63902,0.45049 -0.9779,0.24928l-0.8091,-0.48041c-0.16581,-0.09844 -0.35281,-0.12993 -0.52956,-0.10246c-0.02524,0.00392 -0.0503,0.00905 -0.07503,0.01536c-0.07421,0.01891 -0.14573,0.04845 -0.21206,0.08798c-0.06633,0.03951 -0.12749,0.08903 -0.18097,0.14789c-0.03567,0.03925 -0.06794,0.08264 -0.09606,0.13002v0.00001c-0.22503,0.37899 -0.10021,0.86864 0.27879,1.09365l0.8091,0.48041c1.09687,0.65126 2.51399,0.29003 3.16525,-0.80682l0.00001,-0.00001c0.65124,-1.09685 0.29001,-2.51399 -0.80685,-3.16525z"

            />
        <path
           d="M282.96006,347.5647c-0.00001,-0.0025 0.00037,-0.0049 0.00034,-0.0074c-0.00037,-0.02551 -0.00589,-0.04949 -0.00858,-0.07436c-0.00001,-0.00007 -0.00001,-0.00016 -0.00003,-0.00023c-0.00292,-0.02701 -0.00376,-0.05459 -0.00931,-0.08074v-0.00001c-0.00553,-0.026 -0.01533,-0.05008 -0.02328,-0.07506c-0.0001,-0.00034 -0.00023,-0.00067 -0.00034,-0.00101c-0.00791,-0.02464 -0.01386,-0.05005 -0.02402,-0.07358c-0.00001,-0.00001 0,-0.00006 -0.00001,-0.00007c-0.01038,-0.02409 -0.0246,-0.04577 -0.03721,-0.06855c-0.0001,-0.00018 -0.0002,-0.00037 -0.00031,-0.00054c-0.13651,-0.24605 -0.39574,-0.41455 -0.69705,-0.41455c-0.00241,0 -0.00469,0.00045 -0.00709,0.00047c-0.00151,0.00001 -0.00291,-0.00041 -0.00443,-0.00038c-0.02141,0.00031 -0.04221,0.00284 -0.06316,0.00481c-0.01089,0.00102 -0.02206,0.00104 -0.03282,0.00248c-0.01089,0.00148 -0.02124,0.00447 -0.03198,0.00636c-0.01033,0.00186 -0.02051,0.00383 -0.0307,0.0061c-0.01149,0.0025 -0.02339,0.00389 -0.03467,0.0069c-0.00653,0.00175 -0.01263,0.00446 -0.0191,0.00636c-0.02489,0.00732 -0.0496,0.01511 -0.07339,0.02475c-0.01324,0.00535 -0.02567,0.01215 -0.03853,0.01817c-0.0163,0.00766 -0.0328,0.01488 -0.04847,0.02358c-0.01291,0.00716 -0.02501,0.01541 -0.03738,0.02336c-0.00623,0.00392 -0.01234,0.00786 -0.01845,0.01194c-0.00836,0.00526 -0.01682,0.01038 -0.02482,0.01617c-0.0134,0.00969 -0.0259,0.02042 -0.03866,0.0309c-0.0119,0.00979 -0.02394,0.01931 -0.03527,0.02975c-0.00126,0.00115 -0.00235,0.00246 -0.0036,0.00363c-0.00159,0.00148 -0.00354,0.00253 -0.00512,0.00402c-0.00303,0.00285 -0.0052,0.00649 -0.00819,0.00938c-0.00593,0.00605 -0.01204,0.01193 -0.01793,0.01807c-0.01074,0.0112 -0.02152,0.02228 -0.03162,0.03407c-0.01045,0.01222 -0.02014,0.02501 -0.02985,0.03784c-0.00268,0.00352 -0.00539,0.00699 -0.0082,0.01039c-0.00351,0.00477 -0.00759,0.00897 -0.01099,0.01381l-0.00132,-0.00121l-1.69742,2.37811l-1.6966,-2.37617c-0.00018,-0.00025 -0.00034,-0.00048 -0.00051,-0.00072l-0.00088,-0.00123l-0.0001,0.00007c-0.02508,-0.03581 -0.05326,-0.06917 -0.0839,-0.10011c-0.01769,-0.0181 -0.03793,-0.03318 -0.05725,-0.04955c-0.01342,-0.01128 -0.02561,-0.02394 -0.03971,-0.03439c-0.00053,-0.00038 -0.00104,-0.00082 -0.00156,-0.00121c-0.00284,-0.00209 -0.00599,-0.00373 -0.00886,-0.00577c-0.01434,-0.01028 -0.02915,-0.01947 -0.04417,-0.0288c-0.00729,-0.00452 -0.01411,-0.00973 -0.02155,-0.01403c-0.0038,-0.00222 -0.00744,-0.00465 -0.01127,-0.0068c-0.01725,-0.00959 -0.03531,-0.01774 -0.05334,-0.02593c-0.01126,-0.0052 -0.022,-0.01099 -0.03352,-0.01567c-0.00167,-0.00073 -0.00329,-0.00155 -0.005,-0.00224c-0.02131,-0.00852 -0.04334,-0.01542 -0.0655,-0.02209c-0.01047,-0.00319 -0.02062,-0.00688 -0.03127,-0.00963c-0.00696,-0.00178 -0.01419,-0.00276 -0.02127,-0.00422c-0.01156,-0.00265 -0.02315,-0.00481 -0.03492,-0.00694c-0.00183,-0.00032 -0.0036,-0.00076 -0.00542,-0.00108c-0.01302,-0.00228 -0.02577,-0.00523 -0.039,-0.00687c-0.01986,-0.00244 -0.0402,-0.00301 -0.06047,-0.00396c-0.01267,-0.0006 -0.02497,-0.00247 -0.03778,-0.00247c-0.00148,0 -0.00285,0.00042 -0.00433,0.00044c-0.00243,0.00001 -0.00475,-0.00039 -0.00718,-0.00035c-0.02533,0.00037 -0.04916,0.0058 -0.0738,0.00851c-0.13472,0.01449 -0.26028,0.05883 -0.36652,0.13171h-0.00001c-0.0213,0.01462 -0.03976,0.03255 -0.05951,0.0491c-0.00004,0.00003 -0.00006,0.00006 -0.0001,0.00009c-0.01951,0.01636 -0.04023,0.03122 -0.05809,0.04935c-0.00001,0.00001 -0.00001,0.00001 -0.00003,0.00003c-0.01022,0.01038 -0.01878,0.02217 -0.02773,0.03362c-0.05818,0.06579 -0.1076,0.13937 -0.14175,0.22175l-0.00001,0.00001c-0.00342,0.00826 -0.00532,0.0172 -0.008,0.02578c-0.03286,0.08751 -0.05318,0.18122 -0.05318,0.28021v6.60746h0.00104c0.01088,0.43791 0.37165,0.78665 0.81071,0.78034c0.4312,-0.00621 0.7753,-0.35303 0.78594,-0.78034h0.00278v-4.11567l0.89211,1.24944c0.00018,0.00025 0.00034,0.00048 0.00051,0.00073l0.00088,0.00123l0.00009,-0.00009c0.02618,0.03738 0.05601,0.07177 0.08821,0.10382c0.00216,0.00231 0.00389,0.00503 0.00615,0.00725c0.01449,0.01428 0.03093,0.02624 0.04696,0.03873c0.01337,0.01123 0.02551,0.02384 0.03955,0.03425c0.00053,0.00039 0.00104,0.00082 0.00156,0.00123c0.00479,0.00352 0.01009,0.00633 0.01495,0.00974c0.00539,0.0042 0.01028,0.00903 0.01601,0.01283c0.00696,0.00462 0.01472,0.00795 0.02204,0.01197c0.00738,0.00456 0.01425,0.00984 0.02179,0.01419c0.0037,0.00215 0.00722,0.00452 0.01095,0.00661c0.02277,0.01267 0.04636,0.0238 0.07044,0.03423c0.00045,0.00019 0.00089,0.00039 0.00134,0.0006c0.00335,0.00156 0.00634,0.00371 0.00978,0.00513c0.0017,0.0007 0.0036,0.00099 0.00531,0.00165c0.00171,0.00075 0.00335,0.00158 0.00509,0.00228c0.02131,0.00851 0.04332,0.01541 0.0655,0.02209c0.01047,0.00317 0.02062,0.00688 0.03127,0.00963c0.00981,0.00251 0.01997,0.00403 0.02999,0.00596c0.00446,0.00113 0.00861,0.00298 0.01317,0.00387c0.0042,0.00083 0.00867,0.00069 0.01292,0.0013c0.00186,0.00032 0.00365,0.00077 0.00551,0.0011c0.01302,0.00228 0.02577,0.00525 0.03901,0.00688c0.01985,0.00244 0.04018,0.00301 0.06047,0.00396c0.01266,0.00058 0.02495,0.00246 0.03777,0.00246c0.00189,0 0.0037,-0.00023 0.00553,-0.00037c0.002,0.00009 0.00396,0.00032 0.00599,0.00029c0.02141,-0.00031 0.04221,-0.00285 0.06316,-0.00481c0.01089,-0.00102 0.02206,-0.00104 0.0328,-0.00248c0.01538,-0.00208 0.03005,-0.00605 0.04512,-0.00897c0.00471,-0.00073 0.00968,-0.00067 0.0143,-0.00165c0.00371,-0.00079 0.00707,-0.00238 0.01071,-0.00333c0.00899,-0.00205 0.01836,-0.00304 0.02722,-0.00541c0.00655,-0.00174 0.01264,-0.00444 0.01912,-0.00634c0.02489,-0.00732 0.0496,-0.01511 0.07338,-0.02475c0.00362,-0.00146 0.00702,-0.00335 0.01055,-0.00498c0.00285,-0.0011 0.00596,-0.00164 0.00876,-0.00285c0.00629,-0.00272 0.01187,-0.00656 0.01789,-0.00971c0.00045,-0.00022 0.00089,-0.00044 0.00134,-0.00064c0.01628,-0.00764 0.0328,-0.01487 0.04845,-0.02356c0.0139,-0.00772 0.02691,-0.01668 0.04028,-0.02517c0.00104,-0.00066 0.00205,-0.00134 0.00308,-0.002c0.00807,-0.00449 0.01655,-0.00835 0.02415,-0.01356c0.00449,-0.00308 0.00826,-0.00702 0.01254,-0.01035c0.00019,-0.00013 0.00039,-0.00025 0.00058,-0.00038c0.01342,-0.00969 0.02592,-0.02042 0.03866,-0.03091c0.0119,-0.00978 0.02396,-0.01931 0.03527,-0.02973c0.00251,-0.00231 0.00475,-0.00488 0.00719,-0.00725c0.00788,-0.00658 0.01625,-0.01261 0.02347,-0.01994c0.00935,-0.0095 0.01717,-0.02035 0.02542,-0.03081c0.00343,-0.00374 0.00706,-0.00731 0.01038,-0.01118c0.01045,-0.01221 0.02013,-0.025 0.02985,-0.03784c0.00599,-0.00791 0.01264,-0.01526 0.0184,-0.02333c0.00023,-0.00031 0.0005,-0.00061 0.00073,-0.00092l0.00137,0.00127l0.90144,-1.26295v4.12722h0.00104c0.01088,0.43791 0.37166,0.78665 0.81071,0.78034c0.4312,-0.00621 0.77528,-0.35303 0.78594,-0.78034h0.00278v-6.60746c0,-0.00142 -0.00041,-0.00273 -0.00041,-0.00414z"

            />
        <path
           d="M290.51257,350.06285l-0.0026,-0.9792c-0.00564,-0.39273 0.30774,-0.71564 0.70024,-0.72213c0.39226,-0.00447 0.71456,0.30909 0.72022,0.70163l0.00266,0.99971h-1.42052zM293.53665,354.10198c0,-0.00016 -0.00003,-0.00032 -0.00003,-0.00032l-0.01349,-5.06146c-0.01773,-1.23188 -0.99943,-2.22117 -2.21642,-2.2672c-0.02787,-0.00284 -0.05614,-0.00417 -0.08475,-0.00412c-0.00161,0.00001 -0.0031,-0.00044 -0.00472,-0.00041c-0.00053,0 -0.00104,0.00009 -0.00156,0.0001c-0.0007,0.00001 -0.00139,-0.00012 -0.00209,-0.0001c-0.00395,0.00006 -0.00776,0.00064 -0.01171,0.00076c-0.00439,0.00003 -0.00868,-0.00032 -0.01304,-0.00047v-0.00013c-0.00044,0 -0.00086,0.00009 -0.0013,0.00009c-0.00079,-0.00001 -0.00155,-0.0001 -0.00234,-0.00009v0.00023c-1.27116,0.02029 -2.28625,1.06604 -2.26795,2.3377l0.00456,1.70919c-0.00102,0.01849 -0.005,0.03618 -0.00472,0.05499c0.00022,0.01508 0.00395,0.02913 0.00498,0.044l0.0087,3.26507c0.00633,0.43982 0.36801,0.79123 0.80782,0.78488c0.00042,0 0.00082,-0.00007 0.00123,-0.00007c0.00075,0 0.00148,0.00009 0.00222,0.00007c0.43982,-0.00633 0.79123,-0.368 0.78488,-0.80782c-0.00026,-0.01872 -0.00205,-0.03707 -0.0036,-0.05546l-0.0065,-2.4457h1.4205l0.00661,2.48067c0.00634,0.43981 0.36801,0.79121 0.80782,0.78488h0.00001c0.43982,-0.00633 0.79121,-0.36801 0.78488,-0.80782l-0.00003,-0.01067c0,-0.00026 0.00003,-0.00053 0.00003,-0.00079z"

            />
        <path
           d="M304.91917,354.05923v-6.52916c0,-0.44468 -0.3605,-0.80517 -0.80517,-0.80517c-0.44469,0 -0.80517,0.3605 -0.80517,0.80517v3.68707l-2.36212,-3.97355l-0.00126,0.00079c0,-0.00001 -0.00001,-0.00001 -0.00001,-0.00003c-0.01158,-0.03039 -0.026,-0.05895 -0.04104,-0.08745c-0.0062,-0.0118 -0.01225,-0.02355 -0.01899,-0.03499c-0.01529,-0.02581 -0.03153,-0.05052 -0.04951,-0.07437c-0.00966,-0.01289 -0.02024,-0.02486 -0.03064,-0.03714c-0.01821,-0.02136 -0.03588,-0.04289 -0.05619,-0.06222c-0.02944,-0.02827 -0.06095,-0.05433 -0.0944,-0.07786c-0.01519,-0.01061 -0.03167,-0.01899 -0.04761,-0.02855c-0.02502,-0.01514 -0.0504,-0.02948 -0.07712,-0.04186c-0.01658,-0.00762 -0.03341,-0.01421 -0.05057,-0.02071c-0.02985,-0.0114 -0.06048,-0.02073 -0.09194,-0.02855c-0.01529,-0.00377 -0.03018,-0.00807 -0.04579,-0.01095c-0.04768,-0.00887 -0.09638,-0.01479 -0.1467,-0.01479c-0.44469,0 -0.80517,0.3605 -0.80517,0.80517v6.64824h0.0089c0.01095,0.44061 0.37394,0.79151 0.81571,0.78513c0.44465,-0.0064 0.79991,-0.37203 0.79351,-0.81668c-0.00034,-0.02308 -0.00554,-0.04474 -0.00778,-0.06731v-3.63645l2.40489,4.08039l0.00191,-0.0011c0.00248,0.00487 0.00582,0.00919 0.00839,0.014c0.02828,0.05284 0.06208,0.10157 0.10094,0.14651c0.00769,0.00895 0.01494,0.01821 0.02301,0.02682c0.01859,0.01969 0.03808,0.03802 0.05856,0.05575c0.01468,0.01282 0.03008,0.02457 0.04565,0.03631c0.01843,0.01374 0.03618,0.02804 0.05575,0.0402c0.03463,0.02174 0.07116,0.04055 0.10906,0.05683c0.01409,0.00599 0.02877,0.01041 0.04325,0.01561c0.03103,0.01126 0.06277,0.02061 0.09546,0.02798c0.01432,0.0032 0.02844,0.00645 0.04303,0.00887c0.04672,0.00782 0.09429,0.01298 0.14342,0.01228c0.44463,-0.0064 0.7999,-0.37203 0.79349,-0.81668c-0.00042,-0.0298 -0.00411,-0.05869 -0.00776,-0.08754z"

            />
        <path
           d="M314.27738,350.66151l-0.75856,-0.45038c-0.01625,-0.01136 -0.03021,-0.02483 -0.04753,-0.03512l-0.8091,-0.4804c-0.33888,-0.20122 -0.45048,-0.63902 -0.24929,-0.9779c0.20122,-0.33888 0.63904,-0.45048 0.97792,-0.24928l0.8091,0.48041c0.21319,0.12657 0.4614,0.14246 0.6778,0.06468c0.02404,-0.00865 0.04769,-0.01845 0.07088,-0.02938c0.09267,-0.04372 0.17761,-0.10556 0.24894,-0.18406c0.00319,-0.00352 0.00598,-0.00753 0.00912,-0.01112c0.02602,-0.02969 0.04986,-0.06189 0.07175,-0.09605c0.00496,-0.00773 0.01045,-0.01491 0.01519,-0.02286c0.22501,-0.37899 0.1002,-0.86865 -0.27879,-1.09367l-0.80912,-0.48041c-1.09685,-0.65126 -2.51398,-0.29001 -3.16525,0.80684c-0.65124,1.09687 -0.29001,2.51399 0.80685,3.16525l0.72881,0.43273c0.02456,0.01874 0.05006,0.03662 0.07728,0.05277l0.8091,0.48041c0.33888,0.2012 0.45048,0.63902 0.24928,0.97789c-0.2012,0.33888 -0.63902,0.45049 -0.9779,0.24928l-0.8091,-0.48041c-0.16581,-0.09844 -0.35281,-0.12993 -0.52956,-0.10246c-0.02524,0.00392 -0.0503,0.00905 -0.07503,0.01536c-0.07421,0.01891 -0.14573,0.04845 -0.21206,0.08798c-0.06633,0.03951 -0.12749,0.08903 -0.18097,0.14789c-0.03567,0.03925 -0.06794,0.08264 -0.09606,0.13002v0.00001c-0.22503,0.37899 -0.10021,0.86864 0.27879,1.09365l0.8091,0.48041c1.09687,0.65126 2.51399,0.29003 3.16525,-0.80682l0.00001,-0.00001c0.65124,-1.09685 0.29001,-2.51399 -0.80685,-3.16525z"

            />
        <path
           d="M325.9468,350.89493c0,-0.00004 -0.00001,-0.0001 -0.00001,-0.00015v-3.31009c0,-0.44123 -0.35769,-0.79893 -0.79893,-0.79893c-0.44126,0 -0.79896,0.35771 -0.79896,0.79893v2.5113h-1.43874v-2.5113c0,-0.44123 -0.35771,-0.79893 -0.79895,-0.79893c-0.44124,0 -0.79895,0.35771 -0.79895,0.79893v6.59685h0.00102c0.01089,0.43722 0.37107,0.78538 0.80943,0.77907c0.4305,-0.0062 0.77402,-0.35246 0.78468,-0.77907h0.00276v-2.48765h1.43874v2.48762h0.00104c0.01086,0.43722 0.37106,0.78541 0.80943,0.7791c0.43048,-0.0062 0.77401,-0.35246 0.78467,-0.7791h0.00276v-3.28644c0,-0.00004 0.00001,-0.0001 0.00001,-0.00015z"

            />
        <path
           d="M335.54091,353.35754h-0.72791v-2.45735h-0.00323c0.00035,-0.01111 0.00248,-0.02175 0.00284,-0.03284h0.00039v-2.48241h0.72791c0.44161,0 0.79959,-0.35798 0.79959,-0.79959c0,-0.44159 -0.35798,-0.79957 -0.79959,-0.79957v-0.00001h-3.05496v0.00104c-0.43759,0.01089 -0.78602,0.37137 -0.7797,0.81007c0.00618,0.43085 0.35274,0.77465 0.7797,0.78531v0.00276h0.72789v2.48241h0.00175c-0.00007,0.00656 -0.00175,0.0127 -0.00167,0.01931c0.00007,0.00465 0.00142,0.00892 0.00156,0.01354h-0.00165v2.45735h-0.72789v0.00104c-0.43759,0.01089 -0.78602,0.37136 -0.7797,0.81007c0.00618,0.43083 0.35274,0.77464 0.7797,0.78529v0.00276h3.05496c0.44161,0 0.79959,-0.35798 0.79959,-0.79957c0,-0.44161 -0.35798,-0.79959 -0.79959,-0.79959z"

            />
        <path
           d="M344.51919,349.97402l-0.79694,0.00719h-0.01434v-1.59146h0.01434l0.79694,0.00478c0.50735,0.0383 0.68685,0.41882 0.70598,0.78975c-0.01913,0.37093 -0.19863,0.75146 -0.70598,0.78974zM346.83817,349.06941c-0.01913,-1.28752 -1.07693,-2.31659 -2.36206,-2.29744l-0.75385,0.00718l-0.54565,-0.00478l-0.22734,-0.0024c-0.04066,0 -0.07656,0.00718 -0.11486,0.01435c-0.41402,0.0359 -0.73712,0.38052 -0.73712,0.80172v0.00956v3.19011v0.00956v3.37676h0.00957c0.00959,0.44035 0.37335,0.78975 0.81368,0.78258c0.44513,-0.00479 0.80171,-0.37093 0.79453,-0.81606c0,-0.02155 -0.00477,-0.04309 -0.00716,-0.06702v-2.48412h0.01434l0.75385,0.00719c1.28513,0.01913 2.34293,-1.00993 2.36206,-2.29506c0,-0.04068 -0.0024,-0.07898 -0.00479,-0.11726c0.0024,-0.0383 0.00479,-0.07658 0.00479,-0.11487z"

            />
        <path
           d="M363.27146,350.82085l-0.01333,1.82612c-0.00016,0.39559 -0.31945,0.71595 -0.71427,0.71906c-0.39436,0.00187 -0.71762,-0.31369 -0.7233,-0.70889l-0.01367,-1.61118c-0.00007,-0.00539 -0.00162,-0.01036 -0.00181,-0.01574c0.00826,-0.04634 0.01431,-0.0935 0.01428,-0.14221l0.01222,-1.83254c-0.0001,-0.38861 0.30827,-0.70321 0.6934,-0.71747c-0.00104,-0.00171 -0.00174,-0.00361 -0.00279,-0.00531c0.00971,0.0002 0.01883,0.00262 0.02862,0.00247c0.00016,0 0.00034,-0.00006 0.00051,-0.00006v0.00022c0.39762,-0.0001 0.72003,0.32213 0.72015,0.71974l-0.00909,1.61119c0,0.04189 0.00618,0.08212 0.01237,0.12229c-0.00045,0.01096 -0.00327,0.02124 -0.00327,0.0323zM364.87271,350.66582l0.00909,-1.61119c-0.00035,-1.28698 -1.04395,-2.32999 -2.33093,-2.32964v0.002c-0.00791,-0.00012 -0.0153,-0.00212 -0.02326,-0.002c-0.00664,0.0001 -0.01275,0.00196 -0.01934,0.00222c-1.26707,0.02331 -2.28743,1.05609 -2.28705,2.32869l-0.01223,1.83255c0,0.00614 0.00167,0.01182 0.00181,0.01793c-0.01003,0.05265 -0.01489,0.10708 -0.01412,0.16277l0.01367,1.61116c0.01821,1.26572 1.04292,2.27856 2.30104,2.29389c0.00833,0.00118 0.01624,0.00276 0.0259,0.00276c0.00289,0 0.00567,-0.00042 0.00855,-0.00042c0.0017,-0.00001 0.00326,0.00045 0.00496,0.00042c0.00228,-0.00003 0.00444,-0.00042 0.00662,-0.00076c0.00555,-0.00004 0.01093,0.00069 0.01652,0.0006l-0.00003,-0.00178c1.2699,-0.01931 2.29407,-1.05283 2.29458,-2.32744l0.01332,-1.82614c0.00003,-0.04216 -0.00614,-0.08267 -0.01235,-0.12309c0.00044,-0.01104 0.00326,-0.0214 0.00326,-0.03255z"

            />
        <path
           d="M374.45391,350.08735h-2.23165v-0.0215v-1.68374h2.23165c0.44082,0 0.79817,-0.35735 0.79817,-0.79819c0,-0.4408 -0.35735,-0.79816 -0.79817,-0.79816h-3.0496v0.00588c-0.43145,0.01076 -0.77839,0.36213 -0.77839,0.79618v6.59049h0.00102c0.01088,0.43681 0.3707,0.78464 0.80864,0.77832c0.43009,-0.00618 0.77328,-0.35212 0.78392,-0.77832h0.00276v-2.49461h2.23165c0.44082,0 0.79817,-0.35735 0.79817,-0.79819c0,-0.4408 -0.35735,-0.79817 -0.79817,-0.79817z"

            />
        <path
           d="M393.23061,350.89493c0,-0.00004 -0.00001,-0.0001 -0.00001,-0.00015v-3.31009c0,-0.44123 -0.35769,-0.79893 -0.79893,-0.79893c-0.44126,0 -0.79896,0.35771 -0.79896,0.79893v2.5113h-1.43874v-2.5113c0,-0.44123 -0.35771,-0.79893 -0.79895,-0.79893c-0.44124,0 -0.79895,0.35771 -0.79895,0.79893v6.59685h0.00102c0.01089,0.43722 0.37107,0.78538 0.80943,0.77907c0.4305,-0.0062 0.77402,-0.35246 0.78468,-0.77907h0.00276v-2.48765h1.43874v2.48762h0.00104c0.01086,0.43722 0.37106,0.78541 0.80943,0.7791c0.43048,-0.0062 0.77401,-0.35246 0.78467,-0.7791h0.00276v-3.28644c0,-0.00004 0.00001,-0.0001 0.00001,-0.00015z"

            />
        <path
           d="M402.79293,351.62034c0.43918,0 0.79519,-0.35602 0.79519,-0.79519c0,-0.43918 -0.35601,-0.7952 -0.79519,-0.7952h-2.22331v-1.66155h2.22331c0.43918,0 0.79519,-0.35602 0.79519,-0.79519c0,-0.43917 -0.35601,-0.7952 -0.79519,-0.7952h-3.0382v0.00586c-0.42338,0.01054 -0.76346,0.35082 -0.77361,0.77426h-0.00189v6.56585h0.00019c0,0.00067 -0.00019,0.00127 -0.00019,0.00194c0,0.00155 0.00044,0.00297 0.00045,0.0045c-0.00018,0.0014 -0.00039,0.00281 -0.00037,0.00427c0.00026,0.01872 0.00477,0.03621 0.0063,0.05458c0.00281,0.03514 0.00478,0.07045 0.01202,0.10416c0.00129,0.00586 0.00387,0.01115 0.00528,0.01697c0.08351,0.3498 0.39615,0.61072 0.77152,0.61072c0.01321,0 0.02554,-0.00326 0.0386,-0.00389h2.97989c0.43918,0 0.79519,-0.35602 0.79519,-0.79519c0,-0.43918 -0.35601,-0.7952 -0.79519,-0.7952h-2.22331v-1.7065h2.22331z"

            />
        <path
           d="M413.19359,353.3796h-2.24801v-5.91566h-0.01096c-0.05353,-0.39213 -0.38624,-0.69536 -0.79306,-0.69536c-0.40683,0 -0.73954,0.30323 -0.79307,0.69536h-0.01096v6.74745h0.00105c0.00545,0.22003 0.0985,0.41753 0.24586,0.55929c0.00187,0.0018 0.0042,0.00308 0.00608,0.00487c0.03517,0.0332 0.07279,0.06382 0.1135,0.09027c0.01089,0.0071 0.02342,0.01161 0.03467,0.01818c0.03308,0.01929 0.06617,0.03866 0.10203,0.05315c0.02384,0.00965 0.04976,0.01465 0.07466,0.02201c0.02539,0.0075 0.04979,0.01734 0.07614,0.02231c0.05228,0.00988 0.10632,0.01473 0.16162,0.01394c0.02353,-0.00034 0.04562,-0.00545 0.0686,-0.00776h2.97185c0.44405,0 0.80402,-0.35997 0.80402,-0.80403c0,-0.44405 -0.35997,-0.80402 -0.80402,-0.80402z"

            />
        <path
           d="M423.59678,353.3796h-2.24801v-5.91566h-0.01096c-0.05353,-0.39213 -0.38624,-0.69536 -0.79306,-0.69536c-0.40683,0 -0.73954,0.30323 -0.79307,0.69536h-0.01096v6.74745h0.00105c0.00545,0.22003 0.0985,0.41753 0.24586,0.55929c0.00187,0.0018 0.0042,0.00308 0.00608,0.00487c0.03517,0.0332 0.07279,0.06382 0.1135,0.09027c0.01089,0.0071 0.02342,0.01161 0.03467,0.01818c0.03308,0.01929 0.06617,0.03866 0.10203,0.05315c0.02384,0.00965 0.04976,0.01465 0.07466,0.02201c0.02539,0.0075 0.04979,0.01734 0.07614,0.02231c0.05228,0.00988 0.10632,0.01473 0.16162,0.01394c0.02353,-0.00034 0.04562,-0.00545 0.0686,-0.00776h2.97185c0.44405,0 0.80402,-0.35997 0.80402,-0.80403c0,-0.44405 -0.35997,-0.80402 -0.80402,-0.80402z"

            />
        <path
           d="M433.22261,350.82085l-0.01333,1.82612c-0.00016,0.39559 -0.31945,0.71595 -0.71427,0.71906c-0.39436,0.00187 -0.71762,-0.31369 -0.7233,-0.70889l-0.01367,-1.61118c-0.00007,-0.00539 -0.00162,-0.01036 -0.00181,-0.01574c0.00826,-0.04634 0.01431,-0.0935 0.01428,-0.14221l0.01222,-1.83254c-0.0001,-0.38861 0.30827,-0.70321 0.6934,-0.71747c-0.00104,-0.00171 -0.00174,-0.00361 -0.00279,-0.00531c0.00971,0.0002 0.01883,0.00262 0.02862,0.00247c0.00016,0 0.00034,-0.00006 0.00051,-0.00006v0.00022c0.39762,-0.0001 0.72003,0.32213 0.72015,0.71974l-0.00909,1.61119c0,0.04189 0.00618,0.08212 0.01237,0.12229c-0.00045,0.01096 -0.00327,0.02124 -0.00327,0.0323zM434.82386,350.66582l0.00909,-1.61119c-0.00035,-1.28698 -1.04395,-2.32999 -2.33093,-2.32964v0.002c-0.00791,-0.00012 -0.0153,-0.00212 -0.02326,-0.002c-0.00664,0.0001 -0.01275,0.00196 -0.01934,0.00222c-1.26707,0.02331 -2.28743,1.05609 -2.28705,2.32869l-0.01223,1.83255c0,0.00614 0.00167,0.01182 0.00181,0.01793c-0.01003,0.05265 -0.01489,0.10708 -0.01412,0.16277l0.01367,1.61116c0.01821,1.26572 1.04292,2.27856 2.30104,2.29389c0.00833,0.00118 0.01624,0.00276 0.0259,0.00276c0.00289,0 0.00567,-0.00042 0.00855,-0.00042c0.0017,-0.00001 0.00326,0.00045 0.00496,0.00042c0.00228,-0.00003 0.00444,-0.00042 0.00662,-0.00076c0.00555,-0.00004 0.01093,0.00069 0.01652,0.0006l-0.00003,-0.00178c1.2699,-0.01931 2.29407,-1.05283 2.29458,-2.32744l0.01332,-1.82614c0.00003,-0.04216 -0.00614,-0.08267 -0.01235,-0.12309c0.00044,-0.01104 0.00326,-0.0214 0.00326,-0.03255z"

            />
        <path
           d="M443.07382,350.03967l-0.81402,0.007l-0.01392,-0.00012v-1.6241l0.01392,-0.00009l0.81402,0.007c0.51871,0.03838 0.70125,0.42661 0.72187,0.80514c-0.02062,0.37855 -0.20316,0.76677 -0.72187,0.80516zM445.44132,349.35296c0.00058,-0.03967 -0.00286,-0.07895 -0.00422,-0.11846c0.00136,-0.03949 0.00481,-0.07877 0.00422,-0.11847c-0.01889,-1.31336 -1.09891,-2.36275 -2.4123,-2.34387l-0.76923,0.00661l-0.78844,-0.00675c-0.04005,-0.00058 -0.07744,0.00811 -0.11546,0.01449c-0.10708,0.00896 -0.20763,0.03742 -0.29886,0.0834c-0.00023,0.00013 -0.00047,0.00026 -0.00072,0.00039c-0.04392,0.0222 -0.08554,0.04753 -0.12446,0.07696c-0.00583,0.00434 -0.01089,0.00947 -0.0166,0.01396c-0.03242,0.02587 -0.06357,0.05285 -0.09171,0.08327c-0.01234,0.01316 -0.02255,0.02795 -0.034,0.04188c-0.01948,0.02403 -0.03933,0.0475 -0.05604,0.07367c-0.01668,0.02577 -0.02976,0.05364 -0.04349,0.08128c-0.00846,0.01725 -0.01849,0.03344 -0.02575,0.05135c-0.01637,0.03986 -0.02818,0.08172 -0.03812,0.12445c-0.00186,0.00802 -0.00506,0.01546 -0.00667,0.02356c-0.01047,0.05209 -0.01606,0.10583 -0.01608,0.16103h-0.00107v6.53319h0.00111c0,0.00403 -0.00108,0.00779 -0.00102,0.01184c0.00655,0.4538 0.3797,0.8164 0.83351,0.80985c0.44978,-0.00648 0.80883,-0.37339 0.80883,-0.82169h0.00113v-1.23257l1.70423,1.76882l0.00244,-0.00237c0.1507,0.17485 0.37108,0.28791 0.62003,0.28791c0.45386,0 0.82178,-0.36792 0.82178,-0.82179c0,-0.23719 -0.10198,-0.44924 -0.26272,-0.59922l0.00153,-0.00148l-1.84863,-1.84787c1.19505,-0.11027 2.13913,-1.10631 2.15677,-2.33339z"

            />
        <path
           d="M455.03926,351.02803c-0.4201,0 -0.76446,0.32417 -0.79662,0.73598c-0.00587,-0.03813 -0.01149,-0.07636 -0.01149,-0.11611v0.00028c0,0.03971 0.00561,0.07793 0.01147,0.11604c-0.00161,0.02074 -0.00244,0.04171 -0.00244,0.06287v1.53253h-0.72209c0.31532,-0.0025 0.31532,-0.00279 0,-0.00029c-0.39137,0.00186 -0.71218,-0.31133 -0.71784,-0.70353l0.00553,-1.79947c-0.00003,-0.00158 0.00041,-0.00303 0.00039,-0.00458c-0.00003,-0.00113 -0.00037,-0.00215 -0.00038,-0.00324l0.00541,-1.76707c-0.00009,-0.39461 0.3197,-0.71459 0.71428,-0.71469c0.38289,-0.0001 0.6929,0.30174 0.71126,0.68014l-0.00014,0.02311l0,0.00072l-0.00041,0.07019c-0.00114,0.01935 -0.00525,0.03787 -0.00496,0.05755c0.00634,0.44128 0.36919,0.79387 0.81048,0.78752c0.43734,-0.00631 0.78646,-0.36307 0.78651,-0.799h0.00585l0.00427,-0.10637c-0.00037,-1.27721 -1.03605,-2.31234 -2.31327,-2.312c-1.27721,0.00037 -2.31235,1.03605 -2.31199,2.31326l-0.00536,1.79176c0,0.00039 -0.00012,0.00076 -0.00012,0.00116c0,0.00028 0.00012,0.00053 0.00012,0.0008l-0.00542,1.80323c0.01811,1.25783 1.03764,2.26444 2.28853,2.27702c0.00754,0.00019 0.01301,0.00222 0.02076,0.00222h0.00001c0.00219,0 0.00434,-0.00016 0.0065,-0.00031v0.00288h1.53027c0.05359,-0.00077 0.10564,-0.00719 0.15602,-0.01799c0.02131,-0.00455 0.04097,-0.0128 0.06162,-0.019c0.02766,-0.00836 0.05575,-0.01557 0.08202,-0.02676c0.02751,-0.01162 0.05266,-0.02692 0.07849,-0.04141c0.01659,-0.00941 0.03397,-0.01742 0.04979,-0.02796c0.03072,-0.02024 0.05856,-0.04376 0.08611,-0.06791c0.0082,-0.00726 0.01707,-0.01361 0.02497,-0.02121c0.03089,-0.02938 0.05838,-0.0616 0.08427,-0.09551c0.00273,-0.00362 0.0058,-0.0069 0.00848,-0.01058c0.02786,-0.0378 0.05177,-0.07804 0.07273,-0.12047c0.00012,-0.00025 0.00025,-0.00047 0.00037,-0.0007c0.04308,-0.08744 0.06966,-0.18315 0.07823,-0.28481v-0.00001h0.00686v-2.39918c0,-0.4413 -0.35775,-0.79906 -0.79905,-0.79906zM454.23672,349.05087l-0.00011,0.01977l0,-0.00064zM454.23672,349.05087l0.00002,-0.00395v-0.00001z"

            />
        <path
           d="M465.39898,351.62034c0.43918,0 0.79519,-0.35602 0.79519,-0.79519c0,-0.43918 -0.35601,-0.7952 -0.79519,-0.7952h-2.22331v-1.66155h2.22331c0.43918,0 0.79519,-0.35602 0.79519,-0.79519c0,-0.43917 -0.35601,-0.7952 -0.79519,-0.7952h-3.0382v0.00586c-0.42338,0.01054 -0.76346,0.35082 -0.77361,0.77426h-0.00189v6.56585h0.00019c0,0.00067 -0.00019,0.00127 -0.00019,0.00194c0,0.00155 0.00044,0.00297 0.00045,0.0045c-0.00018,0.0014 -0.00039,0.00281 -0.00037,0.00427c0.00026,0.01872 0.00477,0.03621 0.0063,0.05458c0.00281,0.03514 0.00478,0.07045 0.01202,0.10416c0.00129,0.00586 0.00387,0.01115 0.00528,0.01697c0.08351,0.3498 0.39615,0.61072 0.77152,0.61072c0.01321,0 0.02554,-0.00326 0.0386,-0.00389h2.97989c0.43918,0 0.79519,-0.35602 0.79519,-0.79519c0,-0.43918 -0.35601,-0.7952 -0.79519,-0.7952h-2.22331v-1.7065h2.22331z"

            />
      </g>
</svg>
