<svg xmlns:mydata="http://www.w3.org/2000/svg" mydata:contrastcolor="ffffff" mydata:template="SingleColorHex1" mydata:presentation="2.5" mydata:layouttype="undefined" mydata:specialfontid="undefined" mydata:id1="388" mydata:id2="875" mydata:companyname="Hellorge" style="background-color: #fff" mydata:companytagline="" version="1.1" xmlns="http://www.w3.org/2000/svg" xmlns:xlink="http://www.w3.org/1999/xlink" viewBox="0 0 550 470"><g fill="#222223" fill-rule="none" stroke="none" stroke-width="1" stroke-linecap="butt" stroke-linejoin="miter" stroke-miterlimit="10" stroke-dasharray="" stroke-dashoffset="0" font-family="none" font-weight="none" font-size="none" text-anchor="none" style="mix-blend-mode: normal"><g data-paper-data="{&quot;isGlobalGroup&quot;:true,&quot;bounds&quot;:{&quot;x&quot;:68.96582242942003,&quot;y&quot;:115.00000000000003,&quot;width&quot;:412.06835514115994,&quot;height&quot;:239.99999999999997}}"><g data-paper-data="{&quot;isPrimaryText&quot;:true}" fill-rule="nonzero"><path d="M113.17053,304.06397h-12.56052v25.25983h-19.15306v-25.25983h-12.49113v50.86664h12.49113v-24.42709h19.15306v24.42709h12.56052v-24.42709h6.10677v-1.17972h-6.10677zM80.27723,353.82028h-10.13169v-48.5766h10.13169z" data-paper-data="{&quot;glyphName&quot;:&quot;H&quot;,&quot;glyphIndex&quot;:0,&quot;firstGlyphOfWord&quot;:true,&quot;word&quot;:1}"></path><path d="M125.10649,331.75263v6.80072v7.21709v8.18863v1.04093h35.04455v-9.22955h-25.81499v-7.21709h25.81499v-9.16016h-35.04455zM125.10649,313.5017h35.04455v-9.22955h-35.04455z" data-paper-data="{&quot;glyphName&quot;:&quot;E&quot;,&quot;glyphIndex&quot;:1,&quot;word&quot;:1}"></path><path d="M181.10837,304.20276h-9.02137v50.72785h38.44491l-29.42354,-31.22781zM207.8255,353.75089h-26.71713v-28.31322z" data-paper-data="{&quot;glyphName&quot;:&quot;L&quot;,&quot;glyphIndex&quot;:2,&quot;word&quot;:1}"></path><path d="M225.52126,304.20276h-9.02137v50.72785h38.44491l-29.42354,-31.22781zM252.23839,353.75089h-26.71713v-28.31322z" data-paper-data="{&quot;glyphName&quot;:&quot;L&quot;,&quot;glyphIndex&quot;:3,&quot;word&quot;:1}"></path><path d="M286.03383,303.99457c-14.08721,0 -25.46802,11.4502 -25.46802,25.46802c0,14.08721 11.3808,25.46802 25.46802,25.46802c14.08721,0 25.46802,-11.3808 25.46802,-25.46802c0,-14.01782 -11.3808,-25.46802 -25.46802,-25.46802zM286.03383,353.82028c-13.39326,0 -24.2883,-10.96443 -24.2883,-24.35769c0,-13.39326 10.89504,-24.2883 24.2883,-24.2883c13.39326,0 24.2883,10.89504 24.2883,24.2883c0,13.39326 -10.89504,24.35769 -24.2883,24.35769zM286.03383,309.06042c-11.31141,0 -20.47157,9.16016 -20.47157,20.40217c0,11.31141 9.16016,20.47157 20.47157,20.47157c11.31141,0 20.47157,-9.16016 20.47157,-20.47157c0,-11.24201 -9.16016,-20.40217 -20.47157,-20.40217zM286.03383,348.75444c-10.68685,0 -19.29185,-8.605 -19.29185,-19.29185c0,-10.61746 8.605,-19.22245 19.29185,-19.22245c10.61746,0 19.29185,8.605 19.29185,19.22245c0,10.68685 -8.67439,19.29185 -19.29185,19.29185zM286.03383,311.76683c-9.78472,0 -17.69576,7.98044 -17.69576,17.69576c0,9.78472 7.91105,17.69576 17.69576,17.69576c9.78472,0 17.69576,-7.91105 17.69576,-17.69576c0,-9.71532 -7.91105,-17.69576 -17.69576,-17.69576zM286.03383,345.97863c-9.09076,0 -16.51604,-7.35589 -16.51604,-16.51604c0,-9.09076 7.42528,-16.51604 16.51604,-16.51604c9.09076,0 16.51604,7.42528 16.51604,16.51604c0,9.16016 -7.42528,16.51604 -16.51604,16.51604z" data-paper-data="{&quot;glyphName&quot;:&quot;O&quot;,&quot;glyphIndex&quot;:4,&quot;word&quot;:1}"></path><path d="M374.44324,326.27041c0,-12.14415 -9.85411,-21.99826 -21.99826,-21.99826h-25.88439v8.605h-3.40036v34.90576h3.40036v7.1477h50.17269l-10.75625,-11.31141c5.13524,-4.02492 8.46621,-10.27048 8.46621,-17.34879zM324.33995,346.60319v-32.54632h4.44129v32.54632z" data-paper-data="{&quot;glyphName&quot;:&quot;R&quot;,&quot;glyphIndex&quot;:5,&quot;word&quot;:1}"></path><path d="M425.10169,353.82028h-11.51959v-6.03738h3.40036v-34.90576h-3.40036v-8.67439c-14.01782,0 -25.39862,11.3808 -25.39862,25.39862c0,13.67084 10.75625,24.77407 24.2883,25.32923v0h12.62992h3.74734h5.20464v-25.53741h-8.95197zM415.80274,314.05687v32.54632h-4.44129v-32.54632z" data-paper-data="{&quot;glyphName&quot;:&quot;G&quot;,&quot;glyphIndex&quot;:6,&quot;word&quot;:1}"></path><path d="M445.98963,331.75263v6.80072v7.21709v8.18863v1.04093h35.04455v-9.22955h-25.81499v-7.21709h25.81499v-9.16016h-35.04455zM445.98963,313.5017h35.04455v-9.22955h-35.04455z" data-paper-data="{&quot;glyphName&quot;:&quot;E&quot;,&quot;glyphIndex&quot;:7,&quot;lastGlyphOfWord&quot;:true,&quot;word&quot;:1}"></path></g><g data-paper-data="{&quot;isIcon&quot;:&quot;true&quot;,&quot;iconType&quot;:&quot;icon&quot;,&quot;rawIconId&quot;:&quot;773283&quot;,&quot;selectedEffects&quot;:{&quot;container&quot;:&quot;&quot;,&quot;transformation&quot;:&quot;&quot;,&quot;pattern&quot;:&quot;&quot;},&quot;isDetailed&quot;:false,&quot;fillRule&quot;:&quot;evenodd&quot;,&quot;bounds&quot;:{&quot;x&quot;:202.9727532425631,&quot;y&quot;:115.00000000000003,&quot;width&quot;:144.0544935148738,&quot;height&quot;:157.690222563143},&quot;iconStyle&quot;:&quot;standalone&quot;,&quot;suitableAsStandaloneIcon&quot;:true}" fill-rule="evenodd"><path d="M345.97157,160.67239c0.77977,2.34814 1.06091,4.77939 1.0556,7.25661c-0.01291,7.02374 -0.01061,14.05208 -0.00848,21.07953c0.00053,1.61647 0.00106,3.23276 0.00141,4.84905h-0.02298c0,2.64325 0.0046,5.28686 0.00902,7.93064c0.01096,6.43405 0.02193,12.86882 -0.032,19.30286c-0.04067,4.62556 -1.70099,8.80731 -4.0562,12.72382c-2.44186,4.05797 -5.65111,7.30081 -9.80986,9.68786c-14.90929,8.54031 -29.77438,17.15665 -44.6324,25.78006c-4.77055,2.77074 -9.92303,3.64952 -15.33896,3.35247c-4.43283,-0.24224 -8.49964,-1.57545 -12.35781,-3.82634c-14.68827,-8.57037 -29.43135,-17.05586 -44.16914,-25.54666c-6.26466,-3.60532 -10.05033,-9.12911 -12.39318,-15.79161c-0.87878,-2.50198 -1.20767,-5.09766 -1.2059,-7.74993c0.00458,-5.57366 -0.00695,-11.14678 -0.01846,-16.71973c-0.02408,-11.65779 -0.04818,-23.31451 0.07504,-34.97124c0.10963,-10.30849 4.78116,-18.37139 13.65919,-23.62111c14.89338,-8.79669 29.94236,-17.33347 44.90293,-26.01169c4.4735,-2.59922 9.30593,-3.51868 14.38945,-3.38429c4.61318,0.12554 8.90632,1.30315 12.93423,3.65306c14.81911,8.63579 29.68774,17.19201 44.54046,25.77122c6.39551,3.69549 10.20947,9.3802 12.47804,16.23542zM297.97256,218.63156l24.00835,-24.00658c0.82928,-0.82751 1.29608,-1.95207 1.29431,-3.12261l-0.00177,-10.50122c0,-1.17407 -0.46503,-2.29687 -1.29431,-3.12615l-17.2539,-17.2539c-0.82928,-0.82751 -1.95384,-1.29431 -3.12615,-1.29431h-10.50476c-1.17407,0 -2.29687,0.46503 -3.12615,1.29431l-24.00304,24.00304c-0.82751,0.82928 -1.29431,1.95384 -1.29431,3.12615v10.50299c0,1.17584 0.4668,2.3004 1.29785,3.12968l0.76739,0.76563c1.72751,1.72575 4.52477,1.72044 6.25052,-0.00707c1.52417,-1.52771 1.69922,-3.89176 0.52515,-5.6122v-6.94894l21.41265,-21.41265h6.84462l14.66351,14.66529l0.00177,6.83932l-21.41796,21.41443h-6.94187c-1.72751,-1.19529 -4.10925,-1.02024 -5.64049,0.51631c-1.72397,1.72751 -1.72221,4.52654 0.00707,6.25052l0.7833,0.78154c0.82928,0.82574 1.95207,1.29077 3.12261,1.29077h10.49945c1.17407,0 2.29687,-0.46503 3.12615,-1.29431zM258.90462,228.36362c1.17407,0 2.29687,-0.46503 3.12615,-1.29431l24.00304,-24.00481c0.82751,-0.82928 1.29431,-1.95384 1.29431,-3.12615v-10.50299c0,-1.17584 -0.4668,-2.30217 -1.30138,-3.13144l-0.76739,-0.76385c-1.72751,-1.72397 -4.52831,-1.7169 -6.25052,0.01414c-1.52064,1.52771 -1.69392,3.89 -0.52162,5.60866v6.94718l-21.41443,21.41265l-6.84286,0.00177l-14.66351,-14.66529l-0.00177,-6.83932l21.41796,-21.41796h6.94187c1.72397,1.19352 4.10571,1.01847 5.64049,-0.51631c1.72397,-1.72751 1.72221,-4.52654 -0.00707,-6.25052l-0.7833,-0.78154c-0.82928,-0.82574 -1.95207,-1.29077 -3.12261,-1.29077h-10.49945c-1.17407,0 -2.29687,0.46503 -3.12615,1.29431l-24.00835,24.00658c-0.82751,0.82928 -1.29431,1.95384 -1.29431,3.12615l0.00177,10.49945c0,1.17407 0.46503,2.29687 1.29431,3.12615l17.2539,17.25566c0.82928,0.82751 1.95384,1.29431 3.12615,1.29431z" data-paper-data="{&quot;isPathIcon&quot;:true}"></path></g></g></g></svg>
