<svg xmlns:mydata="http://www.w3.org/2000/svg" mydata:contrastcolor="2D2926" mydata:template="Contrast" mydata:presentation="2.5" mydata:layouttype="undefined" mydata:specialfontid="undefined" mydata:id1="306" mydata:id2="015" mydata:companyname="Hellorge. Inc" style="background-color: #000" mydata:companytagline="Weapon Of Hell" version="1.1" xmlns="http://www.w3.org/2000/svg" xmlns:xlink="http://www.w3.org/1999/xlink" viewBox="0 0 550 470"><g fill="none" fill-rule="none" stroke="none" stroke-width="1" stroke-linecap="butt" stroke-linejoin="miter" stroke-miterlimit="10" stroke-dasharray="" stroke-dashoffset="0" font-family="none" font-weight="none" font-size="none" text-anchor="none" style="mix-blend-mode: normal"><g data-paper-data="{&quot;isGlobalGroup&quot;:true,&quot;bounds&quot;:{&quot;x&quot;:65,&quot;y&quot;:205.83839246121806,&quot;width&quot;:420,&quot;height&quot;:58.32400903281376}}"><g data-paper-data="{&quot;isSecondaryText&quot;:true}" fill="#62b5e5" fill-rule="nonzero"><path d="M157.19239,250.30495h1.88829c0.19503,0 0.35793,0.04433 0.48869,0.13298c0.13076,0.08865 0.21609,0.20612 0.25598,0.35239l1.32978,5.05316c0.04433,0.16401 0.08865,0.33909 0.13298,0.52526c0.04433,0.18617 0.07757,0.3812 0.09973,0.5851c0.04433,-0.20833 0.09308,-0.40447 0.14628,-0.58843c0.05319,-0.18395 0.10417,-0.35793 0.15292,-0.52194l1.56914,-5.05316c0.03989,-0.12411 0.12522,-0.23604 0.25598,-0.33577c0.13076,-0.09973 0.28923,-0.1496 0.4754,-0.1496h0.66489c0.19503,0 0.35572,0.04322 0.48205,0.12965c0.12633,0.08644 0.21387,0.20501 0.26263,0.35572l1.55584,5.05316c0.04876,0.15514 0.09973,0.32026 0.15292,0.49534c0.05319,0.17509 0.09973,0.36236 0.13963,0.56183c0.03546,-0.19503 0.07203,-0.3812 0.10971,-0.55851c0.03768,-0.1773 0.07646,-0.34353 0.11636,-0.49867l1.32978,-5.05316c0.03546,-0.12855 0.11968,-0.24158 0.25266,-0.33909c0.13298,-0.09752 0.29255,-0.14628 0.47872,-0.14628h1.76861l-2.992,9.68744h-2.03456l-1.8218,-6.00395c-0.03103,-0.09308 -0.06316,-0.19503 -0.09641,-0.30585c-0.03324,-0.11081 -0.06538,-0.22828 -0.09641,-0.35239c-0.03103,0.12411 -0.06316,0.24158 -0.09641,0.35239c-0.03324,0.11081 -0.06538,0.21276 -0.09641,0.30585l-1.84839,6.00395h-2.03456z" data-paper-data="{&quot;glyphName&quot;:&quot;W&quot;,&quot;glyphIndex&quot;:0,&quot;firstGlyphOfWord&quot;:true,&quot;word&quot;:1}"></path><path d="M190.07662,250.30495v1.72871h-3.97604v2.26062h3.04519v1.66222h-3.04519v2.30717h3.97604v1.72871h-6.23667v-9.68744z" data-paper-data="{&quot;glyphName&quot;:&quot;E&quot;,&quot;glyphIndex&quot;:1,&quot;word&quot;:1}"></path><path d="M210.41407,259.9924h-1.74201c-0.19503,0 -0.35572,-0.04543 -0.48205,-0.1363c-0.12633,-0.09087 -0.21387,-0.20722 -0.26263,-0.34907l-0.57181,-1.68882h-3.68349l-0.57181,1.68882c-0.04433,0.12411 -0.13076,0.23604 -0.25931,0.33577c-0.12855,0.09973 -0.2859,0.1496 -0.47207,0.1496h-1.75531l3.74998,-9.68744h2.30052zM204.1907,256.28896h2.64626l-0.89095,-2.65291c-0.05762,-0.16844 -0.12522,-0.3668 -0.20279,-0.59508c-0.07757,-0.22828 -0.15403,-0.4754 -0.22939,-0.74135c-0.07092,0.27039 -0.14406,0.52083 -0.21941,0.75133c-0.07535,0.2305 -0.14628,0.42996 -0.21276,0.5984z" data-paper-data="{&quot;glyphName&quot;:&quot;A&quot;,&quot;glyphIndex&quot;:2,&quot;word&quot;:1}"></path><path d="M224.02688,256.75438v3.23801h-2.24733v-9.68744h3.41753c0.68262,0 1.26883,0.08089 1.75863,0.24268c0.4898,0.16179 0.89317,0.38453 1.2101,0.66821c0.31693,0.28369 0.55075,0.61835 0.70146,1.00398c0.15071,0.38564 0.22606,0.8023 0.22606,1.24999c0,0.48315 -0.07757,0.92641 -0.23271,1.32978c-0.15514,0.40337 -0.39228,0.74911 -0.71143,1.03723c-0.31915,0.28812 -0.72362,0.51307 -1.21342,0.67486c-0.4898,0.16179 -1.06936,0.24268 -1.73869,0.24268zM224.02688,255.05892h1.17021c0.5851,0 1.0062,-0.13963 1.26329,-0.41888c0.25709,-0.27925 0.38564,-0.66932 0.38564,-1.17021c0,-0.22163 -0.03324,-0.42331 -0.09973,-0.60505c-0.06649,-0.18174 -0.16733,-0.33799 -0.30252,-0.46875c-0.13519,-0.13076 -0.30585,-0.2316 -0.51197,-0.30252c-0.20612,-0.07092 -0.45102,-0.10638 -0.7347,-0.10638h-1.17021z" data-paper-data="{&quot;glyphName&quot;:&quot;P&quot;,&quot;glyphIndex&quot;:3,&quot;word&quot;:1}"></path><path d="M250.41414,255.14535c0,0.70035 -0.12079,1.35194 -0.36236,1.95478c-0.24158,0.60283 -0.58178,1.12699 -1.02061,1.57246c-0.43883,0.44548 -0.96741,0.79454 -1.58576,1.0472c-0.61835,0.25266 -1.30429,0.37899 -2.05783,0.37899c-0.75354,0 -1.44059,-0.12633 -2.06116,-0.37899c-0.62056,-0.25266 -1.15137,-0.60173 -1.59241,-1.0472c-0.44104,-0.44548 -0.78235,-0.96963 -1.02393,-1.57246c-0.24158,-0.60283 -0.36236,-1.25443 -0.36236,-1.95478c0,-0.70035 0.12079,-1.35194 0.36236,-1.95478c0.24158,-0.60283 0.58289,-1.12588 1.02393,-1.56914c0.44104,-0.44326 0.97185,-0.79122 1.59241,-1.04388c0.62056,-0.25266 1.30762,-0.37899 2.06116,-0.37899c0.75354,0 1.43949,0.12744 2.05783,0.38231c0.61835,0.25487 1.14693,0.60394 1.58576,1.0472c0.43883,0.44326 0.77903,0.96631 1.02061,1.56914c0.24158,0.60283 0.36236,1.25221 0.36236,1.94813zM248.11363,255.14535c0,-0.47872 -0.06206,-0.90979 -0.18617,-1.29321c-0.12411,-0.38342 -0.30252,-0.70811 -0.53524,-0.97406c-0.23271,-0.26596 -0.51751,-0.46986 -0.85438,-0.6117c-0.33688,-0.14184 -0.7203,-0.21276 -1.15026,-0.21276c-0.43439,0 -0.82114,0.07092 -1.16023,0.21276c-0.33909,0.14184 -0.625,0.34574 -0.85771,0.6117c-0.23271,0.26596 -0.41112,0.59064 -0.53524,0.97406c-0.12411,0.38342 -0.18617,0.81449 -0.18617,1.29321c0,0.48315 0.06206,0.91644 0.18617,1.29986c0.12411,0.38342 0.30252,0.70811 0.53524,0.97406c0.23271,0.26596 0.51861,0.46875 0.85771,0.60837c0.33909,0.13963 0.72584,0.20944 1.16023,0.20944c0.42996,0 0.81338,-0.06981 1.15026,-0.20944c0.33688,-0.13963 0.62167,-0.34242 0.85438,-0.60837c0.23271,-0.26596 0.41112,-0.59064 0.53524,-0.97406c0.12411,-0.38342 0.18617,-0.81671 0.18617,-1.29986z" data-paper-data="{&quot;glyphName&quot;:&quot;O&quot;,&quot;glyphIndex&quot;:4,&quot;word&quot;:1}"></path><path d="M263.89882,250.30495c0.09752,0 0.17952,0.00443 0.24601,0.0133c0.06649,0.00887 0.12633,0.02549 0.17952,0.04987c0.05319,0.02438 0.10417,0.05873 0.15292,0.10306c0.04876,0.04433 0.10417,0.10417 0.16622,0.17952l4.60104,5.81778c-0.01773,-0.18617 -0.03103,-0.3668 -0.03989,-0.54189c-0.00887,-0.17509 -0.0133,-0.3402 -0.0133,-0.49534v-5.1263h1.98137v9.68744h-1.17021c-0.17287,0 -0.31915,-0.0266 -0.43883,-0.07979c-0.11968,-0.05319 -0.23493,-0.15071 -0.34574,-0.29255l-4.56779,-5.77124c0.0133,0.16844 0.02438,0.33355 0.03324,0.49534c0.00887,0.16179 0.0133,0.31361 0.0133,0.45545v5.19279h-1.98137v-9.68744z" data-paper-data="{&quot;glyphName&quot;:&quot;N&quot;,&quot;glyphIndex&quot;:5,&quot;lastGlyphOfWord&quot;:true,&quot;word&quot;:1}"></path><path d="M302.34052,255.14535c0,0.70035 -0.12079,1.35194 -0.36236,1.95478c-0.24158,0.60283 -0.58178,1.12699 -1.02061,1.57246c-0.43883,0.44548 -0.96741,0.79454 -1.58576,1.0472c-0.61835,0.25266 -1.30429,0.37899 -2.05783,0.37899c-0.75354,0 -1.44059,-0.12633 -2.06116,-0.37899c-0.62056,-0.25266 -1.15137,-0.60173 -1.59241,-1.0472c-0.44104,-0.44548 -0.78235,-0.96963 -1.02393,-1.57246c-0.24158,-0.60283 -0.36236,-1.25443 -0.36236,-1.95478c0,-0.70035 0.12079,-1.35194 0.36236,-1.95478c0.24158,-0.60283 0.58289,-1.12588 1.02393,-1.56914c0.44104,-0.44326 0.97185,-0.79122 1.59241,-1.04388c0.62056,-0.25266 1.30762,-0.37899 2.06116,-0.37899c0.75354,0 1.43949,0.12744 2.05783,0.38231c0.61835,0.25487 1.14693,0.60394 1.58576,1.0472c0.43883,0.44326 0.77903,0.96631 1.02061,1.56914c0.24158,0.60283 0.36236,1.25221 0.36236,1.94813zM300.04,255.14535c0,-0.47872 -0.06206,-0.90979 -0.18617,-1.29321c-0.12411,-0.38342 -0.30252,-0.70811 -0.53524,-0.97406c-0.23271,-0.26596 -0.51751,-0.46986 -0.85438,-0.6117c-0.33688,-0.14184 -0.7203,-0.21276 -1.15026,-0.21276c-0.43439,0 -0.82114,0.07092 -1.16023,0.21276c-0.33909,0.14184 -0.625,0.34574 -0.85771,0.6117c-0.23271,0.26596 -0.41112,0.59064 -0.53524,0.97406c-0.12411,0.38342 -0.18617,0.81449 -0.18617,1.29321c0,0.48315 0.06206,0.91644 0.18617,1.29986c0.12411,0.38342 0.30252,0.70811 0.53524,0.97406c0.23271,0.26596 0.51861,0.46875 0.85771,0.60837c0.33909,0.13963 0.72584,0.20944 1.16023,0.20944c0.42996,0 0.81338,-0.06981 1.15026,-0.20944c0.33688,-0.13963 0.62167,-0.34242 0.85438,-0.60837c0.23271,-0.26596 0.41112,-0.59064 0.53524,-0.97406c0.12411,-0.38342 0.18617,-0.81671 0.18617,-1.29986z" data-paper-data="{&quot;glyphName&quot;:&quot;O&quot;,&quot;glyphIndex&quot;:6,&quot;firstGlyphOfWord&quot;:true,&quot;word&quot;:2}"></path><path d="M320.16233,250.30495v1.72871h-3.97604v2.45344h3.31115v1.73536h-3.31115v3.76992h-2.26062v-9.68744z" data-paper-data="{&quot;glyphName&quot;:&quot;F&quot;,&quot;glyphIndex&quot;:7,&quot;lastGlyphOfWord&quot;:true,&quot;word&quot;:2}"></path><path d="M348.61753,259.9924h-2.26062v-4.09572h-3.93615v4.09572h-2.26062v-9.68744h2.26062v4.04918h3.93615v-4.04918h2.26062z" data-paper-data="{&quot;glyphName&quot;:&quot;H&quot;,&quot;glyphIndex&quot;:8,&quot;firstGlyphOfWord&quot;:true,&quot;word&quot;:3}"></path><path d="M366.77358,250.30495v1.72871h-3.97604v2.26062h3.04519v1.66222h-3.04519v2.30717h3.97604v1.72871h-6.23667v-9.68744z" data-paper-data="{&quot;glyphName&quot;:&quot;E&quot;,&quot;glyphIndex&quot;:9,&quot;word&quot;:3}"></path><path d="M379.5707,258.1972h3.5904v1.7952h-5.83773v-9.68744h2.24733z" data-paper-data="{&quot;glyphName&quot;:&quot;L&quot;,&quot;glyphIndex&quot;:10,&quot;word&quot;:3}"></path><path d="M395.47962,258.1972h3.5904v1.7952h-5.83773v-9.68744h2.24733z" data-paper-data="{&quot;glyphName&quot;:&quot;L&quot;,&quot;glyphIndex&quot;:11,&quot;lastGlyphOfWord&quot;:true,&quot;word&quot;:3}"></path></g><g data-paper-data="{&quot;isPrimaryText&quot;:true}" fill-rule="nonzero"><path d="M188.57773,212.72026v-2.0673c-4.88634,0.14095 -9.91363,0.14095 -14.79997,0v2.0673c2.67809,0.18794 3.57079,0.56381 3.57079,1.73841v9.67871h-8.92697v-9.67871c0,-1.1746 0.8927,-1.55047 3.57079,-1.73841v-2.0673c-4.88634,0.14095 -9.91363,0.14095 -14.79997,0v2.0673c2.63111,0.18794 3.5238,0.56381 3.5238,1.73841v21.56567c0,1.1746 -0.8927,1.55047 -3.5238,1.73841v2.0673c4.88634,-0.14095 9.91363,-0.14095 14.79997,0v-2.0673c-2.67809,-0.18794 -3.57079,-0.56381 -3.57079,-1.73841v-9.77268h8.92697v9.77268c0,1.1746 -0.8927,1.55047 -3.57079,1.73841v2.0673c4.88634,-0.14095 9.91363,-0.14095 14.79997,0v-2.0673c-2.63111,-0.18794 -3.5238,-0.56381 -3.5238,-1.73841v-21.56567c0,-1.1746 0.8927,-1.55047 3.5238,-1.73841z" data-paper-data="{&quot;glyphName&quot;:&quot;H&quot;,&quot;glyphIndex&quot;:0,&quot;firstGlyphOfWord&quot;:true,&quot;word&quot;:1}" fill="#ffffff"></path><path d="M214.88879,231.23197h-2.44317l-1.50349,3.19491c-1.22158,2.53714 -2.72507,3.05396 -6.4838,3.05396h-1.50349c-0.51682,0 -0.8927,-0.37587 -0.8927,-0.84571v-10.75934h4.51047c2.39619,0 3.10095,0.93968 3.5238,2.91301h1.78539c-0.23492,-2.81904 -0.23492,-5.16824 0,-7.98729h-1.78539c-0.42286,2.0673 -1.1746,2.77206 -3.5238,2.77206h-4.51047v-9.77268c0,-0.51682 0.37587,-0.84571 0.8927,-0.84571h3.14793c2.77206,0 3.47682,0.98666 4.98031,3.42983l0.56381,0.98666h2.44317l-0.84571,-5.873c-0.09397,-0.70476 -0.18794,-0.84571 -0.79873,-0.84571h-21.51869v2.0673c2.63111,0.18794 3.42983,0.51682 3.42983,1.69143v21.70662c0,1.1746 -0.79873,1.59746 -3.42983,1.73841v2.02031c7.42348,-0.2819 14.56505,-0.2819 22.3644,0c-0.04698,-2.77206 0.51682,-5.63808 1.59746,-8.64506z" data-paper-data="{&quot;glyphName&quot;:&quot;E&quot;,&quot;glyphIndex&quot;:1,&quot;word&quot;:1}" fill="#ffffff"></path><path d="M238.56874,231.18499l-1.50349,3.19491c-1.22158,2.58412 -2.72507,3.14793 -6.4838,3.14793h-1.69143c-0.51682,0 -0.8927,-0.37587 -0.8927,-0.84571v-22.22345c0,-1.1746 0.8927,-1.55047 3.57079,-1.73841v-2.0673c-4.88634,0.14095 -9.91363,0.14095 -14.79997,0v2.0673c2.63111,0.18794 3.5238,0.56381 3.5238,1.73841v21.61266c0,1.1746 -0.79873,1.59746 -3.42983,1.78539v1.97333c7.42348,-0.14095 14.75299,-0.14095 22.55234,0c-0.04698,-2.77206 0.51682,-5.63808 1.59746,-8.64506z" data-paper-data="{&quot;glyphName&quot;:&quot;L&quot;,&quot;glyphIndex&quot;:2,&quot;word&quot;:1}" fill="#ffffff"></path><path d="M264.22202,231.18499l-1.50349,3.19491c-1.22158,2.58412 -2.72507,3.14793 -6.4838,3.14793h-1.69143c-0.51682,0 -0.8927,-0.37587 -0.8927,-0.84571v-22.22345c0,-1.1746 0.8927,-1.55047 3.57079,-1.73841v-2.0673c-4.88634,0.14095 -9.91363,0.14095 -14.79997,0v2.0673c2.63111,0.18794 3.5238,0.56381 3.5238,1.73841v21.61266c0,1.1746 -0.79873,1.59746 -3.42983,1.78539v1.97333c7.42348,-0.14095 14.75299,-0.14095 22.55234,0c-0.04698,-2.77206 0.51682,-5.63808 1.59746,-8.64506z" data-paper-data="{&quot;glyphName&quot;:&quot;L&quot;,&quot;glyphIndex&quot;:3,&quot;word&quot;:1}" fill="#ffffff"></path><path d="M283.20357,209.90122c-8.08125,0 -14.4241,6.20189 -14.4241,15.08188c0,9.77268 6.24888,15.5987 14.37711,15.5987c8.08125,0 14.4241,-6.20189 14.4241,-15.08188c0,-9.77268 -6.20189,-15.5987 -14.37711,-15.5987zM284.04929,238.23259c-4.4165,0 -7.14157,-6.43681 -7.14157,-14.37711c0,-7.37649 2.02031,-11.60506 5.54412,-11.60506c4.32253,0 7.00062,6.43681 7.00062,14.4241c0,7.37649 -1.97333,11.55807 -5.40316,11.55807z" data-paper-data="{&quot;glyphName&quot;:&quot;O&quot;,&quot;glyphIndex&quot;:4,&quot;word&quot;:1}" fill="#ffffff"></path><path d="M322.29429,232.21864l-3.19491,-5.07428c5.07428,-1.78539 7.42348,-4.51047 7.42348,-7.9403c0,-5.35618 -3.66475,-8.55109 -14.09521,-8.55109c-2.53714,0 -7.32951,0.18794 -12.12188,0v2.0673c2.16127,0.18794 3.05396,0.56381 3.05396,1.64444v21.70662c0,1.1746 -0.79873,1.50349 -3.42983,1.69143v2.0673c4.88634,-0.14095 9.7257,-0.14095 14.61203,0v-2.0673c-2.67809,-0.18794 -3.47682,-0.51682 -3.47682,-1.69143v-7.18856l0.98666,-0.14095h0.04698l4.08761,5.873c3.99364,5.68507 8.59808,5.5911 11.79299,5.5911l1.26857,-2.0673c-2.67809,-0.23492 -4.79237,-2.39619 -6.95364,-5.91999zM311.0651,212.76725h2.63111c3.80571,0 5.68507,2.44317 5.68507,6.24888c0,4.1346 -2.44317,6.67173 -7.61141,7.47046l-0.70476,0.14095z" data-paper-data="{&quot;glyphName&quot;:&quot;R&quot;,&quot;glyphIndex&quot;:5,&quot;word&quot;:1}" fill="#ffffff"></path><path d="M346.30313,225.87579v2.11428l1.64444,0.14095c1.97333,0.23492 1.97333,1.08063 1.97333,3.42983c0,4.60444 -0.23492,6.67173 -4.65142,6.67173c-4.55745,0 -7.32951,-6.43681 -7.32951,-14.37711c0,-7.37649 2.0673,-11.60506 6.20189,-11.60506c3.38285,0 6.62475,2.77206 8.55109,6.71872h4.08761c-1.22158,-2.72507 -1.87936,-5.49713 -2.02031,-8.26919c-1.50349,0.37587 -2.02031,0.37587 -2.63111,0.37587c-2.58412,0 -4.18158,-1.1746 -7.75237,-1.1746c-8.12824,0 -14.56505,6.43681 -14.56505,15.26981c0,9.58474 6.29586,15.41076 14.4241,15.41076c4.83936,0 6.10792,-1.31555 11.65204,-1.31555c0.79873,0 1.87936,0 2.91301,0.14095v-1.36254c0,-0.56381 -0.18794,-0.79873 -0.75174,-0.84571l-0.79873,-0.09397c-0.18794,-1.50349 -0.23492,-2.72507 -0.23492,-3.85269c0,-2.77206 -0.09397,-4.93332 1.69143,-5.16824l0.8927,-0.09397v-2.11428c-4.79237,0.09397 -8.50411,0.09397 -13.29648,0z" data-paper-data="{&quot;glyphName&quot;:&quot;G&quot;,&quot;glyphIndex&quot;:6,&quot;word&quot;:1}" fill="#ffffff"></path><path d="M385.20591,231.23197h-2.44317l-1.50349,3.19491c-1.22158,2.53714 -2.72507,3.05396 -6.4838,3.05396h-1.50349c-0.51682,0 -0.8927,-0.37587 -0.8927,-0.84571v-10.75934h4.51047c2.39619,0 3.10095,0.93968 3.5238,2.91301h1.78539c-0.23492,-2.81904 -0.23492,-5.16824 0,-7.98729h-1.78539c-0.42286,2.0673 -1.1746,2.77206 -3.5238,2.77206h-4.51047v-9.77268c0,-0.51682 0.37587,-0.84571 0.8927,-0.84571h3.14793c2.77206,0 3.47682,0.98666 4.98031,3.42983l0.56381,0.98666h2.44317l-0.84571,-5.873c-0.09397,-0.70476 -0.18794,-0.84571 -0.79873,-0.84571h-21.51869v2.0673c2.63111,0.18794 3.42983,0.51682 3.42983,1.69143v21.70662c0,1.1746 -0.79873,1.59746 -3.42983,1.73841v2.02031c7.42348,-0.2819 14.56505,-0.2819 22.3644,0c-0.04698,-2.77206 0.51682,-5.63808 1.59746,-8.64506z" data-paper-data="{&quot;glyphName&quot;:&quot;E&quot;,&quot;glyphIndex&quot;:7,&quot;word&quot;:1}" fill="#ffffff"></path><path d="M392.25352,240.29989c1.92635,0 3.5238,-1.59746 3.5238,-3.57079c0,-1.92635 -1.59746,-3.5238 -3.5238,-3.5238c-1.92635,0 -3.5238,1.59746 -3.5238,3.5238c0,1.97333 1.59746,3.57079 3.5238,3.57079z" data-paper-data="{&quot;glyphName&quot;:&quot;.&quot;,&quot;glyphIndex&quot;:8,&quot;lastGlyphOfWord&quot;:true,&quot;word&quot;:1}" fill="#ffffff"></path><path d="M420.63187,236.02434v-21.56567c0,-1.1746 0.8927,-1.55047 3.57079,-1.73841v-2.0673c-4.88634,0.14095 -9.91363,0.14095 -14.79997,0v2.0673c2.63111,0.18794 3.5238,0.56381 3.5238,1.73841v21.56567c0,1.1746 -0.8927,1.55047 -3.5238,1.73841v2.0673c4.88634,-0.14095 9.91363,-0.14095 14.79997,0v-2.0673c-2.67809,-0.18794 -3.57079,-0.56381 -3.57079,-1.73841z" data-paper-data="{&quot;glyphName&quot;:&quot;I&quot;,&quot;glyphIndex&quot;:9,&quot;firstGlyphOfWord&quot;:true,&quot;word&quot;:2}" fill="#62b5e5"></path><path d="M443.84199,210.65296v2.0673c3.05396,0.23492 5.54412,0.56381 5.54412,1.73841v12.59172l-11.60506,-16.39743c-3.75872,0.14095 -7.51745,0.14095 -11.27617,0v2.0673c2.67809,0.18794 4.4165,1.55047 4.4165,2.53714v20.76694c0,1.1746 -2.44317,1.50349 -4.83936,1.73841v2.0673c3.85269,-0.14095 8.41014,-0.14095 12.92061,0v-2.0673c-3.10095,-0.23492 -5.5911,-0.56381 -5.5911,-1.73841v-18.69965l16.02156,22.50535h2.39619v-25.37138c0,-1.1746 2.49015,-1.50349 4.93332,-1.73841v-2.0673c-3.80571,0.14095 -8.41014,0.14095 -12.92061,0z" data-paper-data="{&quot;glyphName&quot;:&quot;N&quot;,&quot;glyphIndex&quot;:10,&quot;word&quot;:2}" fill="#62b5e5"></path><path d="M482.27493,231.84276c-1.73841,4.88634 -5.12126,6.29586 -8.08125,6.29586c-5.91999,0 -8.59808,-6.57776 -8.59808,-14.28315c0,-7.37649 2.0673,-11.60506 6.43681,-11.60506c3.80571,0 6.57776,2.77206 8.50411,6.71872h4.08761c-1.22158,-2.72507 -1.87936,-5.49713 -2.02031,-8.26919c-1.50349,0.37587 -2.02031,0.37587 -2.63111,0.37587c-2.58412,0 -4.04063,-1.1746 -8.03427,-1.1746c-8.03427,0 -14.47108,6.43681 -14.47108,15.26981c0,9.58474 6.15491,15.41076 15.3168,15.41076c7.51745,0 11.04125,-4.4165 12.21585,-8.73903z" data-paper-data="{&quot;glyphName&quot;:&quot;C&quot;,&quot;glyphIndex&quot;:11,&quot;lastGlyphOfWord&quot;:true,&quot;word&quot;:2}" fill="#62b5e5"></path></g><g data-paper-data="{&quot;fillRule&quot;:&quot;evenodd&quot;,&quot;isIcon&quot;:true,&quot;iconStyle&quot;:&quot;standalone&quot;,&quot;selectedEffects&quot;:{&quot;container&quot;:&quot;&quot;,&quot;transformation&quot;:&quot;&quot;,&quot;pattern&quot;:&quot;&quot;},&quot;bounds&quot;:{&quot;x&quot;:65,&quot;y&quot;:205.83839246121806,&quot;width&quot;:63.14837819350629,&quot;height&quot;:58.32400903281376},&quot;iconType&quot;:&quot;icon&quot;,&quot;rawIconId&quot;:&quot;53493&quot;,&quot;combineTerms&quot;:&quot;Bomb&quot;,&quot;isDetailed&quot;:false,&quot;suitableAsStandaloneIcon&quot;:true}" fill-rule="evenodd"><g data-paper-data="{&quot;isPathIcon&quot;:true}"><path d="M90.40209,222.6854c0.5983,0 1.0826,-0.484 1.0826,-1.082v-14.682c0,-0.598 -0.4843,-1.083 -1.0826,-1.083c-0.5984,0 -1.0826,0.485 -1.0826,1.083v14.682c0,0.598 0.485,1.082 1.0826,1.082z" fill="#d14124"></path><path d="M102.63499,222.6324c0.597,0 1.082,-0.484 1.082,-1.083v-11.019c0,-0.599 -0.485,-1.083 -1.082,-1.083c-0.598,0 -1.083,0.484 -1.083,1.083v11.019c0,0.598 0.485,1.083 1.083,1.083z" fill="#62b5e5"></path><path d="M94.40119,221.15239c0.5984,0 1.0827,-0.484 1.0827,-1.082v-6.438c0,-0.598 -0.4843,-1.082 -1.0827,-1.082c-0.5983,0 -1.0826,0.484 -1.0826,1.082v6.438c0,0.598 0.4843,1.082 1.0826,1.082z" fill="#00ab84"></path><path d="M98.18389,220.96339c0.5976,0 1.0826,-0.484 1.0826,-1.082v-2.88c0,-0.598 -0.485,-1.083 -1.0826,-1.083c-0.5976,0 -1.0826,0.485 -1.0826,1.083v2.88c0,0.597 0.485,1.082 1.0826,1.082z" fill="#ea7600"></path><path d="M127.425,255.5504c-5.725,-2.012 -13.752,-3.357 -22.739,-3.865v-11.005c0,-1.79 -1.457,-3.247 -3.248,-3.247h-0.436v-0.765c1.761,-0.098 3.167,-1.548 3.167,-3.333v-4.42c0,-1.848 -1.504,-3.352 -3.352,-3.352h-1.3159c-0.2591,-0.808 -1.0083,-1.397 -1.9011,-1.397h-2.0512c-0.8921,0 -1.6412,0.589 -1.9011,1.397h-1.3157c-1.8484,0 -3.3525,1.503 -3.3525,3.352v4.42c0,1.784 1.406,3.234 3.167,3.333v0.765h-0.4359c-1.7906,0 -3.2478,1.457 -3.2478,3.247v11.004c-8.9872,0.508 -17.0144,1.853 -22.7392,3.865c-0.5644,0.198 -0.8603,0.816 -0.6619,1.38c0.1978,0.564 0.817,0.86 1.3807,0.663c5.4254,-1.908 13.319,-3.221 22.0211,-3.732v3.817c0,1.613 1.1836,2.944 2.7253,3.196c0.2952,1.875 2.5535,3.289 5.3856,3.289c2.8321,0 5.0906,-1.415 5.3856,-3.29c1.542,-0.252 2.725,-1.583 2.725,-3.195v-3.816c8.702,0.511 16.596,1.824 22.021,3.731c0.119,0.042 0.24,0.062 0.359,0.062c0.447,0 0.865,-0.279 1.021,-0.724c0.2,-0.564 -0.097,-1.182 -0.661,-1.38zM91.14619,233.3354v-4.419c0,-0.655 0.5326,-1.187 1.1873,-1.187h1.211v5.227c0,0.599 0.4843,1.083 1.0827,1.083c0.5983,0 1.0826,-0.484 1.0826,-1.083v-6.624h1.7307v6.624c0,0.599 0.485,1.083 1.0826,1.083c0.5976,0 1.0826,-0.484 1.0826,-1.083v-5.227h1.2123c0.654,0 1.187,0.532 1.187,1.187v4.419c0,0.655 -0.532,1.188 -1.187,1.188h-8.4845c-0.6547,0 -1.1873,-0.533 -1.1873,-1.188zM94.31319,237.4334v-0.745h4.5246v0.745zM101.43899,239.5984c0.597,0 1.083,0.486 1.083,1.082v14.159h-11.8926v-14.159c0,-0.596 0.4858,-1.082 1.0826,-1.082zM102.52099,257.6784c0,0.597 -0.486,1.083 -1.083,1.083h-9.726c-0.5968,0 -1.0826,-0.486 -1.0826,-1.083v-0.675h11.8916zM96.57509,261.9984c-1.5243,0 -2.6185,-0.537 -3.0493,-1.071h6.0987c-0.4302,0.534 -1.5251,1.071 -3.0494,1.071z" fill="#d14124"></path></g></g></g></g></svg>
