<svg viewBox="0 0 550 470" style="background-color: #fff">
  <path d="M 113.17053,204.06397 H 100.61001 V 229.3238 H 81.45695 V 204.06397 H 68.96582 v 50.86664 h 12.49113 v -24.42709 h 19.15306 v 24.42709 h 12.56052 v -24.42709 h 6.10677 v -1.17972 h -6.10677 z m -32.8933,49.75631 H 70.14554 v -48.5766 h 10.13169 z"/>
  <path d="m 125.10649,231.75263 v 6.80072 7.21709 8.18863 V 255 h 35.04455 v -9.22955 h -25.81499 v -7.21709 h 25.81499 v -9.16016 h -35.04455 z m 0,-18.25093 h 35.04455 v -9.22955 h -35.04455 z"/>
  <path d="M 181.10837,204.20276 H 172.087 v 50.72785 h 38.44491 L 181.10837,223.7028 Z m 26.71713,49.54813 h -26.71713 v -28.31322 z"/>
  <path d="m 225.52126,204.20276 h -9.02137 v 50.72785 H 254.9448 L 225.52126,223.7028 Z m 26.71713,49.54813 h -26.71713 v -28.31322 z"/>
  <path d="m 286.03383,203.99457 c -14.08721,0 -25.46802,11.4502 -25.46802,25.46802 0,14.08721 11.3808,25.46802 25.46802,25.46802 14.08721,0 25.46802,-11.3808 25.46802,-25.46802 0,-14.01782 -11.3808,-25.46802 -25.46802,-25.46802 z m 0,49.82571 c -13.39326,0 -24.2883,-10.96443 -24.2883,-24.35769 0,-13.39326 10.89504,-24.2883 24.2883,-24.2883 13.39326,0 24.2883,10.89504 24.2883,24.2883 0,13.39326 -10.89504,24.35769 -24.2883,24.35769 z m 0,-44.75986 c -11.31141,0 -20.47157,9.16016 -20.47157,20.40217 0,11.31141 9.16016,20.47157 20.47157,20.47157 11.31141,0 20.47157,-9.16016 20.47157,-20.47157 0,-11.24201 -9.16016,-20.40217 -20.47157,-20.40217 z m 0,39.69402 c -10.68685,0 -19.29185,-8.605 -19.29185,-19.29185 0,-10.61746 8.605,-19.22245 19.29185,-19.22245 10.61746,0 19.29185,8.605 19.29185,19.22245 0,10.68685 -8.67439,19.29185 -19.29185,19.29185 z m 0,-36.98761 c -9.78472,0 -17.69576,7.98044 -17.69576,17.69576 0,9.78472 7.91105,17.69576 17.69576,17.69576 9.78472,0 17.69576,-7.91105 17.69576,-17.69576 0,-9.71532 -7.91105,-17.69576 -17.69576,-17.69576 z m 0,34.2118 c -9.09076,0 -16.51604,-7.35589 -16.51604,-16.51604 0,-9.09076 7.42528,-16.51604 16.51604,-16.51604 9.09076,0 16.51604,7.42528 16.51604,16.51604 0,9.16016 -7.42528,16.51604 -16.51604,16.51604 z"/>
  <path d="m 374.44324,226.27041 c 0,-12.14415 -9.8902,-21.06271 -21.99826,-21.99826 h -25.88439 v 8.605 h -3.40036 v 34.90576 h 3.40036 v 7.1477 h 50.17269 L 365.97703,243.6192 c 5.13524,-4.02492 8.46621,-10.27048 8.46621,-17.34879 z m -50.10329,20.33278 v -32.54632 h 4.44129 v 32.54632 z"/>
  <path d="M 425.10169,253.82028 H 413.5821 v -6.03738 h 3.40036 v -34.90576 h -3.40036 v -8.67439 c -14.01782,0 -25.39862,11.3808 -25.39862,25.39862 0,13.67084 10.75625,24.77407 24.2883,25.32923 h 12.62992 3.74734 5.20464 v -25.53741 h -8.95197 z m -9.29895,-39.76341 v 32.54632 h -4.44129 v -32.54632 z"/>
  <path d="m 445.98963,231.75263 v 6.80072 7.21709 8.18863 V 255 h 35.04455 v -9.22955 h -25.81499 v -7.21709 h 25.81499 v -9.16016 h -35.04455 z m 0,-18.25093 h 35.04455 v -9.22955 h -35.04455 z"/>
</svg>
