<svg xmlns:mydata="http://www.w3.org/2000/svg" mydata:contrastcolor="EE2737" mydata:template="Contrast" mydata:presentation="2.5" mydata:layouttype="undefined" mydata:specialfontid="undefined" mydata:id1="163" mydata:id2="1078" mydata:companyname="Hellorge" style="background-color: #fff" mydata:companytagline="Arsenal of Hell" version="1.1" xmlns="http://www.w3.org/2000/svg" xmlns:xlink="http://www.w3.org/1999/xlink" viewBox="0 0 550 470"><g fill="#101820" fill-rule="nonzero" stroke="none" stroke-width="1" stroke-linecap="butt" stroke-linejoin="miter" stroke-miterlimit="10" stroke-dasharray="" stroke-dashoffset="0" font-family="none" font-weight="none" font-size="none" text-anchor="none" style="mix-blend-mode: normal"><g data-paper-data="{&quot;isGlobalGroup&quot;:true,&quot;bounds&quot;:{&quot;x&quot;:65,&quot;y&quot;:188.8900840915357,&quot;width&quot;:420,&quot;height&quot;:92.2198318169286}}"><g data-paper-data="{&quot;isSecondaryText&quot;:true}"><path d="M212.61584,263.79491c-0.43552,2.37981 -0.91771,4.75962 -1.30656,7.13943c-0.20221,1.24435 -0.27998,2.50425 -0.38886,3.74859c-0.03111,0.31109 0,0.66884 0.10888,0.94881c0.06222,0.15554 0.35775,0.27998 0.55996,0.31109c0.13999,0.01555 0.38886,-0.15554 0.43552,-0.27998c0.10888,-0.3422 0.1711,-0.7155 0.21776,-1.0888c0.18665,-1.52432 0.29553,-3.0642 0.55996,-4.57297c0.40441,-2.33315 0.90215,-4.65074 1.36878,-6.98389c0.45108,-2.27093 0.96437,-4.54186 1.39989,-6.82835c0.26442,-1.36878 0.46663,-2.75312 0.65328,-4.13745c0.09333,-0.63773 0.10888,-1.30656 -0.1711,-1.92874c-0.35775,-0.77772 -0.99548,-1.10436 -1.81986,-0.87104c-0.31109,0.09333 -0.59106,0.26442 -0.87104,0.41997c-0.80882,0.48218 -1.49321,1.11991 -2.08428,1.83541c-1.72653,2.09983 -3.26641,4.30855 -4.46409,6.73502c-0.29553,0.59106 -0.57551,1.18213 -0.87104,1.75764c-0.13999,0.27998 -0.32664,0.5444 -0.48218,0.79327c-1.39989,0.20221 -2.72201,0.35775 -4.05968,0.57551c-1.01103,0.15554 -2.00651,0.35775 -3.01754,0.55996c-0.63773,0.13999 -1.24435,0.38886 -1.74208,0.82438c-0.20221,0.1711 -0.3733,0.41997 -0.49774,0.65328c-0.13999,0.24887 -0.03111,0.65328 0.20221,0.73105c0.20221,0.04666 0.52885,0.06222 0.63773,-0.06222c0.76216,-0.80882 1.77319,-0.99548 2.78422,-1.16657c1.22879,-0.21776 2.48869,-0.35775 3.73304,-0.49774c0.3422,-0.04666 0.7155,-0.20221 1.15102,0.04666c-0.04666,0.21776 -0.07777,0.43552 -0.15554,0.63773c-0.18665,0.51329 -0.41997,1.02659 -0.60662,1.55543c-1.04214,2.83089 -2.09983,5.66177 -3.12642,8.50821c-0.73105,2.06872 -1.41544,4.13745 -2.11539,6.22173c-0.10888,0.3422 -0.1711,0.7155 -0.18665,1.0888c-0.03111,0.29553 0.12443,0.52885 0.43552,0.62217c0.26442,0.07777 0.52885,-0.09333 0.62217,-0.41997c0.76216,-2.23982 1.49321,-4.4952 2.25538,-6.73502c1.18213,-3.43751 2.47314,-6.82835 3.88858,-10.17253c0.20221,-0.51329 0.45108,-1.01103 0.66884,-1.46211c2.61313,-0.40441 4.8685,-0.10888 6.34616,0.85549c-0.01555,0.27998 -0.03111,0.46663 -0.06222,0.63773zM214.809,252.0514c-0.15554,1.19768 -0.29553,2.39537 -0.51329,3.57749c-0.31109,1.74208 -0.68439,3.46861 -1.02659,5.2107c-0.03111,0.1711 -0.12443,0.3422 -0.20221,0.59106c-0.97992,-0.18665 -1.91318,-0.41997 -2.862,-0.5444c-0.94881,-0.12443 -1.92874,-0.15554 -2.98643,-0.23331c0.03111,-0.20221 0.01555,-0.38886 0.09333,-0.52885c1.22879,-2.56646 2.72201,-4.96183 4.52631,-7.17054c0.55996,-0.68439 1.22879,-1.27545 1.86652,-1.86652c0.23331,-0.21776 0.5444,-0.32664 0.94881,-0.57551c0.27998,0.62217 0.21776,1.0888 0.15554,1.53988z" data-paper-data="{&quot;glyphName&quot;:&quot;A&quot;,&quot;glyphIndex&quot;:0,&quot;firstGlyphOfWord&quot;:true,&quot;word&quot;:1}"></path><path d="M224.48379,260.6996c-0.76216,0.31109 -1.24435,0.48218 -1.81986,-0.43552c-0.09333,-0.1711 -0.09333,-0.48218 -0.21776,-0.69994c-0.23331,-0.38886 -0.73105,-0.41997 -1.07325,-0.12443c-0.7155,0.62217 -1.36878,1.30656 -1.9754,2.02206c0.3422,-0.83993 0.69994,-1.67987 1.13547,-2.47314c0.41997,-0.77772 -0.74661,-1.46211 -1.18213,-0.69994c-1.27545,2.3487 -2.08428,4.8685 -2.78422,7.43497c-0.20221,0.73105 0.8866,1.24435 1.24435,0.52885c0.93326,-1.86652 2.1465,-3.49972 3.59305,-4.94627c0.13999,0.32664 0.41997,0.62217 0.73105,0.80882c0.87104,0.5444 1.83541,0.26442 2.72201,-0.09333c0.79327,-0.32664 0.45108,-1.64876 -0.3733,-1.32212z" data-paper-data="{&quot;glyphName&quot;:&quot;r&quot;,&quot;glyphIndex&quot;:1,&quot;word&quot;:1}"></path><path d="M232.52537,262.31725c-1.44655,1.11991 -3.07976,1.8043 -4.74407,2.50425c-0.07777,-0.20221 -0.15554,-0.38886 -0.21776,-0.59106c-0.27998,-0.8866 -0.5444,-3.00198 0.68439,-3.54639c1.52432,-0.68439 0.07777,1.81986 -0.23331,2.27093c-0.48218,0.74661 0.69994,1.431 1.18213,0.69994c0.65328,-0.99548 1.95984,-3.46861 0.38886,-4.3241c-1.6332,-0.8866 -3.12642,0.83993 -3.46861,2.17761c-0.24887,1.04214 -0.3422,1.89763 0.03111,2.90866c0.10888,0.27998 0.27998,0.59106 0.43552,0.90215c-0.93326,0.3733 -1.91318,0.82438 -2.56646,1.57099c-1.11991,1.29101 -1.10436,3.4064 0.90215,3.67082c1.83541,0.24887 3.49972,-1.36878 3.59305,-3.15753c0.01555,-0.49774 -0.09333,-0.93326 -0.24887,-1.36878c0.45108,-0.15554 0.82438,-0.27998 1.01103,-0.3733c1.50877,-0.63773 2.90866,-1.36878 4.21522,-2.37981c0.68439,-0.5444 -0.27998,-1.50877 -0.96437,-0.96437zM227.09692,266.89022c0.03111,0.38886 0,0.77772 -0.12443,1.13547c-0.13999,0.45108 -0.49774,0.83993 -0.87104,1.0888c-0.24887,0.15554 -0.57551,0.21776 -0.85549,0.1711c-0.3422,-0.06222 -0.66884,-0.3422 -0.7155,-0.69994c-0.06222,-0.3733 0.20221,-0.76216 0.45108,-1.02659c0.24887,-0.24887 0.55996,-0.43552 0.8866,-0.59106c0.27998,-0.12443 1.18213,-0.48218 1.18213,-0.46663c0.03111,0.12443 0.04666,0.26442 0.04666,0.38886z" data-paper-data="{&quot;glyphName&quot;:&quot;s&quot;,&quot;glyphIndex&quot;:2,&quot;word&quot;:1}"></path><path d="M238.87154,262.44168c-0.60662,0.76216 -2.19316,2.06872 -3.0642,2.48869c-1.0888,0.52885 -2.61313,0.49774 -2.37981,-1.01103c1.39989,1.01103 3.48417,-0.68439 3.79525,-2.20871c0.18665,-0.85549 -0.35775,-1.61765 -1.18213,-1.83541c-0.93326,-0.23331 -1.77319,0.27998 -2.39537,0.93326c-1.30656,1.33767 -2.62868,4.24633 -0.48218,5.47512c2.08428,1.21324 5.52178,-1.47766 6.76613,-3.04865c0.52885,-0.66884 -0.52885,-1.46211 -1.05769,-0.79327zM234.06525,262.72166c-0.01555,-0.01555 -0.04666,-0.04666 -0.07777,-0.06222c-0.24887,-0.21776 0.74661,-1.10436 0.93326,-1.22879c0.1711,-0.12443 0.57551,-0.40441 0.77772,-0.18665c0.15554,0.15554 -0.01555,0.5444 -0.09333,0.69994c-0.13999,0.31109 -0.35775,0.60662 -0.62217,0.80882c-0.35775,0.27998 -0.59106,0.21776 -0.91771,-0.03111z" data-paper-data="{&quot;glyphName&quot;:&quot;e&quot;,&quot;glyphIndex&quot;:3,&quot;word&quot;:1}"></path><path d="M248.60854,262.72166c-0.79327,0.59106 -1.61765,1.15102 -2.50425,1.61765c-0.32664,0.18665 -0.65328,0.35775 -0.99548,0.51329c-0.20221,0.09333 -0.29553,0.20221 -0.41997,0.04666c-0.13999,-0.1711 -0.13999,-0.57551 -0.15554,-0.79327c-0.01555,-0.48218 0.12443,-0.99548 0.24887,-1.44655c0.23331,-0.91771 0.66884,-1.85096 0.74661,-2.79978c0.04666,-0.49774 -0.62217,-0.8866 -1.02659,-0.59106c-1.07325,0.77772 -2.11539,1.58654 -3.11086,2.48869c-0.23331,0.21776 -0.85549,0.97992 -1.47766,1.64876c0.55996,-1.35323 1.27545,-2.67534 1.86652,-3.9508c0.35775,-0.80882 -0.82438,-1.49321 -1.18213,-0.69994c-0.91771,2.02206 -2.19316,4.1219 -2.67534,6.2995c-0.09333,0.40441 0.18665,0.90215 0.65328,0.87104c1.0888,-0.09333 1.57099,-1.01103 2.28649,-1.75764c0.91771,-0.94881 1.91318,-1.8043 2.93977,-2.62868c-0.43552,1.72653 -0.99548,3.99746 -0.12443,4.79073c1.22879,1.13547 4.69741,-1.74208 5.63066,-2.42647c0.69994,-0.51329 0.01555,-1.69542 -0.69994,-1.18213z" data-paper-data="{&quot;glyphName&quot;:&quot;n&quot;,&quot;glyphIndex&quot;:4,&quot;word&quot;:1}"></path><path d="M258.5322,262.08393c-0.43552,0.66884 -0.94881,1.2599 -1.53988,1.77319c-0.31109,0.24887 -1.77319,1.46211 -2.17761,1.27545c-0.68439,-0.27998 1.10436,-4.24633 1.33767,-4.82184c0.3422,-0.85549 -1.53988,-1.35323 -2.09983,-1.36878c-1.30656,-0.04666 -2.55091,0.77772 -3.51528,1.57099c-1.11991,0.93326 -3.03309,3.11086 -2.19316,4.69741c0.82438,1.53988 3.07976,0.63773 4.10634,-0.12443c0.26442,-0.20221 0.5444,-0.43552 0.82438,-0.66884c-0.20221,0.83993 -0.13999,1.86652 0.85549,2.13094c0.96437,0.26442 2.20871,-0.55996 2.97088,-1.07325c1.04214,-0.73105 1.91318,-1.6332 2.61313,-2.6909c0.48218,-0.73105 -0.69994,-1.41544 -1.18213,-0.69994zM250.35063,264.63484c-1.75764,-0.06222 0.26442,-2.31759 0.73105,-2.76867c0.68439,-0.65328 2.3487,-2.00651 3.39084,-1.431c-0.27998,0.91771 -0.83993,1.64876 -1.52432,2.3487c-0.62217,0.63773 -1.6332,1.88207 -2.59757,1.85096z" data-paper-data="{&quot;glyphName&quot;:&quot;a&quot;,&quot;glyphIndex&quot;:5,&quot;word&quot;:1}"></path><path d="M265.5472,261.19734c-1.36878,1.32212 -2.862,2.92421 -4.69741,3.59305c-2.27093,0.82438 -1.2599,-1.24435 -0.80882,-2.44203c0.99548,-2.67534 2.55091,-5.13293 4.02857,-7.54385c0.46663,-0.74661 -0.7155,-1.431 -1.18213,-0.68439c-1.29101,2.11539 -2.58202,4.24633 -3.6086,6.51726c-0.55996,1.27545 -1.38433,2.93977 -1.18213,4.38632c0.63773,4.41743 7.27942,-1.77319 8.41489,-2.862c0.63773,-0.60662 -0.32664,-1.57099 -0.96437,-0.96437z" data-paper-data="{&quot;glyphName&quot;:&quot;l&quot;,&quot;glyphIndex&quot;:6,&quot;lastGlyphOfWord&quot;:true,&quot;word&quot;:1}"></path><path d="M291.58514,256.54659c0.21776,-0.03111 0.43552,-0.10888 0.63773,-0.21776c0.27998,-0.13999 0.43552,-0.41997 0.32664,-0.69994c-0.07777,-0.1711 -0.31109,-0.31109 -0.51329,-0.38886c-0.15554,-0.07777 -0.35775,-0.03111 -0.5444,-0.01555c-0.63773,0.06222 -1.07325,-0.15554 -1.2599,-0.80882c-0.09333,-0.29553 -0.31109,-0.57551 -0.52885,-0.80882c-0.32664,-0.32664 -0.77772,-0.31109 -1.15102,-0.03111c-0.31109,0.24887 -0.41997,0.60662 -0.23331,0.99548c0.13999,0.27998 0.32664,0.55996 0.51329,0.82438c0.27998,0.3422 0.3733,0.74661 0.32664,1.16657c-0.15554,1.2599 -0.31109,2.48869 -0.73105,3.68637c-0.96437,2.84644 -2.20871,5.53734 -3.90413,8.01048c-1.29101,1.89763 -2.65979,3.70193 -4.40187,5.2107c-0.60662,0.52885 -1.2599,0.94881 -2.02206,1.21324c-0.73105,0.26442 -1.36878,0.12443 -1.91318,-0.45108c-0.35775,-0.3733 -0.60662,-0.82438 -0.65328,-1.35323c-0.04666,-0.46663 -0.07777,-0.93326 -0.06222,-1.39989c0.07777,-1.91318 0.55996,-3.76415 1.24435,-5.55289c0.79327,-2.09983 1.91318,-4.02857 3.12642,-5.91064c1.13547,-1.77319 2.42647,-3.42195 3.71748,-5.07071c1.02659,-1.29101 2.19316,-2.41092 3.49972,-3.39084c0.43552,-0.32664 0.97992,-0.52885 1.49321,-0.7155c0.41997,-0.13999 0.83993,0.01555 1.13547,0.35775c0.15554,0.15554 0.20221,0.41997 0.29553,0.62217c0.15554,0.27998 0.38886,0.40441 0.69994,0.32664c0.29553,-0.07777 0.43552,-0.31109 0.48218,-0.60662c0.09333,-0.49774 -0.09333,-0.91771 -0.43552,-1.2599c-0.63773,-0.63773 -1.41544,-0.87104 -2.30204,-0.76216c-0.69994,0.07777 -1.33767,0.38886 -1.92874,0.76216c-1.05769,0.68439 -1.9754,1.53988 -2.83089,2.47314c-1.71098,1.91318 -3.21974,3.96635 -4.68185,6.08174c-1.66431,2.39537 -2.90866,4.97738 -3.9508,7.66828c-0.66884,1.71098 -0.94881,3.49972 -0.99548,5.33513c-0.01555,0.79327 0.07777,1.57099 0.40441,2.31759c0.68439,1.50877 2.16205,2.27093 3.76415,1.91318c0.83993,-0.1711 1.6021,-0.5444 2.23982,-1.0888c1.10436,-0.93326 2.17761,-1.89763 3.07976,-3.03309c1.44655,-1.83541 2.78422,-3.73304 3.87303,-5.80176c1.47766,-2.81533 2.73756,-5.70844 3.03309,-8.92818c0.01555,-0.1711 0.10888,-0.3422 0.1711,-0.55996c0.3422,-0.03111 0.65328,-0.04666 0.97992,-0.10888z" data-paper-data="{&quot;glyphName&quot;:&quot;O&quot;,&quot;glyphIndex&quot;:7,&quot;firstGlyphOfWord&quot;:true,&quot;word&quot;:2}"></path><path d="M299.76671,266.59469c2.58202,-1.07325 5.14848,-2.13094 7.71494,-3.21974c0.66884,-0.27998 0.8866,-0.77772 0.63773,-1.18213c-0.21776,-0.35775 -0.62217,-0.43552 -1.2599,-0.18665c-0.66884,0.27998 -1.30656,0.62217 -1.9754,0.90215c-2.5198,1.02659 -5.05515,2.05317 -7.59051,3.0642c-0.06222,0.03111 -0.1711,-0.07777 -0.35775,-0.1711c0.87104,-2.13094 1.72653,-4.27744 2.62868,-6.42394c0.45108,-1.0888 0.99548,-2.1465 1.49321,-3.21974c0.09333,-0.23331 0.21776,-0.49774 0.1711,-0.73105c-0.03111,-0.21776 -0.21776,-0.46663 -0.40441,-0.57551c-0.12443,-0.09333 -0.40441,-0.03111 -0.55996,0.07777c-0.20221,0.13999 -0.38886,0.35775 -0.49774,0.57551c-0.35775,0.62217 -0.69994,1.2599 -0.97992,1.92874c-1.27545,3.14197 -2.55091,6.2995 -3.79525,9.47258c-0.62217,1.55543 -0.93326,3.17308 -0.83993,4.85295c0.04666,0.79327 0.21776,1.52432 0.73105,2.16205c0.65328,0.83993 1.78875,0.94881 2.58202,0.24887c0.51329,-0.46663 0.87104,-1.02659 1.04214,-1.69542c0.31109,-1.16657 0.3422,-2.3487 0.04666,-3.51528c-0.10888,-0.49774 -0.26442,-0.99548 -0.45108,-1.67987c0.63773,-0.26442 1.15102,-0.48218 1.66431,-0.68439zM296.98249,272.30312c-0.06222,0.23331 -0.26442,0.45108 -0.46663,0.57551c-0.10888,0.07777 -0.3733,0.01555 -0.52885,-0.07777c-0.10888,-0.06222 -0.20221,-0.23331 -0.23331,-0.3733c-0.31109,-1.61765 -0.06222,-3.14197 0.60662,-4.83739c1.02659,1.61765 1.11991,3.14197 0.62217,4.71296z" data-paper-data="{&quot;glyphName&quot;:&quot;f&quot;,&quot;glyphIndex&quot;:8,&quot;lastGlyphOfWord&quot;:true,&quot;word&quot;:2}"></path><path d="M321.18501,262.42613c0.15554,-0.45108 0.31109,-0.90215 0.46663,-1.35323c0.7155,-2.13094 1.431,-4.26188 2.28649,-6.34616c0.38886,-0.99548 0.77772,-1.99095 0.93326,-3.04865c0.09333,-0.52885 -0.1711,-0.97992 -0.76216,-0.96437c-0.38886,0 -0.77772,0.26442 -0.74661,0.65328c0.04666,0.59106 -0.12443,1.10436 -0.29553,1.6332c-1.13547,3.25085 -2.27093,6.50171 -3.4064,9.75256c-0.09333,0.29553 -0.23331,0.59106 -0.3422,0.87104c-0.69994,0.24887 -1.36878,0.43552 -2.02206,0.68439c-1.55543,0.60662 -1.94429,1.30656 -1.67987,2.90866c0.06222,0.40441 0.13999,0.82438 0.21776,1.22879c0.41997,2.42647 0.35775,4.82184 -0.06222,7.23276c-0.09333,0.49774 -0.1711,1.01103 -0.21776,1.52432c-0.03111,0.41997 -0.13999,1.22879 0.41997,1.38433c0.18665,0.04666 0.41997,-0.01555 0.5444,-0.1711c0.06222,-0.09333 0.10888,-0.20221 0.13999,-0.31109c0.18665,-0.48218 0.31109,-0.97992 0.43552,-1.49321c0.8866,-3.91969 1.9754,-7.49718 3.32863,-11.69685c0.03111,-0.12443 0.18665,-0.1711 0.76216,-0.24887c1.46211,-0.21776 2.93977,-0.46663 4.40187,-0.69994c0.21776,-0.04666 0.43552,-0.03111 0.77772,-0.06222c-0.10888,0.46663 -0.1711,0.82438 -0.27998,1.15102c-0.5444,1.69542 -1.0888,3.37529 -1.61765,5.05515c-0.09333,0.32664 -0.13999,0.63773 -0.18665,0.96437c-0.03111,0.32664 -0.15554,0.68439 -0.04666,1.01103c0.04666,0.13999 0.12443,0.26442 0.23331,0.35775c0.27998,0.26442 0.63773,0.20221 0.79327,-0.1711c0.3733,-0.8866 0.40441,-1.91318 0.7155,-2.83089c0.57551,-1.71098 1.19768,-3.42195 1.81986,-5.11737c0.07777,-0.21776 0.21776,-0.38886 0.31109,-0.5444c0.80882,-0.1711 1.44655,0.04666 2.23982,0.23331c0.20221,0.04666 0.45108,0.07777 0.63773,-0.03111c0.24887,-0.15554 0.32664,-0.49774 0.21776,-0.76216c-0.10888,-0.26442 -0.35775,-0.45108 -0.62217,-0.55996c-0.31109,-0.13999 -0.68439,-0.21776 -1.02659,-0.26442c-0.09333,-0.01555 -0.97992,-0.13999 -1.01103,-0.04666c0.18665,-0.52885 0.32664,-1.15102 0.49774,-1.58654c0.83993,-2.25538 1.69542,-4.52631 2.53535,-6.79724c0.15554,-0.43552 0.26442,-0.8866 0.35775,-1.33767c0.04666,-0.29553 -0.10888,-0.55996 -0.41997,-0.65328c-0.27998,-0.09333 -0.55996,0.01555 -0.73105,0.26442c-0.13999,0.1711 -0.21776,0.40441 -0.29553,0.62217c-0.87104,2.39537 -1.72653,4.80629 -2.59757,7.21721c-0.21776,0.60662 -0.45108,1.22879 -0.66884,1.83541c-0.12443,0.3422 -0.20221,0.55996 -0.20221,0.55996c-1.78875,0.26442 -4.05968,0.55996 -6.06619,0.83993c0.12443,-0.43552 0.15554,-0.66884 0.23331,-0.8866zM317.85639,269.02116c-0.03111,0.10888 -0.35775,1.36878 -0.60662,2.27093c-0.18665,-0.91771 -0.40441,-3.18864 -0.43552,-4.3241c-0.06222,-0.27998 0.12443,-0.82438 0.38886,-0.99548c0.40441,-0.29553 0.99548,-0.60662 1.72653,-0.69994c-0.52885,1.61765 -0.76216,2.59757 -1.07325,3.74859z" data-paper-data="{&quot;glyphName&quot;:&quot;H&quot;,&quot;glyphIndex&quot;:9,&quot;firstGlyphOfWord&quot;:true,&quot;word&quot;:3}"></path><path d="M339.24358,262.44168c-0.60662,0.76216 -2.19316,2.06872 -3.0642,2.48869c-1.0888,0.52885 -2.61313,0.49774 -2.37981,-1.01103c1.39989,1.01103 3.48417,-0.68439 3.79525,-2.20871c0.18665,-0.85549 -0.35775,-1.61765 -1.18213,-1.83541c-0.93326,-0.23331 -1.77319,0.27998 -2.39537,0.93326c-1.30656,1.33767 -2.62868,4.24633 -0.48218,5.47512c2.08428,1.21324 5.52178,-1.47766 6.76613,-3.04865c0.52885,-0.66884 -0.52885,-1.46211 -1.05769,-0.79327zM334.4373,262.72166c-0.01555,-0.01555 -0.04666,-0.04666 -0.07777,-0.06222c-0.24887,-0.21776 0.74661,-1.10436 0.93326,-1.22879c0.1711,-0.12443 0.57551,-0.40441 0.77772,-0.18665c0.15554,0.15554 -0.01555,0.5444 -0.09333,0.69994c-0.13999,0.31109 -0.35775,0.60662 -0.62217,0.80882c-0.35775,0.27998 -0.59106,0.21776 -0.91771,-0.03111z" data-paper-data="{&quot;glyphName&quot;:&quot;e&quot;,&quot;glyphIndex&quot;:10,&quot;word&quot;:3}"></path><path d="M346.24303,261.19734c-1.36878,1.32212 -2.862,2.92421 -4.69741,3.59305c-2.27093,0.82438 -1.2599,-1.24435 -0.80882,-2.44203c0.99548,-2.67534 2.55091,-5.13293 4.02857,-7.54385c0.46663,-0.74661 -0.7155,-1.431 -1.18213,-0.68439c-1.29101,2.11539 -2.58202,4.24633 -3.6086,6.51726c-0.55996,1.27545 -1.38433,2.93977 -1.18213,4.38632c0.63773,4.41743 7.27942,-1.77319 8.41489,-2.862c0.63773,-0.60662 -0.32664,-1.57099 -0.96437,-0.96437z" data-paper-data="{&quot;glyphName&quot;:&quot;l&quot;,&quot;glyphIndex&quot;:11,&quot;word&quot;:3}"></path><path d="M352.74473,261.19734c-1.36878,1.32212 -2.862,2.92421 -4.69741,3.59305c-2.27093,0.82438 -1.2599,-1.24435 -0.80882,-2.44203c0.99548,-2.67534 2.55091,-5.13293 4.02857,-7.54385c0.46663,-0.74661 -0.7155,-1.431 -1.18213,-0.68439c-1.29101,2.11539 -2.58202,4.24633 -3.6086,6.51726c-0.55996,1.27545 -1.38433,2.93977 -1.18213,4.38632c0.63773,4.41743 7.27942,-1.77319 8.41489,-2.862c0.63773,-0.60662 -0.32664,-1.57099 -0.96437,-0.96437z" data-paper-data="{&quot;glyphName&quot;:&quot;l&quot;,&quot;glyphIndex&quot;:12,&quot;lastGlyphOfWord&quot;:true,&quot;word&quot;:3}"></path></g><g data-paper-data="{&quot;isPrimaryText&quot;:true}"><path d="M65,236.78859l12.82991,-47.89834h11.97458l-12.82991,47.89834zM112.89834,236.78859h-11.97458l4.82405,-17.96188h-17.96188l3.18182,-11.97458h17.96188l4.82405,-17.96188h11.97458z" data-paper-data="{&quot;glyphName&quot;:&quot;H&quot;,&quot;glyphIndex&quot;:0,&quot;firstGlyphOfWord&quot;:true,&quot;word&quot;:1}"></path><path d="M137.90811,200.86484l-6.39785,23.94917h29.93646l-3.21603,11.97458h-41.91105l12.82991,-47.89834h41.91105l-3.21603,11.97458zM166.23656,206.85213l-3.18182,11.97458h-23.94917l3.18182,-11.97458z" data-paper-data="{&quot;glyphName&quot;:&quot;E&quot;,&quot;glyphIndex&quot;:1,&quot;word&quot;:1}"></path><path d="M161.652,236.78859l12.82991,-47.89834h11.97458l-9.61388,35.92375h29.93646l-3.21603,11.97458z" data-paper-data="{&quot;glyphName&quot;:&quot;L&quot;,&quot;glyphIndex&quot;:2,&quot;word&quot;:1}"></path><path d="M206.98436,236.78859l12.82991,-47.89834h11.97458l-9.61388,35.92375h29.93646l-3.21603,11.97458z" data-paper-data="{&quot;glyphName&quot;:&quot;L&quot;,&quot;glyphIndex&quot;:3,&quot;word&quot;:1}"></path><path d="M354.99022,212.83942c1.66504,0 3.23314,-0.58162 4.7043,-1.74487c1.47116,-1.16325 2.42343,-2.57739 2.85679,-4.24242c0.15966,-0.57022 0.23949,-1.11763 0.23949,-1.64223c0,-0.98078 -0.2737,-1.84751 -0.82111,-2.6002c-0.86673,-1.16325 -2.13262,-1.74487 -3.79765,-1.74487h-23.94917l-9.61388,35.92375h-11.97458l12.82991,-47.89834h35.92375c4.9723,0 8.74715,1.74487 11.32454,5.2346c1.66504,2.30368 2.49756,4.92669 2.49756,7.86901c0,1.52819 -0.22809,3.14761 -0.68426,4.85826c-1.32291,4.9723 -4.19681,9.20332 -8.6217,12.69306c-1.61942,1.27729 -3.27305,2.32649 -4.9609,3.14761l8.58749,14.0958h-14.98534l-7.25318,-11.97458h-13.47996l3.21603,-11.97458z" data-paper-data="{&quot;glyphName&quot;:&quot;R&quot;,&quot;glyphIndex&quot;:5,&quot;word&quot;:1}"></path><path d="M396.90127,236.78859c-6.61453,0 -11.63245,-2.3379 -15.05376,-7.01369c-2.25806,-3.07918 -3.3871,-6.58032 -3.3871,-10.50342c0,-2.02998 0.30792,-4.174 0.92375,-6.43206c1.75627,-6.61453 5.59954,-12.25969 11.52981,-16.93548c5.93027,-4.67579 12.20267,-7.01369 18.8172,-7.01369h23.94917l-3.21603,11.97458h-23.94917c-3.30727,0 -6.44347,1.16895 -9.4086,3.50684c-2.96514,2.3379 -4.88107,5.16048 -5.7478,8.46774c-0.29651,1.14044 -0.44477,2.21245 -0.44477,3.21603c0,1.96155 0.55881,3.70642 1.67644,5.2346c1.71065,2.3493 4.21962,3.52395 7.52688,3.52395h17.96188l1.60802,-5.98729h-17.96188l3.18182,-11.97458h29.93646l-8.00587,29.93646z" data-paper-data="{&quot;glyphName&quot;:&quot;G&quot;,&quot;glyphIndex&quot;:6,&quot;word&quot;:1}"></path><path d="M451.84751,200.86484l-6.39785,23.94917h29.93646l-3.21603,11.97458h-41.91105l12.82991,-47.89834h41.91105l-3.21603,11.97458zM480.17595,206.85213l-3.18182,11.97458h-23.94917l3.18182,-11.97458z" data-paper-data="{&quot;glyphName&quot;:&quot;E&quot;,&quot;glyphIndex&quot;:7,&quot;lastGlyphOfWord&quot;:true,&quot;word&quot;:1}"></path><g data-paper-data="{&quot;fillRule&quot;:&quot;nonzero&quot;,&quot;isIcon&quot;:&quot;true&quot;,&quot;iconType&quot;:&quot;icon&quot;,&quot;rawIconId&quot;:&quot;149209&quot;,&quot;selectedEffects&quot;:{&quot;container&quot;:&quot;circle_simple_filledplus&quot;,&quot;transformation&quot;:&quot;&quot;,&quot;pattern&quot;:&quot;&quot;},&quot;isDetailed&quot;:&quot;false&quot;,&quot;blockLetter&quot;:&quot;O&quot;,&quot;blockLetterId&quot;:&quot;0&quot;,&quot;relativeBoundsIconToContainer&quot;:{&quot;top&quot;:&quot;-0.01780655140945671&quot;,&quot;left&quot;:&quot;-0.000006688951847272016&quot;},&quot;widthRatioIconToContainer&quot;:&quot;0.3696127730961305&quot;,&quot;heightRatioIconToContainer&quot;:&quot;0.7556336985554343&quot;,&quot;bounds&quot;:{&quot;x&quot;:257.825,&quot;y&quot;:188.8900840915357,&quot;width&quot;:58.710000000000036,&quot;height&quot;:47.899},&quot;iconStyle&quot;:&quot;icon-in-text&quot;,&quot;suitableAsStandaloneIcon&quot;:true}"><path d="M276.266,236.78908c-6.615,0 -11.633,-2.338 -15.054,-7.014c-2.258,-3.079 -3.387,-6.58 -3.387,-10.504c0,-2.03 0.308,-4.174 0.924,-6.432c1.756,-6.614 5.599,-12.259 11.53,-16.935c5.93,-4.676 12.202,-7.014 18.817,-7.014h8.998c6.592,0 11.609,2.338 15.054,7.014c2.258,3.102 3.387,6.614 3.387,10.537c0,2.03 -0.297,4.163 -0.89,6.398c-1.779,6.615 -5.639,12.26 -11.581,16.936c-5.942,4.676 -12.208,7.014 -18.8,7.014zM287.17999,231.30308c10.19713,0 18.46354,-8.26641 18.46354,-18.46354c0,-10.19713 -8.26641,-18.46354 -18.46354,-18.46354c-10.19713,0 -18.46354,8.26641 -18.46354,18.46354c0,10.19713 8.26641,18.46354 18.46354,18.46354zM283.84085,198.7964c0.81594,-1.44606 1.97843,-2.39807 3.33863,-2.39807c1.34831,0 2.52313,0.95157 3.33951,2.39851c0.80362,1.43373 1.29855,3.38706 1.29855,5.55044v12.91814c0,0.50727 -0.0251,1.01365 -0.07442,1.50815l2.12726,1.27389c0.54382,0.321 0.98943,1.08719 0.98943,1.71819v5.33996c0,0.61867 -0.44562,0.87803 -0.98943,0.55659l-4.98416,-2.97931c-0.51916,0.34611 -1.1004,0.54382 -1.70674,0.54382c-0.61823,0 -1.19904,-0.21048 -1.71863,-0.55659l-4.97184,2.97976c-0.54382,0.32145 -0.98943,0.08586 -0.98943,-0.53149v-5.34084c0,-0.63056 0.44562,-1.42184 0.98943,-1.74329l2.12726,-1.28534c-0.04932,-0.48217 -0.07398,-0.97666 -0.07398,-1.48349v-1.86659c-0.01277,-0.04976 -0.01277,-0.09908 0,-0.13606v-10.49541c-0.01277,-0.04932 -0.01277,-0.09908 0,-0.14839v-0.27213c0,-2.16337 0.48217,-4.11626 1.29855,-5.55044zM289.90075,199.14251c-0.74241,-1.31 -1.70674,-2.05197 -2.72128,-2.05197c-1.02598,0 -1.99076,0.74197 -2.7204,2.05197c-0.73008,1.28578 -1.19948,3.07839 -1.22457,5.08104c1.24923,-0.30912 2.57244,-0.46984 3.94497,-0.46984c1.37341,0 2.69618,0.16072 3.93308,0.46984c-0.01189,-2.00265 -0.48217,-3.79526 -1.2118,-5.08104zM291.11256,204.95275c-1.2369,-0.32145 -2.56011,-0.50683 -3.93308,-0.50683c-1.38486,0 -2.70807,0.18582 -3.94497,0.50727v9.91417c1.24923,-0.30912 2.57244,-0.48261 3.94497,-0.48261c1.37341,0 2.69618,0.17349 3.93308,0.48261zM291.11256,215.59655c-1.2369,-0.32145 -2.56011,-0.50683 -3.93308,-0.50683c-1.38486,0 -2.70807,0.17349 -3.94497,0.50683v1.66887c0,2.05197 0.48217,3.90666 1.22457,5.21666c0.72964,1.31088 1.69441,2.04008 2.7204,2.04008c1.01454,0 1.97887,-0.7292 2.72128,-2.04008c0.74197,-1.31 1.2118,-3.1647 1.2118,-5.21666zM283.84085,222.8163c-0.5196,-0.92735 -0.91546,-2.07707 -1.12594,-3.36241l-2.2259,1.33466c-0.19771,0.12417 -0.34611,0.37076 -0.34611,0.59357v5.34084c0,0.22237 0.14839,0.28402 0.34611,0.17305l4.43991,-2.65787c-0.40819,-0.39586 -0.7794,-0.8657 -1.08807,-1.42184zM294.2046,221.3698c0,-0.22281 -0.13606,-0.45751 -0.33377,-0.58124l-2.22634,-1.33466c-0.21048,1.28534 -0.6059,2.43506 -1.12506,3.36197c-0.32144,0.55614 -0.68032,1.03875 -1.10084,1.42184l4.45224,2.66976c0.19771,0.11185 0.33377,0.0251 0.33377,-0.19771zM307.95797,213.04141l0.00085,-0.19959v-0.00452l-0.00099,-0.20764l-0.00297,-0.20764l-0.00508,-0.2075l-0.00692,-0.2075l-0.00903,-0.2075l-0.01101,-0.2075l-0.01313,-0.20722l-0.0151,-0.20722l-0.01722,-0.20707l-0.01934,-0.20693l-0.02131,-0.20665l-0.02329,-0.20651l-0.02555,-0.20626l-0.02753,-0.20602l-0.02964,-0.20573l-0.03176,-0.20544l-0.03388,-0.2051l-0.03585,-0.20476l-0.03797,-0.20439l-0.04009,-0.20398l-0.04221,-0.20357l-0.04418,-0.20314l-0.0463,-0.20267l-0.04842,-0.20219l-0.05039,-0.20167l-0.05251,-0.20115l-0.05449,-0.20059l-0.0566,-0.20003l-0.05858,-0.19941l-0.0607,-0.19882l-0.06253,-0.19817l-0.06465,-0.19752l-0.06663,-0.19685l-0.06846,-0.19615l-0.07058,-0.19543l-0.07241,-0.19471l-0.07439,-0.19396l-0.07622,-0.1932l-0.0782,-0.19238l-0.07862,-0.18856l-0.08187,-0.19084l-0.08371,-0.19006l-0.08554,-0.18926l-0.08738,-0.18844l-0.08935,-0.18757l-0.09119,-0.18669l-0.09302,-0.1858l-0.09486,-0.18487l-0.09669,-0.18392l-0.09867,-0.18295l-0.10036,-0.18196l-0.10234,-0.18096l-0.10403,-0.1799l-0.10587,-0.17886l-0.10784,-0.17777l-0.10954,-0.17668l-0.11123,-0.17554l-0.11307,-0.17441l-0.1149,-0.17325l-0.11674,-0.17207l-0.11829,-0.17088l-0.12012,-0.16965l-0.12182,-0.16843l-0.12351,-0.16717l-0.12521,-0.1659l-0.1269,-0.16463l-0.12845,-0.16332l-0.13014,-0.16202l-0.1317,-0.16069l-0.13339,-0.15935l-0.1348,-0.15801l-0.1365,-0.15664l-0.13791,-0.15527l-0.13946,-0.15389l-0.14101,-0.15249l-0.14242,-0.15111l-0.14384,-0.14968l-0.14468,-0.14758l-0.08455,-0.08506l-0.14751,-0.14607l-0.14892,-0.14467l-0.15033,-0.14324l-0.15174,-0.14178l-0.15315,-0.14031l-0.15457,-0.13881l-0.15584,-0.1373l-0.15739,-0.13576l-0.15852,-0.1342l-0.16007,-0.13262l-0.1612,-0.13102l-0.16261,-0.1294l-0.16402,-0.12777l-0.16515,-0.12611l-0.16642,-0.12444l-0.16783,-0.12275l-0.16896,-0.12105l-0.17023,-0.11932l-0.17136,-0.11759l-0.17263,-0.11584l-0.17376,-0.11408l-0.17489,-0.1123l-0.17616,-0.11051l-0.17715,-0.10872l-0.17828,-0.10691l-0.17927,-0.10509l-0.1804,-0.10326l-0.18138,-0.10143l-0.18237,-0.09958l-0.18336,-0.09775l-0.18435,-0.09589l-0.18534,-0.09404l-0.18618,-0.09217l-0.18703,-0.09031l-0.18802,-0.08846l-0.18872,-0.08658l-0.18957,-0.08472l-0.18957,-0.08246l-0.11038,-0.04706l-0.19169,-0.07995l-0.19253,-0.07809l-0.19324,-0.0762l-0.19395,-0.07428l-0.19479,-0.07237l-0.1955,-0.07044l-0.1962,-0.06849l-0.19691,-0.06651l-0.19748,-0.06453l-0.19818,-0.06255l-0.19889,-0.06053l-0.19947,-0.05852l-0.20004,-0.0565l-0.20062,-0.05444l-0.20117,-0.05241l-0.2017,-0.05036l-0.20221,-0.04829l-0.2027,-0.04623l-0.20315,-0.04415l-0.20359,-0.04206l-0.204,-0.04l-0.20441,-0.0379l-0.20476,-0.03582l-0.20511,-0.03374l-0.20544,-0.03163l-0.20573,-0.02957l-0.206,-0.02747l-0.20626,-0.02539l-0.2065,-0.02332l-0.20669,-0.02124l-0.20688,-0.01917l-0.20705,-0.01711l-0.20717,-0.01506l-0.2073,-0.013l-0.20739,-0.01098l-0.20747,-0.00893l-0.20751,-0.00693l-0.20754,-0.00491l-0.20753,-0.00292l-0.20418,-0.00093l-0.20758,0.00102l-0.20758,0.00299l-0.20757,0.005l-0.20753,0.007l-0.20748,0.00902l-0.20741,0.01105l-0.20731,0.0131l-0.2072,0.01513l-0.20705,0.01719l-0.20689,0.01927l-0.20671,0.02131l-0.2065,0.0234l-0.20627,0.02548l-0.206,0.02757l-0.20573,0.02964l-0.20544,0.03173l-0.2051,0.03381l-0.20476,0.03591l-0.20439,0.038l-0.20398,0.04007l-0.20357,0.04215l-0.20314,0.04424l-0.20267,0.04631l-0.20219,0.04837l-0.20167,0.05043l-0.20115,0.0525l-0.20059,0.05453l-0.20002,0.05657l-0.19942,0.05861l-0.19882,0.06061l-0.19817,0.06262l-0.19752,0.06461l-0.19685,0.0666l-0.19615,0.06855l-0.19544,0.07051l-0.19471,0.07244l-0.19396,0.07435l-0.1932,0.07627l-0.19238,0.07813l-0.18856,0.07871l-0.19085,0.08184l-0.19007,0.08371l-0.18926,0.08557l-0.18843,0.08743l-0.18757,0.08931l-0.18669,0.09116l-0.18579,0.09302l-0.18487,0.09487l-0.18392,0.09673l-0.18295,0.09858l-0.18196,0.10043l-0.18095,0.10227l-0.17992,0.10409l-0.17884,0.10591l-0.17778,0.10773l-0.17667,0.10953l-0.17555,0.11132l-0.17441,0.11311l-0.17324,0.11487l-0.17208,0.11663l-0.17087,0.11837l-0.16965,0.1201l-0.16843,0.12181l-0.16717,0.12351l-0.1659,0.12519l-0.16463,0.12685l-0.16333,0.1285l-0.16202,0.13013l-0.16068,0.13173l-0.15936,0.13332l-0.15799,0.13489l-0.15664,0.13644l-0.15527,0.13797l-0.15389,0.13948l-0.1525,0.14096l-0.15109,0.14243l-0.1497,0.14386l-0.14756,0.14459l-0.08507,0.08461l-0.14607,0.14752l-0.14467,0.14893l-0.14324,0.15034l-0.14178,0.15174l-0.14032,0.15314l-0.13881,0.15452l-0.1373,0.15591l-0.13575,0.15728l-0.1342,0.15862l-0.13263,0.15997l-0.13102,0.1613l-0.1294,0.16262l-0.12777,0.16391l-0.12611,0.16522l-0.12444,0.16648l-0.12275,0.16775l-0.12105,0.16898l-0.11932,0.17022l-0.1176,0.17142l-0.11585,0.1726l-0.11407,0.17378l-0.1123,0.17492l-0.11052,0.17606l-0.10872,0.17716l-0.10691,0.17826l-0.10509,0.17932l-0.10325,0.18037l-0.10143,0.1814l-0.0996,0.1824l-0.09774,0.18339l-0.0959,0.18433l-0.09402,0.18528l-0.09217,0.18618l-0.09033,0.18707l-0.08845,0.18795l-0.08658,0.18878l-0.08472,0.18961l-0.08246,0.18947l-0.04705,0.11043l-0.07995,0.19167l-0.07809,0.19246l-0.07618,0.19326l-0.07429,0.194l-0.07237,0.19475l-0.07044,0.19549l-0.06847,0.19619l-0.06651,0.1969l-0.06453,0.19755l-0.06255,0.19822l-0.06054,0.19885l-0.05851,0.19945l-0.0565,0.20004l-0.05444,0.20064l-0.05241,0.20116l-0.05036,0.2017l-0.04829,0.20222l-0.04623,0.20269l-0.04415,0.20315l-0.04206,0.20359l-0.03999,0.20401l-0.03792,0.20439l-0.03581,0.20476l-0.03374,0.20513l-0.03165,0.20542l-0.02956,0.20573l-0.02748,0.20602l-0.02539,0.20626l-0.02332,0.20648l-0.02123,0.20665l-0.01918,0.20693l-0.01711,0.20707l-0.01506,0.20707l-0.013,0.20736l-0.01098,0.20736l-0.00893,0.2075l-0.00693,0.2075l-0.00491,0.2075l-0.00291,0.20764l-0.00095,0.20411l0.00102,0.20764l0.00299,0.20764l0.005,0.2075l0.007,0.2075l0.00902,0.2075l0.01105,0.2075l0.0131,0.20722l0.01513,0.20722l0.01719,0.20707l0.01925,0.20693l0.02133,0.20665l0.0234,0.20651l0.02548,0.20623l0.02755,0.20609l0.02964,0.20566l0.03173,0.20552l0.03382,0.2051l0.03591,0.20467l0.03798,0.20439l0.04007,0.20397l0.04216,0.20369l0.04424,0.20312l0.04631,0.20256l0.04837,0.20228l0.05043,0.20171l0.05248,0.20115l0.05454,0.20058l0.05657,0.20002l0.05859,0.19931l0.06061,0.19889l0.06262,0.19818l0.06462,0.19748l0.06658,0.19691l0.06856,0.19607l0.07049,0.1955l0.07244,0.19465l0.07436,0.19395l0.07625,0.19324l0.07813,0.19239l0.07871,0.18858l0.08184,0.19084l0.08371,0.18999l0.08557,0.18929l0.08743,0.18844l0.08931,0.1876l0.09116,0.18661l0.09302,0.1859l0.09487,0.18477l0.09673,0.18392l0.09858,0.18294l0.10042,0.18195l0.10227,0.18096l0.1041,0.17997l0.10591,0.17884l0.10773,0.17785l0.10952,0.17658l0.11133,0.1756l0.11311,0.17433l0.11487,0.17334l0.11662,0.17207l0.11837,0.1708l0.1201,0.16967l0.12182,0.1684l0.12351,0.16727l0.12519,0.16586l0.12685,0.16459l0.12849,0.16332l0.13012,0.16205l0.13174,0.16078l0.13332,0.15936l0.13489,0.15795l0.13644,0.15668l0.13798,0.15527l0.13948,0.15386l0.14096,0.15245l0.14241,0.15118l0.14388,0.14962l0.14457,0.14765l0.08467,0.08512l0.14752,0.14595l0.14893,0.14468l0.15033,0.14327l0.15176,0.14172l0.15314,0.14031l0.15454,0.1389l0.15589,0.1372l0.15728,0.13579l0.15863,0.13424l0.15997,0.13254l0.1613,0.13113l0.16261,0.1293l0.16392,0.12789l0.16522,0.12605l0.16648,0.1245l0.16775,0.12266l0.16898,0.12111l0.17022,0.11928l0.17142,0.11758l0.1726,0.11589l0.17378,0.11405l0.17492,0.11222l0.17606,0.11052l0.17716,0.10883l0.17826,0.10685l0.17932,0.10516l0.18037,0.10318l0.1814,0.10149l0.1824,0.09951l0.18337,0.09782l0.18434,0.09584l0.18527,0.09401l0.18618,0.09217l0.18708,0.09034l0.18794,0.0885l0.18878,0.08653l0.18961,0.08469l0.18947,0.08258l0.11043,0.047l0.19168,0.07989l0.19247,0.07806l0.19324,0.07622l0.19402,0.07439l0.19475,0.07227l0.19548,0.07044l0.1962,0.06846l0.19689,0.06663l0.19756,0.06451l0.19821,0.06253l0.19885,0.06056l0.19945,0.05844l0.20006,0.05646l0.20062,0.05449l0.20116,0.05237l0.20171,0.05039l0.20219,0.04828l0.20271,0.0463l0.20314,0.04418l0.2036,0.04206l0.204,0.03995l0.20441,0.03797l0.20476,0.03571l0.20511,0.03374l0.20542,0.03162l0.20573,0.02964l0.20602,0.02753l0.20627,0.02527l0.20648,0.02343l0.20669,0.02117l0.20688,0.0192l0.20703,0.01708l0.2072,0.0151l0.20729,0.01299l0.20739,0.01101l0.20746,0.00889l0.20753,0.00692l0.20754,0.00494l0.20751,0.00297l0.20422,0.00085l0.20758,-0.00099l0.20757,-0.00297l0.20758,-0.00508l0.20753,-0.00692l0.20748,-0.00903l0.20741,-0.01101l0.20731,-0.01313l0.2072,-0.0151l0.20705,-0.01722l0.20689,-0.01934l0.20671,-0.02131l0.2065,-0.02329l0.20626,-0.02555l0.20603,-0.02753l0.2057,-0.02964l0.20545,-0.03176l0.2051,-0.03388l0.20476,-0.03585l0.20439,-0.03797l0.20398,-0.04009l0.20357,-0.04221l0.20314,-0.04418l0.20267,-0.0463l0.20218,-0.04842l0.2017,-0.05039l0.20113,-0.05251l0.20059,-0.05449l0.20002,-0.0566l0.19944,-0.05858l0.19879,-0.0607l0.19818,-0.06253l0.19748,-0.06465l0.19691,-0.06663l0.19607,-0.06846l0.1955,-0.07058l0.19465,-0.07241l0.19409,-0.07439l0.1931,-0.07622l0.19239,-0.0782l0.18858,-0.07862l0.19084,-0.08187l0.18999,-0.08371l0.18929,-0.08554l0.18844,-0.08752l0.1876,-0.08921l0.18661,-0.09119l0.1859,-0.09302l0.18477,-0.09486l0.18392,-0.09683l0.18294,-0.09853l0.18195,-0.10036l0.18096,-0.10234l0.17997,-0.10403l0.17884,-0.10601l0.17771,-0.1077l0.17673,-0.10954l0.1756,-0.11123l0.17433,-0.11321l0.17334,-0.1149l0.17207,-0.11659l0.1708,-0.11829l0.16967,-0.12012l0.1684,-0.12182l0.16727,-0.12351l0.16586,-0.12521l0.16459,-0.1269l0.16332,-0.12845l0.16205,-0.13014l0.16078,-0.1317l0.15922,-0.13339l0.15809,-0.1348l0.15668,-0.1365l0.15527,-0.13791l0.15386,-0.13946l0.15245,-0.14101l0.15118,-0.14242l0.14962,-0.14384l0.14765,-0.14454l0.08498,-0.08469l0.1461,-0.14751l0.14468,-0.14892l0.14327,-0.15033l0.14172,-0.15174l0.14031,-0.15315l0.1389,-0.15457l0.13734,-0.15584l0.13565,-0.15725l0.13424,-0.15866l0.13269,-0.16007l0.13099,-0.1612l0.12944,-0.16261l0.12774,-0.16402l0.12605,-0.16515l0.1245,-0.16642l0.12266,-0.16783l0.12111,-0.16896l0.11928,-0.17023l0.11758,-0.17136l0.11589,-0.17263l0.11405,-0.17376l0.11236,-0.17489l0.11052,-0.17616l0.10869,-0.17715l0.10685,-0.17828l0.10516,-0.17927l0.10318,-0.1804l0.10149,-0.18138l0.09951,-0.18237l0.09782,-0.18336l0.09584,-0.18435l0.09401,-0.18534l0.09217,-0.18618l0.09034,-0.18703l0.0885,-0.18802l0.08653,-0.18872l0.08469,-0.18957l0.08258,-0.18957l0.047,-0.11038l0.07989,-0.19169l0.07806,-0.19253l0.07622,-0.19324l0.07439,-0.19395l0.07227,-0.19479l0.07044,-0.1955l0.06846,-0.1962l0.06663,-0.19691l0.06451,-0.19748l0.06253,-0.19818l0.06056,-0.19889l0.05844,-0.19945l0.05646,-0.20002l0.05449,-0.20072l0.05251,-0.20115l0.05025,-0.20171l0.04828,-0.20213l0.0463,-0.2027l0.04418,-0.20312l0.04206,-0.20369l0.03995,-0.20397l0.03797,-0.20439l0.03571,-0.20482l0.03374,-0.2051l0.03162,-0.20538l0.02964,-0.2058l0.02753,-0.20595l0.02527,-0.20623l0.02343,-0.20651l0.02117,-0.20679l0.0192,-0.20679l0.01708,-0.20707l0.0151,-0.20722l0.01299,-0.20722l0.01101,-0.20736l0.00889,-0.2075l0.00692,-0.2075l0.00494,-0.20764zM306.984,212.8373v0.00452l-0.00099,0.19508l-0.00282,0.19832l-0.00466,0.19804l-0.00678,0.19818l-0.00847,0.1979l-0.01059,0.1979l-0.01242,0.19776l-0.0144,0.19762l-0.01637,0.19733l-0.01835,0.19719l-0.02033,0.19705l-0.02216,0.19677l-0.02428,0.19649l-0.02625,0.19635l-0.02823,0.19592l-0.03007,0.19564l-0.03218,0.19536l-0.03416,0.19493l-0.03614,0.19465l-0.03825,0.19423l-0.04009,0.19381l-0.04206,0.19338l-0.04404,0.19296l-0.04602,0.19253l-0.04799,0.19211l-0.04997,0.19141l-0.05195,0.19112l-0.05378,0.19042l-0.05576,0.18999l-0.05773,0.18929l-0.05957,0.18887l-0.06154,0.18816l-0.06352,0.1876l-0.06521,0.18689l-0.06719,0.18632l-0.06903,0.18562l-0.07086,0.18505l-0.07269,0.18421l-0.07453,0.18364l-0.07636,0.1828l-0.04418,0.10361l-0.07947,0.18265l-0.08088,0.18096l-0.08272,0.17997l-0.08441,0.17927l-0.08611,0.17842l-0.08794,0.17743l-0.08963,0.17658l-0.09147,0.17574l-0.09316,0.17475l-0.095,0.17376l-0.09655,0.17277l-0.09853,0.17179l-0.10008,0.1708l-0.10191,0.16967l-0.10347,0.16882l-0.1053,0.16755l-0.10699,0.16656l-0.10869,0.16543l-0.11038,0.1643l-0.11208,0.16332l-0.11363,0.16205l-0.11532,0.16092l-0.11688,0.15965l-0.11857,0.15866l-0.12026,0.15725l-0.12167,0.15612l-0.12337,0.15499l-0.12492,0.15358l-0.12633,0.15245l-0.12803,0.15118l-0.12944,0.14991l-0.13099,0.14864l-0.1324,0.14737l-0.13382,0.1461l-0.13537,0.14468l-0.13678,0.14341l-0.13805,0.14214l-0.13946,0.14087l-0.07989,0.07947l-0.14242,0.13932l-0.14285,0.13734l-0.14426,0.13593l-0.14567,0.13438l-0.1468,0.13311l-0.14807,0.13156l-0.14948,0.13l-0.15061,0.12859l-0.15202,0.12704l-0.15315,0.12563l-0.15442,0.12393l-0.15555,0.12238l-0.15696,0.12083l-0.15809,0.11914l-0.15922,0.11758l-0.16049,0.11603l-0.16148,0.11434l-0.16275,0.11264l-0.16402,0.11109l-0.16501,0.10939l-0.166,0.10756l-0.16727,0.10601l-0.16826,0.10431l-0.16939,0.10248l-0.17037,0.10092l-0.17136,0.09909l-0.17235,0.0974l-0.17334,0.09556l-0.17433,0.09387l-0.17532,0.09217l-0.17616,0.09034l-0.17715,0.08864l-0.178,0.08681l-0.17884,0.08512l-0.17969,0.08342l-0.18054,0.08159l-0.18138,0.07975l-0.18223,0.07806l-0.17983,0.07509l-0.18364,0.07453l-0.18421,0.07269l-0.18505,0.07086l-0.18562,0.06903l-0.18632,0.06719l-0.18703,0.06521l-0.1876,0.06338l-0.18816,0.06154l-0.18887,0.05971l-0.18939,0.05759l-0.18995,0.05576l-0.1905,0.05392l-0.19102,0.0518l-0.19156,0.04997l-0.19203,0.04799l-0.19252,0.04602l-0.19297,0.04404l-0.1934,0.04206l-0.19383,0.04009l-0.19424,0.03811l-0.19461,0.03614l-0.19498,0.03416l-0.19533,0.03204l-0.19564,0.03021l-0.19597,0.02823l-0.19623,0.02611l-0.1965,0.02428l-0.19675,0.0223l-0.197,0.02018l-0.19718,0.01835l-0.19739,0.01637l-0.19756,0.0144l-0.1977,0.01242l-0.19786,0.01045l-0.19796,0.00861l-0.19807,0.00663l-0.19812,0.00466l-0.19822,0.00282l-0.19824,0.00099l-0.19502,-0.00099l-0.19828,-0.00282l-0.19817,-0.00466l-0.19808,-0.00678l-0.19798,-0.00847l-0.19787,-0.01059l-0.19774,-0.01242l-0.19756,-0.0144l-0.19742,-0.01637l-0.19719,-0.01835l-0.19701,-0.02033l-0.19677,-0.02216l-0.19652,-0.02428l-0.19625,-0.02625l-0.19597,-0.02823l-0.19566,-0.03021l-0.19533,-0.03204l-0.19499,-0.03416l-0.19461,-0.03614l-0.19424,-0.03825l-0.19382,-0.04009l-0.19341,-0.04206l-0.19296,-0.04404l-0.19252,-0.04602l-0.19201,-0.04799l-0.19156,-0.04997l-0.191,-0.05195l-0.1905,-0.05378l-0.18994,-0.05576l-0.18937,-0.05773l-0.18879,-0.05957l-0.18819,-0.06154l-0.18758,-0.06352l-0.18695,-0.06521l-0.18631,-0.06719l-0.18564,-0.06903l-0.18496,-0.07086l-0.18428,-0.07269l-0.18358,-0.07453l-0.18286,-0.07636l-0.10353,-0.04418l-0.18263,-0.07947l-0.18089,-0.08088l-0.18008,-0.08272l-0.17923,-0.08441l-0.17837,-0.08611l-0.17749,-0.08794l-0.17658,-0.08963l-0.17567,-0.09147l-0.17473,-0.09316l-0.17377,-0.095l-0.17279,-0.09669l-0.1718,-0.09839l-0.17078,-0.10008l-0.16974,-0.10191l-0.16871,-0.10361l-0.16764,-0.1053l-0.16655,-0.10685l-0.16546,-0.10869l-0.16435,-0.11038l-0.1632,-0.11208l-0.16206,-0.11363l-0.16092,-0.11532l-0.15973,-0.11688l-0.15854,-0.11857l-0.15735,-0.12026l-0.15613,-0.12167l-0.1549,-0.12337l-0.15368,-0.12492l-0.15242,-0.12633l-0.15118,-0.12803l-0.14991,-0.12944l-0.14862,-0.13099l-0.14735,-0.1324l-0.14605,-0.13382l-0.14475,-0.13537l-0.14346,-0.13678l-0.14213,-0.13805l-0.14083,-0.1396l-0.07944,-0.07989l-0.13941,-0.14228l-0.13731,-0.14299l-0.1359,-0.14412l-0.13448,-0.14567l-0.13302,-0.1468l-0.13156,-0.14807l-0.13007,-0.14948l-0.12858,-0.15061l-0.12705,-0.15202l-0.12551,-0.15315l-0.12396,-0.15442l-0.1224,-0.15555l-0.12081,-0.15696l-0.11922,-0.15809l-0.11761,-0.15922l-0.11597,-0.16035l-0.11434,-0.16162l-0.1127,-0.16275l-0.11102,-0.16388l-0.10935,-0.16501l-0.10766,-0.16614l-0.10597,-0.16727l-0.10427,-0.16826l-0.10255,-0.16924l-0.10083,-0.17037l-0.0991,-0.1715l-0.09737,-0.17235l-0.09563,-0.17334l-0.09387,-0.17433l-0.09213,-0.17532l-0.09038,-0.17616l-0.08862,-0.17715l-0.08687,-0.178l-0.0851,-0.17884l-0.08334,-0.17969l-0.08157,-0.18054l-0.07982,-0.18138l-0.07806,-0.18223l-0.07505,-0.17983l-0.07453,-0.18364l-0.07271,-0.18435l-0.07086,-0.18491l-0.06903,-0.18576l-0.06718,-0.18632l-0.06529,-0.18689l-0.06341,-0.1876l-0.06152,-0.1883l-0.05961,-0.18872l-0.05769,-0.18943l-0.05577,-0.18999l-0.05384,-0.19042l-0.05187,-0.19112l-0.04994,-0.19155l-0.04798,-0.19197l-0.046,-0.19253l-0.04404,-0.19296l-0.04208,-0.19338l-0.04009,-0.19381l-0.0381,-0.19423l-0.03614,-0.19465l-0.03413,-0.19493l-0.03216,-0.19536l-0.03016,-0.19564l-0.02819,-0.19592l-0.02621,-0.19635l-0.02422,-0.19649l-0.02225,-0.19677l-0.02027,-0.19691l-0.01831,-0.19719l-0.01635,-0.19748l-0.01438,-0.19748l-0.01244,-0.19776l-0.0105,-0.19776l-0.00857,-0.19804l-0.00663,-0.19804l-0.00471,-0.19818l-0.00282,-0.19818l-0.00092,-0.19818l0.00093,-0.19508l0.00284,-0.19832l0.00473,-0.19818l0.00666,-0.19804l0.00857,-0.19804l0.01052,-0.19776l0.01245,-0.19776l0.01441,-0.19762l0.01636,-0.19733l0.01832,-0.19719l0.0203,-0.19705l0.02226,-0.19677l0.02425,-0.19653l0.02623,-0.19626l0.0282,-0.19595l0.03018,-0.19567l0.03218,-0.19531l0.03416,-0.19499l0.03614,-0.19461l0.03813,-0.19424l0.04012,-0.19382l0.04208,-0.19341l0.04407,-0.19297l0.04602,-0.19251l0.04799,-0.19203l0.04995,-0.19153l0.0519,-0.19102l0.05384,-0.19049l0.05578,-0.18994l0.0577,-0.18937l0.05962,-0.18879l0.06153,-0.18819l0.06342,-0.18758l0.0653,-0.18695l0.06718,-0.18631l0.06903,-0.18563l0.07087,-0.18497l0.07271,-0.18428l0.07453,-0.18357l0.07631,-0.18287l0.04417,-0.10357l0.07951,-0.18263l0.08088,-0.18089l0.08263,-0.18009l0.08441,-0.17922l0.08616,-0.17838l0.08793,-0.17749l0.08968,-0.17658l0.09143,-0.17567l0.09319,-0.17472l0.09493,-0.17378l0.09668,-0.17279l0.09841,-0.1718l0.10014,-0.17078l0.10187,-0.16975l0.10358,-0.16869l0.10529,-0.16764l0.10698,-0.16656l0.10868,-0.16545l0.11035,-0.16433l0.11202,-0.16322l0.11367,-0.16206l0.11532,-0.1609l0.11695,-0.15973l0.11856,-0.15854l0.12018,-0.15735l0.12175,-0.15613l0.12334,-0.1549l0.12488,-0.15368l0.12643,-0.15242l0.12796,-0.15118l0.12945,-0.14989l0.13095,-0.14864l0.13243,-0.14734l0.13387,-0.14605l0.13532,-0.14475l0.13672,-0.14344l0.13813,-0.14214l0.13952,-0.14082l0.07987,-0.07943l0.14233,-0.13941l0.14295,-0.13731l0.14425,-0.1359l0.14555,-0.13448l0.14684,-0.13302l0.14813,-0.13156l0.1494,-0.13009l0.15068,-0.12856l0.15192,-0.12706l0.15318,-0.12552l0.15442,-0.12397l0.15565,-0.1224l0.15687,-0.12081l0.15808,-0.11922l0.15925,-0.11761l0.16045,-0.11598l0.1616,-0.11434l0.16275,-0.11269l0.1639,-0.11103l0.16501,-0.10935l0.16611,-0.10766l0.1672,-0.10597l0.16827,-0.10426l0.16933,-0.10255l0.17036,-0.10083l0.17139,-0.0991l0.17238,-0.09737l0.17337,-0.09563l0.17433,-0.09388l0.17528,-0.09213l0.1762,-0.09038l0.17711,-0.08862l0.178,-0.08686l0.17887,-0.0851l0.17972,-0.08334l0.18055,-0.08159l0.18136,-0.07981l0.18215,-0.07806l0.1799,-0.07507l0.18364,-0.07453l0.18431,-0.07269l0.18499,-0.07087l0.18567,-0.06903l0.18632,-0.06716l0.18697,-0.0653l0.1876,-0.06341l0.18821,-0.06152l0.18881,-0.05961l0.18939,-0.05769l0.18995,-0.05577l0.1905,-0.05382l0.19104,-0.05189l0.19153,-0.04993l0.19204,-0.04798l0.19252,-0.04602l0.19297,-0.04404l0.19341,-0.04206l0.19383,-0.04009l0.19423,-0.03811l0.19461,-0.03612l0.19498,-0.03415l0.19533,-0.03216l0.19564,-0.03016l0.19595,-0.02819l0.19625,-0.0262l0.1965,-0.02424l0.19675,-0.02225l0.197,-0.02027l0.19719,-0.01831l0.19738,-0.01635l0.19756,-0.01438l0.19771,-0.01244l0.19784,-0.0105l0.19796,-0.00857l0.19807,-0.00663l0.19814,-0.00471l0.19821,-0.00282l0.19824,-0.00092l0.19499,0.00093l0.19827,0.00284l0.19817,0.00473l0.1981,0.00665l0.19798,0.00858l0.19787,0.01052l0.19773,0.01245l0.19757,0.01441l0.19741,0.01636l0.19721,0.01832l0.19701,0.0203l0.19677,0.02226l0.19652,0.02425l0.19625,0.02621l0.19597,0.02822l0.19566,0.03018l0.19533,0.03218l0.19498,0.03416l0.19463,0.03614l0.19423,0.03813l0.19383,0.04012l0.1934,0.04208l0.19297,0.04406l0.19251,0.04603l0.19203,0.04799l0.19153,0.04995l0.19102,0.0519l0.19049,0.05384l0.18994,0.05578l0.18937,0.0577l0.18881,0.05962l0.18816,0.06153l0.1876,0.06342l0.18689,0.0653l0.18632,0.06718l0.18562,0.06904l0.18505,0.07087l0.18421,0.07271l0.18364,0.07452l0.1828,0.07632l0.10361,0.04418l0.18265,0.07951l0.18096,0.08088l0.17997,0.08264l0.17927,0.0844l0.17842,0.08616l0.17743,0.08792l0.17658,0.08968l0.17574,0.09144l0.17475,0.09318l0.17376,0.09493l0.17277,0.09667l0.17179,0.09841l0.1708,0.10014l0.16967,0.10186l0.16868,0.10358l0.16769,0.10529l0.16656,0.10698l0.16543,0.10867l0.1643,0.11035l0.16332,0.11202l0.16205,0.11367l0.16092,0.11532l0.15965,0.11695l0.15852,0.11856l0.15739,0.12017l0.15612,0.12176l0.15499,0.12333l0.15358,0.12489l0.15245,0.12643l0.15118,0.12795l0.14991,0.12947l0.14864,0.13095l0.14737,0.13242l0.1461,0.13388l0.14468,0.13531l0.14341,0.13674l0.14214,0.13812l0.14087,0.13952l0.07947,0.07987l0.13932,0.14233l0.13734,0.14295l0.13593,0.14425l0.13452,0.14555l0.13297,0.14684l0.13156,0.14811l0.13,0.14941l0.12859,0.15067l0.12704,0.15194l0.12563,0.15318l0.12393,0.15442l0.12238,0.15564l0.12083,0.15687l0.11928,0.15808l0.11758,0.15927l0.11589,0.16044l0.11434,0.16161l0.11278,0.16275l0.11095,0.16388l0.10939,0.16501l0.1077,0.16611l0.10587,0.16721l0.10431,0.16827l0.10262,0.16931l0.10078,0.17037l0.09909,0.17138l0.0974,0.17239l0.09556,0.17337l0.09387,0.17433l0.09217,0.17529l0.09034,0.1762l0.08864,0.17711l0.08681,0.17801l0.08512,0.17887l0.08342,0.1797l0.08159,0.18055l0.07975,0.18137l0.07806,0.18215l0.07509,0.17989l0.07453,0.18366l0.07269,0.18429l0.07086,0.185l0.06903,0.18568l0.06719,0.18632l0.06521,0.18696l0.06338,0.18761l0.06154,0.1882l0.05971,0.18882l0.05759,0.18939l0.05576,0.18995l0.05392,0.1905l0.0518,0.19104l0.04997,0.19153l0.04799,0.19204l0.04602,0.19252l0.04404,0.19296l0.04206,0.19342l0.04009,0.19383l0.03811,0.19423l0.03614,0.19461l0.03416,0.19498l0.03204,0.19533l0.03021,0.19564l0.02823,0.19597l0.02611,0.19623l0.02428,0.19653l0.0223,0.19677l0.02018,0.19691l0.01835,0.19719l0.01637,0.19748l0.0144,0.19748l0.01242,0.19776l0.01045,0.19776l0.00861,0.19804l0.00663,0.19804l0.00466,0.19818l0.00282,0.19818z" data-paper-data="{&quot;isPathIcon&quot;:true}"></path></g></g></g></g></svg>
