<svg xmlns:mydata="http://www.w3.org/2000/svg" mydata:contrastcolor="ffffff" mydata:template="Contrast" mydata:presentation="2.5" mydata:layouttype="undefined" mydata:specialfontid="undefined" mydata:id1="280" mydata:id2="281" mydata:companyname="Hellorge.inc" style="background-color: #fff" mydata:companytagline="Arsenal of hell" version="1.1" xmlns="http://www.w3.org/2000/svg" xmlns:xlink="http://www.w3.org/1999/xlink" viewBox="0 0 550 470"><g fill="#012169" fill-rule="none" stroke="none" stroke-width="1" stroke-linecap="butt" stroke-linejoin="miter" stroke-miterlimit="10" stroke-dasharray="" stroke-dashoffset="0" font-family="none" font-weight="none" font-size="none" text-anchor="none" style="mix-blend-mode: normal"><g data-paper-data="{&quot;isGlobalGroup&quot;:true,&quot;bounds&quot;:{&quot;x&quot;:65.00000000000001,&quot;y&quot;:199.74188289884415,&quot;width&quot;:420,&quot;height&quot;:70.5162342023117}}"><g data-paper-data="{&quot;isSecondaryText&quot;:true}" fill-rule="nonzero"><path d="M162.0233,269.28995c0,-0.12697 -0.03174,-0.23807 -0.06349,-0.3333c-1.90458,-5.17412 -2.95211,-7.93577 -3.74568,-9.93558c-0.17459,-0.52376 -0.47615,-0.80945 -1.03165,-0.80945c-0.46027,0 -0.73009,0.28569 -0.85706,0.61899l-3.66632,9.77686c-0.07936,0.17459 -0.19046,0.46027 -0.19046,0.61899c0,0.47615 0.34917,0.96816 0.95229,0.96816c0.41266,0 0.69835,-0.25394 0.87293,-0.6666l0.65073,-1.74587c0.01587,-0.06349 0.06349,-0.09523 0.14284,-0.09523h4.30119c0.17459,0.01587 0.53963,1.07926 0.68248,1.47605l0.12697,0.36505c0.14284,0.39679 0.46027,0.6666 0.85706,0.6666c0.5555,0 0.96816,-0.39679 0.96816,-0.90468zM157.24597,261.54465c0.01587,0 0.03174,0.04761 0.03174,0.06349l1.52367,4.19008c0.01587,0.01587 0.01587,0.03174 0.01587,0.04761c0,0.04761 -0.04761,0.07936 -0.07936,0.07936h-2.99972c-0.04761,0 -0.07936,-0.03174 -0.07936,-0.06349c0,-0.01587 0,-0.04761 0.01587,-0.06349l1.52367,-4.19008c0.01587,-0.01587 0.01587,-0.06349 0.04761,-0.06349z" data-paper-data="{&quot;glyphName&quot;:&quot;A&quot;,&quot;glyphIndex&quot;:0,&quot;firstGlyphOfWord&quot;:true,&quot;word&quot;:1}"></path><path d="M183.98732,270.05179c0.26982,-0.15872 0.42853,-0.4444 0.42853,-0.74596c0,-0.12697 -0.03174,-0.25394 -0.09523,-0.38092l-2.11091,-3.6822c0,-0.01587 -0.01587,-0.03174 -0.01587,-0.04761c0,-0.03174 0.01587,-0.04761 0.04761,-0.06349c1.15862,-0.73009 1.79348,-1.8411 1.79348,-3.28541c0,-2.30137 -1.5078,-3.61871 -3.82504,-3.61871h-2.0633c-0.6666,0 -1.11101,0.53963 -1.11101,1.22211v9.47531c0,0.63486 0.20633,1.26972 0.90468,1.26972c0.68248,0 0.95229,-0.5555 0.95229,-1.25385v-3.41238c0,-0.06349 0.03174,-0.09523 0.09523,-0.09523h1.14275c0.09523,0 0.12697,0.03174 0.15872,0.09523l2.1744,3.85678c0.26982,0.49202 0.49202,0.82532 0.98404,0.82532c0.20633,0 0.38092,-0.06349 0.53963,-0.15872zM178.89256,260.19557c0,-0.07936 0.03174,-0.12697 0.1111,-0.12697h1.33321c1.5078,0 1.87284,0.98404 1.87284,1.77761c0,0.90468 -0.36505,1.87284 -1.87284,1.87284h-1.33321c-0.07936,0 -0.1111,-0.03174 -0.1111,-0.1111z" data-paper-data="{&quot;glyphName&quot;:&quot;R&quot;,&quot;glyphIndex&quot;:1,&quot;word&quot;:1}"></path><path d="M198.24458,267.90913c0,1.26972 1.58715,2.34899 3.34889,2.34899c1.77761,0 3.28541,-1.52367 3.28541,-3.39651c0,-1.85697 -0.90468,-2.76165 -2.90449,-3.63458c-0.95229,-0.41266 -1.85697,-0.6666 -1.85697,-1.80935c0,-0.74596 0.6666,-1.44431 1.44431,-1.44431c0.47615,0 0.99991,0.2222 1.30147,0.74596c0.17459,0.31743 0.47615,0.50789 0.80945,0.50789c0.50789,0 0.92055,-0.42853 0.92055,-0.93642c0,-0.12697 -0.03174,-0.25394 -0.07936,-0.38092c-0.47615,-1.11101 -1.68238,-1.79348 -2.88862,-1.79348c-1.93633,0 -3.36476,1.42844 -3.36476,3.39651c0,1.68238 1.01578,2.68229 2.85688,3.34889c0.96816,0.34917 1.93633,0.79358 1.93633,1.99981c0,0.84119 -0.73009,1.57128 -1.5078,1.57128c-1.39669,0 -1.47605,-1.39669 -2.5077,-1.39669c-0.41266,0 -0.79358,0.38092 -0.79358,0.87293z" data-paper-data="{&quot;glyphName&quot;:&quot;S&quot;,&quot;glyphIndex&quot;:2,&quot;word&quot;:1}"></path><path d="M224.59448,269.2106c0,-0.50789 -0.42853,-0.92055 -0.90468,-0.92055h-3.36476c-0.07936,0 -0.09523,-0.04761 -0.09523,-0.09523v-3.03146c0,-0.04761 0.03174,-0.07936 0.09523,-0.07936h3.36476c0.50789,0 0.90468,-0.41266 0.90468,-0.93642c0,-0.50789 -0.42853,-0.92055 -0.90468,-0.92055h-3.36476c-0.06349,0 -0.09523,-0.01587 -0.09523,-0.07936v-2.98385c0,-0.04761 0.03174,-0.07936 0.09523,-0.07936h3.36476c0.52376,0 0.84119,-0.38092 0.84119,-0.84119c0,-0.68248 -0.39679,-1.01578 -0.84119,-1.01578h-4.41229c-0.69835,0 -0.90468,0.60312 -0.90468,1.30147v9.34833c0,0.65073 0.19046,1.25385 0.92055,1.25385h4.2377c0.57138,0 1.06339,-0.31743 1.06339,-0.92055z" data-paper-data="{&quot;glyphName&quot;:&quot;E&quot;,&quot;glyphIndex&quot;:3,&quot;word&quot;:1}"></path><path d="M240.36547,258.16401c-0.71422,0 -1.23798,0.57138 -1.23798,1.28559v9.85622c0,0.50789 0.41266,0.88881 0.93642,0.88881c0.52376,0 0.90468,-0.36505 0.90468,-0.88881v-7.63421c0,-0.07936 0.04761,-0.12697 0.1111,-0.12697c0.03174,0 0.06349,0.01587 0.09523,0.07936l4.72972,7.84054c0.20633,0.34917 0.60312,0.73009 1.22211,0.73009c0.79358,0 1.25385,-0.65073 1.25385,-1.26972v-9.85622c0,-0.52376 -0.41266,-0.90468 -0.93642,-0.90468c-0.52376,0 -0.92055,0.38092 -0.92055,0.88881v7.68182c0,0.07936 -0.03174,0.12697 -0.09523,0.12697c-0.03174,0 -0.06349,-0.03174 -0.09523,-0.09523l-4.74559,-7.87228c-0.20633,-0.3333 -0.61899,-0.71422 -1.22211,-0.73009z" data-paper-data="{&quot;glyphName&quot;:&quot;N&quot;,&quot;glyphIndex&quot;:4,&quot;word&quot;:1}"></path><path d="M273.38926,269.28995c0,-0.12697 -0.03174,-0.23807 -0.06349,-0.3333c-1.90458,-5.17412 -2.95211,-7.93577 -3.74568,-9.93558c-0.17459,-0.52376 -0.47615,-0.80945 -1.03165,-0.80945c-0.46027,0 -0.73009,0.28569 -0.85706,0.61899l-3.66632,9.77686c-0.07936,0.17459 -0.19046,0.46027 -0.19046,0.61899c0,0.47615 0.34917,0.96816 0.95229,0.96816c0.41266,0 0.69835,-0.25394 0.87293,-0.6666l0.65073,-1.74587c0.01587,-0.06349 0.06349,-0.09523 0.14284,-0.09523h4.30119c0.17459,0.01587 0.53963,1.07926 0.68248,1.47605l0.12697,0.36505c0.14284,0.39679 0.46027,0.6666 0.85706,0.6666c0.5555,0 0.96816,-0.39679 0.96816,-0.90468zM268.61193,261.54465c0.01587,0 0.03174,0.04761 0.03174,0.06349l1.52367,4.19008c0.01587,0.01587 0.01587,0.03174 0.01587,0.04761c0,0.04761 -0.04761,0.07936 -0.07936,0.07936h-2.99972c-0.04761,0 -0.07936,-0.03174 -0.07936,-0.06349c0,-0.01587 0,-0.04761 0.01587,-0.06349l1.52367,-4.19008c0.01587,-0.01587 0.01587,-0.06349 0.04761,-0.06349z" data-paper-data="{&quot;glyphName&quot;:&quot;A&quot;,&quot;glyphIndex&quot;:5,&quot;word&quot;:1}"></path><path d="M293.98409,269.2106c0,-0.53963 -0.38092,-0.92055 -0.90468,-0.92055h-3.17431c-0.09523,0 -0.14284,-0.06349 -0.14284,-0.14284v-9.11026c0,-0.52376 -0.39679,-0.88881 -0.92055,-0.88881c-0.52376,0 -0.92055,0.38092 -0.92055,0.88881v10.2054c0,0.57138 0.47615,0.88881 0.95229,0.88881h4.20596c0.52376,0 0.90468,-0.41266 0.90468,-0.92055z" data-paper-data="{&quot;glyphName&quot;:&quot;L&quot;,&quot;glyphIndex&quot;:6,&quot;lastGlyphOfWord&quot;:true,&quot;word&quot;:1}"></path><path d="M323.28332,264.17932c0,3.36476 2.71403,6.0788 6.0788,6.0788c3.36476,0 6.0788,-2.71403 6.0788,-6.0788c0,-3.36476 -2.71403,-6.0788 -6.0788,-6.0788c-3.36476,0 -6.0788,2.71403 -6.0788,6.0788zM325.12442,264.17932c0,-2.33312 1.90458,-4.22183 4.2377,-4.22183c2.33312,0 4.22183,1.88871 4.22183,4.22183c0,2.33312 -1.88871,4.2377 -4.22183,4.2377c-2.33312,0 -4.2377,-1.90458 -4.2377,-4.2377z" data-paper-data="{&quot;glyphName&quot;:&quot;O&quot;,&quot;glyphIndex&quot;:7,&quot;firstGlyphOfWord&quot;:true,&quot;word&quot;:2}"></path><path d="M357.28864,264.14758c0,-0.50789 -0.42853,-0.92055 -0.90468,-0.92055h-3.36476c-0.06349,0 -0.09523,-0.01587 -0.09523,-0.09523v-2.95211c0,-0.04761 0.01587,-0.09523 0.09523,-0.09523h2.99972c0.77771,0 1.22211,-0.31743 1.22211,-0.99991c0,-0.47615 -0.41266,-0.85706 -0.85706,-0.85706h-4.42816c-0.47615,0 -0.88881,0.34917 -0.88881,0.92055v9.80861c0,0.71422 0.2222,1.26972 0.93642,1.26972c0.71422,0 0.92055,-0.57138 0.92055,-1.26972v-3.77742c0,-0.06349 0.03174,-0.09523 0.09523,-0.09523h3.36476c0.50789,0 0.90468,-0.41266 0.90468,-0.93642z" data-paper-data="{&quot;glyphName&quot;:&quot;F&quot;,&quot;glyphIndex&quot;:8,&quot;lastGlyphOfWord&quot;:true,&quot;word&quot;:2}"></path><path d="M392.6336,270.19463c0.52376,0 0.92055,-0.38092 0.92055,-0.88881v-10.23714c0,-0.52376 -0.39679,-0.90468 -0.92055,-0.90468c-0.50789,0 -0.92055,0.39679 -0.92055,0.90468v4.07898c0,0.06349 -0.04761,0.09523 -0.09523,0.09523h-4.33293c-0.06349,0 -0.09523,-0.03174 -0.09523,-0.09523v-4.07898c0,-0.52376 -0.39679,-0.90468 -0.92055,-0.90468c-0.50789,0 -0.92055,0.39679 -0.92055,0.90468v10.23714c0,0.50789 0.41266,0.88881 0.92055,0.88881c0.52376,0 0.92055,-0.38092 0.92055,-0.88881v-4.11073c0,-0.04761 0.01587,-0.09523 0.09523,-0.09523h4.33293c0.06349,0 0.09523,0.03174 0.09523,0.09523v4.11073c0,0.50789 0.41266,0.88881 0.92055,0.88881z" data-paper-data="{&quot;glyphName&quot;:&quot;H&quot;,&quot;glyphIndex&quot;:9,&quot;firstGlyphOfWord&quot;:true,&quot;word&quot;:3}"></path><path d="M413.93256,269.2106c0,-0.50789 -0.42853,-0.92055 -0.90468,-0.92055h-3.36476c-0.07936,0 -0.09523,-0.04761 -0.09523,-0.09523v-3.03146c0,-0.04761 0.03174,-0.07936 0.09523,-0.07936h3.36476c0.50789,0 0.90468,-0.41266 0.90468,-0.93642c0,-0.50789 -0.42853,-0.92055 -0.90468,-0.92055h-3.36476c-0.06349,0 -0.09523,-0.01587 -0.09523,-0.07936v-2.98385c0,-0.04761 0.03174,-0.07936 0.09523,-0.07936h3.36476c0.52376,0 0.84119,-0.38092 0.84119,-0.84119c0,-0.68248 -0.39679,-1.01578 -0.84119,-1.01578h-4.41229c-0.69835,0 -0.90468,0.60312 -0.90468,1.30147v9.34833c0,0.65073 0.19046,1.25385 0.92055,1.25385h4.2377c0.57138,0 1.06339,-0.31743 1.06339,-0.92055z" data-paper-data="{&quot;glyphName&quot;:&quot;E&quot;,&quot;glyphIndex&quot;:10,&quot;word&quot;:3}"></path><path d="M433.29701,269.2106c0,-0.53963 -0.38092,-0.92055 -0.90468,-0.92055h-3.17431c-0.09523,0 -0.14284,-0.06349 -0.14284,-0.14284v-9.11026c0,-0.52376 -0.39679,-0.88881 -0.92055,-0.88881c-0.52376,0 -0.92055,0.38092 -0.92055,0.88881v10.2054c0,0.57138 0.47615,0.88881 0.95229,0.88881h4.20596c0.52376,0 0.90468,-0.41266 0.90468,-0.92055z" data-paper-data="{&quot;glyphName&quot;:&quot;L&quot;,&quot;glyphIndex&quot;:11,&quot;word&quot;:3}"></path><path d="M452.4877,269.2106c0,-0.53963 -0.38092,-0.92055 -0.90468,-0.92055h-3.17431c-0.09523,0 -0.14284,-0.06349 -0.14284,-0.14284v-9.11026c0,-0.52376 -0.39679,-0.88881 -0.92055,-0.88881c-0.52376,0 -0.92055,0.38092 -0.92055,0.88881v10.2054c0,0.57138 0.47615,0.88881 0.95229,0.88881h4.20596c0.52376,0 0.90468,-0.41266 0.90468,-0.92055z" data-paper-data="{&quot;glyphName&quot;:&quot;L&quot;,&quot;glyphIndex&quot;:12,&quot;lastGlyphOfWord&quot;:true,&quot;word&quot;:3}"></path></g><g data-paper-data="{&quot;isPrimaryText&quot;:true}"><path d="M147.33155,246.3042c1.58874,0 2.74974,-1.0999 2.74974,-2.62753v-41.06283c0,-1.52764 -1.161,-2.62753 -2.74974,-2.62753c-1.52764,0 -2.74974,1.161 -2.74974,2.62753v17.41504c0,0.24442 -0.18332,0.36663 -0.36663,0.36663h-18.39273c-0.24442,0 -0.36663,-0.12221 -0.36663,-0.36663v-17.41504c0,-1.52764 -1.161,-2.62753 -2.74974,-2.62753c-1.52764,0 -2.74974,1.161 -2.74974,2.62753v41.06283c0,1.46653 1.22211,2.62753 2.74974,2.62753c1.58874,0 2.74974,-1.0999 2.74974,-2.62753v-17.41504c0,-0.06111 0,-0.36663 0.36663,-0.36663h18.39273c0.24442,0 0.36663,0.18332 0.36663,0.36663v17.41504c0,1.46653 1.22211,2.62753 2.74974,2.62753z" data-paper-data="{&quot;glyphName&quot;:&quot;H&quot;,&quot;glyphIndex&quot;:0,&quot;firstGlyphOfWord&quot;:true,&quot;word&quot;:1}" fill-rule="nonzero"></path><path d="M177.57872,243.31003c0,-1.58874 -1.0999,-2.74974 -2.62753,-2.74974h-14.11535c-0.30553,0 -0.36663,-0.18332 -0.36663,-0.36663v-14.11535c0,-0.18332 0.12221,-0.30553 0.36663,-0.30553h14.11535c1.46653,0 2.62753,-1.22211 2.62753,-2.74974c0,-1.58874 -1.0999,-2.74974 -2.62753,-2.74974h-14.11535c-0.24442,0 -0.36663,-0.06111 -0.36663,-0.24442v-14.05424c0,-0.12221 0.12221,-0.24442 0.36663,-0.24442h14.11535c1.52764,0 2.62753,-1.161 2.62753,-2.74974c0,-1.52764 -1.161,-2.74974 -2.62753,-2.74974h-17.35393c-1.52764,0 -2.62753,1.03879 -2.62753,2.62753v40.81841c0,1.40542 1.34432,2.38311 2.74974,2.38311h17.23172c1.40542,0 2.62753,-1.22211 2.62753,-2.74974z" data-paper-data="{&quot;glyphName&quot;:&quot;E&quot;,&quot;glyphIndex&quot;:1,&quot;word&quot;:1}" fill-rule="nonzero"></path><path d="M205.01505,243.31003c0,-1.58874 -1.0999,-2.74974 -2.62753,-2.74974h-14.11535c-0.30553,0 -0.36663,-0.18332 -0.36663,-0.36663v-37.64093c0,-1.52764 -1.161,-2.62753 -2.74974,-2.62753c-1.52764,0 -2.74974,1.161 -2.74974,2.62753v40.87951c0,1.95537 1.52764,2.62753 2.62753,2.62753h17.35393c1.46653,0 2.62753,-1.22211 2.62753,-2.74974z" data-paper-data="{&quot;glyphName&quot;:&quot;L&quot;,&quot;glyphIndex&quot;:2,&quot;word&quot;:1}" fill-rule="nonzero"></path><path d="M232.45137,243.31003c0,-1.58874 -1.0999,-2.74974 -2.62753,-2.74974h-14.11535c-0.30553,0 -0.36663,-0.18332 -0.36663,-0.36663v-37.64093c0,-1.52764 -1.161,-2.62753 -2.74974,-2.62753c-1.52764,0 -2.74974,1.161 -2.74974,2.62753v40.87951c0,1.95537 1.52764,2.62753 2.62753,2.62753h17.35393c1.46653,0 2.62753,-1.22211 2.62753,-2.74974z" data-paper-data="{&quot;glyphName&quot;:&quot;L&quot;,&quot;glyphIndex&quot;:3,&quot;word&quot;:1}" fill-rule="nonzero"></path><path d="M231.96253,223.14525c0,12.95435 10.44902,23.40337 23.40337,23.40337c12.95435,0 23.40337,-10.44902 23.40337,-23.40337c0,-12.95435 -10.44902,-23.40337 -23.40337,-23.40337c-12.95435,0 -23.40337,10.44902 -23.40337,23.40337zM237.46202,223.14525c0,-9.89908 8.06591,-17.90388 17.90388,-17.90388c9.89908,0 17.90388,8.00481 17.90388,17.90388c0,9.83797 -8.00481,17.90388 -17.90388,17.90388c-9.83797,0 -17.90388,-8.06591 -17.90388,-17.90388z" data-paper-data="{&quot;glyphName&quot;:&quot;O&quot;,&quot;glyphIndex&quot;:4,&quot;word&quot;:1}" fill-rule="nonzero"></path><path d="M309.56639,245.63204c0.48884,-0.48884 0.79437,-1.22211 0.79437,-1.89427c0,-0.36663 -0.06111,-0.73326 -0.24442,-1.0999l-8.79918,-15.39856c-0.06111,-0.12221 -0.12221,-0.24442 -0.12221,-0.36663c0,-0.12221 0.06111,-0.24442 0.18332,-0.30553c4.33848,-2.50532 7.02712,-7.08823 7.02712,-12.58771c0,-7.76039 -5.13285,-13.74872 -13.32098,-13.74872h-7.27154c-2.68864,0 -4.27738,2.13869 -4.27738,4.88843v38.55751c0,1.46653 1.22211,2.62753 2.74974,2.62753c1.58874,0 2.74974,-1.0999 2.74974,-2.62753v-15.21525c0,-0.24442 0.12221,-0.36663 0.36663,-0.36663h5.6828c0.36663,0 0.48884,0.06111 0.67216,0.36663l9.34913,16.43735c0.54995,0.91658 1.40542,1.52764 2.38311,1.52764c0.85548,0 1.58874,-0.30553 2.07758,-0.79437zM289.03498,206.21906c0,-0.36663 0.18332,-0.54995 0.54995,-0.54995h5.25506c6.66049,0 8.06591,4.94954 8.06591,8.24923c0,4.03296 -1.40542,8.73807 -8.06591,8.73807h-5.25506c-0.36663,0 -0.54995,-0.12221 -0.54995,-0.42774z" data-paper-data="{&quot;glyphName&quot;:&quot;R&quot;,&quot;glyphIndex&quot;:5,&quot;word&quot;:1}" fill-rule="nonzero"></path><path d="M355.33434,226.32273c0,-1.71095 -0.97769,-2.74974 -2.50532,-2.74974h-15.15414c-1.52764,0 -2.62753,1.161 -2.62753,2.74974c0,1.52764 1.161,2.74974 2.62753,2.74974h12.28219c0.18332,0 0.30553,0.06111 0.30553,0.30553v5.37728c0,0.73326 -0.18332,1.161 -0.85548,1.83316c-2.50532,2.50532 -7.8826,4.46069 -12.52661,4.46069c-9.83797,0 -17.90388,-8.06591 -17.90388,-17.90388c0,-9.89908 8.06591,-17.90388 17.90388,-17.90388c4.33848,0 8.49365,1.46653 11.42671,4.09406c0.67216,0.54995 1.28321,0.97769 2.07758,0.97769c1.46653,0 2.81085,-1.34432 2.81085,-2.81085c0,-0.79437 -0.42774,-1.52764 -1.03879,-2.07758c-4.15517,-3.54411 -9.47134,-5.6828 -15.27635,-5.6828c-12.95435,0 -23.40337,10.44902 -23.40337,23.40337c0,12.95435 10.44902,23.40337 23.40337,23.40337c5.43838,0 9.71576,-1.52764 13.01545,-3.84964c4.39959,-3.11638 5.43838,-4.94954 5.43838,-6.90491z" data-paper-data="{&quot;glyphName&quot;:&quot;G&quot;,&quot;glyphIndex&quot;:6,&quot;word&quot;:1}" fill-rule="nonzero"></path><path d="M382.64845,243.31003c0,-1.58874 -1.0999,-2.74974 -2.62753,-2.74974h-14.11535c-0.30553,0 -0.36663,-0.18332 -0.36663,-0.36663v-14.11535c0,-0.18332 0.12221,-0.30553 0.36663,-0.30553h14.11535c1.46653,0 2.62753,-1.22211 2.62753,-2.74974c0,-1.58874 -1.0999,-2.74974 -2.62753,-2.74974h-14.11535c-0.24442,0 -0.36663,-0.06111 -0.36663,-0.24442v-14.05424c0,-0.12221 0.12221,-0.24442 0.36663,-0.24442h14.11535c1.52764,0 2.62753,-1.161 2.62753,-2.74974c0,-1.52764 -1.161,-2.74974 -2.62753,-2.74974h-17.35393c-1.52764,0 -2.62753,1.03879 -2.62753,2.62753v40.81841c0,1.40542 1.34432,2.38311 2.74974,2.38311h17.23172c1.40542,0 2.62753,-1.22211 2.62753,-2.74974z" data-paper-data="{&quot;glyphName&quot;:&quot;E&quot;,&quot;glyphIndex&quot;:7,&quot;word&quot;:1}" fill-rule="nonzero"></path><path d="M389.43115,246.3042c1.34432,0 2.56643,-1.22211 2.56643,-2.62753c0,-1.28321 -1.28321,-2.50532 -2.56643,-2.50532c-1.40542,0 -2.62753,1.161 -2.62753,2.50532c0,1.46653 1.161,2.62753 2.62753,2.62753z" data-paper-data="{&quot;glyphName&quot;:&quot;.&quot;,&quot;glyphIndex&quot;:8,&quot;word&quot;:1}" fill-rule="nonzero"></path><path d="M399.57465,246.3042c1.58874,0 2.74974,-1.0999 2.74974,-2.62753v-41.06283c0,-1.52764 -1.161,-2.62753 -2.74974,-2.62753c-1.52764,0 -2.74974,1.161 -2.74974,2.62753v41.06283c0,1.46653 1.22211,2.62753 2.74974,2.62753z" data-paper-data="{&quot;glyphName&quot;:&quot;I&quot;,&quot;glyphIndex&quot;:9,&quot;word&quot;:1}" fill-rule="nonzero"></path><path d="M409.90146,246.3042c1.58874,0 2.74974,-1.0999 2.74974,-2.62753v-34.52455c0,-0.12221 0.06111,-0.24442 0.12221,-0.24442c0.06111,0 0.12221,0.06111 0.18332,0.18332l20.65363,34.52455c0.85548,1.46653 2.32201,2.68864 4.33848,2.68864c2.13869,0 3.97185,-2.07758 3.97185,-4.27738v-39.41298c0,-1.52764 -1.161,-2.62753 -2.74974,-2.62753c-1.52764,0 -2.74974,1.161 -2.74974,2.62753v34.83008c0,0.12221 0,0.18332 -0.06111,0.18332c-0.06111,0 -0.12221,-0.06111 -0.18332,-0.18332l-20.77584,-34.83008c-0.85548,-1.40542 -2.32201,-2.62753 -4.27738,-2.62753c-2.19979,0 -3.97185,2.07758 -3.97185,4.33848v39.35188c0,1.46653 1.22211,2.62753 2.74974,2.62753z" data-paper-data="{&quot;glyphName&quot;:&quot;N&quot;,&quot;glyphIndex&quot;:10,&quot;word&quot;:1}" fill-rule="nonzero"></path><path d="M468.74596,246.54862c8.73807,0 13.6265,-4.09406 14.54309,-4.88843c0.91658,-0.79437 1.71095,-1.64985 1.71095,-2.87195c0,-1.52764 -1.22211,-2.74974 -2.74974,-2.74974c-0.85548,0 -1.34432,0.24442 -2.19979,1.03879c-3.17748,2.56643 -7.21044,3.97185 -11.3045,3.97185c-9.28802,0 -17.96499,-8.73807 -17.96499,-17.84278c0,-9.77686 7.69928,-17.96499 17.84278,-17.96499c4.21627,0 8.24923,1.40542 11.42671,3.97185c0.85548,0.79437 1.34432,1.03879 2.19979,1.03879c1.52764,0 2.74974,-1.22211 2.74974,-2.74974c0,-1.22211 -0.79437,-2.07758 -1.64985,-2.81085c-0.97769,-0.85548 -5.86612,-4.94954 -14.60419,-4.94954c-12.89324,0 -23.46447,10.63234 -23.46447,23.46447c0,12.77103 10.63234,23.34226 23.46447,23.34226z" data-paper-data="{&quot;glyphName&quot;:&quot;C&quot;,&quot;glyphIndex&quot;:11,&quot;lastGlyphOfWord&quot;:true,&quot;word&quot;:1}" fill-rule="nonzero"></path><g data-paper-data="{&quot;fillRule&quot;:&quot;evenodd&quot;,&quot;isIcon&quot;:&quot;true&quot;,&quot;iconType&quot;:&quot;icon&quot;,&quot;rawIconId&quot;:&quot;614813&quot;,&quot;selectedEffects&quot;:{&quot;container&quot;:&quot;&quot;,&quot;transformation&quot;:&quot;&quot;,&quot;pattern&quot;:&quot;&quot;},&quot;combineTerms&quot;:&quot;Bomb&quot;,&quot;isDetailed&quot;:&quot;false&quot;,&quot;bounds&quot;:{&quot;x&quot;:65.00000000000001,&quot;y&quot;:199.98630450558025,&quot;width&quot;:34.956330339618574,&quot;height&quot;:46.317894476493024},&quot;iconStyle&quot;:&quot;icon-in-text&quot;,&quot;suitableAsStandaloneIcon&quot;:true}" fill-rule="evenodd"><path d="M95.26559,216.02853l-6.66579,-3.84429l-1.05806,-0.60965v-2.78119c0,-0.59453 -0.48872,-1.08325 -1.08829,-1.08325h-2.96257c0.19146,-2.81142 1.93474,-5.19962 4.28767,-5.77903l-0.47865,-1.94482c-3.22961,0.8011 -5.60773,4.00552 -5.80422,7.72385h-3.00288c-0.59453,0 -1.08325,0.48872 -1.08325,1.08325v2.78119l-7.72889,4.45393l-4.68066,8.1118v9.36636l3.51176,6.09141l1.16891,2.02039l8.1118,4.6857h9.36132l8.1118,-4.6857l4.69074,-8.1118v-9.36636zM72.23008,220.75957c-0.76583,0 -1.3906,-0.61972 -1.3906,-1.3906c0,-0.76583 0.62476,-1.3906 1.3906,-1.3906c0.76583,0 1.3906,0.62476 1.3906,1.3906c0,0.77087 -0.62476,1.3906 -1.3906,1.3906zM90.52447,230.62474l-2.15643,3.73848l-2.92227,1.68786v2.14635h-1.76847v-1.67778h-0.48872v1.67778h-1.77351v-1.67778h-0.49376v1.67778h-1.76344v-2.35293l-2.57965,-1.48129l-2.14635,-3.73848v-4.31286l2.14635,-3.73848l3.73848,-2.15643h4.31286l3.73848,2.15643l2.15643,3.73848zM78.38196,229.90929h-0.82126l-0.72553,0.42323l-0.41315,0.71545v0.82126l0.41315,0.72049l0.72553,0.40811h0.82126l0.71545,-0.40811l0.41315,-0.72049v-0.82126l-0.41315,-0.71545zM87.39563,229.90929h-0.83133l-0.71545,0.42323l-0.41315,0.71545v0.82126l0.41315,0.72049l0.71545,0.40811h0.83133l0.71545,-0.40811l0.41315,-0.72049v-0.82126l-0.41315,-0.71545zM82.41267,232.21687l-1.49136,1.48633v0.01008h3.00288l-0.7356,-0.7356z" data-paper-data="{&quot;isPathIcon&quot;:true}"></path></g></g></g></g></svg>
