<svg xmlns:mydata="http://www.w3.org/2000/svg" mydata:contrastcolor="ffffff" mydata:template="InvertedHex2" mydata:presentation="2.5" mydata:layouttype="undefined" mydata:specialfontid="undefined" mydata:id1="809" mydata:id2="049" mydata:companyname="Hellorge.inc" style="background-color: #000" mydata:companytagline="Weapon Of Hell" version="1.1" xmlns="http://www.w3.org/2000/svg" xmlns:xlink="http://www.w3.org/1999/xlink" viewBox="0 0 550 470"><g fill="none" fill-rule="none" stroke="none" stroke-width="1" stroke-linecap="butt" stroke-linejoin="miter" stroke-miterlimit="10" stroke-dasharray="" stroke-dashoffset="0" font-family="none" font-weight="none" font-size="none" text-anchor="none" style="mix-blend-mode: normal"><g data-paper-data="{&quot;isGlobalGroup&quot;:true,&quot;bounds&quot;:{&quot;x&quot;:88.09161552797607,&quot;y&quot;:115,&quot;width&quot;:373.8167689440479,&quot;height&quot;:240}}"><g data-paper-data="{&quot;isSecondaryText&quot;:true}" fill="#ffffff" fill-rule="nonzero"><path d="M149.76723,354.85286l1.72149,-7.63636l1.66264,7.63636h2.19233l2.57488,-10.56437h-1.72149l-1.92748,8.35733l-1.9422,-8.35733h-1.72149l-1.92748,8.35733l-1.92748,-8.35733h-1.69207l2.51603,10.56437z" data-paper-data="{&quot;glyphName&quot;:&quot;W&quot;,&quot;glyphIndex&quot;:0,&quot;firstGlyphOfWord&quot;:true,&quot;word&quot;:1}"></path><path d="M172.05635,354.85286h5.63531v-1.55964h-4.06096v-3.07515h2.54545v-1.55964h-2.54545v-2.79559h4.06096v-1.57436h-5.63531z" data-paper-data="{&quot;glyphName&quot;:&quot;E&quot;,&quot;glyphIndex&quot;:1,&quot;word&quot;:1}"></path><path d="M196.73239,354.85286h1.67735l-3.10457,-10.56437h-2.19233l-3.11929,10.56437h1.70678l0.55912,-2.03048h3.88439zM194.18694,345.89227l1.5155,5.37047h-3.00158z" data-paper-data="{&quot;glyphName&quot;:&quot;A&quot;,&quot;glyphIndex&quot;:2,&quot;word&quot;:1}"></path><path d="M215.19872,345.86285c1.07409,0 1.6185,0.55912 1.6185,1.67735c0,1.05938 -0.5444,1.58907 -1.6185,1.58907h-2.28061v-3.26642zM215.0663,350.68891c2.00105,0 3.31056,-1.13295 3.31056,-3.19285c0,-2.14819 -1.38308,-3.20757 -3.31056,-3.20757h-3.72254v10.56437h1.57436v-4.16395z" data-paper-data="{&quot;glyphName&quot;:&quot;P&quot;,&quot;glyphIndex&quot;:3,&quot;word&quot;:1}"></path><path d="M235.67403,355c2.51603,0 4.23752,-2.04519 4.23752,-5.42932c0,-3.39884 -1.72149,-5.42932 -4.23752,-5.42932c-2.51603,0 -4.23752,2.03048 -4.23752,5.42932c0,3.38413 1.72149,5.42932 4.23752,5.42932zM235.67403,353.35208c-1.5155,0 -2.69259,-1.22123 -2.69259,-3.7814c0,-2.53074 1.02995,-3.79611 2.69259,-3.79611c1.66264,0 2.69259,1.26537 2.69259,3.79611c0,2.56017 -1.17709,3.7814 -2.69259,3.7814z" data-paper-data="{&quot;glyphName&quot;:&quot;O&quot;,&quot;glyphIndex&quot;:4,&quot;word&quot;:1}"></path><path d="M259.6689,354.85286h1.79506v-10.56437h-1.57436v7.53337l-3.82554,-7.53337h-1.9422v10.56437h1.55964v-7.85707z" data-paper-data="{&quot;glyphName&quot;:&quot;N&quot;,&quot;glyphIndex&quot;:5,&quot;lastGlyphOfWord&quot;:true,&quot;word&quot;:1}"></path><path d="M293.04961,355c2.51603,0 4.23752,-2.04519 4.23752,-5.42932c0,-3.39884 -1.72149,-5.42932 -4.23752,-5.42932c-2.51603,0 -4.23752,2.03048 -4.23752,5.42932c0,3.38413 1.72149,5.42932 4.23752,5.42932zM293.04961,353.35208c-1.5155,0 -2.69259,-1.22123 -2.69259,-3.7814c0,-2.53074 1.02995,-3.79611 2.69259,-3.79611c1.66264,0 2.69259,1.26537 2.69259,3.79611c0,2.56017 -1.17709,3.7814 -2.69259,3.7814z" data-paper-data="{&quot;glyphName&quot;:&quot;O&quot;,&quot;glyphIndex&quot;:6,&quot;firstGlyphOfWord&quot;:true,&quot;word&quot;:2}"></path><path d="M312.4262,345.86285h4.06096v-1.57436h-5.63531v10.56437h1.57436v-4.63479h2.61902v-1.55964h-2.61902z" data-paper-data="{&quot;glyphName&quot;:&quot;F&quot;,&quot;glyphIndex&quot;:7,&quot;lastGlyphOfWord&quot;:true,&quot;word&quot;:2}"></path><path d="M347.70021,354.85286h1.57436v-10.56437h-1.57436v4.36994h-4.06096v-4.36994h-1.57436v10.56437h1.57436v-4.63479h4.06096z" data-paper-data="{&quot;glyphName&quot;:&quot;H&quot;,&quot;glyphIndex&quot;:8,&quot;firstGlyphOfWord&quot;:true,&quot;word&quot;:3}"></path><path d="M362.61909,354.85286h5.63531v-1.55964h-4.06096v-3.07515h2.54545v-1.55964h-2.54545v-2.79559h4.06096v-1.57436h-5.63531z" data-paper-data="{&quot;glyphName&quot;:&quot;E&quot;,&quot;glyphIndex&quot;:9,&quot;word&quot;:3}"></path><path d="M381.03359,354.85286h5.98844v-1.55964h-4.41408v-9.00473h-1.57436z" data-paper-data="{&quot;glyphName&quot;:&quot;L&quot;,&quot;glyphIndex&quot;:10,&quot;word&quot;:3}"></path><path d="M398.95269,354.85286h5.98844v-1.55964h-4.41408v-9.00473h-1.57436z" data-paper-data="{&quot;glyphName&quot;:&quot;L&quot;,&quot;glyphIndex&quot;:11,&quot;lastGlyphOfWord&quot;:true,&quot;word&quot;:3}"></path></g><g data-paper-data="{&quot;isPrimaryText&quot;:true}" fill="#ffffff" fill-rule="nonzero"><path d="M88.09162,290.71286v33.65771l8.70778,7.84317v-17.29204h16.18041v17.29204l8.70778,-7.78142v-33.71947h-8.70778v15.56283h-16.18041v-15.56283z" data-paper-data="{&quot;glyphName&quot;:&quot;H&quot;,&quot;glyphIndex&quot;:0,&quot;firstGlyphOfWord&quot;:true,&quot;word&quot;:1}"></path><path d="M125.33125,290.89813v33.41068l6.42276,7.84317h19.5153v-8.64602h-17.23028v-8.58426h16.11865v-8.58426h-16.11865v-6.85506h10.12819l7.04033,-8.58426z" data-paper-data="{&quot;glyphName&quot;:&quot;E&quot;,&quot;glyphIndex&quot;:1,&quot;word&quot;:1}"></path><path d="M154.97474,290.46583v33.90474l6.42276,7.78142h20.68869v-8.64602h-18.40367v-33.04014z" data-paper-data="{&quot;glyphName&quot;:&quot;L&quot;,&quot;glyphIndex&quot;:2,&quot;word&quot;:1}"></path><path d="M185.72986,290.46583v33.90474l6.42276,7.78142h20.68869v-8.64602h-18.40367v-33.04014z" data-paper-data="{&quot;glyphName&quot;:&quot;L&quot;,&quot;glyphIndex&quot;:3,&quot;word&quot;:1}"></path><path d="M219.14055,301.02632c-1.7292,3.21138 -2.65556,6.60803 -2.65556,10.43698c0,3.76719 0.92636,7.28736 2.65556,10.49874c1.85272,3.21138 4.32301,5.74343 7.41087,7.59614c3.08786,1.85272 6.42276,2.77908 10.06644,2.77908c3.70544,0 7.04033,-0.92636 10.12819,-2.77908c3.14962,-1.85272 5.61991,-4.38477 7.34912,-7.59614c1.85272,-3.21138 2.71732,-6.66979 2.71732,-10.43698c0,-3.82895 -0.8646,-7.28736 -2.71732,-10.49874c-1.7292,-3.27314 -4.13774,-5.80518 -7.28736,-7.6579c-3.08786,-1.85272 -6.42276,-2.77908 -10.12819,-2.77908c-3.64368,0 -7.04033,0.92636 -10.12819,2.77908c-3.08786,1.85272 -5.55815,4.38477 -7.41087,7.6579zM248.28998,311.4633c0,3.33489 -1.11163,6.17573 -3.39665,8.58426c-2.22326,2.34678 -4.94058,3.58192 -8.15196,3.58192c-3.14962,0 -5.86694,-1.23515 -8.15196,-3.58192c-2.22326,-2.40853 -3.39665,-5.24937 -3.39665,-8.58426c0,-3.39665 1.17339,-6.23748 3.39665,-8.58426c2.28502,-2.40853 5.00234,-3.58192 8.15196,-3.58192c3.21138,0 5.9287,1.11163 8.15196,3.52016c2.28502,2.34678 3.39665,5.24937 3.39665,8.64602z" data-paper-data="{&quot;glyphName&quot;:&quot;O&quot;,&quot;glyphIndex&quot;:4,&quot;word&quot;:1}"></path><path d="M260.51792,290.58934v33.71947l8.70778,7.84317v-14.32769h3.64368c0.98812,0 1.97623,-0.06176 2.90259,-0.12351l5.61991,14.4512l6.29924,-7.71966l-3.70544,-9.57238c0.24703,-0.24703 0.49406,-0.4323 0.67933,-0.55582c2.77908,-2.40853 4.13774,-5.99046 4.13774,-10.80752c0,-4.32301 -1.2969,-7.53439 -3.89071,-9.63413c-2.59381,-2.22326 -6.361,-3.27314 -11.30158,-3.27314zM269.2257,299.23536h3.89071c1.11163,0 2.09975,0.12351 3.08786,0.37054c0.98812,0.24703 1.91448,0.74109 2.65556,1.48217c0.80284,0.67933 1.17339,1.60569 1.17339,2.77908c0,1.54393 -0.74109,2.84083 -2.22326,3.82895c-1.35866,0.98812 -2.84083,1.48217 -4.57004,1.48217h-4.01422z" data-paper-data="{&quot;glyphName&quot;:&quot;R&quot;,&quot;glyphIndex&quot;:5,&quot;word&quot;:1}"></path><path d="M312.64106,290.34231c-3.64368,0 -7.04033,0.8646 -10.12819,2.77908c-3.08786,1.85272 -5.55815,4.44652 -7.41087,7.6579c-1.7292,3.21138 -2.65556,6.60803 -2.65556,10.43698c0,3.76719 0.92636,7.28736 2.65556,10.49874c1.85272,3.21138 4.32301,5.68167 7.41087,7.59614c3.08786,1.85272 6.42276,2.84083 10.06644,2.84083c3.70544,0 7.04033,-0.92636 10.12819,-2.77908c3.14962,-1.91448 5.61991,-4.44652 7.34912,-7.6579c1.85272,-3.21138 2.71732,-6.73154 2.71732,-10.43698c0,-1.79096 -0.18527,-3.27314 -0.4323,-4.44652h-13.21606l-4.75531,8.70778h9.14008c-0.55582,1.54393 -1.42042,2.96435 -2.65556,4.32301c-2.22326,2.34678 -4.94058,3.52016 -8.15196,3.52016c-3.14962,0 -5.86694,-1.17339 -8.15196,-3.52016c-2.22326,-2.40853 -3.39665,-5.24937 -3.39665,-8.58426c0,-3.39665 1.17339,-6.29924 3.39665,-8.64602c2.28502,-2.40853 5.00234,-3.58192 8.15196,-3.58192c1.60569,0 3.14962,0.30879 4.50828,0.92636l4.19949,-7.53439c-2.71732,-1.42042 -5.61991,-2.09975 -8.76953,-2.09975z" data-paper-data="{&quot;glyphName&quot;:&quot;G&quot;,&quot;glyphIndex&quot;:6,&quot;word&quot;:1}"></path><path d="M336.47936,290.89813v33.41068l6.42276,7.84317h19.5153v-8.64602h-17.23028v-8.58426h16.11865v-8.58426h-16.11865v-6.85506h10.12819l7.04033,-8.58426z" data-paper-data="{&quot;glyphName&quot;:&quot;E&quot;,&quot;glyphIndex&quot;:7,&quot;word&quot;:1}"></path><path d="M374.08954,324.1853c0.92636,0.8646 1.35866,1.91448 1.35866,3.27314c0,1.2969 -0.4323,2.40853 -1.35866,3.33489c-0.8646,0.8646 -1.91448,1.35866 -3.27314,1.35866c-1.2969,0 -2.40853,-0.49406 -3.33489,-1.35866c-0.8646,-0.92636 -1.35866,-1.97623 -1.35866,-3.27314c0,-1.35866 0.49406,-2.47029 1.35866,-3.33489c0.92636,-0.92636 1.97623,-1.35866 3.27314,-1.35866c1.35866,0 2.47029,0.4323 3.33489,1.35866z" data-paper-data="{&quot;glyphName&quot;:&quot;.&quot;,&quot;glyphIndex&quot;:8,&quot;word&quot;:1}"></path><path d="M379.15364,290.40407v33.9665l8.70778,7.78142v-41.74792z" data-paper-data="{&quot;glyphName&quot;:&quot;I&quot;,&quot;glyphIndex&quot;:9,&quot;word&quot;:1}"></path><path d="M415.09637,290.40407v24.82642l-14.8835,-24.82642h-8.70778v33.90474l8.70778,7.84317v-24.82642l14.8835,24.82642l8.70778,-7.84317v-33.90474z" data-paper-data="{&quot;glyphName&quot;:&quot;N&quot;,&quot;glyphIndex&quot;:10,&quot;word&quot;:1}"></path><path d="M430.16515,321.71501c-1.7292,-3.21138 -2.65556,-6.66979 -2.65556,-10.43698c0,-3.82895 0.92636,-7.28736 2.65556,-10.49874c1.85272,-3.21138 4.32301,-5.74343 7.41087,-7.59614c3.08786,-1.91448 6.48451,-2.84083 10.12819,-2.84083c3.27314,0 6.29924,0.74109 9.07832,2.22326l-4.26125,7.59614c-1.42042,-0.74109 -3.02611,-1.04987 -4.75531,-1.04987c-3.14962,0 -5.86694,1.17339 -8.15196,3.58192c-2.22326,2.34678 -3.39665,5.24937 -3.39665,8.58426c0,3.33489 1.17339,6.17573 3.39665,8.58426c2.28502,2.34678 5.00234,3.58192 8.15196,3.58192c2.96435,0 5.4964,-1.04987 7.59614,-3.02611l6.54627,5.68167c-1.17339,1.23515 -2.53205,2.28502 -4.07598,3.27314c-3.08786,1.85272 -6.42276,2.77908 -10.12819,2.77908c-3.64368,0 -7.04033,-0.92636 -10.12819,-2.77908c-3.08786,-1.91448 -5.55815,-4.44652 -7.41087,-7.6579z" data-paper-data="{&quot;glyphName&quot;:&quot;C&quot;,&quot;glyphIndex&quot;:11,&quot;lastGlyphOfWord&quot;:true,&quot;word&quot;:1}"></path></g><g data-paper-data="{&quot;isIcon&quot;:&quot;true&quot;,&quot;iconType&quot;:&quot;icon&quot;,&quot;rawIconId&quot;:&quot;32834&quot;,&quot;selectedEffects&quot;:{&quot;container&quot;:&quot;&quot;,&quot;transformation&quot;:&quot;&quot;,&quot;pattern&quot;:&quot;&quot;},&quot;combineTerms&quot;:&quot;Bomb&quot;,&quot;isDetailed&quot;:false,&quot;fillRule&quot;:&quot;evenodd&quot;,&quot;bounds&quot;:{&quot;x&quot;:201.4246776235749,&quot;y&quot;:115,&quot;width&quot;:147.1506447528502,&quot;height&quot;:146.9939757054907},&quot;iconStyle&quot;:&quot;standalone&quot;,&quot;suitableAsStandaloneIcon&quot;:true}" fill="#ffffff" fill-rule="evenodd"><path d="M345.95931,152.27817c1.7985,1.7985 2.61601,3.76052 2.61601,5.72253c0,2.77951 -1.96201,4.74152 -2.12551,4.74152l-23.0536,22.8901c-3.76052,3.76052 -22.5631,-3.10651 -22.5631,-3.10651c0,0 1.63501,14.87856 -18.47558,34.98916c-11.44505,11.44505 -17.00407,17.16757 -36.95116,36.95116c-4.90502,4.90502 -11.77205,7.68453 -19.45658,7.52103c-3.27001,0 -10.62754,-3.43352 -15.85957,-8.66554c-5.23202,-5.23202 -8.66554,-12.42606 -8.66554,-15.85957c0,-7.68453 2.61601,-14.55157 7.52103,-19.45658c19.78359,-19.94709 25.50611,-25.50611 36.95116,-36.95116c20.04437,-20.04437 34.89105,-18.48604 34.98866,-18.47558c-0.17642,-0.03695 -7.02644,-18.96951 -3.26953,-22.5631l22.8901,-22.8901c0.327,-0.1635 2.12551,-2.12551 5.06852,-2.12551c1.96201,0 3.92401,0.8175 5.72253,2.61601l10.62754,10.62754c1.63501,1.63501 -0.981,14.55157 -0.981,14.55157c0,0 12.91656,-2.61601 14.55157,-0.981zM290.85957,150.31615c0.4905,2.12551 1.96201,3.92401 4.08752,4.74152c1.63501,0.654 2.94301,0.4905 4.41452,-0.654c7.84804,-8.66554 12.58955,-16.67708 8.99254,-20.43759c-0.981,-0.981 -2.45251,-1.14451 -3.27001,-0.981c-0.1635,0 -2.45251,0.1635 -11.60855,4.25102c-0.4905,0 -1.14451,0.654 -2.12551,1.47151c-1.7985,1.30801 -2.61601,3.76052 -1.96201,5.88603zM313.25917,172.87926l5.72253,1.47151c2.12551,0.654 4.41452,-0.1635 5.88603,-1.63501c0.654,-0.981 1.30801,-1.7985 1.47151,-2.12551c4.08752,-9.15604 4.25102,-11.44505 4.25102,-11.60855c0.1635,-0.8175 0,-2.28901 -0.981,-3.27001c-3.76052,-3.76052 -11.77205,0.981 -20.43759,8.99254c-0.981,0.981 -1.30801,2.45251 -0.654,4.08752c0.654,1.96201 2.61601,3.43352 4.74152,4.08752z" data-paper-data="{&quot;isPathIcon&quot;:true}"></path></g></g></g></svg>
