<svg xmlns:mydata="http://www.w3.org/2000/svg" mydata:contrastcolor="ffffff" mydata:template="Default" mydata:presentation="2.5" mydata:layouttype="undefined" mydata:specialfontid="undefined" mydata:id1="184" mydata:id2="151" mydata:companyname="Hellorge. Inc" style="background-color: #fff" mydata:companytagline="Weapon Of Hell" version="1.1" xmlns="http://www.w3.org/2000/svg" xmlns:xlink="http://www.w3.org/1999/xlink" viewBox="0 0 550 470"><g fill="#222223" fill-rule="none" stroke="none" stroke-width="1" stroke-linecap="butt" stroke-linejoin="miter" stroke-miterlimit="10" stroke-dasharray="" stroke-dashoffset="0" font-family="none" font-weight="none" font-size="none" text-anchor="none" style="mix-blend-mode: normal"><g data-paper-data="{&quot;isGlobalGroup&quot;:true,&quot;bounds&quot;:{&quot;x&quot;:65.00000000000003,&quot;y&quot;:213.0033425341153,&quot;width&quot;:420,&quot;height&quot;:43.99331493176942}}"><g data-paper-data="{&quot;isSecondaryText&quot;:true}" fill-rule="nonzero"><path d="M258.99179,256.94809h-0.9907l-1.26266,-4.565l-1.31122,4.565h-1.01984l-1.9037,-6.79894h1.13639l1.2918,4.55529l1.27237,-4.55529h1.02955l1.26266,4.55529l1.27237,-4.55529h1.12668z" data-paper-data="{&quot;glyphName&quot;:&quot;W&quot;,&quot;glyphIndex&quot;:0,&quot;firstGlyphOfWord&quot;:true,&quot;word&quot;:1}"></path><path d="M270.09604,256.94809v-6.79894h4.19592v1.04898h-3.14694v1.69973h2.86527v1.04898h-2.86527v1.95227h3.17608v1.04898z" data-paper-data="{&quot;glyphName&quot;:&quot;E&quot;,&quot;glyphIndex&quot;:1,&quot;word&quot;:1}"></path><path d="M286.5231,254.99583h-2.13681l-0.68961,1.95227h-1.16553l2.42819,-6.79894h0.9907l2.42819,6.79894h-1.16553zM284.75537,253.95656h1.38893c-0.06475,-0.18778 -0.12465,-0.35613 -0.17969,-0.50506c-0.05504,-0.14893 -0.10846,-0.29624 -0.16026,-0.44193c-0.0518,-0.14569 -0.10522,-0.29624 -0.16026,-0.45164c-0.05504,-0.1554 -0.11817,-0.33671 -0.1894,-0.54392z" data-paper-data="{&quot;glyphName&quot;:&quot;A&quot;,&quot;glyphIndex&quot;:2,&quot;word&quot;:1}"></path><path d="M297.775,254.19938v2.74871h-1.03927v-6.79894h2.57388c0.27843,0 0.54068,0.05342 0.78673,0.16026c0.24606,0.10684 0.46136,0.25253 0.6459,0.43707c0.18454,0.18454 0.33023,0.39984 0.43707,0.6459c0.10684,0.24606 0.16026,0.5083 0.16026,0.78673c0,0.27843 -0.05342,0.54068 -0.16026,0.78673c-0.10684,0.24606 -0.25253,0.45974 -0.43707,0.64104c-0.18454,0.18131 -0.39984,0.32538 -0.6459,0.43222c-0.24606,0.10684 -0.5083,0.16026 -0.78673,0.16026zM297.775,253.1504h1.53462c0.13598,0 0.26224,-0.02428 0.3788,-0.07285c0.11655,-0.04856 0.22016,-0.11655 0.31081,-0.20397c0.09065,-0.08741 0.16188,-0.19102 0.21368,-0.31081c0.0518,-0.11979 0.0777,-0.24768 0.0777,-0.38365c0,-0.13598 -0.0259,-0.26224 -0.0777,-0.3788c-0.0518,-0.11655 -0.12303,-0.21854 -0.21368,-0.30595c-0.09065,-0.08741 -0.19426,-0.15864 -0.31081,-0.21368c-0.11655,-0.05504 -0.24282,-0.08256 -0.3788,-0.08256h-1.53462z" data-paper-data="{&quot;glyphName&quot;:&quot;P&quot;,&quot;glyphIndex&quot;:3,&quot;word&quot;:1}"></path><path d="M315.20061,253.51949c0,-0.31728 -0.04371,-0.62162 -0.13112,-0.913c-0.08741,-0.29138 -0.22016,-0.54877 -0.39822,-0.77217c-0.17807,-0.22339 -0.39984,-0.39984 -0.66532,-0.52935c-0.26548,-0.1295 -0.57629,-0.19426 -0.93243,-0.19426c-0.34966,0 -0.65723,0.06475 -0.92271,0.19426c-0.26548,0.1295 -0.48564,0.30433 -0.66047,0.52449c-0.17483,0.22016 -0.30757,0.47593 -0.39822,0.76731c-0.09065,0.29138 -0.13598,0.59895 -0.13598,0.92271c0,0.32376 0.04533,0.63133 0.13598,0.92271c0.09065,0.29138 0.22339,0.54877 0.39822,0.77217c0.17483,0.22339 0.39499,0.40146 0.66047,0.5342c0.26548,0.13274 0.57305,0.19911 0.92271,0.19911c0.35613,0 0.66694,-0.06475 0.93243,-0.19426c0.26548,-0.1295 0.48726,-0.30595 0.66532,-0.52935c0.17807,-0.22339 0.31081,-0.48078 0.39822,-0.77217c0.08741,-0.29138 0.13112,-0.60219 0.13112,-0.93243zM316.25931,253.50977c0,0.45326 -0.06637,0.89034 -0.19911,1.31122c-0.13274,0.42089 -0.33347,0.79159 -0.60219,1.11211c-0.26872,0.32052 -0.60219,0.57791 -1.00042,0.77217c-0.39822,0.19426 -0.85958,0.29138 -1.38407,0.29138c-0.52449,0 -0.98423,-0.09713 -1.37921,-0.29138c-0.39499,-0.19426 -0.72684,-0.45164 -0.99556,-0.77217c-0.26872,-0.32052 -0.46945,-0.69123 -0.60219,-1.11211c-0.13274,-0.42089 -0.19911,-0.85796 -0.19911,-1.31122c0,-0.44679 0.06637,-0.87901 0.19911,-1.29665c0.13274,-0.41765 0.33347,-0.78512 0.60219,-1.1024c0.26872,-0.31728 0.60057,-0.57143 0.99556,-0.76245c0.39499,-0.19102 0.85472,-0.28653 1.37921,-0.28653c0.52449,0 0.98585,0.09551 1.38407,0.28653c0.39822,0.19102 0.7317,0.44517 1.00042,0.76245c0.26872,0.31728 0.46945,0.68475 0.60219,1.1024c0.13274,0.41765 0.19911,0.84987 0.19911,1.29665z" data-paper-data="{&quot;glyphName&quot;:&quot;O&quot;,&quot;glyphIndex&quot;:4,&quot;word&quot;:1}"></path><path d="M329.86165,256.94809l-3.652,-4.84667v4.84667h-1.02955v-6.79894h0.82559l3.68114,4.83696v-4.83696h1.02955v6.79894z" data-paper-data="{&quot;glyphName&quot;:&quot;N&quot;,&quot;glyphIndex&quot;:5,&quot;lastGlyphOfWord&quot;:true,&quot;word&quot;:1}"></path><path d="M352.89204,253.51949c0,-0.31728 -0.04371,-0.62162 -0.13112,-0.913c-0.08741,-0.29138 -0.22016,-0.54877 -0.39822,-0.77217c-0.17807,-0.22339 -0.39984,-0.39984 -0.66532,-0.52935c-0.26548,-0.1295 -0.57629,-0.19426 -0.93243,-0.19426c-0.34966,0 -0.65723,0.06475 -0.92271,0.19426c-0.26548,0.1295 -0.48564,0.30433 -0.66047,0.52449c-0.17483,0.22016 -0.30757,0.47593 -0.39822,0.76731c-0.09065,0.29138 -0.13598,0.59895 -0.13598,0.92271c0,0.32376 0.04533,0.63133 0.13598,0.92271c0.09065,0.29138 0.22339,0.54877 0.39822,0.77217c0.17483,0.22339 0.39499,0.40146 0.66047,0.5342c0.26548,0.13274 0.57305,0.19911 0.92271,0.19911c0.35613,0 0.66694,-0.06475 0.93243,-0.19426c0.26548,-0.1295 0.48726,-0.30595 0.66532,-0.52935c0.17807,-0.22339 0.31081,-0.48078 0.39822,-0.77217c0.08741,-0.29138 0.13112,-0.60219 0.13112,-0.93243zM353.95073,253.50977c0,0.45326 -0.06637,0.89034 -0.19911,1.31122c-0.13274,0.42089 -0.33347,0.79159 -0.60219,1.11211c-0.26872,0.32052 -0.60219,0.57791 -1.00042,0.77217c-0.39822,0.19426 -0.85958,0.29138 -1.38407,0.29138c-0.52449,0 -0.98423,-0.09713 -1.37921,-0.29138c-0.39499,-0.19426 -0.72684,-0.45164 -0.99556,-0.77217c-0.26872,-0.32052 -0.46945,-0.69123 -0.60219,-1.11211c-0.13274,-0.42089 -0.19911,-0.85796 -0.19911,-1.31122c0,-0.44679 0.06637,-0.87901 0.19911,-1.29665c0.13274,-0.41765 0.33347,-0.78512 0.60219,-1.1024c0.26872,-0.31728 0.60057,-0.57143 0.99556,-0.76245c0.39499,-0.19102 0.85472,-0.28653 1.37921,-0.28653c0.52449,0 0.98585,0.09551 1.38407,0.28653c0.39822,0.19102 0.7317,0.44517 1.00042,0.76245c0.26872,0.31728 0.46945,0.68475 0.60219,1.1024c0.13274,0.41765 0.19911,0.84987 0.19911,1.29665z" data-paper-data="{&quot;glyphName&quot;:&quot;O&quot;,&quot;glyphIndex&quot;:6,&quot;firstGlyphOfWord&quot;:true,&quot;word&quot;:2}"></path><path d="M362.34981,256.94809v-6.79894h4.19592v1.04898h-3.14694v1.69973h2.86527v1.04898h-2.86527v3.00125z" data-paper-data="{&quot;glyphName&quot;:&quot;F&quot;,&quot;glyphIndex&quot;:7,&quot;lastGlyphOfWord&quot;:true,&quot;word&quot;:2}"></path><path d="M386.1854,256.94809v-3.00125h-2.80699v3.00125h-1.04898v-6.79894h1.04898v2.74871h2.80699v-2.74871h1.04898v6.79894z" data-paper-data="{&quot;glyphName&quot;:&quot;H&quot;,&quot;glyphIndex&quot;:8,&quot;firstGlyphOfWord&quot;:true,&quot;word&quot;:3}"></path><path d="M395.07773,256.94809v-6.79894h4.19592v1.04898h-3.14694v1.69973h2.86527v1.04898h-2.86527v1.95227h3.17608v1.04898z" data-paper-data="{&quot;glyphName&quot;:&quot;E&quot;,&quot;glyphIndex&quot;:9,&quot;word&quot;:3}"></path><path d="M406.87771,256.94809v-6.79894h1.04898v5.74996h3.16636v1.04898z" data-paper-data="{&quot;glyphName&quot;:&quot;L&quot;,&quot;glyphIndex&quot;:10,&quot;word&quot;:3}"></path><path d="M418.6642,256.94809v-6.79894h1.04898v5.74996h3.16636v1.04898z" data-paper-data="{&quot;glyphName&quot;:&quot;L&quot;,&quot;glyphIndex&quot;:11,&quot;lastGlyphOfWord&quot;:true,&quot;word&quot;:3}"></path></g><g data-paper-data="{&quot;isPrimaryText&quot;:true}"><path d="M220.19795,236.71962c0,1.04613 -0.61817,1.5692 -1.85451,1.5692c-1.21256,0 -1.81884,-0.52307 -1.81884,-1.5692v-9.45085h-22.39673v9.45085c0,1.04613 -0.63006,1.5692 -1.89017,1.5692c-1.23634,0 -1.85451,-0.52307 -1.85451,-1.5692v-22.14708c0,-1.04613 0.64194,-1.5692 1.92583,-1.5692c1.21256,0 1.81884,0.52307 1.81884,1.5692v9.66483h22.39673v-9.66483c0,-1.04613 0.59439,-1.5692 1.78318,-1.5692c1.26011,0 1.89017,0.52307 1.89017,1.5692z" data-paper-data="{&quot;glyphName&quot;:&quot;H&quot;,&quot;glyphIndex&quot;:0,&quot;firstGlyphOfWord&quot;:true,&quot;word&quot;:1}" fill-rule="nonzero"></path><path d="M231.03967,227.30444h18.61639v-2.81742c0,-1.71185 -1.33144,-2.56778 -3.99432,-2.56778h-9.30819c-3.54258,0 -5.31387,0.90348 -5.31387,2.71043zM253.00844,228.69532c0,1.06991 -0.51118,1.60486 -1.53353,1.60486h-20.43523v2.3538c0,1.71185 1.77129,2.56778 5.31387,2.56778h3.816c0.9748,0 1.46221,0.47551 1.46221,1.42654c0,0.9748 -0.4874,1.46221 -1.46221,1.46221h-2.92441c-6.44322,0 -9.66483,-1.9615 -9.66483,-5.88449v-7.31103c0,-3.89922 3.18595,-5.84883 9.55784,-5.84883h7.84599c5.34954,0 8.0243,1.68808 8.0243,5.06423z" data-paper-data="{&quot;glyphName&quot;:&quot;e&quot;,&quot;glyphIndex&quot;:1,&quot;word&quot;:1}" fill-rule="nonzero"></path><path d="M263.27955,236.75528c0,1.02236 -0.57062,1.53353 -1.71185,1.53353c-1.16501,0 -1.74752,-0.51118 -1.74752,-1.53353v-22.21841c0,-1.02236 0.57062,-1.53353 1.71185,-1.53353c1.16501,0 1.74752,0.51118 1.74752,1.53353z" data-paper-data="{&quot;glyphName&quot;:&quot;l&quot;,&quot;glyphIndex&quot;:2,&quot;word&quot;:1}" fill-rule="nonzero"></path><path d="M273.72898,236.75528c0,1.02236 -0.57062,1.53353 -1.71185,1.53353c-1.16501,0 -1.74752,-0.51118 -1.74752,-1.53353v-22.21841c0,-1.02236 0.57062,-1.53353 1.71185,-1.53353c1.16501,0 1.74752,0.51118 1.74752,1.53353z" data-paper-data="{&quot;glyphName&quot;:&quot;l&quot;,&quot;glyphIndex&quot;:3,&quot;word&quot;:1}" fill-rule="nonzero"></path><path d="M302.2955,224.66533c0,-1.83073 -1.62864,-2.7461 -4.88591,-2.7461h-7.91731c-3.54258,0 -5.31387,1.02236 -5.31387,3.06707v7.3467c0,1.92583 1.77129,2.88875 5.31387,2.88875h7.91731c3.25727,0 4.88591,-0.96292 4.88591,-2.88875zM305.86186,232.333c0,3.85167 -2.99574,5.7775 -8.98722,5.7775h-6.99006c-6.11036,0 -9.16554,-1.92583 -9.16554,-5.7775v-7.3467c0,-3.94677 3.09084,-5.92015 9.27253,-5.92015h6.88307c5.99148,0 8.98722,1.9615 8.98722,5.88449z" data-paper-data="{&quot;glyphName&quot;:&quot;o&quot;,&quot;glyphIndex&quot;:4,&quot;word&quot;:1}" fill-rule="nonzero"></path><path d="M321.30419,221.91924c-3.30482,0 -4.95724,0.9748 -4.95724,2.92441v11.91163c0,1.02236 -0.58251,1.53353 -1.74752,1.53353c-1.16501,0 -1.74752,-0.51118 -1.74752,-1.53353v-11.91163c0,-3.85167 2.9363,-5.7775 8.8089,-5.7775h1.5692c0.8797,0 1.31955,0.47551 1.31955,1.42654c0,0.95103 -0.36852,1.42654 -1.10557,1.42654z" data-paper-data="{&quot;glyphName&quot;:&quot;r&quot;,&quot;glyphIndex&quot;:5,&quot;word&quot;:1}" fill-rule="nonzero"></path><path d="M351.5469,235.22175v-10.12846c0,-2.11604 -1.84262,-3.17406 -5.52785,-3.17406h-7.77466c-3.4237,0 -5.13555,0.95103 -5.13555,2.85309v7.56068c0,1.92583 1.98527,2.88875 5.95582,2.88875zM355.07759,237.82519c0,3.80411 -3.15028,5.70617 -9.45085,5.70617h-2.85309c-0.99858,0 -1.49787,-0.46363 -1.49787,-1.39088c0,-0.95103 0.49929,-1.42654 1.49787,-1.42654h3.28105c3.73279,0 5.59918,-0.7846 5.59918,-2.3538v-0.24965h-11.91163c-6.72853,0 -10.09279,-1.91395 -10.09279,-5.74184v-7.52501c0,-3.85167 3.06707,-5.7775 9.2012,-5.7775h6.20546c6.68098,0 10.02146,1.93772 10.02146,5.81316z" data-paper-data="{&quot;glyphName&quot;:&quot;g&quot;,&quot;glyphIndex&quot;:6,&quot;word&quot;:1}" fill-rule="nonzero"></path><path d="M365.49136,227.30444h18.61639v-2.81742c0,-1.71185 -1.33144,-2.56778 -3.99432,-2.56778h-9.30819c-3.54258,0 -5.31387,0.90348 -5.31387,2.71043zM387.46012,228.69532c0,1.06991 -0.51118,1.60486 -1.53353,1.60486h-20.43523v2.3538c0,1.71185 1.77129,2.56778 5.31387,2.56778h3.816c0.9748,0 1.46221,0.47551 1.46221,1.42654c0,0.9748 -0.4874,1.46221 -1.46221,1.46221h-2.92441c-6.44322,0 -9.66483,-1.9615 -9.66483,-5.88449v-7.31103c0,-3.89922 3.18595,-5.84883 9.55784,-5.84883h7.84599c5.34954,0 8.0243,1.68808 8.0243,5.06423z" data-paper-data="{&quot;glyphName&quot;:&quot;e&quot;,&quot;glyphIndex&quot;:7,&quot;word&quot;:1}" fill-rule="nonzero"></path><path d="M398.62282,236.18467c0,1.26011 -0.79649,1.89017 -2.38946,1.89017c-1.59297,0 -2.38946,-0.63006 -2.38946,-1.89017c0,-1.21256 0.79649,-1.81884 2.38946,-1.81884c1.59297,0 2.38946,0.60628 2.38946,1.81884z" data-paper-data="{&quot;glyphName&quot;:&quot;.&quot;,&quot;glyphIndex&quot;:8,&quot;lastGlyphOfWord&quot;:true,&quot;word&quot;:1}" fill-rule="nonzero"></path><path d="M422.90971,236.71962c0,1.02236 -0.63006,1.53353 -1.89017,1.53353c-1.23634,0 -1.85451,-0.51118 -1.85451,-1.53353v-22.18274c0,-1.02236 0.65383,-1.53353 1.9615,-1.53353c1.18879,0 1.78318,0.51118 1.78318,1.53353z" data-paper-data="{&quot;glyphName&quot;:&quot;I&quot;,&quot;glyphIndex&quot;:9,&quot;firstGlyphOfWord&quot;:true,&quot;word&quot;:2}" fill-rule="nonzero"></path><path d="M455.07826,236.75528c0,1.02236 -0.58251,1.53353 -1.74752,1.53353c-1.18879,0 -1.78318,-0.51118 -1.78318,-1.53353v-12.51792c0,-1.54542 -1.55731,-2.31813 -4.67193,-2.31813h-8.70191c-3.18595,0 -4.77892,0.77271 -4.77892,2.31813v12.51792c0,1.02236 -0.57062,1.53353 -1.71185,1.53353c-1.16501,0 -1.74752,-0.51118 -1.74752,-1.53353v-12.51792c0,-3.44748 3.06707,-5.17122 9.2012,-5.17122h6.70475c6.15791,0 9.23687,1.72374 9.23687,5.17122z" data-paper-data="{&quot;glyphName&quot;:&quot;n&quot;,&quot;glyphIndex&quot;:10,&quot;word&quot;:2}" fill-rule="nonzero"></path><path d="M471.4835,238.1105c-6.27679,0 -9.41518,-1.87828 -9.41518,-5.63485v-7.81032c0,-3.73279 2.85309,-5.59918 8.55926,-5.59918h12.7319c1.09368,0 1.64052,0.46363 1.64052,1.39088c0,0.9748 -0.54684,1.46221 -1.64052,1.46221h-13.19552c-3.09084,0 -4.63626,0.8797 -4.63626,2.6391v7.77466c0,1.92583 1.77129,2.88875 5.31387,2.88875h12.51792c0.99858,0 1.49787,0.51118 1.49787,1.53353c0,0.90348 -0.49929,1.35522 -1.49787,1.35522z" data-paper-data="{&quot;glyphName&quot;:&quot;c&quot;,&quot;glyphIndex&quot;:11,&quot;lastGlyphOfWord&quot;:true,&quot;word&quot;:2}" fill-rule="nonzero"></path><g data-paper-data="{&quot;fillRule&quot;:&quot;evenodd&quot;,&quot;isIcon&quot;:&quot;true&quot;,&quot;iconStyle&quot;:&quot;icon-in-text&quot;,&quot;selectedEffects&quot;:{&quot;container&quot;:&quot;&quot;,&quot;transformation&quot;:&quot;&quot;,&quot;pattern&quot;:&quot;&quot;},&quot;bounds&quot;:{&quot;x&quot;:65.00000000000003,&quot;y&quot;:213.0033425341153,&quot;width&quot;:105.38319831032581,&quot;height&quot;:25.28547541435404},&quot;iconType&quot;:&quot;icon&quot;,&quot;rawIconId&quot;:&quot;3214&quot;,&quot;combineTerms&quot;:&quot;Bomb&quot;,&quot;isDetailed&quot;:&quot;false&quot;,&quot;suitableAsStandaloneIcon&quot;:true}" fill-rule="evenodd"><path d="M156.33615,238.28882l-8.42843,-9.32102l-14.04744,6.7921c-3.48555,1.68568 -9.01635,2.52853 -11.23784,2.52853h-42.14173c-16.85665,0 -15.45205,-12.64264 -15.45205,-12.64264c0,0 -1.40461,-12.64244 15.45205,-12.64244h42.14173c2.22148,0 7.75229,0.84304 11.23784,2.52853l14.04744,6.7927l8.37372,-9.32102h14.10176l-7.77449,9.10793h-11.8995l-0.78476,0.77941h20.45876l-3.6021,4.11431h-6.4121l10.01421,11.28363z" data-paper-data="{&quot;isPathIcon&quot;:true}"></path></g></g></g></g></svg>
