<svg xmlns:mydata="http://www.w3.org/2000/svg" mydata:contrastcolor="ffffff" mydata:template="BlackAndHighlightColorHex2" mydata:presentation="2.5" mydata:layouttype="undefined" mydata:specialfontid="undefined" mydata:id1="108" mydata:id2="107" mydata:companyname="Hellorge. Inc" style="background-color: #000" mydata:companytagline="Arsenal of Hell" version="1.1" xmlns="http://www.w3.org/2000/svg" xmlns:xlink="http://www.w3.org/1999/xlink" viewBox="0 0 550 470"><g fill="none" fill-rule="nonzero" stroke="none" stroke-width="1" stroke-linecap="butt" stroke-linejoin="miter" stroke-miterlimit="10" stroke-dasharray="" stroke-dashoffset="0" font-family="none" font-weight="none" font-size="none" text-anchor="none" style="mix-blend-mode: normal"><g data-paper-data="{&quot;isGlobalGroup&quot;:true,&quot;bounds&quot;:{&quot;x&quot;:78.69029025255415,&quot;y&quot;:181.62019150652705,&quot;width&quot;:392.61941949489164,&quot;height&quot;:106.75961698694593}}"><g data-paper-data="{&quot;isBesideStackedLine&quot;:true,&quot;isSecondaryText&quot;:true}" fill="#298fc2"><path d="M213.13005,270.53448l-1.8088,0.41911v1.32351h6.06609v-1.32351l-2.0735,-0.41911l0.86028,-2.44849h5.73521l0.83822,2.44849l-2.05144,0.41911v1.32351h6.39697v-1.32351l-1.83086,-0.41911l-4.89699,-13.69833l-2.20585,0.11029zM221.31375,266.32131h-4.54405l2.31614,-6.63961z" data-paper-data="{&quot;glyphName&quot;:&quot;A&quot;,&quot;glyphIndex&quot;:0,&quot;firstGlyphOfWord&quot;:true,&quot;word&quot;:1}"></path><path d="M234.60613,270.51242l-1.87497,0.44117v1.32351h6.06609v-1.32351l-1.87497,-0.44117v-4.96316h0.99263c1.45586,0 1.94115,0.44117 2.9779,2.64702l1.87497,4.08082h3.30878v-1.32351l-1.56615,-0.35294l-1.74262,-3.5073c-0.57352,-1.10293 -0.97057,-1.67645 -1.32351,-1.98527c1.89703,-0.70587 2.86761,-2.16173 2.86761,-4.30141c0,-2.47055 -1.85291,-3.97053 -4.96316,-3.97053h-2.42644l-4.19112,0.11029v1.21322l1.87497,0.44117zM236.92227,263.89487v-5.29404h2.31614c1.61027,0 2.75731,1.05881 2.75731,2.53673c0,1.74262 -1.25733,2.75731 -3.41907,2.75731z" data-paper-data="{&quot;glyphName&quot;:&quot;R&quot;,&quot;glyphIndex&quot;:1,&quot;word&quot;:1}"></path><path d="M254.13592,267.75511h-1.76468v3.86024c0,0 2.22791,0.88234 4.54405,0.88234c3.08819,0 5.75727,-1.52204 5.75727,-4.83081c0,-4.96316 -7.94106,-3.68377 -7.94106,-7.03666c0,-1.10293 0.94852,-2.13967 2.93378,-2.13967c1.21322,0 2.3382,0.39705 2.3382,0.39705l0.74999,2.36026h1.4338l0.11029,-3.74995c0,0 -2.55879,-0.88234 -4.65434,-0.88234c-2.75731,0 -5.22786,1.30145 -5.22786,4.38964c0,5.27198 7.96312,3.86024 7.96312,7.25725c0,1.56615 -1.76468,2.36026 -3.37495,2.36026c-1.4338,0 -2.42644,-0.55146 -2.42644,-0.55146z" data-paper-data="{&quot;glyphName&quot;:&quot;S&quot;,&quot;glyphIndex&quot;:2,&quot;word&quot;:1}"></path><path d="M273.92959,263.34341v-4.74258h4.74258l0.55146,1.98527h1.4338v-3.74995h-6.72784l-4.19112,0.11029v1.21322l1.87497,0.44117v11.91159l-1.87497,0.44117v1.32351h11.13954v-3.97053h-1.4338l-0.44117,2.20585h-5.07346v-5.40433h5.07346v-1.76468z" data-paper-data="{&quot;glyphName&quot;:&quot;E&quot;,&quot;glyphIndex&quot;:3,&quot;word&quot;:1}"></path><path d="M291.58982,270.51242v-10.38955l7.27931,12.15423h2.75731v-13.67627l1.87497,-0.44117v-1.32351l-5.73521,0.11029v1.21322l1.87497,0.44117v10.56602l-7.27931,-12.3307l-4.63229,0.11029v1.21322l1.87497,0.44117v11.91159l-1.87497,0.44117v1.32351h5.9558v-1.32351z" data-paper-data="{&quot;glyphName&quot;:&quot;N&quot;,&quot;glyphIndex&quot;:4,&quot;word&quot;:1}"></path><path d="M310.84072,270.53448l-1.8088,0.41911v1.32351h6.06609v-1.32351l-2.0735,-0.41911l0.86028,-2.44849h5.73521l0.83822,2.44849l-2.05144,0.41911v1.32351h6.39697v-1.32351l-1.83086,-0.41911l-4.89699,-13.69833l-2.20585,0.11029zM319.02443,266.32131h-4.54405l2.31614,-6.63961z" data-paper-data="{&quot;glyphName&quot;:&quot;A&quot;,&quot;glyphIndex&quot;:5,&quot;word&quot;:1}"></path><path d="M338.3777,270.51242h-4.52199v-11.91159l1.87497,-0.44117v-1.32351l-6.06609,0.11029v1.21322l1.87497,0.44117v11.91159l-1.87497,0.44117v1.32351h10.69837v-4.30141h-1.5441z" data-paper-data="{&quot;glyphName&quot;:&quot;L&quot;,&quot;glyphIndex&quot;:6,&quot;lastGlyphOfWord&quot;:true,&quot;word&quot;:1}"></path><path d="M363.41034,256.61557c-4.4117,0 -7.16901,3.19848 -7.16901,8.05135c0,5.07346 2.42644,7.83077 6.72784,7.83077c4.30141,0 7.27931,-3.30878 7.27931,-8.16165c0,-4.74258 -2.53673,-7.72048 -6.83814,-7.72048zM363.30005,258.49054c2.86761,0 4.4117,1.98527 4.4117,5.9558c0,4.19112 -1.76468,6.17638 -4.63229,6.17638c-2.86761,0 -4.30141,-2.09556 -4.30141,-6.06609c0,-4.19112 1.65439,-6.06609 4.52199,-6.06609z" data-paper-data="{&quot;glyphName&quot;:&quot;O&quot;,&quot;glyphIndex&quot;:7,&quot;firstGlyphOfWord&quot;:true,&quot;word&quot;:2}"></path><path d="M381.2887,263.56399v-4.96316h4.74258l0.55146,1.87497h1.4338v-3.63965h-6.72784l-4.19112,0.11029v1.21322l1.87497,0.44117v11.91159l-1.87497,0.44117v1.32351h6.39697v-1.32351l-2.20585,-0.44117v-5.18375h5.07346v-1.76468z" data-paper-data="{&quot;glyphName&quot;:&quot;F&quot;,&quot;glyphIndex&quot;:8,&quot;lastGlyphOfWord&quot;:true,&quot;word&quot;:2}"></path><path d="M404.00794,272.2771h6.28667v-1.32351l-2.09556,-0.44117v-5.29404h7.3896v5.29404l-2.09556,0.44117v1.32351h6.28667v-1.32351l-1.87497,-0.44117v-11.91159l1.87497,-0.44117v-1.32351l-6.28667,0.11029v1.21322l2.09556,0.44117v4.85287h-7.3896v-4.85287l2.09556,-0.44117v-1.32351l-6.28667,0.11029v1.21322l1.87497,0.44117v11.91159l-1.87497,0.44117z" data-paper-data="{&quot;glyphName&quot;:&quot;H&quot;,&quot;glyphIndex&quot;:9,&quot;firstGlyphOfWord&quot;:true,&quot;word&quot;:3}"></path><path d="M430.60131,263.34341v-4.74258h4.74258l0.55146,1.98527h1.4338v-3.74995h-6.72784l-4.19112,0.11029v1.21322l1.87497,0.44117v11.91159l-1.87497,0.44117v1.32351h11.13954v-3.97053h-1.4338l-0.44117,2.20585h-5.07346v-5.40433h5.07346v-1.76468z" data-paper-data="{&quot;glyphName&quot;:&quot;E&quot;,&quot;glyphIndex&quot;:10,&quot;word&quot;:3}"></path><path d="M452.99756,270.51242h-4.52199v-11.91159l1.87497,-0.44117v-1.32351l-6.06609,0.11029v1.21322l1.87497,0.44117v11.91159l-1.87497,0.44117v1.32351h10.69837v-4.30141h-1.5441z" data-paper-data="{&quot;glyphName&quot;:&quot;L&quot;,&quot;glyphIndex&quot;:11,&quot;word&quot;:3}"></path><path d="M469.32444,270.51242h-4.52199v-11.91159l1.87497,-0.44117v-1.32351l-6.06609,0.11029v1.21322l1.87497,0.44117v11.91159l-1.87497,0.44117v1.32351h10.69837v-4.30141h-1.5441z" data-paper-data="{&quot;glyphName&quot;:&quot;L&quot;,&quot;glyphIndex&quot;:12,&quot;lastGlyphOfWord&quot;:true,&quot;word&quot;:3}"></path></g><g data-paper-data="{&quot;stacked&quot;:true,&quot;isPrimaryText&quot;:true}"><path d="M78.69029,228.48251h20.26114v-5.55547l-5.22868,-1.96076v-12.41812h17.12393v12.41812l-5.22868,1.96076v5.55547h20.26114v-5.55547l-4.90189,-1.96076v-30.71851l4.90189,-1.96076v-5.88227l-20.26114,0.32679v5.55547l5.22868,1.96076v10.45736h-17.12393v-10.45736l5.22868,-1.96076v-5.88227l-20.26114,0.32679v5.55547l4.90189,1.96076v30.71851l-4.90189,1.96076z" data-paper-data="{&quot;glyphName&quot;:&quot;H&quot;,&quot;glyphIndex&quot;:0,&quot;firstGlyphOfWord&quot;:true,&quot;word&quot;:1,&quot;line&quot;:1,&quot;firstGlyphOfFirstLine&quot;:true}" fill="#ffffff"></path><path d="M159.34271,201.03193h-13.20242v-10.78416h10.78416l1.63396,4.77117h5.88227v-12.61419h-18.30039l-15.03246,0.32679v5.55547l4.90189,1.96076v30.71851l-4.90189,1.96076v5.55547h34.11715v-13.20242h-5.88227l-1.50325,5.3594h-11.69918v-12.41812h13.20242z" data-paper-data="{&quot;glyphName&quot;:&quot;E&quot;,&quot;glyphIndex&quot;:1,&quot;word&quot;:1,&quot;line&quot;:1}" fill="#ffffff"></path><path d="M195.81276,220.63949h-9.99985v-30.39171l4.90189,-1.96076v-5.88227l-19.93435,0.32679v5.55547l4.90189,1.96076v30.71851l-4.90189,1.96076v5.55547h32.67926v-15.03246h-6.20906z" data-paper-data="{&quot;glyphName&quot;:&quot;L&quot;,&quot;glyphIndex&quot;:2,&quot;word&quot;:1,&quot;line&quot;:1}" fill="#ffffff"></path><path d="M231.10636,220.63949h-9.99985v-30.39171l4.90189,-1.96076v-5.88227l-19.93435,0.32679v5.55547l4.90189,1.96076v30.71851l-4.90189,1.96076v5.55547h32.67926v-15.03246h-6.20906z" data-paper-data="{&quot;glyphName&quot;:&quot;L&quot;,&quot;glyphIndex&quot;:3,&quot;word&quot;:1,&quot;line&quot;:1}" fill="#ffffff"></path><path d="M289.40617,228.48251h19.73827v-5.55547l-4.70581,-1.96076v-10.58808h2.28755c3.464,0 4.05223,1.04574 6.27442,6.01298l5.49012,12.09133h12.09133v-5.55547l-4.44438,-1.63396l-4.37902,-8.95412c-1.04574,-2.15683 -2.02611,-3.39864 -2.74506,-4.2483c4.44438,-2.22219 7.38551,-6.20906 7.38551,-12.35276c0,-8.88876 -6.27442,-13.33314 -16.99322,-13.33314h-4.96725l-15.03246,0.32679v5.55547l4.90189,1.96076v30.71851l-4.90189,1.96076zM304.43863,203.51556v-13.26778h5.3594c4.05223,0 6.53585,2.6797 6.53585,6.40514c0,4.37902 -3.00649,6.86264 -8.16982,6.86264z" data-paper-data="{&quot;glyphName&quot;:&quot;R&quot;,&quot;glyphIndex&quot;:5,&quot;word&quot;:1,&quot;line&quot;:1}" fill="#ffffff"></path><path d="M365.67956,196.45684h6.07834l0.32679,-11.76453c0,0 -7.32015,-3.07185 -15.22854,-3.07185c-13.3985,0 -22.02582,9.15019 -22.02582,24.50945c0,15.16318 7.64695,23.13692 20.91473,23.13692c11.04559,0 17.77752,-4.37902 17.77752,-4.37902v-13.33314l4.44438,-1.50325v-5.68619l-18.82325,0.32679v5.3594l4.90189,1.50325v8.23517c0,0 -3.79079,1.17645 -7.18944,1.17645c-6.99336,0 -11.11095,-4.5751 -11.11095,-15.16318c0,-10.91487 3.92151,-16.01284 10.91487,-16.01284c4.31366,0 7.38551,1.04574 7.38551,1.04574z" data-paper-data="{&quot;glyphName&quot;:&quot;G&quot;,&quot;glyphIndex&quot;:6,&quot;word&quot;:1,&quot;line&quot;:1}" fill="#ffffff"></path><path d="M411.43053,201.03193h-13.20242v-10.78416h10.78416l1.63396,4.77117h5.88227v-12.61419h-18.30039l-15.03246,0.32679v5.55547l4.90189,1.96076v30.71851l-4.90189,1.96076v5.55547h34.11715v-13.20242h-5.88227l-1.50325,5.3594h-11.69918v-12.41812h13.20242z" data-paper-data="{&quot;glyphName&quot;:&quot;E&quot;,&quot;glyphIndex&quot;:7,&quot;word&quot;:1,&quot;line&quot;:1}" fill="#ffffff"></path><path d="M425.15582,223.38455c0,3.79079 1.8954,5.94763 5.49012,5.94763c2.94113,0 5.62083,-2.15683 5.62083,-5.94763c0,-3.72544 -1.8954,-5.88227 -5.49012,-5.88227c-2.94113,0 -5.62083,2.15683 -5.62083,5.88227z" data-paper-data="{&quot;glyphName&quot;:&quot;.&quot;,&quot;glyphIndex&quot;:8,&quot;lastGlyphOfWord&quot;:true,&quot;word&quot;:1,&quot;line&quot;:1,&quot;lastGlyphOfFirstLine&quot;:true}" fill="#ffffff"></path><path d="M78.69029,287.59551h19.93435v-5.55547l-4.90189,-1.96076v-30.71851l4.90189,-1.96076v-5.88227l-19.93435,0.32679v5.55547l4.90189,1.96076v30.71851l-4.90189,1.96076z" data-paper-data="{&quot;glyphName&quot;:&quot;I&quot;,&quot;glyphIndex&quot;:9,&quot;firstGlyphOfWord&quot;:true,&quot;word&quot;:2,&quot;line&quot;:2,&quot;firstGlyphOfSecondLine&quot;:true}" fill="#298fc2"></path><path d="M103.52653,287.59551h18.95397v-5.55547l-5.09796,-1.96076v-22.09118l17.51608,29.60741h10.91487v-38.23474l4.90189,-1.96076v-5.88227l-18.62718,0.32679v5.55547l4.77117,1.96076v22.35261l-17.6468,-30.19564l-15.68605,0.32679v5.55547l4.90189,1.96076v30.71851l-4.90189,1.96076z" data-paper-data="{&quot;glyphName&quot;:&quot;N&quot;,&quot;glyphIndex&quot;:10,&quot;word&quot;:2,&quot;line&quot;:2}" fill="#298fc2"></path><path d="M186.79329,256.22342h6.40514l0.32679,-12.41812c0,0 -7.32015,-3.07185 -15.22854,-3.07185c-13.3985,0 -22.02582,9.15019 -22.02582,24.50945c0,15.16318 7.64695,23.13692 20.91473,23.13692c10.26129,0 17.12393,-7.12408 17.12393,-7.12408l-3.59472,-5.88227c0,0 -5.88227,4.5751 -12.41812,4.5751c-6.86264,0 -11.11095,-4.44438 -11.11095,-15.03246c0,-10.91487 3.92151,-16.01284 10.78416,-16.01284c4.2483,0 7.32015,1.04574 7.32015,1.04574z" data-paper-data="{&quot;glyphName&quot;:&quot;C&quot;,&quot;glyphIndex&quot;:11,&quot;lastGlyphOfWord&quot;:true,&quot;word&quot;:2,&quot;line&quot;:2,&quot;lastGlyphOfSecondLine&quot;:true}" fill="#298fc2"></path><g data-paper-data="{&quot;fillRule&quot;:&quot;evenodd&quot;,&quot;isIcon&quot;:&quot;true&quot;,&quot;iconType&quot;:&quot;icon&quot;,&quot;rawIconId&quot;:&quot;32834&quot;,&quot;combineTerms&quot;:&quot;Bomb&quot;,&quot;selectedEffects&quot;:{&quot;container&quot;:&quot;&quot;,&quot;transformation&quot;:&quot;&quot;,&quot;pattern&quot;:&quot;&quot;},&quot;iconStyle&quot;:&quot;icon-in-text&quot;,&quot;bounds&quot;:{&quot;x&quot;:241.36803900830276,&quot;y&quot;:181.62019150652705,&quot;width&quot;:42.15595110507823,&quot;height&quot;:47.711944660913986},&quot;suitableAsStandaloneIcon&quot;:true}" fill="#ffffff"><path d="M283.52399,204.82316c0,14.70498 -8.82299,24.50897 -21.89497,24.50897c-13.07198,0 -20.26098,-8.16999 -20.26098,-23.52897c0,-15.03298 8.29999,-24.18297 21.56797,-24.18297c13.07198,0 20.58798,8.62799 20.58798,23.20297zM276.84325,192.84843c-0.38916,-0.38916 -3.46349,0.23349 -3.46349,0.23349c0,0 0.62265,-3.07433 0.23349,-3.46349l-2.52951,-2.52951c-0.42807,-0.42807 -0.89506,-0.62265 -1.36205,-0.62265c-0.70048,0 -1.12855,0.46699 -1.20638,0.5059l-5.44818,5.44818c-0.8942,0.85533 0.7362,5.36155 0.7782,5.37035c-0.02323,-0.00249 -3.55696,-0.37339 -8.32782,4.39746c-2.72409,2.72409 -4.08613,4.04722 -8.79492,8.79492c-1.16747,1.16747 -1.79012,2.80192 -1.79012,4.63095c0,0.81723 0.81723,2.52951 2.06253,3.77481c1.2453,1.2453 2.9965,2.06253 3.77481,2.06253c1.82903,0.03892 3.46348,-0.62265 4.63095,-1.79012c4.7477,-4.70878 6.07083,-6.07083 8.79492,-8.79492c4.78661,-4.78662 4.39746,-8.32793 4.39746,-8.32793c0,0 4.47529,1.63445 5.37035,0.7394l5.48709,-5.44818c0.03892,0 0.5059,-0.46699 0.5059,-1.12855c0,-0.46699 -0.19458,-0.93397 -0.62265,-1.36205zM265.86906,193.51c-0.15566,-0.5059 0.03892,-1.08964 0.46699,-1.40096c0.23349,-0.19458 0.38916,-0.35024 0.5059,-0.35024c2.17927,-0.97289 2.72409,-1.01181 2.76301,-1.01181c0.19458,-0.03892 0.54482,0 0.77831,0.23349c0.85614,0.89506 -0.27241,2.80192 -2.14036,4.86445c-0.35024,0.27241 -0.66157,0.31132 -1.05072,0.15566c-0.5059,-0.19458 -0.85614,-0.62265 -0.97289,-1.12855zM271.55073,200.24239c-0.5059,-0.15566 -0.97289,-0.5059 -1.12855,-0.97289c-0.15566,-0.38916 -0.07783,-0.7394 0.15566,-0.97289c2.06253,-1.90686 3.96939,-3.03541 4.86445,-2.14036c0.23349,0.23349 0.27241,0.58373 0.23349,0.77831c0,0.03892 -0.03892,0.58373 -1.01181,2.76301c-0.03892,0.07783 -0.19458,0.27241 -0.35024,0.5059c-0.35024,0.35024 -0.89506,0.54482 -1.40096,0.38916l-1.36205,-0.35024z" data-paper-data="{&quot;isPathIcon&quot;:true}"></path></g></g></g></g></svg>
