<svg xmlns:mydata="http://www.w3.org/2000/svg" mydata:contrastcolor="000000" mydata:template="InvertedHex1" mydata:presentation="2.5" mydata:layouttype="undefined" mydata:specialfontid="undefined" mydata:id1="065" mydata:id2="075" mydata:companyname="Hellorge.inc" style="background-color: #000" mydata:companytagline="Arsenal of hell" version="1.1" xmlns="http://www.w3.org/2000/svg" xmlns:xlink="http://www.w3.org/1999/xlink" viewBox="0 0 550 470"><g fill="#ffffff" fill-rule="none" stroke="none" stroke-width="1" stroke-linecap="butt" stroke-linejoin="miter" stroke-miterlimit="10" stroke-dasharray="" stroke-dashoffset="0" font-family="none" font-weight="none" font-size="none" text-anchor="none" style="mix-blend-mode: normal"><g data-paper-data="{&quot;isGlobalGroup&quot;:true,&quot;bounds&quot;:{&quot;x&quot;:82.620029854959,&quot;y&quot;:114.99999999999999,&quot;width&quot;:384.759940290082,&quot;height&quot;:240}}"><g data-paper-data="{&quot;isSecondaryText&quot;:true}" fill-rule="nonzero"><path d="M147.26653,354.8561h-2.2448l-0.86339,-2.07213h-3.82768l-0.849,2.07213h-2.27358l4.51839,-10.79232h1.03606zM143.43885,351.02842l-1.19435,-2.87795l-1.23752,2.87795z" data-paper-data="{&quot;glyphName&quot;:&quot;A&quot;,&quot;glyphIndex&quot;:0,&quot;firstGlyphOfWord&quot;:true,&quot;word&quot;:1}"></path><path d="M168.82551,354.8561h-2.34553l-1.92823,-4.17303h-1.43898v4.17303h-2.1153v-10.79232h4.05791c0.41251,0 0.80583,0.08634 1.17996,0.25902c0.37413,0.17268 0.6979,0.41011 0.97131,0.71229c0.27341,0.30219 0.49165,0.65473 0.65473,1.05765c0.16308,0.40291 0.24463,0.83461 0.24463,1.29508c0,0.57559 -0.12711,1.10561 -0.38133,1.59007c-0.25422,0.48446 -0.61157,0.88017 -1.07204,1.18716zM166.01951,347.38781c0,-0.1439 -0.02638,-0.2878 -0.07914,-0.43169c-0.05276,-0.1439 -0.12231,-0.27341 -0.20865,-0.38852c-0.08634,-0.11512 -0.18947,-0.20865 -0.30938,-0.2806c-0.11991,-0.07195 -0.24223,-0.10792 -0.36694,-0.10792h-1.94262v2.37431h1.94262c0.12471,0 0.24702,-0.03597 0.36694,-0.10792c0.11991,-0.07195 0.22304,-0.16308 0.30938,-0.27341c0.08634,-0.11032 0.15589,-0.23503 0.20865,-0.37413c0.05276,-0.1391 0.07914,-0.2758 0.07914,-0.41011z" data-paper-data="{&quot;glyphName&quot;:&quot;R&quot;,&quot;glyphIndex&quot;:1,&quot;word&quot;:1}"></path><path d="M186.80068,351.67596c0,0.48925 -0.09353,0.93533 -0.2806,1.33825c-0.18707,0.40291 -0.44129,0.75306 -0.76266,1.05045c-0.32137,0.29739 -0.69311,0.52762 -1.11521,0.69071c-0.4221,0.16308 -0.86818,0.24463 -1.33825,0.24463c-0.43169,0 -0.82981,-0.06715 -1.19435,-0.20146c-0.36454,-0.1343 -0.69071,-0.32377 -0.9785,-0.5684c-0.2878,-0.24463 -0.53482,-0.53722 -0.74107,-0.87778c-0.20625,-0.34056 -0.36214,-0.71229 -0.46767,-1.11521l1.92823,-0.89217c0.09593,0.37413 0.26381,0.7027 0.50364,0.9857c0.23983,0.283 0.57079,0.4245 0.99289,0.4245c0.1439,0 0.29739,-0.02638 0.46047,-0.07914c0.16308,-0.05276 0.30938,-0.12471 0.43889,-0.21585c0.12951,-0.09114 0.23743,-0.20386 0.32377,-0.33816c0.08634,-0.1343 0.12951,-0.283 0.12951,-0.44608c0,-0.23024 -0.10313,-0.4245 -0.30938,-0.58279c-0.20625,-0.15829 -0.46287,-0.30938 -0.76985,-0.45328c-0.30698,-0.1439 -0.64274,-0.29739 -1.00728,-0.46047c-0.36454,-0.16308 -0.7003,-0.36934 -1.00728,-0.61876c-0.30698,-0.24942 -0.5636,-0.5588 -0.76985,-0.92814c-0.20625,-0.36934 -0.30938,-0.83221 -0.30938,-1.38861c0,-0.43169 0.07914,-0.849 0.23743,-1.25191c0.15829,-0.40291 0.37653,-0.75786 0.65473,-1.06484c0.2782,-0.30698 0.60917,-0.55161 0.99289,-0.73388c0.38373,-0.18227 0.80103,-0.27341 1.25191,-0.27341c0.74827,0 1.39101,0.20865 1.92823,0.62595c0.53722,0.4173 0.93054,0.97131 1.17996,1.66202l-1.9714,0.92095c-0.07675,-0.25902 -0.20865,-0.48446 -0.39572,-0.67632c-0.18707,-0.19186 -0.4197,-0.2878 -0.6979,-0.2878c-0.30698,0 -0.5636,0.10552 -0.76985,0.31657c-0.20625,0.21105 -0.30938,0.46527 -0.30938,0.76266c0,0.23024 0.10313,0.4197 0.30938,0.5684c0.20625,0.14869 0.46287,0.29259 0.76985,0.43169c0.30698,0.1391 0.64274,0.29019 1.00728,0.45328c0.36454,0.16308 0.7003,0.37174 1.00728,0.62595c0.30698,0.25422 0.5636,0.5684 0.76985,0.94253c0.20625,0.37413 0.30938,0.8442 0.30938,1.4102z" data-paper-data="{&quot;glyphName&quot;:&quot;S&quot;,&quot;glyphIndex&quot;:2,&quot;word&quot;:1}"></path><path d="M205.56525,354.8561h-6.08687v-10.79232h6.08687v2.00018h-3.92841v2.48943h3.46793v1.81311h-3.46793v2.48943h3.92841z" data-paper-data="{&quot;glyphName&quot;:&quot;E&quot;,&quot;glyphIndex&quot;:3,&quot;word&quot;:1}"></path><path d="M226.73301,354.8561h-1.5397l-4.20181,-6.05809v6.05809h-2.31675v-10.79232h1.49654l4.24498,6.1876v-6.1876h2.31675z" data-paper-data="{&quot;glyphName&quot;:&quot;N&quot;,&quot;glyphIndex&quot;:4,&quot;word&quot;:1}"></path><path d="M250.60666,354.8561h-2.2448l-0.86339,-2.07213h-3.82768l-0.849,2.07213h-2.27358l4.51839,-10.79232h1.03606zM246.77898,351.02842l-1.19435,-2.87795l-1.23752,2.87795z" data-paper-data="{&quot;glyphName&quot;:&quot;A&quot;,&quot;glyphIndex&quot;:5,&quot;word&quot;:1}"></path><path d="M269.45318,354.8561h-5.84225v-10.79232h2.15846v8.79215h3.68378z" data-paper-data="{&quot;glyphName&quot;:&quot;L&quot;,&quot;glyphIndex&quot;:6,&quot;lastGlyphOfWord&quot;:true,&quot;word&quot;:1}"></path><path d="M304.91388,349.45994c0,0.76745 -0.1463,1.48694 -0.43889,2.15846c-0.29259,0.67152 -0.69311,1.2591 -1.20155,1.76275c-0.50844,0.50364 -1.10082,0.89936 -1.77714,1.18716c-0.67632,0.2878 -1.39341,0.43169 -2.15127,0.43169c-0.76745,0 -1.48694,-0.1439 -2.15846,-0.43169c-0.67152,-0.2878 -1.2615,-0.68351 -1.76994,-1.18716c-0.50844,-0.50364 -0.90895,-1.09122 -1.20155,-1.76275c-0.29259,-0.67152 -0.43889,-1.39101 -0.43889,-2.15846c0,-0.75786 0.1463,-1.47495 0.43889,-2.15127c0.29259,-0.67632 0.69311,-1.2639 1.20155,-1.76275c0.50844,-0.49885 1.09842,-0.89456 1.76994,-1.18716c0.67152,-0.29259 1.39101,-0.43889 2.15846,-0.43889c0.75786,0 1.47495,0.1463 2.15127,0.43889c0.67632,0.29259 1.2687,0.68831 1.77714,1.18716c0.50844,0.49885 0.90895,1.08643 1.20155,1.76275c0.29259,0.67632 0.43889,1.39341 0.43889,2.15127zM302.75541,349.45994c0,-0.46047 -0.09114,-0.89696 -0.27341,-1.30947c-0.18227,-0.41251 -0.4269,-0.77225 -0.73388,-1.07923c-0.30698,-0.30698 -0.66912,-0.54921 -1.08643,-0.72668c-0.4173,-0.17747 -0.85619,-0.26621 -1.31666,-0.26621c-0.47007,0 -0.91135,0.08874 -1.32386,0.26621c-0.41251,0.17747 -0.77465,0.4197 -1.08643,0.72668c-0.31178,0.30698 -0.5564,0.66673 -0.73388,1.07923c-0.17747,0.41251 -0.26621,0.849 -0.26621,1.30947c0,0.46047 0.09114,0.89696 0.27341,1.30947c0.18227,0.41251 0.4269,0.77225 0.73388,1.07923c0.30698,0.30698 0.66912,0.54921 1.08643,0.72668c0.4173,0.17747 0.85619,0.26621 1.31666,0.26621c0.46047,0 0.89936,-0.08874 1.31666,-0.26621c0.4173,-0.17747 0.77945,-0.4197 1.08643,-0.72668c0.30698,-0.30698 0.55161,-0.66673 0.73388,-1.07923c0.18227,-0.41251 0.27341,-0.849 0.27341,-1.30947z" data-paper-data="{&quot;glyphName&quot;:&quot;O&quot;,&quot;glyphIndex&quot;:7,&quot;firstGlyphOfWord&quot;:true,&quot;word&quot;:2}"></path><path d="M325.23711,346.06396h-3.92841v2.48943h3.58305v1.8275h-3.58305v4.47522h-2.15846v-10.79232h6.08687z" data-paper-data="{&quot;glyphName&quot;:&quot;F&quot;,&quot;glyphIndex&quot;:8,&quot;lastGlyphOfWord&quot;:true,&quot;word&quot;:2}"></path><path d="M357.29641,354.8561h-2.15846v-4.47522h-3.35282v4.47522h-2.15846v-10.79232h2.15846v4.48961h3.35282v-4.48961h2.15846z" data-paper-data="{&quot;glyphName&quot;:&quot;H&quot;,&quot;glyphIndex&quot;:9,&quot;firstGlyphOfWord&quot;:true,&quot;word&quot;:3}"></path><path d="M377.09823,354.8561h-6.08687v-10.79232h6.08687v2.00018h-3.92841v2.48943h3.46793v1.81311h-3.46793v2.48943h3.92841z" data-paper-data="{&quot;glyphName&quot;:&quot;E&quot;,&quot;glyphIndex&quot;:10,&quot;word&quot;:3}"></path><path d="M395.23905,354.8561h-5.84225v-10.79232h2.15846v8.79215h3.68378z" data-paper-data="{&quot;glyphName&quot;:&quot;L&quot;,&quot;glyphIndex&quot;:11,&quot;word&quot;:3}"></path><path d="M412.79192,354.8561h-5.84225v-10.79232h2.15846v8.79215h3.68378z" data-paper-data="{&quot;glyphName&quot;:&quot;L&quot;,&quot;glyphIndex&quot;:12,&quot;lastGlyphOfWord&quot;:true,&quot;word&quot;:3}"></path></g><g data-paper-data="{&quot;isPrimaryText&quot;:true}" fill-rule="nonzero"><path d="M113.52444,292.6065v39.18238h-3.80787v-18.3219h-23.2335v18.3219h-3.86305v-39.18238h3.86305v17.43892h23.2335v-17.43892z" data-paper-data="{&quot;glyphName&quot;:&quot;H&quot;,&quot;glyphIndex&quot;:0,&quot;firstGlyphOfWord&quot;:true,&quot;word&quot;:1}"></path><path d="M149.67157,328.36732v3.42156h-26.32394v-39.18238h25.82726v3.42156h-21.96421v14.12773h19.1497v3.256h-19.1497v14.95553z" data-paper-data="{&quot;glyphName&quot;:&quot;E&quot;,&quot;glyphIndex&quot;:1,&quot;word&quot;:1}"></path><path d="M156.95618,331.78888v-39.18238h3.86305v35.76082h22.62645v3.42156z" data-paper-data="{&quot;glyphName&quot;:&quot;L&quot;,&quot;glyphIndex&quot;:2,&quot;word&quot;:1}"></path><path d="M189.12988,331.78888v-39.18238h3.86305v35.76082h22.62645v3.42156z" data-paper-data="{&quot;glyphName&quot;:&quot;L&quot;,&quot;glyphIndex&quot;:3,&quot;word&quot;:1}"></path><path d="M234.60352,332.06481c-2.72253,0 -5.21512,-0.56106 -7.47776,-1.68319c-2.26264,-1.12212 -4.20337,-2.61216 -5.82217,-4.4701c-1.6188,-1.85794 -2.8697,-3.98262 -3.75268,-6.37404c-0.88298,-2.39141 -1.32447,-4.83801 -1.32447,-7.3398c0,-2.61216 0.46908,-5.11394 1.40725,-7.50536c0.93817,-2.39141 2.23505,-4.50689 3.89064,-6.34644c1.65559,-1.83955 3.60551,-3.30199 5.84976,-4.38732c2.24425,-1.08533 4.67245,-1.628 7.28461,-1.628c2.72253,0 5.21512,0.57946 7.47776,1.73837c2.26264,1.15892 4.19417,2.67654 5.79458,4.55288c1.60041,1.87634 2.8421,4.00102 3.72509,6.37404c0.88298,2.37302 1.32447,4.79202 1.32447,7.25702c0,2.61216 -0.46908,5.11394 -1.40725,7.50536c-0.93817,2.39141 -2.22585,4.4977 -3.86305,6.31885c-1.6372,1.82115 -3.57792,3.2744 -5.82217,4.35973c-2.24425,1.08533 -4.67245,1.628 -7.28461,1.628zM220.08948,312.19769c0,2.13388 0.34951,4.18497 1.04854,6.15329c0.69903,1.96832 1.69238,3.71589 2.98007,5.24271c1.28768,1.52683 2.81451,2.74093 4.58048,3.64231c1.76597,0.90138 3.73428,1.35207 5.90495,1.35207c2.20746,0 4.21257,-0.47828 6.01532,-1.43485c1.80276,-0.95657 3.32958,-2.20746 4.58048,-3.75268c1.25089,-1.54522 2.21666,-3.29279 2.89729,-5.24271c0.68063,-1.94992 1.02095,-3.93663 1.02095,-5.96014c0,-2.13388 -0.35871,-4.18497 -1.07614,-6.15329c-0.71742,-1.96832 -1.71998,-3.70669 -3.00766,-5.21512c-1.28768,-1.50843 -2.81451,-2.71333 -4.58048,-3.61471c-1.76597,-0.90138 -3.71589,-1.35207 -5.84976,-1.35207c-2.20746,0 -4.21257,0.46908 -6.01532,1.40725c-1.80276,0.93817 -3.32958,2.17986 -4.58048,3.72509c-1.25089,1.54522 -2.21666,3.29279 -2.89729,5.24271c-0.68063,1.94992 -1.02095,3.93663 -1.02095,5.96014z" data-paper-data="{&quot;glyphName&quot;:&quot;O&quot;,&quot;glyphIndex&quot;:4,&quot;word&quot;:1}"></path><path d="M260.26522,331.78888v-39.18238h16.55594c1.69238,0 3.2468,0.35871 4.66326,1.07614c1.41645,0.71742 2.63975,1.65559 3.6699,2.81451c1.03015,1.15892 1.83035,2.47419 2.40061,3.94583c0.57026,1.47164 0.85539,2.96167 0.85539,4.4701c0,1.43485 -0.21155,2.80531 -0.63464,4.11139c-0.4231,1.30608 -1.01175,2.48339 -1.76597,3.53193c-0.75421,1.04854 -1.66479,1.93153 -2.73173,2.64895c-1.06694,0.71742 -2.26264,1.2049 -3.58712,1.46244l9.60244,15.12109h-4.35973l-9.21614,-14.45885h-11.58915v14.45885zM264.12827,313.90847h12.80326c1.14052,0 2.17986,-0.24834 3.11803,-0.74502c0.93817,-0.49668 1.73837,-1.16811 2.40061,-2.01431c0.66224,-0.84619 1.17731,-1.80276 1.54522,-2.8697c0.36791,-1.06694 0.55186,-2.18906 0.55186,-3.36637c0,-1.17731 -0.21155,-2.30863 -0.63464,-3.39397c-0.4231,-1.08533 -0.99336,-2.0327 -1.71078,-2.8421c-0.71742,-0.8094 -1.56362,-1.45324 -2.53858,-1.93153c-0.97496,-0.47828 -1.99591,-0.71742 -3.06285,-0.71742h-12.47214z" data-paper-data="{&quot;glyphName&quot;:&quot;R&quot;,&quot;glyphIndex&quot;:5,&quot;word&quot;:1}"></path><path d="M324.61262,326.04949c-3.64231,4.01022 -7.83648,6.01532 -12.58251,6.01532c-2.64895,0 -5.08635,-0.57026 -7.3122,-1.71078c-2.22585,-1.14052 -4.15738,-2.64895 -5.79458,-4.52529c-1.6372,-1.87634 -2.91568,-4.00102 -3.83546,-6.37404c-0.91977,-2.37302 -1.37966,-4.81042 -1.37966,-7.3122c0,-2.61216 0.45069,-5.11394 1.35207,-7.50536c0.90138,-2.39141 2.16147,-4.4977 3.78027,-6.31885c1.6188,-1.82115 3.53193,-3.2744 5.73939,-4.35973c2.20746,-1.08533 4.61727,-1.628 7.22943,-1.628c1.91313,0 3.6607,0.21155 5.24271,0.63464c1.58201,0.4231 2.98927,1.01175 4.22176,1.76597c1.2325,0.75421 2.29944,1.65559 3.20081,2.70414c0.90138,1.04854 1.66479,2.19826 2.29024,3.44915l-2.98007,1.98671c-1.28768,-2.4282 -2.96167,-4.21257 -5.02197,-5.35309c-2.06029,-1.14052 -4.39652,-1.71078 -7.00868,-1.71078c-2.17067,0 -4.12979,0.45989 -5.87736,1.37966c-1.74757,0.91977 -3.23761,2.14307 -4.4701,3.6699c-1.2325,1.52683 -2.17986,3.2744 -2.8421,5.24271c-0.66224,1.96832 -0.99336,4.00102 -0.99336,6.0981c0,2.20746 0.37711,4.30454 1.13132,6.29126c0.75421,1.98671 1.79356,3.72509 3.11803,5.21512c1.32447,1.49003 2.87889,2.67654 4.66326,3.55953c1.78436,0.88298 3.72509,1.32447 5.82217,1.32447c2.24425,0 4.38732,-0.52427 6.42922,-1.57281c2.0419,-1.04854 4.00102,-2.71333 5.87736,-4.99437v-6.512h-8.71946v-2.98007h11.97546v19.26007h-3.256z" data-paper-data="{&quot;glyphName&quot;:&quot;G&quot;,&quot;glyphIndex&quot;:6,&quot;word&quot;:1}"></path><path d="M362.13941,328.36732v3.42156h-26.32394v-39.18238h25.82726v3.42156h-21.96421v14.12773h19.1497v3.256h-19.1497v14.95553z" data-paper-data="{&quot;glyphName&quot;:&quot;E&quot;,&quot;glyphIndex&quot;:7,&quot;word&quot;:1}"></path><path d="M368.09954,331.78888v-5.40827h3.256v5.40827z" data-paper-data="{&quot;glyphName&quot;:&quot;.&quot;,&quot;glyphIndex&quot;:8,&quot;word&quot;:1}"></path><path d="M379.85426,331.78888v-39.18238h3.86305v39.18238z" data-paper-data="{&quot;glyphName&quot;:&quot;I&quot;,&quot;glyphIndex&quot;:9,&quot;word&quot;:1}"></path><path d="M397.40355,299.78074v32.00814h-3.86305v-39.18238h2.98007l25.93763,32.61519v-32.56001h3.86305v39.12719h-3.36637z" data-paper-data="{&quot;glyphName&quot;:&quot;N&quot;,&quot;glyphIndex&quot;:10,&quot;word&quot;:1}"></path><path d="M433.55068,311.92176c0,-2.35462 0.4139,-4.70005 1.2417,-7.03627c0.8278,-2.33623 2.0327,-4.42411 3.61471,-6.26366c1.58201,-1.83955 3.53193,-3.33878 5.84976,-4.4977c2.31783,-1.15892 4.94839,-1.73837 7.89166,-1.73837c3.49514,0 6.48441,0.79101 8.9678,2.37302c2.48339,1.58201 4.31374,3.64231 5.49105,6.18088l-3.03525,1.87634c-0.62545,-1.28768 -1.38886,-2.37302 -2.29024,-3.256c-0.90138,-0.88298 -1.86714,-1.60041 -2.89729,-2.15227c-1.03015,-0.55186 -2.09709,-0.94737 -3.20081,-1.18651c-1.10373,-0.23914 -2.18906,-0.35871 -3.256,-0.35871c-2.35462,0 -4.43331,0.47828 -6.23607,1.43485c-1.80276,0.95657 -3.32038,2.20746 -4.55288,3.75268c-1.2325,1.54522 -2.16147,3.28359 -2.78692,5.21512c-0.62545,1.93153 -0.93817,3.89064 -0.93817,5.87736c0,2.17067 0.37711,4.24936 1.13132,6.23607c0.75421,1.98671 1.78436,3.74348 3.09044,5.27031c1.30608,1.52683 2.8513,2.74093 4.63566,3.64231c1.78436,0.90138 3.72509,1.35207 5.82217,1.35207c1.10373,0 2.23505,-0.13797 3.39397,-0.4139c1.15892,-0.27593 2.28104,-0.71742 3.36637,-1.32447c1.08533,-0.60705 2.08789,-1.36127 3.00766,-2.26264c0.91977,-0.90138 1.69238,-1.99591 2.31783,-3.28359l3.20081,1.65559c-0.62545,1.47164 -1.50843,2.76852 -2.64895,3.89064c-1.14052,1.12212 -2.40981,2.06949 -3.80787,2.8421c-1.39806,0.77261 -2.87889,1.36127 -4.44251,1.76597c-1.56362,0.4047 -3.09964,0.60705 -4.60807,0.60705c-2.68574,0 -5.15074,-0.58866 -7.39498,-1.76597c-2.24425,-1.17731 -4.17577,-2.71333 -5.79458,-4.60807c-1.6188,-1.89473 -2.87889,-4.04701 -3.78027,-6.45681c-0.90138,-2.40981 -1.35207,-4.86561 -1.35207,-7.36739z" data-paper-data="{&quot;glyphName&quot;:&quot;C&quot;,&quot;glyphIndex&quot;:11,&quot;lastGlyphOfWord&quot;:true,&quot;word&quot;:1}"></path></g><g data-paper-data="{&quot;fillRule&quot;:&quot;evenodd&quot;,&quot;isIcon&quot;:&quot;true&quot;,&quot;iconType&quot;:&quot;icon&quot;,&quot;rawIconId&quot;:&quot;3653173&quot;,&quot;selectedEffects&quot;:{&quot;container&quot;:&quot;&quot;,&quot;transformation&quot;:&quot;&quot;,&quot;pattern&quot;:&quot;&quot;},&quot;combineTerms&quot;:&quot;Armageddon &quot;,&quot;isDetailed&quot;:&quot;false&quot;,&quot;bounds&quot;:{&quot;x&quot;:200.82029788253246,&quot;y&quot;:114.99999999999999,&quot;width&quot;:148.3594042349351,&quot;height&quot;:149.010567312891},&quot;iconStyle&quot;:&quot;standalone&quot;,&quot;suitableAsStandaloneIcon&quot;:true}" fill-rule="evenodd"><path d="M329.30865,117.85033c1.16102,0.0947 1.92674,0.15715 1.36278,-0.25724c-6.24455,-4.58824 -13.89901,-2.17504 -16.08199,0.27051c-1.75958,1.97125 -1.75958,4.54207 -2.67089,4.69367c-0.40835,0.06803 -0.3903,-1.51652 -0.37391,-2.95775c0.01722,-1.50199 0.0326,-2.84837 -0.43843,-2.00643c-4.5097,8.0608 0.36138,14.13084 5.20237,20.16328c0.92433,1.15199 1.84767,2.30249 2.70432,3.46535c0.09477,0.12854 -0.67662,-0.40751 -1.75407,-1.15634c-2.29747,-1.59662 -5.98748,-4.16103 -5.64599,-3.31575c1.88144,4.65713 3.23084,5.591 6.59206,8.52063c0.03494,0.03042 0.88289,-0.56363 2.12431,-1.43314c3.29135,-2.306 9.34802,-6.54893 10.34223,-6.22165c0.66776,0.21981 -3.81503,6.62967 -6.13807,9.95126c-0.80901,1.15684 -1.35609,1.9391 -1.33235,1.95482l0.55661,0.35887c5.22176,3.30572 11.17932,5.35632 14.54805,5.86261l0.35051,0.04814l-0.06586,-0.00384c-2.76015,-0.1959 -10.22472,-0.68515 -9.78628,-0.53972c9.63318,3.19256 16.07547,1.19562 17.47401,-1.82327c2.6301,-5.67624 -0.08993,-9.87521 -1.9585,-12.75972c-1.0263,-1.58441 -1.79586,-2.77218 -1.28087,-3.59054c0.29953,-0.47587 2.27073,1.90585 3.90028,3.87486c1.35141,1.63289 2.46797,2.98195 2.20103,2.18164c-6.52385,-19.56723 -18.06004,-22.21989 -22.65148,-23.27568c-1.22186,-0.28096 -1.95198,-0.44885 -1.96468,-0.7923c-0.06017,-1.60743 2.88935,-1.36687 4.78483,-1.21225zM347.89404,119.06259c-0.16598,-0.18955 -1.54062,0.06788 -4.12392,0.77226c-1.0594,-2.20115 -1.78733,-3.16922 -2.18398,-2.90426c-0.39682,0.26499 -0.1969,1.39239 0.59957,3.38226c-1.83096,1.15018 -2.70666,1.89825 -2.62693,2.24442c0.07956,0.34617 1.23741,0.23016 3.47338,-0.34767c1.3713,2.16944 2.22811,3.17618 2.57026,3.02006c0.34232,-0.15612 0.07522,-1.41191 -0.80115,-3.76729c2.22778,-1.41031 3.25875,-2.21024 3.09277,-2.39979zM281.03412,122.40567c-0.16598,-0.18955 -1.54062,0.06786 -4.12392,0.77223c-0.99599,-2.06935 -1.69908,-3.0489 -2.10927,-2.93864c-0.02608,0.00702 -0.05104,0.01846 -0.07489,0.03433c-0.39664,0.26499 -0.19674,1.39239 0.59973,3.38219c-1.83096,1.15032 -2.70666,1.89832 -2.62693,2.24449c0.07956,0.34617 1.23741,0.23016 3.47338,-0.34767c1.3713,2.16949 2.22805,3.17618 2.57026,3.02006c0.34232,-0.15612 0.07522,-1.41191 -0.80115,-3.76723c2.22778,-1.41041 3.25875,-2.21039 3.09277,-2.39977zM298.76587,143.68c2.36551,-1.33703 4.69792,-2.65551 2.76015,-2.86143c-4.81692,-0.51215 -15.90798,0.70537 -25.09386,1.71379c-6.053,0.66442 -11.27894,1.23808 -13.33722,1.1662c-33.21284,-1.15968 -61.07744,24.82442 -62.23727,58.03725c-1.15982,33.213 24.82429,61.07755 58.03729,62.2374c33.21284,1.15985 61.07737,-24.82442 62.23723,-58.03725c0.08842,-2.53082 5.90708,-21.77193 6.45683,-28.01949c0.17317,-1.96853 -1.21535,-0.74231 -2.54235,0.42958c-1.08179,0.95543 -2.1228,1.87475 -2.24365,0.99772c-0.17033,-1.23808 0.3348,-3.95393 0.82237,-6.57567c0.49042,-2.63746 0.96329,-5.17964 0.71256,-6.02541c-0.55577,-1.87492 -3.15078,3.41052 -5.305,7.79804c-1.68053,3.42306 -3.09294,6.29954 -3.05918,4.80305c0.03744,-1.66047 2.52731,-7.61702 4.78065,-13.0076c1.89197,-4.52658 3.61729,-8.65418 3.58353,-9.50347c-0.19674,-4.93995 -3.94273,-0.60492 -7.13362,3.08776c-2.05043,2.37286 -3.87169,4.48045 -4.37448,3.691c-0.57817,-0.90779 -1.43816,0.15913 -2.32288,1.2568c-0.89692,1.11289 -1.81926,2.25703 -2.49889,1.40707c-0.22147,-0.27697 4.77196,-6.48574 9.77208,-12.70272c5.017,-6.23803 10.04069,-12.48425 9.80885,-12.75403c-0.66776,-0.77725 -5.66321,3.58854 -10.67335,7.96703c-4.99979,4.36947 -10.01394,8.75146 -10.75542,8.04709c-0.79898,-0.75869 1.33302,-2.36567 3.42874,-3.9454c2.07266,-1.56252 4.11005,-3.09829 3.24087,-3.76004c-0.2056,-0.15645 -3.46034,0.73228 -6.70153,1.61717c-3.21028,0.87653 -6.40702,1.74939 -6.61479,1.59946c-0.70437,-0.50847 -2.29698,-0.30505 -3.87971,-0.10279c-1.5097,0.19289 -3.01037,0.38461 -3.72377,-0.0433c-1.20498,-0.72292 0.38144,-1.88428 1.89949,-2.99566c1.47292,-1.07862 2.88166,-2.10993 1.61317,-2.64765c-0.99555,-0.42205 1.1876,-1.65612 3.34316,-2.87447zM210.92146,179.4763c1.83631,-11.21291 18.33015,-20.88203 19.74574,-21.45033c0.35269,-0.14175 0.90645,-0.90528 1.63907,-1.91554c2.20805,-3.04514 6.0418,-8.33242 10.89984,-5.5925c1.25446,0.70755 0.45899,6.37058 -0.22164,6.34684c-0.6808,-0.02374 -3.35754,2.76549 -0.14391,4.11823c5.22444,2.19902 9.34602,1.24276 9.79815,5.32205c0.35035,3.16047 -8.1529,12.32028 -8.94853,12.29253c-0.7958,-0.02792 -1.9839,0.35787 -3.77023,1.8913c-1.15517,0.99187 -2.04274,2.30366 -2.74259,3.33781c-0.65723,0.97147 -1.14866,1.69791 -1.54078,1.6842c-0.5205,-0.01822 -0.95309,-0.13255 -1.37347,-0.24371c-0.80717,-0.21345 -1.57037,-0.4152 -2.82901,0.09695c-1.38216,0.56246 -3.28583,0.0229 -5.2022,-0.52034c-2.04407,-0.57951 -4.10236,-1.16286 -5.55739,-0.41737c-2.60369,1.33419 -5.21942,8.84724 -3.66091,10.54297c1.23457,2.09455 1.08179,6.46602 3.57249,10.03334c5.17228,-2.07115 17.35834,-2.87414 20.71705,3.37057c3.31826,6.16934 3.96613,22.74207 1.53594,24.72614c-2.43003,1.9839 -4.7509,5.44524 -5.63529,6.91432c-0.82923,1.37731 6.60609,10.06543 7.55701,10.62354l0.04814,0.02257l-0.02792,0.01337c-1.93693,0.58954 -21.08662,-10.77949 -20.99218,-13.48648c-0.3104,-2.11578 -1.20064,-4.91621 -2.04307,-7.56621c-0.93938,-2.95521 -1.81943,-5.72338 -1.76978,-7.14682c0.09427,-2.70014 -1.47961,-4.16838 -5.09606,-7.4604c-2.23513,-2.03472 -1.67885,-2.37369 -0.91013,-2.84238c0.47504,-0.28967 1.03132,-0.62882 1.0599,-1.44819c0.04814,-1.37731 0.26142,-2.40562 0.44345,-3.28399c0.29468,-1.42111 0.5078,-2.44941 -0.19155,-3.92819c-4.60381,-9.7343 -5.95805,-12.50431 -5.92713,-15.25861c0.02257,-2.02 0.79011,-4.03165 1.56703,-8.7757zM298.16012,161.86088c-1.18275,1.20248 -2.38272,2.42234 -1.78316,2.90372c0.59138,0.47487 5.24884,-2.77569 9.88056,-6.00853c4.60113,-3.21145 9.1772,-6.40535 9.71625,-5.91142c0.22314,0.20443 -3.44094,4.30461 -7.08147,8.37822c-3.59104,4.01845 -7.15903,8.01099 -6.95043,8.21341c1.19813,1.16236 1.54747,2.69613 3.07171,2.86545c0.56246,0.06252 1.83314,-0.56865 3.07539,-1.18593c1.42796,-0.70955 2.81882,-1.40055 3.05399,-0.99805c0.14676,0.25106 -0.94189,1.75791 -2.01499,3.24354c-1.03834,1.43732 -2.06229,2.85475 -1.93928,3.09561c2.44273,4.78533 1.50769,7.61384 -2.80477,8.48536c7.82997,2.50508 10.81041,6.36089 8.94118,11.5676c-1.86907,5.20672 -4.98858,5.33793 -9.35872,0.39381c-2.27207,-4.29942 -3.45248,-5.17479 -3.5414,-2.62609c-0.13355,3.82305 10.71798,12.68049 10.71798,12.68049c-3.46284,33.82862 -19.80809,39.73619 -20.26307,39.97037l-0.22465,-0.57382c-2.46797,-6.32161 -1.22755,-5.48318 -3.00017,-10.71013c-1.25763,-3.70839 -2.70248,-6.77959 -2.86696,-10.71096c-0.26861,-6.42373 -2.50825,-8.6134 -6.71842,-6.56899c-2.15523,1.84433 -5.39743,2.19919 -9.72661,1.06441c-6.4936,-1.70225 -10.26668,-13.58694 -3.5404,-26.39529c4.48418,-8.5389 11.58014,-10.33649 21.28787,-5.39275c5.8016,-0.65807 8.72606,-1.66849 8.77369,-3.03109c-0.47069,-1.61935 -8.48486,-5.24399 -10.53879,-3.04096c-1.36929,1.46858 -3.75001,0.62731 -7.14214,-2.52413c-5.6666,4.6744 -9.45862,6.40172 -11.37605,5.18198c-0.25886,-0.1647 -0.48356,-0.38311 -0.67412,-0.65523c-1.34004,-1.91353 -0.1043,-2.21306 1.64409,-2.63679c1.38684,-0.33614 3.09628,-0.75034 4.09901,-2.1101c0.33497,-0.45431 0.21329,-0.98685 0.08608,-1.54463c-0.12369,-0.54156 -0.2529,-1.10704 0.02541,-1.64793c1.3591,-2.64247 3.20226,-1.60665 3.73596,-4.28806c0.1837,-0.92267 -0.09946,-1.11857 -0.48958,-1.38868c-0.57583,-0.39848 -1.38467,-0.95844 -1.2695,-4.25463c0.10832,-3.10414 2.8469,-2.92328 5.67056,-2.73691c2.20588,0.14559 4.46357,0.29468 5.5604,-1.11606c0.47571,-0.61211 -1.46708,-1.72415 -3.32896,-2.78973c-2.57812,-1.47576 -5.00096,-2.8626 -0.63116,-2.71c0.43726,0.01538 0.94975,0.01554 1.51772,0.01571c2.9059,0.00083 7.26617,0.00218 10.48163,2.0307c0.74984,0.47303 6.87872,0.15796 7.63156,0.68331c0.6116,0.42657 -0.53906,1.59645 -1.70627,2.78321zM267.63371,162.75847c-0.39147,-0.15294 -0.73044,-0.28549 -0.58787,-0.42506c0.54123,-0.53054 2.23797,-1.57421 3.14844,-0.64303c0.49109,0.50212 0.48607,1.60497 0.48089,2.72505c-0.00167,0.33982 -0.00317,0.68113 0.00902,1.00774c0.90378,0.37057 0.58703,1.49064 0.30455,1.93276c-0.88105,1.37865 -4.15083,0.24638 -5.00915,-0.39097c-0.23735,-0.17635 0.19857,-0.54291 0.74399,-1.00189c0.60024,-0.50496 1.33319,-1.12141 1.44819,-1.7188c0.04245,-0.21981 -0.22682,-0.26025 -0.44445,-0.29301c-0.15645,-0.0234 -0.28633,-0.04296 -0.25507,-0.12219c0.05148,-0.13038 0.3104,-0.18604 0.56096,-0.23969c0.28131,-0.06034 0.55176,-0.11851 0.50646,-0.27747c-0.06401,-0.22431 -0.51164,-0.39932 -0.90595,-0.55343zM262.56724,164.08096l1.40389,-1.49048l1.26883,1.58392l-1.39988,2.16726zM347.89404,179.2366c-0.16598,-0.18955 -1.54062,0.06786 -4.12392,0.77223c-1.0594,-2.2012 -1.78733,-3.16933 -2.18398,-2.90423c-0.39682,0.26493 -0.1969,1.39235 0.59957,3.38211c-1.83096,1.15032 -2.70666,1.89832 -2.62693,2.24449c0.07956,0.34617 1.23741,0.23016 3.47338,-0.34767c1.3713,2.16944 2.22811,3.17618 2.57026,3.02006c0.34232,-0.15612 0.07522,-1.41191 -0.80115,-3.76723c2.22778,-1.41041 3.25875,-2.21039 3.09277,-2.39977z" data-paper-data="{&quot;isPathIcon&quot;:true}"></path></g></g></g></svg>
