<svg xmlns:mydata="http://www.w3.org/2000/svg" mydata:contrastcolor="ffffff" mydata:template="InvertedHex2" mydata:presentation="2.5" mydata:layouttype="undefined" mydata:specialfontid="undefined" mydata:id1="004" mydata:id2="1016" mydata:companyname="Hellorge.inc" style="background-color: #000" mydata:companytagline="Weapon Of Hell" version="1.1" xmlns="http://www.w3.org/2000/svg" xmlns:xlink="http://www.w3.org/1999/xlink" viewBox="0 0 550 470"><g fill="none" fill-rule="none" stroke="none" stroke-width="1" stroke-linecap="butt" stroke-linejoin="miter" stroke-miterlimit="10" stroke-dasharray="" stroke-dashoffset="0" font-family="none" font-weight="none" font-size="none" text-anchor="none" style="mix-blend-mode: normal"><g data-paper-data="{&quot;isGlobalGroup&quot;:true,&quot;bounds&quot;:{&quot;x&quot;:120.71885042196351,&quot;y&quot;:115.00000000000001,&quot;width&quot;:308.562299156073,&quot;height&quot;:240}}"><g data-paper-data="{&quot;isSecondaryText&quot;:true}" fill="#ffffff" fill-rule="nonzero"><path d="M205.19013,341.38507c0.07893,-2.72299 1.10498,-4.04502 2.07184,-4.57777c0.45383,-0.25651 0.88793,-0.35517 1.2431,-0.35517c0.47356,0 0.809,0.15785 0.94713,0.31571c0.0592,0.0592 0.13812,0.19732 0.11839,0.51303c-0.01973,0.33544 -0.13812,0.78927 -0.35517,1.46015c-0.47356,1.36149 -1.32203,3.23601 -2.36781,5.82088c-0.61169,1.49962 -1.16418,3.0387 -1.44042,4.63697c-0.27625,1.69693 -0.21705,4.10421 2.07184,4.67643c0.25651,0.0592 0.53276,0.09866 0.78927,0.09866c2.22969,0 4.55804,-2.15076 5.91954,-3.82797c0.71034,0.92739 1.85479,1.34176 2.99923,1.34176c5.56436,0 10.55651,-10.51704 12.52969,-14.81857c0.27625,-0.61169 -0.23678,-1.10498 -0.74981,-1.10498c-0.27625,0 -0.53276,0.11839 -0.69061,0.45383c-1.61801,3.53199 -6.55095,13.89118 -11.08927,13.89118c-0.78927,0 -1.59827,-0.29598 -1.95345,-1.04578c2.20996,-2.90057 4.61724,-6.94559 5.24866,-9.68831c0.15785,-0.63142 0.21705,-1.22337 0.11839,-1.69693c-0.13812,-0.63142 -0.61169,-1.16418 -1.28257,-1.16418c-2.22969,0 -4.26207,4.61724 -4.91322,6.37337c-0.67088,1.81532 -1.12471,3.68984 -1.00632,5.24866c0.01973,0.19732 0.03946,0.39464 0.07893,0.59195c-1.16418,1.44042 -3.31494,3.86743 -5.18946,3.86743c-0.15785,0 -0.29598,-0.01973 -0.4341,-0.0592c-0.82874,-0.19732 -1.18391,-1.06552 -0.88793,-2.88084c0.25651,-1.47988 0.78927,-2.90057 1.34176,-4.30153c1.06552,-2.62433 1.91398,-4.51858 2.38755,-5.8998c0.25651,-0.69061 0.41437,-1.34176 0.45383,-1.89425c0.01973,-0.59195 -0.09866,-1.16418 -0.49329,-1.63774c-0.49329,-0.57222 -1.28257,-0.84847 -2.1113,-0.84847c-0.69061,0 -1.42069,0.19732 -2.07184,0.55249c-1.53908,0.88793 -2.76245,2.78218 -2.86111,5.8998c-0.01973,0.55249 0.3749,0.82874 0.78927,0.82874c0.3749,0 0.76954,-0.25651 0.78927,-0.76954zM215.03629,346.4364c0.29598,-2.44674 2.13103,-7.06398 4.02528,-8.42547c0,2.13103 -2.82165,6.68908 -4.02528,8.42547z" data-paper-data="{&quot;glyphName&quot;:&quot;W&quot;,&quot;glyphIndex&quot;:0,&quot;firstGlyphOfWord&quot;:true,&quot;word&quot;:1}"></path><path d="M231.05851,349.86973c2.22969,-0.11839 4.2818,-1.42069 5.70249,-3.13735c0.49329,-0.59195 -0.03946,-1.3023 -0.63142,-1.3023c-0.19732,0 -0.41437,0.07893 -0.59195,0.29598c-1.18391,1.46015 -2.90057,2.56513 -4.83429,2.56513c-1.63774,0 -2.62433,-0.96686 -2.50594,-2.50594c0.39464,0.03946 0.78927,0.0592 1.14444,0.0592c2.72299,0 4.40019,-1.00632 5.03161,-2.42701c0.71034,-1.63774 -0.25651,-3.61092 -2.26916,-3.63065c-1.71667,-0.01973 -3.72931,1.38123 -4.81456,3.57145c-1.59827,3.25575 -0.21705,6.53122 3.39387,6.53122c0.11839,0 0.23678,-0.01973 0.3749,-0.01973zM232.08456,341.36533c0.73008,0 1.16418,0.67088 0.82874,1.42069c-0.27625,0.61169 -1.22337,1.47988 -3.57145,1.47988c-0.21705,0 -0.45383,0 -0.71034,-0.01973c0.69061,-1.47988 2.07184,-2.90057 3.45306,-2.88084z" data-paper-data="{&quot;glyphName&quot;:&quot;e&quot;,&quot;glyphIndex&quot;:1,&quot;word&quot;:1}"></path><path d="M235.18245,347.64004c0.09866,1.53908 1.12471,2.26916 2.6046,2.26916c1.14444,-0.0592 2.13103,-0.61169 2.9795,-1.38123c0.19732,0.78927 0.8682,1.22337 1.65747,1.22337c1.57854,0 3.51226,-1.57854 4.69617,-3.01896c0.49329,-0.59195 -0.03946,-1.3023 -0.63142,-1.3023c-0.19732,0 -0.41437,0.07893 -0.59195,0.29598c-1.2431,1.51935 -2.78218,2.40728 -3.49253,2.40728c-0.03946,0 -0.07893,-0.01973 -0.11839,-0.01973c-0.01973,-0.03946 -0.01973,-0.09866 -0.01973,-0.19732c0.01973,-0.63142 0.35517,-1.51935 0.84847,-2.46647c0.03946,-0.03946 0.15785,-0.25651 0.17759,-0.31571c0.07893,-0.15785 0.17759,-0.31571 0.25651,-0.47356c0.03946,-0.03946 0.07893,-0.07893 0.09866,-0.13812c0.01973,-0.03946 0.03946,-0.07893 0.0592,-0.11839c0.78927,-1.32203 1.71667,-2.58486 2.24942,-3.23601c0.49329,-0.59195 -0.03946,-1.3023 -0.61169,-1.3023c-0.21705,0 -0.4341,0.09866 -0.61169,0.31571c-0.17759,0.21705 -0.39464,0.49329 -0.63142,0.78927c-0.35517,-0.74981 -1.10498,-1.02605 -1.89425,-1.02605c-2.15076,0 -4.2818,2.09157 -5.36705,3.51226c-1.10498,1.44042 -1.71667,2.95977 -1.65747,4.18314zM238.10275,344.42376c0.8682,-1.14444 2.62433,-2.90057 4.16341,-2.90057c0.4341,0.01973 0.51303,0.13812 0.51303,0.49329c0,0.49329 -0.21705,1.12471 -0.49329,1.65747c-0.17759,0.31571 -0.33544,0.61169 -0.49329,0.90766c-0.809,1.36149 -2.34808,3.74904 -4.14368,3.74904c-0.65115,0 -0.84847,-0.27625 -0.88793,-0.76954c-0.03946,-0.71034 0.33544,-1.83506 1.34176,-3.13735z" data-paper-data="{&quot;glyphName&quot;:&quot;a&quot;,&quot;glyphIndex&quot;:2,&quot;word&quot;:1}"></path><path d="M242.93704,354.5659c0.98659,-1.93372 2.20996,-4.26207 3.47279,-6.57069c0.35517,0.94713 1.10498,1.6772 2.28889,1.83506c0.01973,0 0.01973,0 0.03946,0c0.07893,0 0.15785,0.01973 0.23678,0.01973c0.29598,0.01973 0.59195,0.03946 0.8682,0.03946c2.82165,0 5.20919,-1.06552 6.92586,-3.15709c0.49329,-0.61169 -0.03946,-1.3023 -0.63142,-1.3023c-0.19732,0 -0.41437,0.07893 -0.59195,0.29598c-0.8682,1.04578 -1.93372,1.79559 -3.19655,2.20996c0.39464,-0.53276 0.74981,-1.12471 1.04578,-1.7364c0.73008,-1.55881 1.04578,-3.07816 0.84847,-4.26207c-0.17759,-1.16418 -0.92739,-2.1113 -2.19023,-2.1113c-0.11839,0 -0.21705,0 -0.33544,0.01973c-0.4341,0.03946 -0.84847,0.19732 -1.26283,0.39464c-0.15785,-0.23678 -0.4341,-0.39464 -0.73008,-0.39464c-0.23678,0 -0.47356,0.09866 -0.65115,0.3749c-2.24942,3.57145 -5.42624,9.53045 -7.53754,13.63467c-0.33544,0.61169 0.19732,1.14444 0.71034,1.14444c0.25651,0 0.53276,-0.11839 0.69061,-0.4341zM248.28436,344.62108c0.03946,-0.03946 0.0592,-0.07893 0.09866,-0.13812c0.65115,-1.16418 2.30862,-2.94004 3.51226,-3.07816c0.57222,0 0.71034,0.23678 0.78927,0.78927c0.11839,0.74981 -0.0592,1.93372 -0.73008,3.31494c-0.88793,1.89425 -1.95345,2.76245 -2.86111,2.76245c-0.0592,0 -0.11839,-0.01973 -0.17759,-0.01973c-0.88793,-0.09866 -1.65747,-1.28257 -0.8682,-3.11762c0.01973,-0.0592 0.03946,-0.13812 0.0592,-0.19732c0.0592,-0.09866 0.11839,-0.21705 0.17759,-0.31571z" data-paper-data="{&quot;glyphName&quot;:&quot;p&quot;,&quot;glyphIndex&quot;:3,&quot;word&quot;:1}"></path><path d="M257.63722,349.43564c0.35517,0.09866 0.69061,0.13812 1.02605,0.13812c1.08525,0 2.09157,-0.47356 2.95977,-1.16418c0.03946,0.01973 0.09866,0.03946 0.15785,0.03946c0.31571,0.07893 0.65115,0.13812 1.00632,0.13812c1.18391,0 2.48621,-0.51303 3.68984,-1.83506c0.53276,-0.57222 0,-1.32203 -0.59195,-1.32203c-0.19732,0 -0.39464,0.07893 -0.57222,0.27625c-0.82874,0.90766 -1.6772,1.2431 -2.36781,1.3023c0.45383,-0.63142 0.82874,-1.28257 1.04578,-1.87452c0.35517,-0.90766 0.55249,-2.03237 0.35517,-2.9795c-0.15785,-0.82874 -0.65115,-1.51935 -1.49962,-1.79559c-0.11839,-0.23678 -0.33544,-0.39464 -0.67088,-0.41437c-2.36781,0 -4.79482,2.01264 -5.97873,3.94636c-1.59827,2.58486 -0.74981,4.91322 1.44042,5.54463zM261.97822,341.79943c0.51303,0 0.73008,0.21705 0.82874,0.67088c0.11839,0.55249 0,1.36149 -0.27625,2.09157c-0.27625,0.73008 -0.71034,1.40096 -1.22337,1.97318c-1.75613,-1.3023 -0.3749,-4.73563 0.67088,-4.73563zM257.53857,344.71974c0.39464,-0.65115 0.94713,-1.26283 1.51935,-1.77586c-0.33544,1.55881 0.01973,3.4136 1.10498,4.55804c-0.51303,0.31571 -1.04578,0.47356 -1.55881,0.47356c-0.17759,0 -0.35517,-0.01973 -0.53276,-0.0592c-0.92739,-0.27625 -1.71667,-1.26283 -0.53276,-3.19655z" data-paper-data="{&quot;glyphName&quot;:&quot;o&quot;,&quot;glyphIndex&quot;:4,&quot;word&quot;:1}"></path><path d="M265.05638,349.61322c0.29598,-0.67088 0.78927,-1.63774 1.42069,-2.74272c0.01973,-0.03946 0.03946,-0.0592 0.0592,-0.09866c0.03946,-0.09866 0.09866,-0.17759 0.13812,-0.25651c0.09866,-0.17759 0.19732,-0.33544 0.27625,-0.49329c0.92739,-1.55881 3.17682,-4.63697 5.24866,-4.63697c0.31571,0 0.45383,0.11839 0.51303,0.27625c0.07893,0.27625 0.07893,1.10498 -0.92739,2.94004c-0.74981,1.38123 -1.12471,2.46647 -1.08525,3.31494c0.03946,1.16418 0.8682,1.81532 1.97318,1.81532c1.69693,0 3.59119,-1.55881 4.79482,-2.99923c0.49329,-0.59195 -0.03946,-1.3023 -0.63142,-1.3023c-0.19732,0 -0.41437,0.07893 -0.59195,0.29598c-1.22337,1.49962 -2.70326,2.42701 -3.57145,2.42701c-0.0592,0 -0.11839,-0.01973 -0.17759,-0.01973c-0.17759,-0.03946 -0.21705,-0.0592 -0.21705,-0.27625c-0.01973,-0.39464 0.17759,-1.16418 0.88793,-2.48621c2.1113,-3.86743 0.94713,-5.48544 -0.90766,-5.56436c-0.809,0 -1.47988,0.19732 -2.19023,0.61169c-0.11839,-0.33544 -0.45383,-0.57222 -0.78927,-0.57222c-0.23678,0 -0.47356,0.11839 -0.65115,0.3749c-0.25651,0.39464 -3.53199,5.72222 -3.53199,5.8998c-0.65115,1.12471 -1.16418,2.15076 -1.47988,2.86111c-0.27625,0.63142 0.23678,1.10498 0.74981,1.10498c0.27625,0 0.55249,-0.13812 0.69061,-0.47356z" data-paper-data="{&quot;glyphName&quot;:&quot;n&quot;,&quot;glyphIndex&quot;:5,&quot;lastGlyphOfWord&quot;:true,&quot;word&quot;:1}"></path><path d="M286.95866,354.38831c0.15785,0 0.33544,0.01973 0.51303,0.01973c2.24942,0 5.16973,-0.92739 7.55728,-5.11053c1.22337,-2.1705 2.13103,-4.91322 2.19023,-7.2021c0.03946,-1.89425 -0.55249,-3.76877 -2.28889,-4.45938c0.23678,-0.35517 0.19732,-0.90766 -0.33544,-1.18391c-1.00632,-0.51303 -1.97318,-0.71034 -2.90057,-0.71034c-1.51935,0 -2.9203,0.53276 -4.18314,1.02605c-0.96686,0.39464 -1.91398,0.82874 -2.84138,1.06552c-0.45383,0.11839 -0.8682,0.17759 -1.28257,0.17759c-0.39464,0 -0.74981,-0.0592 -1.12471,-0.19732c-0.09866,-0.03946 -0.19732,-0.0592 -0.29598,-0.0592c-0.809,0 -1.14444,1.2431 -0.23678,1.55881c0.55249,0.19732 1.08525,0.27625 1.61801,0.27625c0.59195,0 1.16418,-0.09866 1.71667,-0.23678c0.03946,0 0.09866,-0.01973 0.15785,-0.03946c-1.32203,1.26283 -2.50594,2.90057 -3.31494,4.99214c-2.1113,5.48544 0.07893,9.7475 5.05134,10.08294zM283.38721,344.87759c1.71667,-4.45938 5.18946,-6.45229 7.75459,-7.02452c-1.6772,0.78927 -2.99923,2.56513 -3.0387,5.34731c-0.01973,0.53276 0.39464,0.78927 0.78927,0.78927c0.39464,0 0.78927,-0.25651 0.78927,-0.76954c0.0592,-3.05843 1.95345,-4.30153 3.63065,-4.30153c0.07893,0 0.17759,0.01973 0.25651,0.01973c1.44042,0.09866 2.1113,1.14444 2.07184,3.11762c-0.03946,1.97318 -0.84847,4.45938 -1.99291,6.45229c-2.05211,3.61092 -4.40019,4.32126 -6.13659,4.32126c-0.15785,0 -0.31571,-0.01973 -0.45383,-0.01973c-3.57145,-0.23678 -5.54463,-3.09789 -3.67011,-7.93218z" data-paper-data="{&quot;glyphName&quot;:&quot;O&quot;,&quot;glyphIndex&quot;:6,&quot;firstGlyphOfWord&quot;:true,&quot;word&quot;:2}"></path><path d="M296.39046,351.88238c1.36149,-2.50594 2.78218,-4.91322 3.27548,-5.76168c1.32203,-2.32835 2.30862,-4.30153 3.96609,-7.16264c0.01973,-0.03946 0.0592,-0.09866 0.07893,-0.13812c0.27625,0 0.57222,0 1.04578,-0.01973c1.00632,-0.03946 0.98659,-1.49962 0.03946,-1.57854c0.33544,-0.51303 1.10498,-0.94713 1.71667,-0.94713c0.13812,0 0.25651,0.01973 0.39464,0.03946c0.07893,0.01973 0.13812,0.01973 0.21705,0.01973c0.84847,0 1.08525,-1.34176 0.13812,-1.55881c-0.25651,-0.0592 -0.51303,-0.07893 -0.74981,-0.07893c-1.61801,0 -2.88084,1.22337 -3.67011,2.52567c-0.23678,0 -0.53276,0 -0.92739,0c-1.06552,0 -1.04578,1.57854 0,1.57854c-1.46015,2.52567 -2.40728,4.38046 -3.63065,6.53122c-0.47356,0.84847 -1.93372,3.29521 -3.27548,5.80115c-0.33544,0.61169 0.19732,1.16418 0.73008,1.16418c0.23678,0 0.49329,-0.11839 0.65115,-0.41437z" data-paper-data="{&quot;glyphName&quot;:&quot;f&quot;,&quot;glyphIndex&quot;:7,&quot;lastGlyphOfWord&quot;:true,&quot;word&quot;:2}"></path><path d="M309.21612,354.25019c1.32203,-2.42701 3.98582,-7.04425 5.0908,-8.97796c0.8682,0.13812 1.7364,0.23678 2.6046,0.23678c1.53908,0 3.15709,-0.25651 4.59751,-0.809c-1.00632,1.7364 -1.93372,3.29521 -3.19655,5.62356c-0.33544,0.63142 0.19732,1.18391 0.73008,1.18391c0.25651,0 0.51303,-0.13812 0.67088,-0.4341c1.34176,-2.48621 2.30862,-4.12394 3.39387,-6.0182c0.23678,-0.39464 0.65115,-1.14444 1.18391,-2.07184c0.0592,-0.0592 0.09866,-0.11839 0.11839,-0.19732c1.12471,-1.95345 2.64406,-4.57777 3.72931,-6.45229c0.3749,-0.63142 -0.17759,-1.18391 -0.71034,-1.18391c-0.23678,0 -0.49329,0.11839 -0.65115,0.39464c-1.08525,1.87452 -2.62433,4.51858 -3.74904,6.47203c-1.46015,1.26283 -3.80824,1.91398 -6.11685,1.91398c-0.57222,0 -1.14444,-0.03946 -1.69693,-0.11839c-0.01973,0 -0.03946,0 -0.0592,0c0.3749,-0.67088 0.74981,-1.32203 1.12471,-1.97318c0.51303,-0.88793 1.12471,-1.97318 1.49962,-2.9795c0.33544,-0.88793 0.65115,-2.15076 -0.09866,-3.01896c-0.45383,-0.53276 -1.12471,-0.74981 -1.89425,-0.74981c-2.50594,0 -5.99846,2.42701 -6.41283,5.0908c-0.3749,2.34808 1.28257,3.8477 3.37414,4.63697c-1.20364,2.1113 -3.67011,6.37337 -4.91322,8.68199c-0.35517,0.63142 0.17759,1.18391 0.71034,1.18391c0.25651,0 0.51303,-0.13812 0.67088,-0.4341zM310.93279,340.41821c0.39464,-2.5454 3.59119,-3.70958 4.97241,-3.70958c0.29598,0 0.51303,0.0592 0.59195,0.15785c0.07893,0.09866 0.17759,0.47356 -0.19732,1.44042c-0.31571,0.84847 -0.8682,1.83506 -1.38123,2.74272c-0.53276,0.90766 -1.00632,1.75613 -1.38123,2.38755c-1.87452,-0.61169 -2.80191,-1.7364 -2.6046,-3.01896z" data-paper-data="{&quot;glyphName&quot;:&quot;H&quot;,&quot;glyphIndex&quot;:8,&quot;firstGlyphOfWord&quot;:true,&quot;word&quot;:3}"></path><path d="M329.52013,349.86973c2.22969,-0.11839 4.2818,-1.42069 5.70249,-3.13735c0.49329,-0.59195 -0.03946,-1.3023 -0.63142,-1.3023c-0.19732,0 -0.41437,0.07893 -0.59195,0.29598c-1.18391,1.46015 -2.90057,2.56513 -4.83429,2.56513c-1.63774,0 -2.62433,-0.96686 -2.50594,-2.50594c0.39464,0.03946 0.78927,0.0592 1.14444,0.0592c2.72299,0 4.40019,-1.00632 5.03161,-2.42701c0.71034,-1.63774 -0.25651,-3.61092 -2.26916,-3.63065c-1.71667,-0.01973 -3.72931,1.38123 -4.81456,3.57145c-1.59827,3.25575 -0.21705,6.53122 3.39387,6.53122c0.11839,0 0.23678,-0.01973 0.3749,-0.01973zM330.54618,341.36533c0.73008,0 1.16418,0.67088 0.82874,1.42069c-0.27625,0.61169 -1.22337,1.47988 -3.57145,1.47988c-0.21705,0 -0.45383,0 -0.71034,-0.01973c0.69061,-1.47988 2.07184,-2.90057 3.45306,-2.88084z" data-paper-data="{&quot;glyphName&quot;:&quot;e&quot;,&quot;glyphIndex&quot;:9,&quot;word&quot;:3}"></path><path d="M341.31974,335.80097c0.39464,-0.63142 -0.13812,-1.22337 -0.69061,-1.22337c-0.23678,0 -0.47356,0.11839 -0.65115,0.3749c-2.50594,3.96609 -4.36073,7.67567 -5.18946,9.15555c-0.61169,1.06552 -1.14444,2.20996 -1.32203,3.15709c-0.07893,0.47356 -0.11839,0.98659 0.0592,1.46015c0.27625,0.67088 0.92739,1.02605 1.61801,1.02605c1.57854,0 3.76877,-1.53908 4.99214,-3.0387c0.49329,-0.59195 -0.03946,-1.3023 -0.63142,-1.3023c-0.19732,0 -0.39464,0.07893 -0.57222,0.29598c-0.809,0.98659 -2.58486,2.44674 -3.92663,2.44674c-0.01973,-0.0592 -0.03946,-0.23678 0.01973,-0.59195c0.13812,-0.69061 0.55249,-1.65747 1.12471,-2.68352c0.82874,-1.46015 2.68352,-5.15 5.16973,-9.07662z" data-paper-data="{&quot;glyphName&quot;:&quot;l&quot;,&quot;glyphIndex&quot;:10,&quot;word&quot;:3}"></path><path d="M346.25269,335.80097c0.39464,-0.63142 -0.13812,-1.22337 -0.69061,-1.22337c-0.23678,0 -0.47356,0.11839 -0.65115,0.3749c-2.50594,3.96609 -4.36073,7.67567 -5.18946,9.15555c-0.61169,1.06552 -1.14444,2.20996 -1.32203,3.15709c-0.07893,0.47356 -0.11839,0.98659 0.0592,1.46015c0.27625,0.67088 0.92739,1.02605 1.61801,1.02605c1.57854,0 3.76877,-1.53908 4.99214,-3.0387c0.49329,-0.59195 -0.03946,-1.3023 -0.63142,-1.3023c-0.19732,0 -0.39464,0.07893 -0.57222,0.29598c-0.809,0.98659 -2.58486,2.44674 -3.92663,2.44674c-0.01973,-0.0592 -0.03946,-0.23678 0.01973,-0.59195c0.13812,-0.69061 0.55249,-1.65747 1.12471,-2.68352c0.82874,-1.46015 2.68352,-5.15 5.16973,-9.07662z" data-paper-data="{&quot;glyphName&quot;:&quot;l&quot;,&quot;glyphIndex&quot;:11,&quot;lastGlyphOfWord&quot;:true,&quot;word&quot;:3}"></path></g><g data-paper-data="{&quot;isPrimaryText&quot;:true}" fill="#ffffff" fill-rule="nonzero"><path d="M143.33785,295.98049h-4.40803c-0.80146,0 -1.29124,0.26715 -1.29124,1.29124v10.06278h-9.92921v-10.06278c0,-1.02409 -0.44526,-1.29124 -1.29124,-1.29124h-4.40803c-0.80146,0 -1.29124,0.26715 -1.29124,1.29124v26.71535c0,1.02409 0.48978,1.29124 1.29124,1.29124h4.40803c0.84599,0 1.29124,-0.26715 1.29124,-1.29124v-10.06278h9.92921v10.06278c0,1.02409 0.48978,1.29124 1.29124,1.29124h4.40803c0.80146,0 1.29124,-0.26715 1.29124,-1.29124v-26.71535c0,-1.02409 -0.48978,-1.29124 -1.29124,-1.29124z" data-paper-data="{&quot;glyphName&quot;:&quot;H&quot;,&quot;glyphIndex&quot;:0,&quot;firstGlyphOfWord&quot;:true,&quot;word&quot;:1}"></path><path d="M171.21086,319.08927h-19.68031c-0.80146,0 -1.29124,0.26715 -1.29124,1.29124v3.6511c0,1.02409 0.48978,1.29124 1.29124,1.29124h19.68031c0.80146,0 1.29124,-0.26715 1.29124,-1.29124v-3.6511c0,-1.02409 -0.48978,-1.29124 -1.29124,-1.29124zM168.98458,307.51262h-15.22775c-0.80146,0 -1.29124,0.26715 -1.29124,1.29124v3.6511c0,1.02409 0.48978,1.29124 1.29124,1.29124h15.22775c0.80146,0 1.29124,-0.26715 1.29124,-1.29124v-3.6511c0,-1.02409 -0.48978,-1.29124 -1.29124,-1.29124zM171.21086,296.02502h-19.68031c-0.80146,0 -1.29124,0.26715 -1.29124,1.29124v3.6511c0,1.02409 0.48978,1.29124 1.29124,1.29124h19.68031c0.80146,0 1.29124,-0.26715 1.29124,-1.29124v-3.6511c0,-1.02409 -0.48978,-1.29124 -1.29124,-1.29124z" data-paper-data="{&quot;glyphName&quot;:&quot;ξ&quot;,&quot;glyphIndex&quot;:1,&quot;word&quot;:1}"></path><path d="M197.92621,319.04474h-12.82337v-21.77301c0,-1.02409 -0.48978,-1.29124 -1.29124,-1.29124h-4.40803c-0.80146,0 -1.29124,0.26715 -1.29124,1.29124v26.71535c0,0.80146 0.26715,1.29124 1.29124,1.29124h18.52264c1.02409,0 1.29124,-0.48978 1.29124,-1.29124v-3.6511c0,-0.80146 -0.26715,-1.29124 -1.29124,-1.29124z" data-paper-data="{&quot;glyphName&quot;:&quot;L&quot;,&quot;glyphIndex&quot;:2,&quot;word&quot;:1}"></path><path d="M223.8401,319.04474h-12.82337v-21.77301c0,-1.02409 -0.48978,-1.29124 -1.29124,-1.29124h-4.40803c-0.80146,0 -1.29124,0.26715 -1.29124,1.29124v26.71535c0,0.80146 0.26715,1.29124 1.29124,1.29124h18.52264c1.02409,0 1.29124,-0.48978 1.29124,-1.29124v-3.6511c0,-0.80146 -0.26715,-1.29124 -1.29124,-1.29124z" data-paper-data="{&quot;glyphName&quot;:&quot;L&quot;,&quot;glyphIndex&quot;:3,&quot;word&quot;:1}"></path><path d="M252.95984,305.37539c0,-7.03504 -6.67884,-10.06278 -11.97738,-10.06278c-5.29854,0 -11.88833,3.02774 -11.88833,10.06278v10.50804c0,7.03504 6.58979,10.06278 11.88833,10.06278c5.29854,0 11.97738,-3.02774 11.97738,-10.06278zM245.96932,315.26007c0,2.84964 -2.04818,4.49708 -4.98687,4.49708c-2.89416,0 -4.94234,-1.64745 -4.94234,-4.49708v-9.26132c0,-2.84964 2.04818,-4.49708 4.94234,-4.49708c2.93869,0 4.98687,1.64745 4.98687,4.49708z" data-paper-data="{&quot;glyphName&quot;:&quot;O&quot;,&quot;glyphIndex&quot;:4,&quot;word&quot;:1}"></path><path d="M282.6584,323.85351l-6.27811,-9.12774c2.76059,-0.93504 6.18906,-4.1854 6.18906,-8.86059c0,-2.84964 -0.93504,-5.3876 -2.58248,-6.99052c-1.87007,-1.87007 -4.0073,-2.84964 -8.86059,-2.84964h-11.22045c-1.02409,0 -1.24672,0.48978 -1.24672,1.29124v26.67082c0,1.02409 0.44526,1.29124 1.24672,1.29124h4.40803c0.80146,0 1.29124,-0.26715 1.29124,-1.29124v-21.72849h5.9219c2.31533,0 4.09635,1.46934 4.09635,3.78467c0,2.0927 -2.04818,3.60657 -4.22993,3.60657h-0.89051c-1.02409,0 -1.29124,0.48978 -1.29124,1.29124v3.56205c0,1.24672 0.08905,1.7365 0.48978,2.2708l4.80876,7.16862c0.62336,0.93504 1.15767,1.33577 2.22628,1.33577h5.25402c0.84599,0 1.06861,-0.80146 0.66788,-1.42482z" data-paper-data="{&quot;glyphName&quot;:&quot;R&quot;,&quot;glyphIndex&quot;:5,&quot;word&quot;:1}"></path><path d="M310.08616,308.93743h-9.7511c-1.02409,0 -1.29124,0.48978 -1.29124,1.29124v3.473c0,0.80146 0.26715,1.29124 1.29124,1.29124h4.0073c0,3.42847 -2.04818,4.76424 -4.94234,4.76424c-2.93869,0 -4.89781,-1.64745 -4.89781,-4.49708v-8.94964c0,-2.84964 1.95913,-4.80876 4.89781,-4.80876c2.98321,0 4.58614,1.33577 5.07592,2.71606c0.22263,0.62336 0.04453,1.51387 1.29124,1.51387h4.31898c1.02409,0 1.29124,-0.1781 1.29124,-1.24672c0,-5.96643 -6.41168,-9.17227 -11.97738,-9.17227c-5.25402,0 -11.97738,2.98321 -11.97738,10.01826v10.95329c0,6.99052 6.72336,9.66205 11.97738,9.66205c5.07592,0 11.57665,-2.84964 11.97738,-9.26132v-6.45621c0,-0.80146 -0.26715,-1.29124 -1.29124,-1.29124z" data-paper-data="{&quot;glyphName&quot;:&quot;G&quot;,&quot;glyphIndex&quot;:6,&quot;word&quot;:1}"></path><path d="M337.06866,319.08927h-19.68031c-0.80146,0 -1.29124,0.26715 -1.29124,1.29124v3.6511c0,1.02409 0.48978,1.29124 1.29124,1.29124h19.68031c0.80146,0 1.29124,-0.26715 1.29124,-1.29124v-3.6511c0,-1.02409 -0.48978,-1.29124 -1.29124,-1.29124zM334.84239,307.51262h-15.22775c-0.80146,0 -1.29124,0.26715 -1.29124,1.29124v3.6511c0,1.02409 0.48978,1.29124 1.29124,1.29124h15.22775c0.80146,0 1.29124,-0.26715 1.29124,-1.29124v-3.6511c0,-1.02409 -0.48978,-1.29124 -1.29124,-1.29124zM337.06866,296.02502h-19.68031c-0.80146,0 -1.29124,0.26715 -1.29124,1.29124v3.6511c0,1.02409 0.48978,1.29124 1.29124,1.29124h19.68031c0.80146,0 1.29124,-0.26715 1.29124,-1.29124v-3.6511c0,-1.02409 -0.48978,-1.29124 -1.29124,-1.29124z" data-paper-data="{&quot;glyphName&quot;:&quot;ξ&quot;,&quot;glyphIndex&quot;:7,&quot;word&quot;:1}"></path><path d="M349.44678,317.7535h-4.94234c-0.80146,0 -1.29124,0.26715 -1.29124,1.29124v4.94234c0,1.02409 0.48978,1.29124 1.29124,1.29124h4.94234c0.80146,0 1.29124,-0.26715 1.29124,-1.29124v-4.94234c0,-1.02409 -0.48978,-1.29124 -1.29124,-1.29124z" data-paper-data="{&quot;glyphName&quot;:&quot;.&quot;,&quot;glyphIndex&quot;:8,&quot;word&quot;:1}"></path><path d="M369.30519,319.17832h-2.80511v-17.00877h2.67154c1.02409,0 1.29124,-0.48978 1.29124,-1.29124v-3.60657c0,-0.80146 -0.26715,-1.29124 -1.29124,-1.29124h-12.37811c-1.02409,0 -1.29124,0.48978 -1.29124,1.29124v3.60657c0,0.80146 0.26715,1.29124 1.29124,1.29124h2.71606v17.00877h-2.80511c-1.02409,0 -1.29124,0.48978 -1.29124,1.29124v3.51752c0,0.80146 0.26715,1.29124 1.29124,1.29124h12.60074c1.02409,0 1.29124,-0.48978 1.29124,-1.29124v-3.51752c0,-0.80146 -0.26715,-1.29124 -1.29124,-1.29124z" data-paper-data="{&quot;glyphName&quot;:&quot;I&quot;,&quot;glyphIndex&quot;:9,&quot;word&quot;:1}"></path><path d="M398.82565,295.98049h-4.27446c-0.80146,0 -1.29124,0.26715 -1.29124,1.29124v15.45038l-9.43942,-15.22775c-0.57883,-0.89051 -0.89051,-1.51387 -2.00365,-1.51387h-4.1854c-1.02409,0 -1.29124,0.48978 -1.29124,1.29124v26.71535c0,1.02409 0.48978,1.29124 1.29124,1.29124h4.40803c0.80146,0 1.29124,-0.26715 1.29124,-1.29124v-15.4949l9.43942,15.27228c0.57883,0.89051 0.89051,1.51387 2.00365,1.51387h4.05183c1.02409,0 1.29124,-0.48978 1.29124,-1.29124v-26.71535c0,-1.02409 -0.48978,-1.29124 -1.29124,-1.29124z" data-paper-data="{&quot;glyphName&quot;:&quot;N&quot;,&quot;glyphIndex&quot;:10,&quot;word&quot;:1}"></path><path d="M429.28115,316.59583c0,-1.06861 -0.3562,-1.51387 -1.33577,-1.51387h-4.36351c-0.97956,0 -1.06861,0.71241 -1.20219,1.60292c-0.3562,2.13723 -2.2708,3.02774 -4.67519,3.02774c-2.93869,0 -4.94234,-1.60292 -4.94234,-4.45256v-9.26132c0,-2.80511 2.00365,-4.45256 4.94234,-4.45256c2.40438,0 3.6511,0.66788 4.58614,2.13723c0.3562,0.53431 0.40073,1.38029 1.33577,1.38029h4.27446c1.02409,0 1.38029,-0.22263 1.38029,-1.29124c-0.57883,-5.65475 -6.05548,-8.45986 -11.57665,-8.45986c-5.29854,0 -11.93286,3.07227 -11.93286,10.06278v10.50804c0,6.99052 6.63431,10.06278 11.93286,10.06278c5.52117,0 11.57665,-3.60657 11.57665,-9.35037z" data-paper-data="{&quot;glyphName&quot;:&quot;C&quot;,&quot;glyphIndex&quot;:11,&quot;lastGlyphOfWord&quot;:true,&quot;word&quot;:1}"></path></g><g data-paper-data="{&quot;isIcon&quot;:&quot;true&quot;,&quot;iconType&quot;:&quot;icon&quot;,&quot;rawIconId&quot;:&quot;614813&quot;,&quot;selectedEffects&quot;:{&quot;container&quot;:&quot;&quot;,&quot;transformation&quot;:&quot;&quot;,&quot;pattern&quot;:&quot;&quot;},&quot;combineTerms&quot;:&quot;Bomb&quot;,&quot;isDetailed&quot;:false,&quot;fillRule&quot;:&quot;evenodd&quot;,&quot;bounds&quot;:{&quot;x&quot;:217.34136362501323,&quot;y&quot;:115.00000000000001,&quot;width&quot;:115.31727274997354,&quot;height&quot;:152.7978829201246},&quot;iconStyle&quot;:&quot;standalone&quot;,&quot;suitableAsStandaloneIcon&quot;:true}" fill="#ffffff" fill-rule="evenodd"><path d="M317.18438,167.92162l-21.98973,-12.68191l-3.49043,-2.01116v-9.17486c0,-1.96129 -1.61225,-3.57354 -3.59016,-3.57354h-9.77321c0.63161,-9.27458 6.38251,-17.15299 14.14457,-19.06442l-1.57901,-6.41575c-10.65413,2.64275 -18.4993,13.21379 -19.14752,25.48016h-9.90618c-1.96129,0 -3.57354,1.61225 -3.57354,3.57354v9.17486l-25.49679,14.69306l-15.44101,26.75999v30.89865l11.58491,20.09492l3.8561,6.66507l26.75999,15.45764h30.88203l26.75999,-15.45764l15.47425,-26.75999v-30.89865zM241.19265,183.52884c-2.52641,0 -4.58743,-2.0444 -4.58743,-4.58743c0,-2.52641 2.06101,-4.58743 4.58743,-4.58743c2.52641,0 4.58743,2.06101 4.58743,4.58743c0,2.54303 -2.06101,4.58743 -4.58743,4.58743zM301.54391,216.07298l-7.11383,12.33287l-9.64025,5.56807v7.08059h-5.83401v-5.53483h-1.61225v5.53483h-5.85063v-5.53483h-1.62887v5.53483h-5.81739v-7.76206l-8.51001,-4.88661l-7.08059,-12.33287v-14.22768l7.08059,-12.33287l12.33287,-7.11383h14.22768l12.33287,7.11383l7.11383,12.33287zM261.48703,213.71279h-2.70924l-2.39344,1.39618l-1.36293,2.3602v2.70924l1.36293,2.37682l2.39344,1.34631h2.70924l2.3602,-1.34631l1.36293,-2.37682v-2.70924l-1.36293,-2.3602zM291.2222,213.71279h-2.74249l-2.3602,1.39618l-1.36293,2.3602v2.70924l1.36293,2.37682l2.3602,1.34631h2.74249l2.3602,-1.34631l1.36293,-2.37682v-2.70924l-1.36293,-2.3602zM274.78392,221.32525l-4.91985,4.90323v0.03324h9.90618l-2.42668,-2.42668z" data-paper-data="{&quot;isPathIcon&quot;:true}"></path></g></g></g></svg>
